<?xml version="1.0" encoding="utf-8"?>
<!-- Generator: Adobe Illustrator 23.0.3, SVG Export Plug-In . SVG Version: 6.00 Build 0)  -->
<svg version="1.1" xmlns="http://www.w3.org/2000/svg" xmlns:xlink="http://www.w3.org/1999/xlink" x="0px" y="0px"
	 viewBox="0 0 1600 1200" style="enable-background:new 0 0 1600 1200;" xml:space="preserve">
<style type="text/css">
	.st0{fill:#FFFFFF;}
	.st1{fill:none;stroke:#000000;stroke-miterlimit:10;}
	.st2{stroke:#000000;stroke-miterlimit:10;}
	.st3{fill:#FFFFFF;stroke:#FFFFFF;stroke-miterlimit:10;}
</style>
<g id="laptop">
	<path class="st0" d="M811.1,799.3c4.6-3.2,9.2-6.5,13.8-9.7c-17-7.4-33.9-14.7-50.9-22.1c-23.4-9.2-46.7-18.5-70.1-27.7
		c-4.3-16.3-8.5-32.8-12.6-49.5c-9.3-37.8-17.7-74.9-25.3-111.1c-41.4,7.1-85.4,16.2-131.7,27.9c-35.7,9-69.4,18.8-101.1,29
		c3.8,24.8,7.3,45.5,10,60.6c5.9,33.1,9,50.5,14.7,73.2c5.9,23.3,12,42.1,16.3,54.8c34.2,17,71.6,33.6,112.2,49
		c16.7,6.3,33,12.1,49,17.4c29.5-13.4,51.8-23.1,66.9-29.5c16.4-7,32.9-13.9,53.1-27.3C773.9,822.5,792.5,810.9,811.1,799.3z"/>
	<path class="st0" d="M770.7,862.2l2.1,3.9c-0.6-1.4-1.3-3-1.9-4.7C770.9,861.7,770.8,862,770.7,862.2z"/>
	<path class="st0" d="M762.7,846.5c0.3-6.1,0.7-12.3,1.3-18.4c-2.6,1.9-5.4,3.8-8.5,5.9c0,0-0.1,0-0.1,0.1l7.2,13.2
		C762.6,847,762.6,846.7,762.7,846.5z"/>
	<g id="XMLID_76_">
		<g>
			<path class="st1" d="M731.7,788.6"/>
		</g>
	</g>
	<g id="XMLID_74_">
		<g>
			<path class="st1" d="M731.5,792.9"/>
		</g>
	</g>
	<g id="XMLID_73_">
		<g>
			<path class="st1" d="M733.4,800.1"/>
		</g>
	</g>
	<g id="XMLID_560_">
		<g id="XMLID_633_">
			<g id="XMLID_637_">
				<path id="XMLID_638_" class="st2" d="M474.1,822.6c-0.2,0.1-1.2-2.4-2.8-7c-0.8-2.3-1.7-5.1-2.8-8.4c-1-3.3-2.2-7-3.4-11.1
					c-2.5-8.3-5.3-18.2-8.1-29.2c-2.8-11.1-5.8-23.3-8.6-36.2c-2.8-12.9-5.2-25.2-7.1-36.5c-1.9-11.3-3.5-21.4-4.7-30
					c-0.6-4.3-1.1-8.2-1.5-11.6c-0.4-3.4-0.7-6.3-0.9-8.8c-0.5-4.8-0.6-7.5-0.4-7.5c0.2,0,0.8,2.6,1.6,7.3c0.8,4.8,2,11.6,3.5,20.1
					c1.4,8.5,3.3,18.6,5.4,29.8c2.1,11.2,4.6,23.5,7.4,36.3c2.8,12.9,5.6,25.1,8.3,36.1c2.7,11.1,5.2,21,7.4,29.4
					c2.2,8.3,4,15.1,5.2,19.8C473.8,819.9,474.3,822.5,474.1,822.6z"/>
			</g>
		</g>
	</g>
	<g id="XMLID_568_">
		<g id="XMLID_641_">
			<g id="XMLID_645_">
				<path id="XMLID_646_" class="st2" d="M667.3,579.9c0,0.2-3.2,1-9,2.3c-5.9,1.3-14.3,3.1-24.8,5.3c-20.9,4.5-49.9,10.7-81.7,18.1
					c-31.8,7.4-60.5,14.5-81.3,19.7c-10.4,2.6-18.8,4.7-24.6,6.1c-5.8,1.4-9.1,2.1-9.1,1.9c-0.1-0.2,3.1-1.3,8.8-3.1
					c5.7-1.8,14-4.2,24.4-7.1c20.6-5.8,49.3-13.3,81.2-20.7c31.9-7.4,60.9-13.3,82-17.1c10.5-1.9,19.1-3.4,25-4.3
					C664,580.1,667.3,579.7,667.3,579.9z"/>
			</g>
		</g>
	</g>
	<g id="XMLID_576_">
		<g id="XMLID_649_">
			<g id="XMLID_653_">
				<path id="XMLID_654_" class="st2" d="M702.6,737.5c-0.2,0.1-1-2.1-2.2-6c-1.2-3.9-2.8-9.5-4.7-16.6c-3.8-14-8.7-33.5-13.6-55.1
					c-5-21.6-9.1-41.2-11.8-55.5c-1.4-7.1-2.4-12.9-3-16.9c-0.6-4-0.9-6.3-0.7-6.3c0.2,0,0.9,2.1,1.9,6c1,3.9,2.4,9.6,4.1,16.7
					c3.3,14.1,7.8,33.7,12.7,55.3c5,21.6,9.4,41.1,12.7,55.3c1.6,7.1,2.9,12.8,3.7,16.8C702.4,735.3,702.8,737.5,702.6,737.5z"/>
			</g>
		</g>
	</g>
	<g id="XMLID_584_">
		<g id="XMLID_657_">
			<g id="XMLID_661_">
				<path id="XMLID_662_" class="st2" d="M700.2,738.4c0.1,0.2-3.1,1.5-8.8,3.7c-5.7,2.2-14,5.2-24.3,9
					c-20.5,7.5-48.9,17.8-80.1,29.4c-31.2,11.6-59.4,22.4-79.8,30.2c-10.2,3.9-18.5,7-24.2,9.1c-5.7,2.1-9,3.2-9,3s3-1.7,8.6-4.1
					c5.6-2.5,13.7-5.9,23.8-10.1c20.2-8.3,48.3-19.4,79.5-31.1c31.3-11.6,59.8-21.6,80.5-28.6c10.4-3.5,18.8-6.2,24.6-8
					C696.9,739.1,700.1,738.2,700.2,738.4z"/>
			</g>
		</g>
	</g>
	<g id="XMLID_592_">
		<g id="XMLID_665_">
			<g id="XMLID_669_">
				<path id="XMLID_670_" class="st2" d="M634.8,891.7c-0.1,0.2-2.4-0.4-6.6-1.8c-4.2-1.4-10.2-3.5-17.6-6.2
					c-14.8-5.4-35.1-13.2-57.3-22.4c-22.2-9.2-42.1-18-56.3-24.7c-7.1-3.3-12.9-6.1-16.8-8.1c-3.9-2-6.1-3.2-6-3.4
					c0.1-0.2,2.4,0.6,6.5,2.2c4.1,1.6,10,4.1,17.2,7.2c14.5,6.1,34.5,14.6,56.7,23.8c22.2,9.2,42.3,17.3,56.9,23.3
					c7.3,3,13.2,5.4,17.2,7.1C632.7,890.4,634.9,891.5,634.8,891.7z"/>
			</g>
		</g>
	</g>
	<g>
		<g>
			<g>
				<path class="st2" d="M761.9,829.9c0.1,0.2-1.4,1.4-4.3,3.5c-0.7,0.5-1.5,1.1-2.4,1.7c-0.9,0.6-1.9,1.3-3,1.9
					c-2.1,1.4-4.5,3-7.3,4.6c-1.4,0.8-2.8,1.7-4.3,2.6c-1.5,0.9-3.1,1.7-4.8,2.7c-3.3,1.8-6.9,3.7-10.6,5.6
					c-7.5,3.8-15.9,7.8-24.8,11.7c-17.8,7.8-34.1,14.5-45.8,19.4c-11.7,4.9-19,8.1-19.2,7.6c-0.2-0.4,6.7-4.3,18.2-9.7
					c11.5-5.5,27.7-12.5,45.5-20.3c8.9-3.9,17.3-7.8,24.8-11.4c3.8-1.9,7.4-3.6,10.7-5.3c1.7-0.9,3.3-1.7,4.8-2.5
					c1.5-0.8,3-1.6,4.4-2.4C754.9,833.7,761.6,829.5,761.9,829.9z"/>
			</g>
		</g>
	</g>
	<g id="XMLID_608_">
		<g id="XMLID_681_">
			<g id="XMLID_685_">
				<path id="XMLID_686_" class="st2" d="M753.6,758.1c-0.3,0.8-12.4-2.2-26.9-7.4c-14.5-5.1-25.9-10.3-25.6-11.1
					c0.3-0.8,12.2,3,26.7,8.1C742.2,752.8,753.8,757.2,753.6,758.1z"/>
			</g>
		</g>
	</g>
	<g id="XMLID_616_">
		<g id="XMLID_689_">
			<g id="XMLID_693_">
				<path id="XMLID_694_" class="st2" d="M636.4,883c-0.2,0.4-8-2.2-20.5-6.9c-12.5-4.7-29.6-11.7-48.2-19.9
					c-18.6-8.2-35.3-16.2-47.2-22.2c-11.9-6-19.1-10.1-18.9-10.5c0.2-0.4,7.8,2.9,19.9,8.4c12.1,5.5,28.9,13.1,47.5,21.3
					c18.6,8.2,35.5,15.5,47.7,20.7C629,879.2,636.6,882.6,636.4,883z"/>
			</g>
		</g>
	</g>
	<g id="XMLID_624_">
		<g id="XMLID_697_">
			<g id="XMLID_701_">
				<path id="XMLID_702_" class="st2" d="M693.7,752.3c0.1,0.2-2.5,1.4-7.2,3.3c-4.7,1.9-11.6,4.6-20,7.9
					c-17,6.5-40.5,15.4-66.5,24.9s-49.7,18-66.9,24c-8.6,3-15.6,5.4-20.4,6.9c-4.8,1.6-7.6,2.3-7.6,2.1c-0.1-0.2,2.5-1.4,7.2-3.3
					s11.6-4.6,20-7.9c17-6.5,40.5-15.4,66.5-24.9s49.7-18,66.9-24c8.6-3,15.6-5.4,20.4-6.9C690.9,752.9,693.6,752.1,693.7,752.3z"/>
			</g>
		</g>
	</g>
	<g id="XMLID_632_">
		<g id="XMLID_705_">
			<g id="XMLID_709_">
				<path id="XMLID_710_" class="st2" d="M735.2,766.7c-0.3,0.9-9.7-1.8-21.2-5.7c-11.4-3.9-20.5-7.4-20.3-8.3
					c0.3-0.9,9.9,1.3,21.3,5.2C726.6,761.8,735.5,765.8,735.2,766.7z"/>
			</g>
		</g>
	</g>
	<g id="XMLID_640_">
		<g id="XMLID_713_">
			<g id="XMLID_717_">
				<path id="XMLID_718_" class="st2" d="M756.3,819.4c0.2,0.4-6,4.7-16.5,11.1c-10.5,6.4-25.1,14.8-41.7,23.5
					c-16.6,8.7-31.9,16-43.1,21c-11.2,5-18.3,7.7-18.5,7.3c-0.2-0.4,6.5-3.9,17.5-9.4c10.9-5.5,26-13.1,42.5-21.8
					c16.5-8.7,31.3-16.8,42.1-22.7C749.4,822.6,756,819,756.3,819.4z"/>
			</g>
		</g>
	</g>
	<g id="XMLID_648_">
		<g id="XMLID_721_">
			<g id="XMLID_725_">
				<path id="XMLID_726_" class="st2" d="M698.1,761.9c0.1,0.2-2.2,1.5-6.5,3.6c-4.3,2.1-10.5,5.1-18.2,8.7
					c-15.5,7.1-37.1,16.6-61.2,26.3c-24.1,9.7-46.3,17.8-62.4,23.4c-8.1,2.8-14.6,4.9-19.2,6.3c-4.6,1.4-7.1,2.1-7.2,1.9
					c-0.1-0.2,2.3-1.3,6.8-3.1c4.4-1.8,10.9-4.3,18.8-7.3c15.9-6.1,37.8-14.6,62-24.3c24.1-9.7,45.8-18.8,61.5-25.3
					c7.9-3.3,14.2-5.9,18.6-7.7C695.5,762.6,698,761.7,698.1,761.9z"/>
			</g>
		</g>
	</g>
	<g id="XMLID_656_">
		<g id="XMLID_729_">
			<g id="XMLID_733_">
				<path id="XMLID_734_" class="st2" d="M717.8,767.2c0.1,0.2-2.1,1.7-6.2,4.3c-4.1,2.6-10.1,6.2-17.6,10.5
					c-7.5,4.3-16.5,9.4-26.5,14.8c-10.1,5.4-21.3,11.1-33.3,16.6c-12,5.5-23.6,10.4-34.3,14.4c-5.4,1.9-10.5,3.9-15.3,5.4
					c-2.4,0.8-4.7,1.6-7,2.3c-2.3,0.7-4.4,1.3-6.5,1.9c-4.1,1.3-8,2.2-11.3,3c-1.7,0.4-3.2,0.8-4.7,1.1c-1.4,0.3-2.8,0.6-3.9,0.8
					c-4.8,0.9-7.4,1.4-7.4,1.1s2.5-1.1,7.1-2.4c1.2-0.3,2.5-0.7,3.9-1.1c1.4-0.4,2.9-0.9,4.6-1.4c3.3-1,7-2.1,11.1-3.5
					c2-0.7,4.2-1.4,6.4-2.1c2.2-0.7,4.5-1.6,6.9-2.4c4.8-1.6,9.8-3.6,15.1-5.6c10.6-4.2,22.1-9.1,34.1-14.6
					c11.9-5.5,23.1-11.1,33.3-16.3c10.1-5.2,19.2-10,26.8-14.1c7.6-4.1,13.8-7.4,18.1-9.6C715.3,768.2,717.7,767,717.8,767.2z"/>
			</g>
		</g>
	</g>
	<g id="XMLID_664_">
		<g id="XMLID_737_">
			<g id="XMLID_741_">
				<path id="XMLID_742_" class="st2" d="M731.8,776.5c0.1,0.2-1.9,1.6-5.6,4.1c-1.9,1.2-4.2,2.7-6.9,4.4c-2.7,1.7-5.8,3.6-9.2,5.6
					c-6.8,4.1-15.1,8.8-24.3,13.9c-9.2,5.1-19.5,10.5-30.4,15.9c-10.9,5.4-21.3,10.4-30.9,14.8c-9.6,4.4-18.3,8.1-25.7,11.2
					c-3.7,1.5-7,2.9-10,4c-2.9,1.2-5.5,2.1-7.6,2.9c-4.2,1.5-6.5,2.3-6.6,2.1c-0.1-0.2,2.1-1.4,6.1-3.2c4-1.9,9.9-4.5,17.1-7.9
					c7.2-3.3,15.8-7.3,25.3-11.8c9.5-4.5,19.9-9.6,30.7-15c10.8-5.4,21.1-10.8,30.4-15.7c9.3-4.9,17.6-9.4,24.6-13.3
					c7-3.8,12.6-6.9,16.5-9C729.4,777.4,731.7,776.3,731.8,776.5z"/>
			</g>
		</g>
	</g>
	<g id="XMLID_672_">
		<g id="XMLID_745_">
			<g id="XMLID_749_">
				<path id="XMLID_750_" class="st2" d="M720.8,804.2c0.2,0.3-5.6,5.2-15.6,12.3c-2.5,1.8-5.3,3.7-8.3,5.7c-3,2-6.3,4.1-9.7,6.2
					c-6.9,4.3-14.6,8.8-22.9,13.2c-8.3,4.4-16.3,8.3-23.7,11.7c-3.7,1.6-7.2,3.2-10.6,4.6c-3.3,1.4-6.5,2.6-9.3,3.7
					c-11.5,4.4-18.8,6.5-18.9,6.1c-0.2-0.5,6.9-3.3,18.1-8.2c2.8-1.2,5.9-2.6,9.1-4.1c3.3-1.5,6.7-3.1,10.4-4.8
					c7.3-3.5,15.2-7.4,23.5-11.8c8.2-4.4,15.9-8.8,22.9-12.9c3.5-2.1,6.8-4,9.8-5.9c3.1-1.9,5.9-3.7,8.5-5.3
					C714.2,808,720.5,803.8,720.8,804.2z"/>
			</g>
		</g>
	</g>
	<g id="XMLID_680_">
		<g id="XMLID_753_">
			<g id="XMLID_757_">
				<path id="XMLID_758_" class="st2" d="M623.2,864.7c-0.2,0.4-5.3-2-13.4-6.3c-8.1-4.3-19.1-10.5-31-17.7
					c-11.9-7.2-22.6-14-30.1-19.1c-7.6-5.1-12.1-8.5-11.9-8.9c0.2-0.4,5.2,2.3,13.1,7c7.9,4.6,18.7,11.1,30.6,18.3
					c11.9,7.2,22.7,13.7,30.5,18.5C618.7,861.2,623.4,864.3,623.2,864.7z"/>
			</g>
		</g>
	</g>
	<g id="XMLID_688_">
		<g id="XMLID_761_">
			<g id="XMLID_765_">
				<path id="XMLID_766_" class="st2" d="M645.7,848.6c-0.2,0.4-4.9-1.5-12.2-5c-7.3-3.6-17.2-8.9-27.7-15.4
					c-10.5-6.5-19.7-13-26.2-17.9c-6.5-4.9-10.2-8.3-9.9-8.6c0.6-0.8,16.9,10.9,37.8,23.8C628.5,838.4,646.2,847.8,645.7,848.6z"/>
			</g>
		</g>
	</g>
	<g id="XMLID_696_">
		<g id="XMLID_769_">
			<g id="XMLID_773_">
				<path id="XMLID_774_" class="st2" d="M668.1,833c-0.1,0.4-4.7-0.9-11.5-4.1c-0.8-0.4-1.7-0.8-2.7-1.3c-0.9-0.5-1.8-1-2.8-1.5
					c-2-1-4-2.3-6.1-3.5c-4.2-2.6-8.8-5.6-13.5-8.9c-4.7-3.3-9.1-6.5-13-9.4c-4-2.9-7.6-5.5-10.7-7.6c-6.1-4.2-10-6.7-9.8-7.1
					c0.2-0.4,4.5,1.4,11,5.2c3.3,1.9,7,4.3,11.1,7c4.1,2.8,8.6,5.9,13.2,9.2c4.7,3.3,9.1,6.3,13.2,9c2.1,1.3,4,2.6,5.9,3.7
					c0.9,0.6,1.8,1.1,2.7,1.7c0.9,0.5,1.7,1,2.5,1.5C664.1,830.6,668.3,832.6,668.1,833z"/>
			</g>
		</g>
	</g>
	<g id="XMLID_704_">
		<g id="XMLID_777_">
			<g id="XMLID_781_">
				<path id="XMLID_782_" class="st2" d="M693.7,819.2c-0.4,0.8-16.4-7.5-35.5-18.6c-19.2-11.1-34.4-20.6-33.9-21.4
					c0.4-0.8,16.4,7.5,35.5,18.6C679,808.8,694.2,818.4,693.7,819.2z"/>
			</g>
		</g>
	</g>
	<g id="XMLID_712_">
		<g id="XMLID_785_">
			<g id="XMLID_789_">
				<path id="XMLID_790_" class="st2" d="M719.4,805.3c-0.4,0.8-14.2-6.1-29.9-16.6c-15.8-10.4-27.5-20.4-27-21.1
					c0.6-0.7,13.1,8,28.8,18.4C706.9,796.4,719.9,804.5,719.4,805.3z"/>
			</g>
		</g>
	</g>
	<g id="XMLID_720_">
		<g id="XMLID_793_">
			<g id="XMLID_797_">
				<path id="XMLID_798_" class="st2" d="M733.6,783.2c-0.4,0.8-11.6-3.4-24.6-10.2c-13.1-6.8-23-13.5-22.5-14.3
					c0.5-0.8,11,4.6,24,11.4C723.5,776.8,734,782.4,733.6,783.2z"/>
			</g>
		</g>
	</g>
	<g id="XMLID_728_">
		<g id="XMLID_801_">
			<g id="XMLID_805_">
				<path id="XMLID_806_" class="st2" d="M676.4,853.8c-0.3,0.8-4.6-0.3-9-3.4c-4.3-3.1-6.7-6.9-6.1-7.4c0.7-0.6,3.9,1.9,8,4.8
					C673.4,850.7,676.8,853,676.4,853.8z"/>
			</g>
		</g>
	</g>
	<g id="XMLID_736_">
		<g id="XMLID_809_">
			<g id="XMLID_813_">
				
					<ellipse id="XMLID_814_" transform="matrix(0.847 -0.5316 0.5316 0.847 -336.772 502.4262)" class="st2" cx="704.4" cy="836.2" rx="33.5" ry="1.6"/>
			</g>
		</g>
	</g>
	<g id="XMLID_744_">
		<g id="XMLID_817_">
			<g id="XMLID_821_">
				<path id="XMLID_822_" class="st2" d="M559.8,764.5c-0.2,0.3-4.3-2.1-10.3-6.9c-0.7-0.6-1.5-1.3-2.3-1.9
					c-0.8-0.7-1.6-1.4-2.4-2.2c-1.7-1.5-3.4-3.2-5.2-5c-3.5-3.7-7.2-7.9-10.7-12.6c-3.5-4.7-6.5-9.4-9.1-13.8
					c-1.2-2.2-2.4-4.3-3.4-6.4c-0.5-1-1-2-1.4-2.9c-0.4-1-0.8-1.9-1.2-2.8c-3-7.1-4.1-11.7-3.8-11.8c0.5-0.2,2.4,4.1,5.8,10.8
					c0.4,0.8,0.9,1.7,1.4,2.6c0.5,0.9,1,1.8,1.6,2.8c1,2,2.3,4,3.6,6.1c2.6,4.2,5.6,8.8,9.1,13.4c3.5,4.6,7,8.8,10.3,12.5
					c1.7,1.8,3.3,3.6,4.9,5.1c0.8,0.8,1.5,1.6,2.3,2.3c0.7,0.7,1.5,1.4,2.1,2.1C556.5,761,560.1,764.1,559.8,764.5z"/>
			</g>
		</g>
	</g>
	<g id="XMLID_752_">
		<g id="XMLID_825_">
			<g id="XMLID_829_">
				
					<ellipse id="XMLID_830_" transform="matrix(0.9758 -0.2187 0.2187 0.9758 -147.6068 118.0803)" class="st2" cx="459.7" cy="725.9" rx="1.6" ry="85.9"/>
			</g>
		</g>
	</g>
	<g id="XMLID_760_">
		<g id="XMLID_833_">
			<g id="XMLID_837_">
				<path id="XMLID_838_" class="st2" d="M649.2,591c0.1,0.2-2.7,1.3-7.8,3c-5.1,1.7-12.5,4.1-21.6,6.9c-9.2,2.8-20.1,6-32.4,9.3
					c-12.2,3.3-25.7,6.9-39.9,10.3c-14.2,3.4-27.8,6.5-40.2,9.1c-12.4,2.6-23.6,4.8-33,6.5c-9.4,1.7-17.1,3-22.4,3.8
					c-5.3,0.8-8.3,1.1-8.3,0.9c0-0.2,2.8-1,8.1-2.1c5.2-1.1,12.8-2.8,22.2-4.8c9.4-2,20.5-4.4,32.9-7.2c12.3-2.8,25.9-5.9,40.1-9.4
					c14.2-3.5,27.7-6.9,39.9-10c12.2-3.2,23.3-6.1,32.5-8.7c9.2-2.5,16.7-4.5,21.9-5.9C646.2,591.4,649.1,590.8,649.2,591z"/>
			</g>
		</g>
	</g>
	<g id="XMLID_768_">
		<g id="XMLID_841_">
			<g id="XMLID_845_">
				<path id="XMLID_846_" class="st2" d="M685.7,726.6c-0.9,0.2-8.2-29.4-16.4-66.1s-14.1-66.6-13.2-66.8
					c0.9-0.2,8.2,29.4,16.4,66.1S686.6,726.4,685.7,726.6z"/>
			</g>
		</g>
	</g>
	<g id="XMLID_776_">
		<g id="XMLID_849_">
			<g id="XMLID_853_">
				<path id="XMLID_854_" class="st2" d="M686.9,731.9c0.1,0.2-2.8,1.5-8,3.8c-5.2,2.2-12.8,5.3-22.2,9.1
					c-18.8,7.5-44.8,17.7-73.8,28.5c-28.9,10.8-55.2,20.3-74.3,27c-9.6,3.3-17.3,6-22.7,7.7c-5.4,1.7-8.4,2.6-8.5,2.4
					c-0.1-0.2,2.8-1.5,8-3.6c5.3-2.1,12.9-5.1,22.3-8.7c18.9-7.2,45.1-17,74-27.8c28.9-10.8,55.1-20.6,74.1-27.6
					c9.5-3.5,17.2-6.3,22.5-8.1C683.8,732.6,686.8,731.7,686.9,731.9z"/>
			</g>
		</g>
	</g>
	<g id="XMLID_784_">
		<g id="XMLID_857_">
			<g id="XMLID_861_">
				<path id="XMLID_862_" class="st2" d="M566.9,677.3c0.3,0.9-12.6,5.2-28.3,11.1c-15.7,5.8-28.2,10.9-28.6,10.1
					c-0.4-0.8,11.7-7.3,27.5-13.1C553.3,679.4,566.7,676.5,566.9,677.3z"/>
			</g>
		</g>
	</g>
	<g id="XMLID_792_">
		<g id="XMLID_865_">
			<g id="XMLID_869_">
				<path id="XMLID_870_" class="st2" d="M613.4,725.1c-0.2,0.4-3.9-0.9-9.4-4.3c-0.7-0.4-1.4-0.9-2.1-1.3c-0.7-0.5-1.4-1-2.2-1.6
					c-1.5-1.1-3.1-2.4-4.7-3.7c-3.2-2.7-6.6-5.9-9.9-9.5c-6.6-7.2-11.7-14.3-15.2-19.5c-3.5-5.2-5.5-8.6-5.1-8.9
					c0.4-0.3,3,2.7,6.9,7.5c4,4.9,9.4,11.6,15.8,18.7c3.2,3.5,6.4,6.7,9.4,9.4c1.5,1.3,3,2.7,4.4,3.8c0.7,0.6,1.4,1.2,2,1.7
					c0.7,0.5,1.3,1,1.9,1.5C610.3,722.6,613.7,724.6,613.4,725.1z"/>
			</g>
		</g>
	</g>
	<g id="XMLID_800_">
		<g id="XMLID_873_">
			<g id="XMLID_877_">
				<path id="XMLID_878_" class="st2" d="M613.3,724.1c0.3,0.2-1.4,3.6-5.2,8.4c-0.9,1.2-2,2.5-3.2,3.8c-1.2,1.4-2.5,2.7-3.9,4.2
					c-2.9,2.8-6.2,5.8-9.9,8.6c-3.7,2.8-7.5,5.2-11,7.1c-1.8,0.9-3.5,1.9-5.1,2.6c-1.6,0.8-3.2,1.4-4.6,2c-5.7,2.2-9.4,3-9.5,2.6
					c-0.2-0.5,3.2-2,8.5-4.7c1.3-0.7,2.8-1.4,4.3-2.3c1.5-0.8,3.1-1.8,4.8-2.8c3.3-2.1,6.9-4.4,10.6-7.1c3.6-2.7,6.9-5.5,9.8-8.1
					c1.4-1.3,2.8-2.6,4-3.8c1.3-1.2,2.4-2.4,3.4-3.5C610.5,726.6,612.9,723.8,613.3,724.1z"/>
			</g>
		</g>
	</g>
	<g id="XMLID_808_">
		<g id="XMLID_881_">
			<g id="XMLID_885_">
				<path id="XMLID_886_" class="st2" d="M585.6,700.9c-0.9,0.3-3.9-7.2-7.7-16.3c-3.8-9.1-7-16.5-6.2-16.9
					c0.8-0.4,5.3,6.4,9.2,15.6C584.8,692.6,586.5,700.6,585.6,700.9z"/>
			</g>
		</g>
	</g>
	<g id="XMLID_816_">
		<g id="XMLID_889_">
			<g id="XMLID_893_">
				<path id="XMLID_894_" class="st2" d="M633.2,652.8c-0.1,0.5-3.5,0.4-8.8,1.2c-0.7,0.1-1.4,0.2-2.1,0.3c-0.7,0.2-1.5,0.3-2.2,0.5
					c-1.6,0.3-3.2,0.8-4.9,1.2c-3.4,1-7.2,2.3-11.1,3.7c-3.9,1.4-7.7,2.8-11.2,4c-3.5,1.2-6.7,2.1-9.4,2.7c-5.5,1.3-9,1.3-9,0.9
					c-0.1-0.5,3.2-1.3,8.4-3.1c2.6-0.9,5.6-2,9-3.3c3.4-1.3,7.1-2.8,11.1-4.3c4-1.5,7.9-2.7,11.5-3.6c1.8-0.4,3.5-0.8,5.2-1
					c0.8-0.1,1.6-0.2,2.4-0.3c0.8,0,1.5-0.1,2.2-0.1c1.4-0.1,2.7,0,3.8,0c0.6,0,1.1,0,1.6,0.1c0.5,0.1,0.9,0.1,1.3,0.2
					C632.4,652.3,633.2,652.6,633.2,652.8z"/>
			</g>
		</g>
	</g>
	<g id="XMLID_824_">
		<g id="XMLID_897_">
			<g id="XMLID_901_">
				<path id="XMLID_902_" class="st2" d="M655.3,721.4c-0.5,0-1.2-3.9-2.7-10.3c-0.7-3.2-1.7-6.9-2.9-11c-1.2-4.1-2.6-8.6-4.2-13.3
					c-3.2-9.4-6.5-17.7-8.8-23.9c-2.3-6.1-3.5-10-3.1-10.2c0.4-0.2,2.4,3.4,5.2,9.3c2.8,5.9,6.5,14.2,9.8,23.7c1.6,4.8,3,9.4,4,13.6
					c1,4.2,1.8,8.1,2.2,11.4C655.8,717.2,655.7,721.3,655.3,721.4z"/>
			</g>
		</g>
	</g>
	<g id="XMLID_832_">
		<g id="XMLID_905_">
			<g id="XMLID_909_">
				<path id="XMLID_910_" class="st2" d="M595.5,755.4c-0.9,0.1-1.9-2.1-2.3-4.9s0-5.2,0.9-5.3c0.9-0.1,1.9,2.1,2.3,4.9
					C596.8,752.9,596.4,755.3,595.5,755.4z"/>
			</g>
		</g>
	</g>
	<g id="XMLID_840_">
		<g id="XMLID_913_">
			<g id="XMLID_917_">
				<path id="XMLID_918_" class="st2" d="M660.9,717.3c0.3,0.3-2.8,3.3-8,7.7c-5.3,4.4-12.7,10.3-21.6,15.8
					c-8.9,5.6-17.8,9.4-24.5,11.2c-6.7,1.8-11,2-11,1.6c-0.1-0.5,4-1.5,10.3-3.8c6.3-2.3,14.7-6.3,23.5-11.8
					c8.8-5.4,16.3-11,21.9-14.9C657.1,719.3,660.6,716.9,660.9,717.3z"/>
			</g>
		</g>
	</g>
	<g id="XMLID_34_">
		<g>
			<g>
				<path class="st2" d="M620.6,624.2c0.9-0.3,2.2,1.8,3.6,3.9c0.7,1,1.3,1.8,1.9,2.4c0.5,0.6,1,1.1,0.9,1.5c-0.1,0.4-0.8,0.8-2,0.5
					c-0.6-0.1-1.2-0.4-1.9-0.9c-0.6-0.5-1.2-1.1-1.7-1.8c-0.9-1.4-1.3-2.8-1.4-3.8C620,625,620.2,624.3,620.6,624.2z"/>
			</g>
		</g>
	</g>
	<g id="XMLID_33_">
		<g>
			<g>
				<path class="st2" d="M543.2,641.8c0.5-0.8,2.7,0,4.9,0.5c1.1,0.3,1.9,0.3,2.6,0.3c0.7,0,1.3-0.2,1.7,0.1
					c0.3,0.3,0.3,1.1-0.6,1.9c-0.9,0.9-2.8,1.2-4.3,0.8c-1.6-0.4-2.8-1.2-3.5-1.9C543.2,642.9,543,642.2,543.2,641.8z"/>
			</g>
		</g>
	</g>
	<g id="XMLID_2_">
		<g>
			<path class="st1" d="M487.7,664.7"/>
		</g>
	</g>
	<g>
		<g>
			<g>
				<path class="st2" d="M824.8,789.6c-0.3,0.8-18.4-5.8-40.1-15.5c-21.7-9.7-38.7-18.7-38.3-19.5c0.4-0.8,18,6.9,39.6,16.6
					C807.7,780.8,825.2,788.7,824.8,789.6z"/>
			</g>
		</g>
	</g>
	<g>
		<g>
			<g>
				<path class="st2" d="M823.2,791.6c0.5,0.8-13.5,10.5-31.3,21.8s-32.6,19.8-33.1,19.1c-0.5-0.8,13.5-10.5,31.3-21.8
					S822.7,790.8,823.2,791.6z"/>
			</g>
		</g>
	</g>
	<g>
		<g>
			<g>
				<path class="st2" d="M808.8,785.4c0.5,0.7-12,10.1-28.1,20.6c-16.1,10.5-30,17.9-30.4,17.1c-0.5-0.8,12.6-9.3,28.6-19.8
					C794.9,792.8,808.3,784.7,808.8,785.4z"/>
			</g>
		</g>
	</g>
	<g>
		<g>
			<g>
				<path class="st2" d="M757.5,775.2c0.6,0.6-6.6,9.2-17.6,17.5c-10.9,8.4-21.1,13.1-21.5,12.4c-0.5-0.8,8.8-6.7,19.5-15
					C748.7,782,756.9,774.5,757.5,775.2z"/>
			</g>
		</g>
	</g>
	<g>
		<g>
			<g>
				<path class="st2" d="M758.6,777.1c-0.3,0.8-6.6-0.9-14-4.1c-7.4-3.2-12.9-6.6-12.5-7.4c0.4-0.8,6.5,1.3,13.8,4.4
					C753.2,773.2,758.9,776.3,758.6,777.1z"/>
			</g>
		</g>
	</g>
	<g>
		<g>
			<g>
				<path class="st2" d="M743.3,787.9c-0.3,0.8-4.2,0-8.3-2.3c-4.1-2.3-6.9-5.1-6.4-5.8c0.5-0.7,4,0.7,7.9,2.9
					C740.6,784.9,743.7,787,743.3,787.9z"/>
			</g>
		</g>
	</g>
	<g>
		<g>
			<g>
				<path class="st2" d="M732.7,818.7c-0.4,0.8-4.8-0.8-10-2.8c-5.2-2-9.5-3.8-9.2-4.7c0.2-0.9,5-0.5,10.4,1.7
					C729.3,815,733.1,817.9,732.7,818.7z"/>
			</g>
		</g>
	</g>
</g>
<g id="character_1_">
	<g id="head">
		<path id="XMLID_4_" class="st0" d="M948.3,516.1c-2.9-2.3-6.7-6.1-9.5-11.6c-4.9-9.7-3.5-19.3-3.2-23.2c2.4-24-9.3-49.2-12.1-54.8
			c-9.4-18.6-33-41.6-55.8-37.4c-23.9,4.4-37,36.7-40.6,50c-1.1,3.9-2.8,12.1-6.3,28.4c-2,9.5-3.7,17.4-4.7,22.6
			c5.6,2.3,11.2,4.6,16.9,6.8c1.2,4.2,3.9,11.4,10,18.4c3.5,4,12.4,14.2,24.8,14.7c7.1,0.3,8.6-2.9,21.1-3.2
			c7.7-0.2,11.1,1,12.6,1.6c6.4,2.5,10.3,7.3,12.1,10C925.1,531.2,936.7,523.6,948.3,516.1z"/>
		<path id="XMLID_1304_" d="M816.1,392.9c-4.1,0.3-12,1.4-19.5,6.8c-3.3,2.4-13.6,9.8-13.7,21.6c0,0.8,0.1,10,6.8,16.3
			c12.1,11.3,34.2,2.9,39,1.1c17.9-6.9,27.4-21.1,31.1-27.4c1.7,4.4,5.3,12.2,12.6,19.5c7.6,7.5,15.5,11,20,12.6
			c1.4-0.1,8.2-0.3,13.2,4.7c5.6,5.6,5.3,14,3.2,19.5c-1.3,3.3-3.3,5.5-4.7,6.8c1,3.3,3.6,9.9,10,15.3c9.5,8,20.7,7.6,25.8,7.4
			c5.5-0.2,14.5-0.5,21.6-6.8c6.5-5.7,7.8-13.1,9.5-22.1c1.9-10.3,4.9-26.7-4.7-40.6c-5.8-8.3-13.9-12.3-17.9-14.2
			c-9.9-4.8-13.9-2.9-24.2-6.3c-9.9-3.3-15.9-8.3-27.9-18.4c-19.1-16-17.4-20.7-27.9-25.3c-3.1-1.3-20.9-8.6-36.3,1.6
			C818.1,374,816.3,390.4,816.1,392.9z"/>
		<g id="XMLID_84_">
			<g>
				<g>
					<path class="st2" d="M831.3,495.2c-0.1,0.4-3.3,0.1-8.3-0.8c-1.2-0.2-2.7-0.4-4.3-1.2c-0.8-0.4-1.6-0.9-2.3-1.8
						c-0.7-0.9-1-1.9-1.2-3c-0.1-1,0-2,0.1-3c0.1-0.9,0.3-1.8,0.4-2.7c0.3-1.8,0.6-3.7,1-5.6c2.7-15.3,5.7-27.5,6.5-27.4
						c0.9,0.2-0.6,12.7-3.3,27.9c-0.4,1.9-0.7,3.8-1,5.6c-0.3,1.8-0.8,3.5-0.7,4.8c0.1,1.3,0.6,2.1,1.7,2.7c1.1,0.6,2.4,1,3.6,1.3
						C828.4,493.7,831.4,494.8,831.3,495.2z"/>
				</g>
			</g>
		</g>
		<g id="XMLID_83_">
			<g>
				<g>
					<path class="st2" d="M913.3,539.1c-0.2,0.2-1.3-0.7-3.1-2.3c-0.9-0.8-2.1-1.8-3.5-2.8c-1.4-1-3-2.2-4.8-3.2
						c-1.9-1-4-1.9-6.4-2.2c-0.3,0-0.6-0.1-0.9-0.1c-0.3,0-0.6,0-0.9,0c-0.6,0-1.2,0-1.9,0.1c-1.3,0.1-2.6,0.5-3.9,0.8
						c-2.7,0.8-5.6,1.9-9,2.5c-3.3,0.6-6.9,0.4-10.3-0.3c-7-1.5-12.9-4.9-17.5-8.8c-4.6-3.9-8-8.1-10.6-11.7
						c-2.6-3.6-4.5-6.7-5.7-8.8c-1.2-2.2-1.8-3.4-1.6-3.5c0.2-0.1,1.1,0.9,2.7,2.8c1.6,1.9,3.7,4.8,6.5,8.1
						c2.8,3.4,6.2,7.2,10.7,10.8c4.4,3.5,10,6.6,16.2,7.9c3.1,0.6,6.3,0.8,9.2,0.3c2.9-0.4,5.8-1.5,8.7-2.2c1.5-0.4,2.9-0.7,4.4-0.8
						c0.7-0.1,1.5-0.1,2.2,0c0.4,0,0.7,0,1.1,0.1c0.4,0.1,0.7,0.1,1.1,0.2c2.8,0.5,5.1,1.6,7.1,2.8c2,1.2,3.5,2.6,4.8,3.8
						c1.3,1.2,2.4,2.3,3.2,3.3C912.7,537.8,913.5,539,913.3,539.1z"/>
				</g>
			</g>
		</g>
		<g id="XMLID_82_">
			<g>
				<g>
					<path class="st2" d="M831.9,438.6c0.1,0.2-1.3,0.9-4,1.9c-2.7,1-6.5,2.4-11.6,3.5c-2.5,0.5-5.3,0.9-8.4,1c-1.5,0-3.1,0-4.8-0.2
						c-1.7-0.2-3.3-0.6-5-1.1c-3.3-1.1-6.7-2.8-9.7-5.3c-2.9-2.5-5.4-6-6.5-10.1c-0.2-1-0.4-2.1-0.5-3.1c-0.1-1-0.1-2.1,0-3.1
						c0.1-2,0.5-3.9,1-5.8c1-3.7,2.6-7,4.6-9.9c1.9-2.9,4.3-5.3,6.7-7.2c2.5-1.9,5-3.3,7.5-4.2c4.9-1.9,9.2-2.1,12.1-1.9
						c2.9,0.3,4.4,0.9,4.4,1.1c0,0.3-1.6,0.1-4.4,0.2c-2.7,0.2-6.8,0.7-11.2,2.7c-2.2,1-4.5,2.4-6.7,4.2c-2.2,1.8-4.2,4.1-5.9,6.8
						c-1.7,2.7-3.1,5.8-4,9.1c-0.9,3.3-1.3,6.9-0.4,10.3c0.9,3.4,2.9,6.3,5.5,8.5c2.5,2.3,5.5,3.8,8.5,4.9c3,1,6,1.4,8.9,1.5
						c2.9,0.1,5.6-0.2,8-0.5c4.9-0.7,8.8-1.8,11.6-2.4C830.2,438.6,831.8,438.3,831.9,438.6z"/>
				</g>
			</g>
		</g>
		<g id="XMLID_1_">
			<g>
				<g>
					<path class="st2" d="M936.7,497.8c0-0.1,1-0.1,2.8-0.2c1.8-0.1,4.6-0.2,8-1c3.4-0.8,7.5-2.1,11.3-5.2c3.8-3,7.1-7.7,9.2-13.5
						c2.1-5.8,3.2-12.6,3.4-20c0.2-7.3-0.7-15.2-3.8-22.8c-1.5-3.7-3.6-7.3-6.4-10.5c-2.8-3.1-6.2-5.7-10.1-7.8
						c-7.9-4.1-17.2-5.9-26.5-8.9c-4.7-1.5-9.3-3.3-13.5-5.8c-4.2-2.5-7.9-5.5-11.3-8.6c-6.8-6.3-12.5-13-18.7-18.5
						c-6.1-5.5-12.8-9.7-19.8-11.6c-7-2-13.9-2-19.9-0.5c-6,1.4-10.9,4.4-14.4,7.8c-3.6,3.3-5.9,7-7.4,10.1
						c-1.4,3.2-2.1,5.8-2.4,7.6c-0.2,0.9-0.2,1.6-0.3,2.1c-0.1,0.5-0.1,0.7-0.2,0.7c-0.1,0-0.1-0.2-0.1-0.7c0-0.5-0.1-1.2,0-2.1
						c0.1-1.9,0.6-4.7,1.9-8.1c1.4-3.3,3.6-7.3,7.3-10.9c1.8-1.8,4-3.6,6.5-5.1c2.5-1.5,5.4-2.8,8.6-3.6c6.3-1.7,13.7-1.8,21.2,0.2
						c7.5,1.9,14.7,6.3,21.1,11.9c6.4,5.6,12.2,12.3,18.9,18.4c3.3,3,6.9,5.9,10.8,8.2c3.9,2.3,8.3,4.1,12.8,5.5
						c9.1,2.9,18.6,4.8,27,9.2c4.2,2.2,8,5.1,11,8.5c3,3.5,5.3,7.4,6.9,11.4c3.2,8.1,3.9,16.4,3.7,24c-0.3,7.6-1.6,14.6-3.9,20.7
						c-2.3,6.1-6,11.1-10.2,14.2c-4.2,3.2-8.6,4.4-12.2,5c-3.6,0.6-6.4,0.5-8.2,0.4C937.7,498.2,936.7,498,936.7,497.8z"/>
				</g>
			</g>
		</g>
		<g id="XMLID_216_">
			<g>
				<g>
					<path class="st2" d="M839.6,467.7c-0.7,0.5-3.2-2.1-4.7-6c-1.5-3.9-1.3-7.4-0.5-7.6c0.9-0.2,2.1,2.8,3.5,6.4
						C839.3,464.1,840.3,467.2,839.6,467.7z"/>
				</g>
			</g>
		</g>
		<g id="XMLID_223_">
			<g>
				<g>
					<path class="st2" d="M828.7,474c0.2-0.2,1.3,0.9,3.8,1.9c1.2,0.5,2.8,0.9,4.6,1.1c1.8,0.1,3.9-0.1,6-1c2.1-0.9,4.1-2.5,5.6-4.7
						c0.7-1.1,1.3-2.3,1.7-3.7c0.4-1.3,0.5-2.8,0.5-4.3c0-1.5-0.2-3.1-0.6-4.7c-0.3-1.6-0.7-3.2-1.3-4.8c-1.2-3.1-3-6.2-5.7-8
						c-1.4-0.9-2.9-1.5-4.4-1.6c-1.6-0.2-3.2,0.1-4.7,0.6c-1.5,0.5-2.9,1.3-4,2.3c-1.2,1-2.1,2.1-2.9,3.4c-1.5,2.5-2.3,5.4-2.4,8.1
						c-0.2,2.7,0.2,5.3,0.9,7.5c1.4,4.5,4,7.5,6.1,9.1c2.1,1.6,3.6,2,3.5,2.3c0,0.2-1.7,0.2-4.2-1.2c-2.5-1.4-5.7-4.5-7.6-9.4
						c-0.9-2.4-1.5-5.3-1.4-8.4c0.1-3.1,0.8-6.4,2.5-9.5c1.7-3.1,4.7-5.9,8.5-7.2c1.9-0.6,3.9-1,6-0.8c2.1,0.2,4.2,1,5.9,2.2
						c1.8,1.2,3.2,2.8,4.3,4.4c1.1,1.7,1.9,3.4,2.6,5.2c0.6,1.8,1.1,3.6,1.4,5.3c0.3,1.8,0.5,3.5,0.5,5.2c0,1.7-0.2,3.5-0.7,5.1
						c-0.5,1.6-1.3,3.1-2.2,4.4c-1.9,2.6-4.4,4.3-6.9,5.3c-2.5,0.9-5,1-7.1,0.7c-2.1-0.3-3.7-1-5-1.7
						C829.4,475.5,828.5,474.1,828.7,474z"/>
				</g>
			</g>
		</g>
		<g id="XMLID_230_">
			<g>
				<g>
					<path class="st2" d="M885.6,445.5c0.1,0.2-0.2,0.6-1,1.2c-0.8,0.6-1.9,1.2-3.4,1.8c-2.9,1.3-7,2.8-11.6,4.2
						c-9.2,3-16.8,4.7-17.1,3.8c-0.3-0.9,6.9-4,16.1-6.9c4.6-1.5,8.8-2.6,11.9-3.3c1.5-0.3,2.7-0.6,3.6-0.8
						C885,445.4,885.5,445.3,885.6,445.5z"/>
				</g>
			</g>
		</g>
		<g id="XMLID_251_">
			<g>
				<g>
					<path class="st2" d="M891.3,475.3c0.1-0.2,1.1,0.1,2.8,0.5c0.8,0.2,1.9,0.4,3,0.4c1.1,0,2.4-0.2,3.6-0.9c2.5-1.3,4.7-4.2,6-7.9
						c1.3-3.7,1.7-8.1,0.4-12.3c-1.3-4.2-4.5-7.4-7.8-9.1c-1.7-0.8-3.5-1.3-5.1-1.3c-1.7,0-3.3,0.2-4.6,0.7c-2.8,1-4.7,2.6-5.8,3.9
						c-1.1,1.3-1.6,2.1-1.8,2.1c-0.2-0.1-0.1-1.1,0.8-2.8c0.9-1.6,2.8-3.8,5.9-5.3c1.6-0.7,3.4-1.2,5.5-1.3c2.1-0.1,4.3,0.3,6.4,1.3
						c4.2,1.8,8.1,5.7,9.7,10.8c1.6,5.1,1,10.3-0.7,14.4c-1.6,4.2-4.5,7.5-7.8,8.9c-1.6,0.7-3.3,0.9-4.7,0.7
						c-1.4-0.2-2.5-0.7-3.3-1.1C892,476.2,891.2,475.5,891.3,475.3z"/>
				</g>
			</g>
		</g>
		<g id="XMLID_253_">
			<g>
				<g>
					<path class="st2" d="M861.5,409.8c0.7,0.5-5.3,9.1-14.9,17.7c-2.4,2.1-4.8,4.1-7,5.7c-2.2,1.6-4.2,3.1-6.2,4.2
						c-1.9,1.1-3.7,1.6-5,1.6c-1.3,0-1.9-0.2-1.9-0.5c0-0.2,0.6-0.4,1.7-0.8c1-0.4,2.4-1.1,4-2.3c1.6-1.2,3.4-2.8,5.5-4.6
						c2.1-1.8,4.3-3.7,6.7-5.8C853.8,416.7,860.8,409.2,861.5,409.8z"/>
				</g>
			</g>
		</g>
		<g id="XMLID_255_">
			<g>
				<g>
					<path class="st2" d="M894.3,444.2c0,0.2-0.7,0.4-2,0.4c-1.3-0.1-3.2-0.6-5.2-1.7c-2-1.1-4.1-2.6-6.5-4.3
						c-2.3-1.7-4.9-3.7-7.4-5.9c-2.5-2.3-4.8-4.6-6.6-6.9c-1.8-2.3-3.3-4.6-4.2-6.7c-1.9-4.1-2.1-7-1.8-7c0.5-0.1,1.5,2.4,3.8,5.9
						c1.2,1.8,2.7,3.8,4.5,5.9c1.9,2.1,4.1,4.3,6.5,6.4c2.4,2.2,4.9,4.2,7.1,6c2.2,1.8,4.2,3.5,5.9,4.8
						C891.7,443.4,894.3,443.7,894.3,444.2z"/>
				</g>
			</g>
		</g>
		<g id="XMLID_264_">
			<g>
				<g>
					<path class="st2" d="M944.9,495.5c0.1,0.4-2.6,1.8-7.5,2.7c-2.5,0.4-5.5,0.7-8.8,0.3c-3.3-0.4-7-1.4-10.4-3.5
						c-1.7-1.1-3.2-2.3-4.5-3.7c-1.3-1.4-2.3-2.8-3.2-4.2c-0.9-1.4-1.6-2.7-2.3-4c-0.7-1.3-1.3-2.5-1.8-3.7c-1-2.4-1.1-4.6-0.8-6.1
						c0.4-1.5,1-2,1.2-1.9c0.2,0.1,0,0.8,0.1,2.1c0,1.2,0.5,3,1.6,5c0.5,1,1.2,2.1,2,3.3c0.8,1.2,1.6,2.5,2.5,3.7
						c1.8,2.5,3.9,5,6.9,6.8c2.9,1.8,6.1,2.8,9.1,3.3c3,0.5,5.8,0.5,8.1,0.4C941.8,495.7,944.8,495.1,944.9,495.5z"/>
				</g>
			</g>
		</g>
		<g id="XMLID_273_">
			<g>
				<g>
					<path class="st2" d="M952.2,518.2c-0.2,0.4-1.8,0.1-4.1-1.2c-1.1-0.6-2.4-1.5-3.7-2.6c-1.3-1.1-2.6-2.4-3.9-4
						c-1.2-1.6-2.2-3.2-3-4.7c-0.8-1.5-1.3-3-1.7-4.2c-0.7-2.5-0.7-4.1-0.2-4.2c0.9-0.2,2.9,5.5,7.5,11.1
						C947.5,514.1,952.6,517.4,952.2,518.2z"/>
				</g>
			</g>
		</g>
		<g id="XMLID_283_">
			<g>
				<g>
					<path class="st2" d="M855.1,492.3c0.4,0.1,0.5,1.5-0.3,3.6c-0.4,1.1-1.1,2.2-2,3.4c-0.9,1.2-2.2,2.3-3.6,3.3
						c-1.5,0.9-3,1.6-4.4,2c-1.5,0.4-2.8,0.5-3.9,0.4c-2.3-0.1-3.5-0.8-3.4-1.2c0.1-0.5,1.4-0.6,3.2-1.1c0.9-0.2,2-0.6,3.2-1
						c1.2-0.5,2.4-1.1,3.6-1.9c1.2-0.8,2.2-1.7,3.1-2.5c0.9-0.9,1.6-1.7,2.2-2.5C854,493.3,854.7,492.2,855.1,492.3z"/>
				</g>
			</g>
		</g>
		<g id="XMLID_292_">
			<g>
				<g>
					<path class="st2" d="M857.8,495.8c-0.4,0.2-1-0.1-1.6-0.6c-0.6-0.4-1.3-1-2.1-1.6c-0.8-0.6-1.5-1.1-2.1-1.6
						c-0.6-0.5-1-0.9-0.9-1.4c0-0.4,0.6-0.8,1.6-0.8c1,0,2.3,0.4,3.4,1.2c1.2,0.9,1.9,2.1,2.1,3C858.4,495,858.2,495.7,857.8,495.8z
						"/>
				</g>
			</g>
		</g>
		<g id="XMLID_301_">
			<g>
				<g>
					<path class="st2" d="M825.5,461.3c0,0.9-2.9,1.6-6.1,3c-3.2,1.4-5.6,3.1-6.3,2.5c-0.3-0.3-0.1-1.2,0.8-2.3
						c0.8-1.1,2.3-2.3,4.2-3.2c1.9-0.8,3.8-1.1,5.2-1C824.7,460.4,825.5,460.9,825.5,461.3z"/>
				</g>
			</g>
		</g>
		<g id="XMLID_536_">
			<g>
				<g>
					<path class="st2" d="M909,396.2c-0.9-0.1-1.3-3.4-2.3-7.2c-0.9-3.8-2.2-6.8-1.5-7.4c0.4-0.2,1.2,0.2,2.1,1.4
						c0.9,1.1,1.9,3,2.5,5.2c0.6,2.2,0.6,4.3,0.3,5.7C909.9,395.4,909.4,396.2,909,396.2z"/>
				</g>
			</g>
		</g>
		<g id="XMLID_544_">
			<g>
				<g>
					<path class="st2" d="M930,393.2c-0.2,0.9-4.8,0.8-10,2.1c-5.3,1.3-9.3,3.6-9.9,2.8c-0.3-0.3,0.4-1.4,2-2.7
						c1.6-1.2,4.1-2.6,7.1-3.3c3-0.7,5.8-0.7,7.8-0.4C928.9,392.1,930,392.8,930,393.2z"/>
				</g>
			</g>
		</g>
	</g>
	<g id="character">
		<path id="XMLID_1368_" d="M1000.8,892c-2,3.1-3.9,6.6-5.6,10.6c-5.8,13.3-7,25.7-7,34.4c4.8,0.2,12.2,0.7,21.2,2
			c9.9,1.4,13.4,2.5,34.4,7c28.6,6,24,4.3,29.5,6c2.5,0.8,9.8,2,24.5,4.6c1.9,0.3,6.5,1.1,10.6-1.3c0.6-0.3,4.5-2.6,4.3-5.6
			c-0.1-1.6-1.2-2.6-2.3-3.6c-3.9-3.6-7.6-2.6-11.6-6c-1.4-1.1-2.2-2.3-2.6-3c2.7,1.2,7.9,3,14.6,2.6c9.3-0.6,15.6-5.1,17.9-7
			c-3-0.7-7.5-2.2-12.3-5.3c-4.7-3.1-7.4-6.5-8.6-7.9c-10.1-12.3-19.2-23.3-31.1-29.8c-8.9-4.9-18.7-6.8-22.8-7.6
			c-7.9-1.6-10.1-0.9-15.2-2.3c-6.1-1.6-14.4-5.6-23.2-16.2C1010.5,873,1005.6,882.5,1000.8,892z"/>
		<path id="XMLID_7_" class="st0" d="M879.8,734.3c-3.5,12.6-7.6,24.5-12,35.7c-22.4,9.2-40.4,18.3-53.3,25.3
			c-37.2,20.3-42.6,29-45.1,36.1c-5.8,16.6,1.2,33.6,2.9,37.6c6.2,14.9,17.8,24.7,21.1,27.4c0.9,0.7,1.6,1.3,2,1.6
			c4.7,3.5,13.9,9,39.6,18.4c11.8,4.3,22.9,8.3,39,12.6c35.4,9.4,64.1,11.9,80.6,13.2c14.5,1.2,26.6,1.5,34.8,1.6
			c-1.8-8.4-1.5-15.1-1.1-19.5c1.6-14.4,8-24.7,12.6-32.1c3.6-5.6,7.1-9.9,9.5-12.6c3-3.9,6-7.7,9-11.6c4.4,3.2,8.8,6.3,13.2,9.5
			c2.1-7.7,4.2-15.4,6.3-23.2c-2.5-1.9-6.2-4.5-11.1-6.8c-5.7-2.8-11.2-4.5-20.5-6.3c-7.9-1.5-18.8-3.1-32.1-3.7
			c5.4-3.6,11.8-8.7,17.9-15.8c12.6-14.5,17.8-29.9,20-39c1.9-1.9,3.9-3.9,5.8-5.8c1.6-9.1,3.9-23.6,5.3-41.6
			c4.9-66.1-7.3-112.8-15.8-144.8c-1.3-5-5.8-21.5-16.9-40c-11-18.5-20.2-24.9-24.2-27.4c-8.5-5.3-16.8-7.5-22.1-8.4
			c-19.4,15.2-38.9,30.4-58.3,45.6C894.9,605.5,898.6,666.9,879.8,734.3z"/>
		<g id="XMLID_319_">
			<g>
				<g>
					<path class="st2" d="M1018.5,775.8c-0.1,0,0-1.1,0.3-3c0.2-1,0.4-2.2,0.6-3.6c0.3-1.4,0.6-3,0.8-4.9c0.3-1.8,0.6-3.9,0.9-6.1
						c0.3-2.2,0.6-4.7,0.9-7.3c0.4-2.6,0.6-5.4,0.9-8.4c0.1-1.5,0.3-3,0.4-4.6c0.1-1.6,0.2-3.2,0.3-4.8c0.4-6.6,0.6-13.8,0.6-21.6
						c-0.1-7.8-0.3-16.1-1-24.8c-0.3-4.4-0.7-8.8-1.1-13.4c-0.5-4.5-1-9.2-1.6-13.9c-1.2-9.4-2.7-19.2-4.4-29.1
						c-3.4-19.9-7.5-38.7-13.5-55c-6-16.3-14-30-22.5-40c-8.5-10-17.7-15.8-24.6-18.2c-6.9-2.5-11.1-2.4-11.1-2.7c0-0.1,1-0.2,3-0.1
						c2,0.2,4.9,0.5,8.5,1.6c7.2,2.1,17,7.8,25.9,17.9c9,10,17.3,23.9,23.6,40.4c6.3,16.5,10.5,35.6,13.9,55.5
						c1.7,10,3.2,19.8,4.3,29.3c0.6,4.7,1,9.4,1.5,14c0.4,4.6,0.8,9.1,1,13.5c0.6,8.8,0.7,17.1,0.7,25c-0.1,7.8-0.4,15.1-1,21.7
						c-0.1,1.7-0.3,3.3-0.4,4.9c-0.1,1.6-0.4,3.1-0.5,4.6c-0.4,3-0.7,5.8-1.1,8.4c-0.4,2.6-0.8,5-1.2,7.3c-0.4,2.2-0.9,4.2-1.2,6.1
						c-0.3,1.8-0.7,3.4-1.1,4.8c-0.4,1.4-0.7,2.6-0.9,3.5C1019,774.8,1018.6,775.8,1018.5,775.8z"/>
				</g>
			</g>
		</g>
		<g id="XMLID_402_">
			<g>
				<g>
					<path class="st2" d="M867.9,770c-0.8-0.5,3.3-9.3,6.8-20.7c3.5-11.4,5.1-21.1,6-21c0.4,0,0.6,2.5,0.2,6.5
						c-0.4,4-1.3,9.5-3.1,15.4c-1.8,5.9-4.1,11-6,14.5C869.8,768.2,868.3,770.2,867.9,770z"/>
				</g>
			</g>
		</g>
		<g id="XMLID_411_">
			<g>
				<g>
					<path class="st2" d="M1017.6,778.9c0.1,0.2-1.6,1.7-4.9,4c-3.3,2.4-8.3,5.4-14.9,8.6c-1.6,0.8-3.4,1.5-5.2,2.3
						c-1.8,0.8-3.8,1.5-5.8,2.2c-4.1,1.4-8.4,2.7-13.2,3.7c-9.4,2.1-20.1,3.1-31.2,2.4c-11.1-0.7-21.6-3-30.7-6.2
						c-4.6-1.6-8.8-3.4-12.6-5.3c-1.9-1-3.8-1.9-5.5-2.9c-1.7-1-3.4-1.9-4.9-2.9c-6.1-3.9-10.8-7.6-13.7-10.3
						c-3-2.7-4.5-4.4-4.3-4.6c0.2-0.2,1.9,1.2,5.1,3.6c3.2,2.4,7.9,5.7,14.1,9.3c1.5,0.9,3.2,1.7,4.9,2.7c1.7,0.9,3.6,1.7,5.4,2.7
						c3.8,1.7,8,3.4,12.4,4.9c8.9,3,19.1,5.1,29.9,5.8c10.8,0.6,21.2-0.3,30.4-2.1c4.6-0.9,8.9-2.1,12.9-3.3c2-0.7,3.9-1.3,5.7-2
						c1.8-0.7,3.6-1.3,5.2-2.1c6.6-2.8,11.7-5.5,15.1-7.5C1015.5,779.8,1017.4,778.7,1017.6,778.9z"/>
				</g>
			</g>
		</g>
		<g id="XMLID_420_">
			<g>
				<g>
					<path class="st2" d="M868.4,772.7c0.1,0.5-5.5,2.6-14.5,6.2c-2.2,0.9-4.7,1.9-7.3,3c-2.6,1.1-5.4,2.3-8.3,3.6
						c-5.8,2.6-12.2,5.7-18.8,9.1c-6.6,3.4-12.7,6.9-18.2,10.1c-2.7,1.7-5.4,3.2-7.8,4.7c-2.4,1.5-4.7,2.9-6.7,4.2
						c-8.2,5.2-13.1,8.7-13.4,8.3c-0.3-0.3,4.2-4.4,12.1-10.2c2-1.4,4.1-3,6.5-4.6c2.4-1.6,5-3.3,7.7-5c5.5-3.4,11.7-7,18.3-10.4
						c6.6-3.4,13.1-6.4,19.1-8.9c3-1.2,5.8-2.4,8.5-3.4c2.7-1,5.2-1.9,7.5-2.7C862.4,773.6,868.3,772.3,868.4,772.7z"/>
				</g>
			</g>
		</g>
		<g id="XMLID_429_">
			<g>
				<g>
					<path class="st2" d="M985.8,944.5c-0.1,0.2-3.3-1.2-9.5-1.2c-1.5,0-3.3,0-5.2,0c-1.9,0-4,0-6.2,0c-2.2,0-4.6-0.1-7.1-0.1
						c-2.5,0-5.2-0.2-8-0.3c-11.2-0.6-24.5-1.8-39.2-4c-14.6-2.3-30.7-5.6-47.1-10.3c-4.1-1.1-8.2-2.4-12.1-3.6
						c-2-0.7-3.9-1.3-5.9-1.9c-1-0.3-1.9-0.6-2.9-1c-1-0.3-1.9-0.7-2.9-1c-7.6-2.7-14.9-5.5-21.7-8.6c-6.8-3.1-13-6.5-18.6-10.2
						c-5.5-3.7-10.4-7.7-14.3-11.8c-8-8.1-12.4-16.4-14.6-22.3c-0.3-0.7-0.5-1.4-0.7-2.1c-0.2-0.7-0.4-1.3-0.6-1.9
						c-0.3-1.2-0.6-2.2-0.7-3c-0.3-1.6-0.4-2.5-0.3-2.5c0.3-0.1,0.9,3.4,3.5,9c2.5,5.6,7.1,13.4,15.1,21.1
						c3.9,3.9,8.7,7.6,14.1,11.1c5.5,3.5,11.6,6.7,18.3,9.7c6.7,3,13.9,5.7,21.5,8.3c0.9,0.3,1.9,0.7,2.8,1c1,0.3,1.9,0.6,2.9,0.9
						c1.9,0.6,3.9,1.3,5.9,1.9c4,1.2,8,2.5,12.1,3.6c16.3,4.7,32.2,8,46.7,10.5c14.5,2.4,27.7,3.8,38.8,4.7c2.8,0.2,5.4,0.4,7.9,0.5
						c2.5,0.1,4.9,0.3,7.1,0.4c2.2,0.1,4.3,0.2,6.2,0.3c1.9,0.1,3.6,0.1,5.2,0.2c3.2,0.2,5.6,0.7,7.2,1.3
						C985.1,943.9,985.8,944.4,985.8,944.5z"/>
				</g>
			</g>
		</g>
		<g id="XMLID_438_">
			<g>
				<g>
					<path class="st2" d="M1014.2,782.7c0.2,0.1-0.6,2.8-2.2,7.6c-0.9,2.4-2.2,5.2-3.7,8.6c-0.8,1.6-1.8,3.3-2.8,5.1
						c-0.5,0.9-1,1.8-1.5,2.8c-0.6,0.9-1.2,1.9-1.8,2.8c-4.9,7.8-11.8,16.5-20.8,24.6c-9,8.2-20.3,15.8-33.2,21.4
						c-12.9,5.7-26.1,8.9-38.3,9.7c-6.1,0.4-11.9,0.4-17.2,0.2c-5.4-0.2-10.4-0.5-14.9-0.8c-9.1-0.6-16.5-1.9-21.4-3.6
						c-4.9-1.6-7.3-3.1-7.3-3.3c0.1-0.2,2.7,0.9,7.6,2.1c4.9,1.2,12.1,2.2,21.2,2.5c4.5,0.2,9.5,0.4,14.8,0.4c5.3,0.1,11,0,16.9-0.5
						c11.8-0.9,24.7-4.1,37.2-9.7c12.5-5.5,23.5-12.9,32.5-20.7c9-7.8,15.8-16.2,20.9-23.6c0.6-0.9,1.3-1.8,1.9-2.7
						c0.6-0.9,1.1-1.8,1.6-2.7c1-1.7,2-3.4,2.9-4.9c1.6-3.2,3.1-5.9,4.1-8.2C1012.7,785.1,1014,782.6,1014.2,782.7z"/>
				</g>
			</g>
		</g>
		<g id="XMLID_447_">
			<g>
				<g>
					<path class="st2" d="M1012,880c-0.1,0.4-5.9-0.3-15.2-1.8c-9.3-1.5-22.1-3.9-36.3-6.4c-14.1-2.4-27-4.1-36.4-4.8
						c-9.4-0.8-15.2-0.9-15.2-1.4c0-0.4,5.8-1.1,15.3-0.9c9.5,0.2,22.6,1.4,36.8,3.9c14.2,2.5,27,5.3,36.2,7.3
						C1006.4,878,1012,879.5,1012,880z"/>
				</g>
			</g>
		</g>
		<g id="XMLID_456_">
			<g>
				<g>
					<path class="st2" d="M989.1,944.7c-0.2,0.1-0.7-0.8-1.3-2.6c-0.6-1.7-1.2-4.4-1.4-7.7c-0.2-3.3,0.1-7.2,0.9-11.5
						c0.8-4.2,2.2-8.8,4-13.4c3.6-9.3,8.2-17,12-22.2c3.8-5.2,6.7-8,7-7.8c0.4,0.3-1.9,3.6-5.1,9c-3.3,5.4-7.4,13.1-10.9,22.1
						c-1.8,4.5-3.2,8.8-4.1,12.9c-1,4-1.4,7.7-1.5,10.8c-0.1,3.1,0.1,5.6,0.3,7.4C989.2,943.6,989.3,944.6,989.1,944.7z"/>
				</g>
			</g>
		</g>
		<g id="XMLID_466_">
			<g>
				<g>
					<path class="st2" d="M1037.9,853.4c-0.3,0.4-3.2-1.9-8.6-3.8c-2.7-1-6-1.9-9.8-2.9c-3.8-1-7.9-2.2-12.2-3.5
						c-4.3-1.3-8.4-2.5-12.1-3.4c-3.7-0.9-7.1-1.5-10-1.8c-5.7-0.6-9.3,0-9.4-0.5c-0.1-0.4,3.5-1.8,9.6-1.8c3,0,6.6,0.4,10.5,1.2
						c3.9,0.8,8.1,2,12.4,3.2c4.3,1.3,8.4,2.5,12.1,3.7c3.7,1.2,7.1,2.3,9.9,3.6c2.7,1.3,4.8,2.7,6.1,3.8
						C1037.5,852.4,1038,853.2,1037.9,853.4z"/>
				</g>
			</g>
		</g>
		<g id="XMLID_475_">
			<g>
				<g>
					<path class="st2" d="M1038.7,857.1c0.1,0.5-2,1-4.9,2.3c-3,1.3-6.8,3.6-10.4,7c-3.6,3.4-6.5,7-8.6,9.5
						c-2.1,2.6-3.5,4.2-3.9,3.9c-0.4-0.2,0.3-2.2,2-5.2c1.7-3,4.4-7,8.3-10.6c4-3.7,8.5-5.9,11.9-6.8
						C1036.4,856.3,1038.6,856.7,1038.7,857.1z"/>
				</g>
			</g>
		</g>
		<g id="XMLID_484_">
			<g>
				<g>
					<path class="st2" d="M1034.7,903.9c0,0.4-2,0.7-5.1,0.5c-3.1-0.2-7.4-1-11.9-2.5c-4.5-1.6-8.3-3.6-10.9-5.4
						c-2.6-1.8-3.9-3.2-3.7-3.5c0.5-0.8,7,2.9,15.6,5.9C1027.3,901.9,1034.7,903,1034.7,903.9z"/>
				</g>
			</g>
		</g>
		<g id="XMLID_494_">
			<g>
				<g>
					<path class="st2" d="M1112.8,947.8c-0.1,0.2-1.5-0.1-3.9-1c-2.4-0.9-5.9-2.4-9.8-4.9c-3.9-2.4-8.4-5.7-12.9-9.9
						c-4.5-4.1-9.2-9-13.8-14.2c-2.3-2.6-4.6-5.2-6.7-7.7c-2.1-2.5-4.2-4.8-6.3-6.7c-2.2-1.9-4.4-3.3-6.8-4.1
						c-2.3-0.8-4.7-0.9-6.7-0.5c-2,0.4-3.7,1.5-5.3,2.4c-1.6,0.9-3,1.7-4.3,2.1c-1.3,0.4-2.4,0.5-3.1,0.4c-0.7-0.1-1-0.3-1-0.4
						c0-0.3,1.5-0.1,3.6-1.2c1.1-0.6,2.3-1.4,3.8-2.5c1.5-1,3.2-2.4,5.7-3.1c2.4-0.7,5.3-0.7,8.1,0.1c2.8,0.8,5.5,2.4,8,4.4
						c2.4,2,4.6,4.5,6.8,6.9c2.2,2.5,4.4,5,6.7,7.6c4.6,5.2,9.1,10,13.4,14.1c4.3,4.1,8.5,7.5,12.2,10.1c3.7,2.6,6.9,4.4,9.1,5.7
						C1111.7,946.8,1112.9,947.6,1112.8,947.8z"/>
				</g>
			</g>
		</g>
		<g id="XMLID_503_">
			<g>
				<g>
					<path class="st2" d="M1112.3,949.2c0.1,0,0.4,0.4,0.4,1.3c0,1-0.5,2.4-1.9,3.6c-1.3,1.2-3.3,2.2-5.7,2.7
						c-2.4,0.5-5.1,0.7-8.1,0.6c-6.1-0.1-13.1-1.6-20.6-3.5c-7.6-1.8-15.9-3.7-24.7-5.5c-17.6-3.7-33.6-6.3-45.2-8.1
						c-11.6-1.8-18.8-2.8-18.8-3.3c0-0.4,7.3-0.2,19.1,1c11.7,1.2,27.9,3.5,45.6,7.1c8.8,1.8,17.2,3.8,24.7,5.8
						c7.5,2,14.2,3.7,20,4.1c2.9,0.2,5.5,0.1,7.7-0.1c2.2-0.2,4-1,5.2-1.9c1.2-0.9,1.8-1.9,2-2.7
						C1112.2,949.7,1112.1,949.2,1112.3,949.2z"/>
				</g>
			</g>
		</g>
		<g id="XMLID_512_">
			<g>
				<g>
					<path class="st2" d="M1125.9,930.9c0,0.1-0.5,0.1-1.3,0c-0.4-0.1-1-0.1-1.6-0.2c-0.6-0.2-1.3-0.3-2.1-0.5
						c-3.2-0.9-7.6-3-12.4-6.5c-4.8-3.5-9.7-8.6-14.8-14.4c-5.1-5.8-10.4-12.3-17.2-17.7c-3.4-2.7-7-4.9-10.7-6.4
						c-0.9-0.4-1.9-0.7-2.8-1c-0.9-0.2-1.9-0.5-2.8-0.7c-1.9-0.4-3.7-0.6-5.6-0.6c-1.9-0.1-3.8-0.1-5.6-0.2
						c-0.9-0.1-1.9-0.1-2.8-0.3c-0.5-0.1-0.9-0.1-1.4-0.2c-0.4-0.1-0.9-0.2-1.3-0.3c-3.5-0.8-6.5-2-9.2-3.3
						c-5.3-2.7-9.2-5.5-11.8-7.5c-2.6-2-3.9-3.2-3.8-3.4c0.1-0.2,1.7,0.7,4.5,2.3c2.8,1.6,6.8,4.1,12,6.4c2.6,1.1,5.5,2.2,8.8,2.8
						c0.4,0.1,0.8,0.1,1.2,0.2c0.4,0,0.8,0.1,1.3,0.2c0.8,0.1,1.7,0.2,2.6,0.2c1.8,0.1,3.6,0,5.6,0.1c3.9,0,8.3,0.7,12.3,2.3
						c4.1,1.6,7.9,4,11.5,6.8c7.1,5.7,12.6,12.4,17.5,18.3c4.9,5.9,9.5,10.9,13.9,14.6c4.4,3.7,8.4,5.9,11.4,7.1
						c0.7,0.3,1.4,0.6,2,0.8c0.6,0.2,1.1,0.4,1.5,0.5C1125.5,930.5,1125.9,930.8,1125.9,930.9z"/>
				</g>
			</g>
		</g>
		<g id="XMLID_520_">
			<g>
				<g>
					<path class="st2" d="M1128.9,931.8c0.3,0.3-1,2-3.5,4.3c-1.3,1.1-3.1,2.3-5.2,3.3c-2.1,1-4.5,1.8-7.2,2.2
						c-5.3,0.9-10.2,0.1-13.4-1.1c-3.3-1.2-4.9-2.6-4.7-3c0.2-0.4,2.2,0.2,5.3,0.8c3.1,0.6,7.6,0.9,12.3,0.1
						c4.8-0.8,8.8-2.6,11.5-4.2C1126.7,932.5,1128.6,931.4,1128.9,931.8z"/>
				</g>
			</g>
		</g>
		<g id="XMLID_552_">
			<g>
				<g>
					<path class="st2" d="M950.6,514.8c0.2,0.5-4.2,2.1-10.8,5.4c-6.6,3.3-15.4,8.4-24.1,15.5c-4.3,3.5-8.2,7.2-11.5,10.8
						c-3.3,3.5-6.1,7.1-8.9,9.6c-2.8,2.6-5.8,4.2-7.9,4.5c-2.2,0.4-3.4,0.1-3.4-0.1c0-0.3,1.2-0.4,3-1.1c1.9-0.7,4.2-2.3,6.7-5
						c2.5-2.6,5-6.2,8.3-10c3.3-3.8,7.2-7.6,11.7-11.3c8.9-7.3,18.3-12.3,25.2-15.1C945.9,515.3,950.5,514.4,950.6,514.8z"/>
				</g>
			</g>
		</g>
		<g id="XMLID_1375_">
			<g>
				<g>
					<path class="st3" d="M1094.8,931.7c-0.1,0.2-1.4-0.3-3.7-1.5c-2.2-1.2-5.4-3.2-8.9-6.1c-3.6-2.8-7.6-6.5-12-10.4
						c-4.5-3.9-9.4-8.1-15.2-11.4c-2.9-1.6-5.9-3-8.9-3.9c-3-0.9-6-1.5-8.9-2c-5.8-0.9-11.2-1.3-15.7-2.1c-4.5-0.7-8.1-1.7-10.5-2.6
						c-1.2-0.4-2.1-0.9-2.7-1.2c-0.6-0.3-0.9-0.6-0.8-0.7c0-0.1,0.4-0.1,1.1,0c0.7,0.1,1.6,0.4,2.8,0.6c2.4,0.5,6,1.1,10.4,1.5
						c4.4,0.5,9.8,0.6,15.8,1.4c3,0.4,6.2,0.9,9.4,1.9c3.2,0.9,6.4,2.4,9.5,4.1c6.2,3.5,11.2,8,15.6,12.1c4.4,4.1,8.2,7.9,11.5,10.9
						c3.3,3,6.2,5.2,8.1,6.8C1093.8,930.6,1094.9,931.5,1094.8,931.7z"/>
				</g>
			</g>
		</g>
		<g>
			<g>
				<g>
					<path class="st2" d="M874.8,748.4c-0.5-0.2,1.8-8,4.9-20.9c0.4-1.6,0.8-3.3,1.2-5.1c0.4-1.8,0.8-3.6,1.2-5.5
						c0.9-3.8,1.6-7.9,2.4-12.2c1.5-8.6,3-18.1,4.2-28.1c1.1-10,1.8-19.6,2.2-28.3c0.1-4.4,0.3-8.5,0.3-12.4c0-1.9,0.1-3.8,0.1-5.6
						c0-1.8,0-3.5,0-5.2c-0.1-13.2-0.6-21.4-0.1-21.5c0.2,0,0.6,2,1.1,5.7c0.1,0.9,0.2,2,0.4,3.1c0.1,1.1,0.2,2.4,0.3,3.7
						c0.2,2.6,0.5,5.6,0.6,9c0.1,1.7,0.2,3.4,0.2,5.2c0.1,1.8,0.1,3.7,0.1,5.7c0.1,3.9,0,8.1,0,12.5c-0.2,8.8-0.8,18.5-2,28.6
						c-1.2,10.1-2.7,19.7-4.5,28.3c-0.9,4.3-1.8,8.4-2.7,12.2c-0.5,1.9-0.9,3.7-1.4,5.5c-0.5,1.8-1,3.4-1.4,5
						c-0.9,3.2-1.8,6.1-2.6,8.6c-0.4,1.3-0.8,2.4-1.1,3.5c-0.4,1.1-0.7,2-1.1,2.9C875.8,746.6,875,748.5,874.8,748.4z"/>
				</g>
			</g>
		</g>
	</g>
	<g id="hand_left">
		<path id="XMLID_1312_" class="st0" d="M902.1,546.8c-5,4.5-11.3,10.6-17.9,18.4c-11.2,13.5-17.6,25.3-19.5,29
			c-6.4,12.3-7.7,19.4-14.2,43.2c-8.2,29.8-12.3,44.6-17.9,57.9c-11.2,26.6-21.8,39.2-26.3,44.2c-7.7,8.5-15.1,14.5-20.5,18.4
			c-0.7,2.3-1.4,4.6-2.1,6.8c-2.4,0.4-5.9,0.6-10,0c-7.4-1.1-10.3-4.3-14.2-3.2c-2.2,0.6-5.1,2.7-7.4,9.5
			c-5.2,3.2-10.3,6.4-15.5,9.6c-13.4,9.2-17,23.8-11.9,31.8c3,4.7,9.3,7.4,15.3,7.4c9.5,0,14.9-7.1,15.5-7.8
			c2.2,1.4,9.1,5.6,18.1,4.4c9.9-1.3,18.4-8.6,22.2-18.7c9.2-1.8,22.2-5.5,36-13.7c22.1-13.1,34.3-30.7,39.9-40.2
			c15.4-36.4,30.9-72.8,46.3-109.2C912.6,605.4,907.3,576.1,902.1,546.8z"/>
		<g id="XMLID_310_">
			<g>
				<g>
					<path class="st2" d="M787.6,756.6c-0.2-0.2,2.7-2.3,7.3-6.5c4.6-4.2,11-10.6,17.5-19.7c6.5-9,13.1-20.7,18.7-34.3
						c5.6-13.7,10.3-29.3,14.6-45.8c4.3-16.6,8.1-32.6,13.2-46.6c1.3-3.5,2.6-6.9,4.1-10.2c1.4-3.3,2.9-6.4,4.5-9.3
						c3.2-5.9,6.6-11.1,10.1-15.6c7-9,14.2-14.9,19.6-18.3c0.7-0.4,1.3-0.8,1.9-1.2c0.6-0.4,1.2-0.7,1.7-1c1.1-0.6,2-1.1,2.8-1.4
						c1.5-0.7,2.3-1,2.4-0.9c0.1,0.3-3,1.8-8.1,5.5c-5.1,3.6-11.9,9.7-18.5,18.6c-3.3,4.4-6.5,9.6-9.5,15.4c-1.5,2.9-2.9,6-4.3,9.2
						c-1.4,3.2-2.6,6.6-3.9,10c-4.9,13.9-8.6,29.8-12.9,46.4c-4.3,16.6-9.1,32.4-14.9,46.2c-5.8,13.8-12.7,25.5-19.6,34.5
						c-6.9,9-13.6,15.4-18.5,19.3c-1.2,1-2.4,1.8-3.3,2.5c-1,0.7-1.8,1.3-2.5,1.7C788.4,756.3,787.7,756.7,787.6,756.6z"/>
				</g>
			</g>
		</g>
		<g id="XMLID_328_">
			<g>
				<g>
					<path class="st2" d="M800.1,798c0,0.2-0.7,0.4-1.9,0.3c-1.2,0-3-0.5-5.1-1.5c-2-1-4.1-2.8-6-5.1c-1.8-2.3-3.4-5.3-4.2-8.6
						c-0.8-3.3-0.9-6.5-0.7-9.4c0.2-2.9,0.7-5.4,1.1-7.5c1-4.1,2-6.6,2.5-6.5c0.5,0.1,0.2,2.7-0.2,6.9c-0.4,4.1-0.9,9.8,0.5,15.7
						c0.7,2.9,2,5.5,3.4,7.6c1.5,2.1,3.2,3.8,4.8,4.9C797.5,797.2,800.2,797.5,800.1,798z"/>
				</g>
			</g>
		</g>
		<g id="XMLID_337_">
			<g>
				<g>
					<path class="st2" d="M802.7,798c0-0.1,0.6-0.4,1.9-0.9c0.6-0.2,1.4-0.5,2.4-0.9c0.9-0.4,2-0.8,3.2-1.3
						c4.8-2,11.6-5.2,19.2-10.6c7.6-5.3,15.9-12.7,23.8-22c7.9-9.4,15.3-20.8,21.9-33.3c6.6-12.6,12-25,16.9-36.4
						c4.9-11.4,9.3-21.6,13.1-30.2c3.8-8.6,6.9-15.5,9.1-20.3s3.5-7.3,3.7-7.3c0.2,0.1-0.7,2.8-2.6,7.7c-1.8,4.9-4.6,12-8.1,20.7
						c-3.5,8.7-7.7,19-12.4,30.5c-4.8,11.4-10.1,24-16.8,36.8c-6.7,12.7-14.3,24.3-22.5,33.7c-8.2,9.5-16.8,16.9-24.8,22
						c-7.9,5.2-15.1,8.2-20,9.9c-1.3,0.4-2.4,0.7-3.3,1c-1,0.2-1.8,0.4-2.5,0.6C803.4,798,802.7,798.1,802.7,798z"/>
				</g>
			</g>
		</g>
		<g id="XMLID_347_">
			<g>
				<g>
					<path class="st2" d="M749.8,773.7c-0.2-0.2,0-0.7,0.5-1.5c0.4-0.9,1-2.1,1.8-3.6c0.8-1.5,1.7-3.4,3.4-5.3
						c0.9-0.9,2-1.8,3.4-2.4c1.4-0.6,3-0.8,4.5-0.7c3,0.3,5.4,1.4,7.4,2.1c2,0.8,3.8,1.2,5.5,1.5c3.3,0.5,5.4,0.7,5.4,1.2
						c0,0.4-2.1,1.1-5.6,1.1c-0.9,0-1.9-0.1-2.9-0.2c-1.1-0.2-2.2-0.4-3.3-0.8c-2.2-0.6-4.5-1.5-6.7-1.7c-2.2-0.2-4,0.6-5.5,2
						c-1.5,1.3-2.6,3-3.6,4.4c-1,1.4-2,2.5-2.7,3.1C750.5,773.7,750,773.9,749.8,773.7z"/>
				</g>
			</g>
		</g>
		<g id="XMLID_356_">
			<g>
				<g>
					<path class="st2" d="M722.9,801c-0.4-0.1-0.1-2.6,1.4-6.3c0.4-0.9,0.8-1.9,1.4-3c0.5-1.1,1.2-2.1,1.9-3.2
						c1.5-2.2,3.3-4.5,5.4-6.7c2.2-2.1,4.5-3.9,6.7-5.4c1.1-0.7,2.2-1.4,3.2-1.9c1-0.6,2-1,3-1.4c3.7-1.5,6.2-1.7,6.3-1.3
						c0.2,0.5-2,1.5-5.3,3.4c-0.8,0.5-1.7,1-2.6,1.6c-0.9,0.6-1.9,1.3-2.9,2c-2,1.5-4.1,3.2-6.1,5.2c-2,2-3.8,4.1-5.3,6.1
						c-0.7,1-1.4,1.9-2,2.9c-0.6,0.9-1.2,1.8-1.6,2.6C724.4,799,723.3,801.1,722.9,801z"/>
				</g>
			</g>
		</g>
		<g id="XMLID_374_">
			<g>
				<g>
					<path class="st2" d="M795.7,797.9c0.2,0,0.3,0.8,0.1,2.1c-0.2,1.3-0.9,3.1-2.2,5.1c-1.3,2-3.2,4.1-5.5,6c-2.3,1.9-5,4-8.3,5.5
						c-3.4,1.5-7.1,1.9-10.2,1.5c-3.1-0.3-5.8-1.2-7.9-2.1c-4.2-1.8-6.5-3.5-6.3-3.9c0.2-0.4,2.8,0.5,7,1.7c2.1,0.6,4.6,1.1,7.4,1.3
						c2.8,0.1,5.7-0.2,8.6-1.5c2.9-1.3,5.5-3.2,7.8-4.9c2.3-1.7,4.2-3.4,5.5-5.1C794.5,800.5,795.2,797.8,795.7,797.9z"/>
				</g>
			</g>
		</g>
		<g id="XMLID_392_">
			<g>
				<g>
					<path class="st2" d="M746.9,793.9c0.3,0.9-6,3.1-12,8.3c-6.1,5-9.4,10.8-10.2,10.4c-0.4-0.2-0.1-1.9,1.2-4.4
						c0.6-1.3,1.5-2.7,2.7-4.1c1.2-1.5,2.6-3,4.2-4.3c1.7-1.4,3.4-2.5,5-3.4c1.6-0.9,3.2-1.5,4.5-1.9
						C745,793.5,746.7,793.5,746.9,793.9z"/>
				</g>
			</g>
		</g>
		<g id="XMLID_528_">
			<g>
				<g>
					<path class="st2" d="M750.1,800.5c0.4,0.9-5.6,3.9-11.8,9.1c-6.3,5-10.5,10.2-11.3,9.7c-0.4-0.2,0.3-1.9,1.8-4.2
						c1.6-2.3,4.1-5.3,7.4-8c3.3-2.7,6.8-4.6,9.4-5.6C748.2,800.3,750,800.1,750.1,800.5z"/>
				</g>
			</g>
		</g>
		<g>
			<g>
				<g>
					<path class="st2" d="M761.2,808.1c0,0.5-2,0.8-4.9,2c-1.4,0.6-3.1,1.4-4.8,2.5c-1.7,1.1-3.5,2.6-5.5,4.1
						c-2,1.5-4.1,2.9-6.3,3.8c-2.1,0.9-4.3,1.3-6.1,1.2c-0.5,0-0.9-0.1-1.3-0.2c-0.4-0.1-0.9-0.2-1.2-0.4c-0.7-0.3-1.3-0.8-1.6-1.4
						c-0.3-0.5-0.3-1-0.1-1.3c0.1-0.3,0.3-0.4,0.4-0.4c0.1,0,0.1,0.1,0.2,0.3c0.1,0.2,0.2,0.4,0.5,0.6c0.3,0.2,0.7,0.4,1.2,0.4
						c0.4,0.1,1.1,0,1.9-0.1c1.4-0.2,3.1-0.7,4.9-1.6c1.8-0.9,3.6-2.2,5.5-3.7c1.9-1.5,3.9-3,5.9-4.1c2-1.1,4-1.8,5.7-2.1
						C759.1,807.1,761.2,807.6,761.2,808.1z"/>
				</g>
			</g>
		</g>
		<g>
			<g>
				<g>
					<path class="st2" d="M741.6,784.7c0.1,0.5-1.4,1.3-3.6,2.8c-0.6,0.4-1.2,0.8-1.8,1.3c-0.6,0.5-1.3,1-1.9,1.6
						c-1.3,1.2-2.6,2.5-3.9,4.1c-1.2,1.6-2.3,3.2-3.1,4.7c-0.4,0.8-0.8,1.5-1.1,2.2c-0.3,0.7-0.6,1.4-0.9,2c-1,2.5-1.4,4.2-1.9,4.1
						c-0.4,0-0.8-1.8-0.3-4.8c0.1-0.7,0.3-1.5,0.5-2.3c0.2-0.8,0.6-1.7,0.9-2.6c0.8-1.8,1.9-3.7,3.3-5.4c1.4-1.8,3-3.2,4.6-4.4
						c0.8-0.6,1.6-1.1,2.3-1.5c0.7-0.4,1.5-0.8,2.2-1C739.6,784.4,741.5,784.3,741.6,784.7z"/>
				</g>
			</g>
		</g>
	</g>
</g>
<g id="papers">
	<path id="XMLID_1320_" class="st0" d="M677.2,307.5c-0.3,3.8-0.9,9.9-2.3,17.3c-4,21.7-11.6,37.8-21,57.4
		c-3,6.3-7.4,15.2-13.3,25.7c2.8,0.5,7.4,1.4,12.7,3.4c9.5,3.5,12.1,6.9,25,13.8c10.5,5.6,11.1,4.7,16,8.2
		c7.7,5.6,12.2,12.5,14.9,17.5c4.3-4.1,9.9-10.1,15.6-17.9c2.2-2.9,10.2-14.1,17.9-32.4c11.3-27,15.2-54,16.8-69.6
		c-3.8-3-8-5.9-12.7-8.6C720.7,307.1,693.8,306.3,677.2,307.5z"/>
	<path id="XMLID_1328_" class="st0" d="M562.1,244.7c6.2-1.4,14.7-2.6,24.6-1.1c3.1,0.5,6,1.1,8.6,1.9c4.1,8.8,8.2,17.6,12.3,26.4
		c5-7.8,9.9-15.6,14.9-23.5c15.9-2.7,31.8-5.5,47.7-8.2c0.1-17.6,0.2-35.3,0.4-52.9c-19,8.9-38.6,18.6-58.8,29.4
		C594.3,226.1,577.8,235.4,562.1,244.7z"/>
	<path id="XMLID_1336_" class="st0" d="M289.1,825.7c6.6-5.1,13.3-10.2,19.9-15.2c5.3,0.9,10.6,1.8,15.8,2.6c-1-4.4-2-8.8-2.9-13.2
		c8.7-3.2,17.4-6.5,26.1-9.7c11,12,22.1,24,33.1,36.1c-22.8,4.8-45.5,9.6-68.3,14.4c-2.4-4.3-4.9-8.6-7.3-12.9
		C300,827.1,294.6,826.4,289.1,825.7z"/>
	<path id="XMLID_1344_" class="st0" d="M1053.1,77.3c2.7,1.3,7.4,4,11.3,9.2c5.8,7.8,6,16.1,6,18.4c0.1,13.5-9.1,23.7-23.3,39.6
		c-13,14.5-15.9,17.3-15.9,17.3c-4,3.9-7.1,6.5-9.9,11.3c-3.3,5.5-4.5,10.9-4.9,14.5c3.2-0.8,7.9-2,13.8-2.8
		c20.1-2.9,35.7-0.1,50.9,2.8c16.1,3.1,21.9,6,25.5,8.1c6.2,3.7,10.6,7.9,13.4,11c4.1-4.3,9.7-10.4,15.6-18.4
		c14.4-19.6,21.1-36.9,26.2-50.2c7.3-19.3,8-28.2,8.1-31.5c0.5-9.5-0.9-17.3-2.1-22.6c-3.5-1.8-9.2-4.4-16.6-6
		c-9.5-2-16-1.3-27.2-1.1c-13.2,0.2-13.1-0.8-29-1.1C1084.9,75.7,1070.7,75.8,1053.1,77.3z"/>
	<path id="XMLID_1352_" class="st0" d="M1154.5,477.5c2.9,2,6.9,5.1,10.9,9.7c7.4,8.6,10.2,17.3,12,22.9c1,3,3.8,12.8,3.4,25.8
		c-0.2,5.9-1,10.8-1.7,14.3c-3-0.3-7.2-1-11.4-3.4c-6.6-3.7-9.2-9.2-10.3-8.6c-1.2,0.7,1.1,8.7,5.2,16.6c3.4,6.5,9.3,15.4,20,24
		c8.6-2.6,20.2-6.6,33.2-13.2c19.3-9.7,31.1-19.4,52.1-36.6c1.8-1.5,13.7-11.3,26.3-26.3c6-7.1,8.7-11.2,10.3-16.6
		c3.3-11,0.4-20.7-1.1-25.8c-5.1-16.8-16.8-26.8-22.3-30.9c-1,4.5-3.1,11.4-8,18.3c-7.3,10.4-16.6,15.2-25.2,19.5
		c-6.6,3.3-17.8,8-35.5,10.9C1199.4,480.1,1179.3,481.8,1154.5,477.5z"/>
	<g id="XMLID_848_">
		<g>
			<g>
				<path class="st2" d="M678.3,432.2c0.1,0,0,0.7-0.3,2c-0.2,0.7-0.4,1.5-0.6,2.4c-0.3,0.9-0.7,2-1.2,3.2
					c-1.9,4.7-5.5,11.3-11.3,18.4c-2.9,3.5-6.3,7.2-10,11c-3.7,3.8-7.8,7.7-12.1,11.9c-4.2,4.2-8.6,8.6-12.6,13.6
					c-1,1.2-2,2.5-3,3.8c-1,1.3-1.9,2.7-2.8,4c-0.5,0.7-0.9,1.4-1.4,2c-0.5,0.7-0.9,1.4-1.3,2.1c-0.9,1.4-1.7,2.9-2.6,4.3
					c-6.7,11.9-11,24.2-13.4,35.7c-2.4,11.6-2.9,22.3-2.5,31.2c0.1,2.2,0.3,4.4,0.4,6.4c0.2,2,0.5,3.9,0.7,5.7
					c0.2,1.8,0.5,3.4,0.8,4.9c0.3,1.5,0.5,2.9,0.7,4.1c1.2,4.9,1.8,7.6,1.5,7.7c-0.2,0.1-1.2-2.5-2.8-7.4c-0.3-1.2-0.7-2.6-1-4.1
					c-0.4-1.5-0.8-3.1-1.1-4.9c-0.3-1.8-0.6-3.7-1-5.7c-0.2-2-0.4-4.2-0.6-6.5c-0.7-9.1-0.4-20,1.9-31.9
					c2.3-11.8,6.7-24.6,13.5-36.8c0.9-1.5,1.8-3,2.7-4.5c0.5-0.7,0.9-1.5,1.4-2.2c0.5-0.7,1-1.4,1.5-2.1c1-1.4,1.9-2.8,2.9-4.1
					c1.1-1.3,2.1-2.6,3.1-3.9c4.2-5.1,8.7-9.5,13-13.7c4.3-4.2,8.5-8,12.3-11.7c3.8-3.7,7.2-7.2,10.1-10.6
					c5.9-6.7,9.7-12.9,11.9-17.4c0.5-1.1,1-2.1,1.4-3c0.3-0.9,0.7-1.7,0.9-2.3C677.8,432.8,678.2,432.2,678.3,432.2z"/>
			</g>
		</g>
	</g>
	<g id="XMLID_856_">
		<g>
			<g>
				<path class="st2" d="M709.9,450.8c-0.5,0.3-2.5-4.1-7.7-9.4c-2.6-2.6-6-5.5-10.1-8.2c-4.1-2.8-8.8-5.5-13.9-8.2
					c-5.1-2.8-10-5.3-14.5-7.3c-4.5-2.1-8.7-3.7-12.2-4.9c-7.1-2.5-11.7-3.3-11.7-3.8c0-0.4,4.9-0.4,12.3,1.6
					c3.7,1,8.1,2.4,12.8,4.4c4.7,2,9.7,4.4,14.8,7.2c5.1,2.8,10,5.6,14.1,8.7c4.1,3,7.6,6.2,10.1,9.1c2.5,3,4.2,5.7,5,7.7
					C709.8,449.5,710.1,450.7,709.9,450.8z"/>
			</g>
		</g>
	</g>
	<g id="XMLID_864_">
		<g>
			<g>
				<path class="st2" d="M677.2,308.6c0.2,0,0.5,1.5,0.5,4.3c0,2.8-0.4,6.8-1.6,11.6c-1.1,4.8-2.8,10.3-4.7,16.5
					c-1.9,6.2-4,12.9-6.5,19.9c-2.5,7-5.1,13.6-7.7,19.5c-2.6,5.9-5.3,11.1-7.8,15.3c-4.9,8.5-8.8,13.2-9.1,12.9
					c-0.4-0.3,2.7-5.4,7.1-14c2.1-4.3,4.6-9.5,7-15.4c2.5-5.9,5-12.5,7.4-19.4c2.5-7,4.7-13.7,6.7-19.8c2-6.1,3.9-11.6,5.3-16.2
					C676.8,314.7,676.7,308.6,677.2,308.6z"/>
			</g>
		</g>
	</g>
	<g id="XMLID_872_">
		<g>
			<g>
				<path class="st2" d="M760.2,334.2c-0.2,0.1-0.8-1-2.2-2.6c-1.4-1.6-3.9-3.4-7.3-5.2c-6.9-3.6-16.7-8.1-28.1-11.7
					c-11.3-3.6-22-5.4-29.7-6.4c-7.8-1-12.6-1.3-12.6-1.7c0-0.4,4.9-0.9,12.8-0.5c7.9,0.4,18.9,2,30.5,5.6
					c11.6,3.6,21.5,8.6,28.3,12.8c3.4,2.1,5.9,4.5,7.1,6.4C760.3,332.9,760.4,334.2,760.2,334.2z"/>
			</g>
		</g>
	</g>
	<g id="XMLID_880_">
		<g>
			<g>
				<path class="st2" d="M711.5,449.7c-0.4-0.4,4.9-5.6,11.5-15.5c3.4-4.9,7-11,10.5-18c3.5-7,6.8-15,9.8-23.6
					c5.8-17.2,9.3-33.3,11.9-45c2.5-11.7,4.2-18.9,4.6-18.8c0.4,0.1-0.4,7.4-2.4,19.3c-2,11.8-5.1,28.2-11,45.6
					c-3,8.7-6.5,16.8-10.2,23.9c-3.7,7.1-7.6,13.2-11.3,18c-3.6,4.8-6.9,8.4-9.4,10.8C713.1,448.7,711.6,449.9,711.5,449.7z"/>
			</g>
		</g>
	</g>
	<g id="XMLID_888_">
		<g>
			<g>
				<path class="st2" d="M603.7,275.7c0,0-0.2,0.4-0.8,1.2c-0.5,0.8-1.5,1.8-2.7,3.1c-2.5,2.6-6.6,6.1-12.4,9.8
					c-2.9,1.9-6.2,3.8-9.7,5.9c-3.6,2.1-7.5,4.3-11.5,7c-8,5.3-16.6,12.2-24.9,21c-8.4,8.8-16.2,19.6-22.9,32.1
					c-6.6,12.6-11.9,27-14.5,42.7c-0.8,3.9-1.1,7.9-0.8,11.8c0.1,2,0.3,4,0.8,5.9c0.2,1,0.5,1.9,0.8,2.8c0.4,0.9,0.7,1.8,1.2,2.7
					c0.9,1.7,2.1,3.3,3.6,4.4c0.3,0.3,0.8,0.5,1.2,0.8l0.6,0.4l0.6,0.3c0.9,0.4,1.7,0.8,2.7,0.9c1.8,0.4,3.8,0.3,5.7-0.1
					c1.9-0.5,3.7-1.4,5.3-2.5c3.3-2.3,5.5-5.9,6.2-10c0.8-4,0.3-8.4-1.3-12.3c-1.5-4-4.2-7.5-7.6-10.2c-3.4-2.7-7.6-4.3-11.8-4.1
					c-4.3,0.2-8.3,2-11.6,4.8c-3.4,2.8-6.1,6.3-8.4,10.1c-2.3,3.8-4.2,7.8-5.9,11.8c-1.7,4.1-3.2,8.2-4.4,12.3
					c-2.5,8.3-4.2,16.7-5.5,25c-1.2,8.3-2,16.5-2.5,24.5c-1,16-0.6,31.3,1.2,45.4c1.8,14.1,5,27.1,9.2,38.4c2.1,5.7,4.4,11,6.9,15.8
					c2.5,4.9,5,9.3,7.7,13.3c5.3,8.1,10.7,14.4,15.4,19.3c4.7,4.9,8.9,8.2,11.6,10.5c2.8,2.2,4.3,3.3,4.3,3.4c0,0-0.4-0.2-1.2-0.7
					c-0.8-0.5-1.9-1.2-3.4-2.2c-2.9-2.1-7.2-5.3-12.1-10.1c-4.9-4.8-10.5-11.1-16-19.2c-2.8-4-5.5-8.5-8-13.4
					c-2.6-4.9-5-10.2-7.2-16c-4.4-11.5-7.8-24.6-9.7-38.9c-1.9-14.3-2.5-29.8-1.5-46c0.5-8.1,1.2-16.4,2.4-24.8
					c1.2-8.4,2.9-17,5.5-25.5c1.3-4.3,2.8-8.5,4.5-12.6c0.4-1,0.9-2.1,1.4-3.1c0.5-1,0.9-2.1,1.5-3.1c1-2,2.1-4.1,3.3-6.1
					c2.5-3.9,5.3-7.8,9.1-10.9c1.9-1.5,4-2.9,6.2-3.9c2.3-1,4.8-1.6,7.3-1.7c5.1-0.2,10.1,1.8,13.9,4.8c3.9,3,6.9,7,8.6,11.5
					c1.8,4.5,2.4,9.4,1.5,14.1c-0.5,2.4-1.3,4.6-2.6,6.7c-1.3,2.1-3,3.8-4.9,5.2c-1.9,1.4-4.1,2.4-6.4,3c-2.3,0.6-4.8,0.7-7.1,0.1
					c-1.2-0.2-2.3-0.7-3.4-1.2l-0.8-0.4l-0.7-0.5c-0.5-0.3-1-0.6-1.4-1c-1.9-1.5-3.3-3.4-4.3-5.4c-0.6-1-1-2.1-1.4-3.1
					c-0.3-1.1-0.7-2.1-0.9-3.2c-0.5-2.1-0.7-4.3-0.9-6.4c-0.2-4.3,0.1-8.5,0.9-12.5c2.7-16.1,8.3-30.8,15.1-43.5
					c6.9-12.7,15-23.6,23.6-32.4c8.5-8.8,17.4-15.7,25.6-21c4.1-2.7,8.1-4.8,11.7-6.9c3.6-2,6.9-3.8,9.8-5.6
					c5.8-3.5,10-6.8,12.6-9.2C602.4,277.1,603.6,275.6,603.7,275.7z"/>
			</g>
		</g>
	</g>
	<g id="XMLID_896_">
		<g>
			<g>
				<path class="st2" d="M608.5,273.4c-0.4,0.2-1.9-3-4.4-8.1c-1.2-2.5-2.7-5.5-4.4-8.8c-0.8-1.6-1.8-3.4-2.7-5.1
					c-1-1.8-1.9-3.6-3.2-4.4c-1.4-0.9-3.3-1.3-5.3-1.6c-2-0.3-3.9-0.5-5.7-0.7c-3.6-0.3-7-0.4-9.7-0.3c-5.6,0.2-9,0.7-9.1,0.2
					c-0.1-0.4,3.2-1.7,9-2.5c2.9-0.4,6.3-0.6,10.1-0.4c1.9,0.1,3.9,0.3,6,0.5c1,0.1,2.1,0.3,3.2,0.6c1.1,0.3,2.3,0.7,3.4,1.5
					c1.1,0.8,2,1.8,2.6,2.8c0.6,1,1.1,1.9,1.6,2.8c0.9,1.8,1.8,3.6,2.6,5.3c1.6,3.4,2.8,6.6,3.8,9.3
					C608.2,269.7,608.9,273.2,608.5,273.4z"/>
			</g>
		</g>
	</g>
	<g id="XMLID_904_">
		<g>
			<g>
				<path class="st2" d="M671.8,240.1c0.1,0.9-16.8,4.3-37.8,7.6c-1.3,0.2-2.6,0.4-3.9,0.6c-1.3,0.2-2.5,0.4-3.7,0.6
					c-2.3,0.5-4.3,1.2-5.6,2.7c-1.4,1.4-2.3,3.4-3.4,5.2c-1.1,1.8-2,3.4-2.9,4.9c-3.6,6-6.1,9.5-6.5,9.3c-0.4-0.2,1.3-4.2,4.5-10.4
					c0.8-1.6,1.7-3.3,2.6-5.1c0.5-0.9,0.9-1.8,1.5-2.8c0.6-1,1.2-2,2.1-3c0.9-1,2-1.9,3.3-2.5c1.2-0.6,2.6-1,3.9-1.3
					c1.3-0.3,2.6-0.5,3.9-0.7c1.3-0.2,2.6-0.4,3.9-0.6C654.5,241.2,671.7,239.2,671.8,240.1z"/>
			</g>
		</g>
	</g>
	<g id="XMLID_912_">
		<g>
			<g>
				<path class="st2" d="M667.4,187.9c0.2,0.4-5.4,3.8-14.6,8.9c-9.2,5.2-22.1,12.1-36.4,19.6c-14.3,7.5-27.3,14.1-36.8,18.7
					c-9.5,4.6-15.5,7.3-15.7,6.9s5.4-3.8,14.6-8.9c9.2-5.2,22.1-12.1,36.4-19.6c14.3-7.5,27.3-14.1,36.8-18.7
					C661.2,190.1,667.2,187.5,667.4,187.9z"/>
			</g>
		</g>
	</g>
	<g id="XMLID_920_">
		<g>
			<g>
				<path class="st2" d="M668.6,243.9c-0.9-0.1,0.1-12.5,0.7-27.7c0.6-15.2,0.7-27.6,1.6-27.7c0.9-0.1,2.3,12.4,1.7,27.8
					C671.9,231.8,669.4,244.1,668.6,243.9z"/>
			</g>
		</g>
	</g>
	<g id="XMLID_928_">
		<g>
			<g>
				<path class="st2" d="M649.1,204.6c0.5,0.7-10.8,9.5-25.4,19.3c-14.6,9.8-27,16.9-27.5,16.2c-0.5-0.8,11.1-9.1,25.7-18.9
					C636.5,211.5,648.6,203.9,649.1,204.6z"/>
			</g>
		</g>
	</g>
	<g id="XMLID_936_">
		<g>
			<g>
				<path class="st2" d="M665.2,192c0.7,0.5-8.5,14.2-21.4,29.9c-12.9,15.7-24.6,27.3-25.2,26.7c-0.7-0.6,9.9-13.2,22.7-28.8
					C654.2,204.3,664.5,191.5,665.2,192z"/>
			</g>
		</g>
	</g>
	<g id="XMLID_944_">
		<g>
			<g>
				<path class="st2" d="M283.6,802.4c0,0-0.2,0-0.7,0c-0.2,0-0.5,0-0.8-0.1c-0.3,0-0.7,0-1.1,0c-1.7,0-4.3,0.4-7.5,1.6
					c-3.2,1.2-6.8,3.4-11,6.1c-2.1,1.4-4.3,2.9-6.8,4.3c-2.5,1.4-5.3,2.9-8.4,4c-6.1,2.3-13.4,3.8-21.4,3.5c-4-0.1-8.2-0.8-12.3-2.2
					c-4.2-1.3-8.3-3.3-12.1-6.2c-7.6-5.7-13.2-14.7-15.8-25c-1.3-5.1-2.1-10.6-2.2-16.2c-0.1-5.6,0.3-11.3,1.3-17.1
					c1.9-11.6,5.9-23.4,12.1-34.6c6.1-11.2,14.4-21.9,24.4-31.3c10-9.5,21.9-17.7,35.1-24c3.3-1.5,6.7-3,10.2-4.3
					c1.7-0.7,3.5-1.3,5.3-1.9c1.8-0.6,3.6-1.1,5.5-1.6c3.7-0.9,7.5-1.6,11.4-1.8c3.9-0.2,7.9,0.1,11.8,1.2c3.9,1.2,7.6,3.3,10.4,6.4
					c2.8,3.1,4.7,7.1,5.4,11.1c0.8,4.1,0.7,8.3,0.1,12.3c-0.6,4.1-1.7,8-3.1,11.9c-2.8,7.6-6.4,15.1-11,22.1
					c-4.6,6.9-10.3,13.4-17.3,18.4c-3.5,2.5-7.3,4.6-11.3,6.2c-1,0.4-2,0.8-3,1.2c-1,0.3-2.1,0.7-3.1,1c-2.1,0.5-4.2,1.1-6.3,1.5
					c-2.1,0.5-4.3,0.6-6.5,0.9c-2.2,0.2-4.3,0.3-6.5,0.3c-2.2,0.1-4.4,0-6.5-0.1c-2.2-0.1-4.4-0.2-6.5-0.5c-4.3-0.4-8.7-1.1-13-1.8
					c-4.3-0.8-8.6-1.7-12.9-2.7c-8.5-2-17.2-4.4-25.4-8.2c-4.1-1.9-8-4.2-11.7-6.9c-1.8-1.3-3.5-2.8-5.2-4.4l-1.2-1.2l-1.1-1.3
					c-0.7-0.9-1.5-1.6-2.2-2.6c-5.6-7-9.4-15.3-11.5-23.9l-0.7-3.2l-0.5-3.3c-0.2-1.1-0.3-2.2-0.4-3.3c-0.1-1.1-0.3-2.2-0.3-3.3
					c-0.3-4.4-0.1-8.7,0.4-13c0.5-4.3,1.4-8.5,2.6-12.7c1.2-4.1,2.7-8.1,4.5-12c3.5-7.7,8-14.9,13.1-21.5c2.5-3.3,5.2-6.5,8-9.5
					c2.8-3,5.7-5.9,8.6-8.7c11.8-11.1,24.9-20.2,38.3-27.9c1.7-1,3.4-1.9,5.1-2.8c1.7-0.9,3.4-1.8,5.1-2.7c1.7-0.8,3.4-1.6,5.1-2.5
					c1.7-0.8,3.4-1.6,5.1-2.4c3.4-1.5,6.9-3,10.3-4.3c1.7-0.7,3.4-1.4,5.2-2c1.7-0.6,3.5-1.2,5.2-1.8c13.8-4.8,27.6-8.3,41.1-10.7
					c26.9-4.9,52.7-6.3,75.9-3c11.6,1.7,22.4,4.6,32.2,8.5c1.2,0.5,2.4,1,3.6,1.6c1.2,0.5,2.4,1,3.5,1.6c2.3,1.2,4.6,2.2,6.7,3.5
					c4.3,2.5,8.3,5.2,11.9,8.1c7.3,5.8,13.3,12.1,18,18.5c4.7,6.4,8.3,12.8,10.8,18.8c2.6,6,4.1,11.7,4.9,16.6c0.9,5,1.1,9.2,1,12.6
					c0,0.9,0,1.7-0.1,2.4c0,0.8-0.1,1.5-0.1,2.1c-0.1,1.3-0.3,2.4-0.4,3.3c-0.3,1.7-0.5,2.6-0.5,2.6c-0.1,0,0-0.9,0.2-2.6
					c0.1-0.9,0.1-2,0.2-3.2c0-0.6,0-1.3,0-2.1c0-0.7,0-1.5,0-2.4c-0.1-3.4-0.4-7.6-1.3-12.5c-1-4.9-2.5-10.4-5.2-16.3
					c-2.6-5.9-6.2-12.1-10.9-18.4c-4.7-6.2-10.7-12.4-17.9-18c-3.6-2.8-7.5-5.4-11.8-7.8c-2.1-1.2-4.4-2.3-6.6-3.4
					c-1.1-0.6-2.3-1.1-3.5-1.6c-1.2-0.5-2.4-1-3.5-1.5c-9.6-3.8-20.3-6.5-31.7-8.2c-22.9-3.1-48.4-1.6-75.1,3.4
					c-13.3,2.5-27,6-40.6,10.8c-1.7,0.6-3.4,1.2-5.1,1.8c-1.7,0.6-3.4,1.3-5.1,2c-3.4,1.3-6.8,2.8-10.2,4.3
					c-1.7,0.7-3.4,1.5-5.1,2.4c-1.7,0.8-3.4,1.6-5.1,2.4c-1.7,0.9-3.3,1.8-5,2.7c-1.7,0.9-3.4,1.8-5,2.8
					c-13.2,7.6-26,16.7-37.6,27.6c-2.9,2.7-5.7,5.6-8.4,8.5c-2.7,2.9-5.3,6-7.8,9.3c-4.9,6.4-9.2,13.4-12.7,20.9
					c-1.7,3.7-3.1,7.6-4.3,11.6c-1.1,4-2,8-2.5,12.1c-0.4,4.1-0.6,8.3-0.4,12.5c0,1,0.2,2.1,0.3,3.1c0.1,1,0.2,2.1,0.4,3.1l0.5,3.1
					l0.7,3.1c2,8.2,5.6,16,10.9,22.6c0.6,0.9,1.4,1.6,2.1,2.4l1.1,1.2l1.2,1.1c1.5,1.5,3.1,2.9,4.9,4.1c3.4,2.5,7.2,4.7,11.1,6.6
					c7.9,3.6,16.3,6,24.7,8c4.2,1,8.5,1.9,12.7,2.7c4.2,0.8,8.5,1.4,12.7,1.8c2.1,0.2,4.2,0.3,6.3,0.5c2.1,0,4.2,0.2,6.3,0.1
					c2.1,0,4.2-0.2,6.3-0.3c2.1-0.3,4.1-0.4,6.2-0.9c2.1-0.3,4-0.9,6-1.4c1-0.3,2-0.6,2.9-0.9c1-0.3,1.9-0.7,2.9-1.1
					c3.8-1.5,7.4-3.5,10.7-5.8c6.6-4.7,12.1-10.8,16.5-17.5c4.4-6.7,8-14,10.7-21.4c1.3-3.7,2.4-7.5,2.9-11.3
					c0.6-3.8,0.6-7.6,0-11.3c-0.7-3.6-2.3-7-4.7-9.7c-2.4-2.7-5.6-4.5-9-5.6c-3.5-1-7.2-1.3-10.8-1.1c-3.7,0.2-7.3,0.8-10.8,1.7
					c-1.8,0.4-3.5,0.9-5.3,1.5c-1.7,0.6-3.5,1.1-5.2,1.8c-3.4,1.2-6.7,2.7-10,4.2c-13,6.1-24.7,14.1-34.5,23.4
					c-9.9,9.2-18,19.6-24.1,30.6c-6.1,11-10.1,22.5-12,33.8c-1,5.7-1.5,11.2-1.4,16.7c0.1,5.4,0.8,10.7,2,15.7
					c2.5,9.9,7.8,18.6,14.9,24.1c3.6,2.7,7.5,4.7,11.5,6c4,1.3,8,2.1,11.9,2.2c7.8,0.4,14.9-0.9,20.9-3.1c3-1,5.8-2.4,8.3-3.8
					c2.5-1.4,4.7-2.9,6.9-4.2c4.2-2.7,8-4.8,11.2-5.9c3.3-1.2,5.9-1.4,7.7-1.3c0.4,0,0.8,0,1.2,0.1c0.3,0,0.6,0.1,0.8,0.1
					C283.4,802.3,283.6,802.4,283.6,802.4z"/>
			</g>
		</g>
	</g>
	<g id="XMLID_952_">
		<g>
			<g>
				<path class="st2" d="M383.8,823.7c-0.1,0.4-5.7-0.3-14.7-1.8c-9-1.5-21.4-3.5-35.1-5.8c-6.9-1.1-13.4-2.1-19.3-3.1
					c-1.5-0.2-2.8-0.4-4.1-0.3c-1.3,0.1-2.3,0.4-3.4,1c-1.1,0.6-2.1,1.3-3.1,2.1c-1,0.7-2,1.4-2.9,2.1c-7.5,5.3-12.2,8.3-12.5,8
					c-0.3-0.4,4-4.1,11.1-9.8c0.9-0.7,1.8-1.5,2.8-2.2c1-0.8,2-1.6,3.3-2.4c1.2-0.8,2.9-1.4,4.5-1.5c1.6-0.2,3.2,0,4.7,0.2
					c6,0.8,12.6,1.7,19.4,2.8c13.7,2.2,26.1,4.7,35,6.8C378.5,821.6,383.9,823.2,383.8,823.7z"/>
			</g>
		</g>
	</g>
	<g id="XMLID_960_">
		<g>
			<g>
				<path class="st2" d="M382.8,823.9c-0.4,0.8-14.5-5.4-32.2-12.1c-17.7-6.7-32.5-11.3-32.2-12.2c0.2-0.8,15.4,2.4,33.4,9.1
					C369.7,815.5,383.2,823.2,382.8,823.9z"/>
			</g>
		</g>
	</g>
	<g id="XMLID_968_">
		<g>
			<g>
				<path class="st2" d="M349.7,789.7c0.3,0.8-5.6,3.9-13.2,6.7c-7.6,2.9-14,4.5-14.4,3.7s5.6-3.9,13.2-6.7
					C342.9,790.5,349.4,788.9,349.7,789.7z"/>
			</g>
		</g>
	</g>
	<g id="XMLID_976_">
		<g>
			<g>
				<path class="st2" d="M381,826.1c-0.1,0.5-5.2,0.2-13.5,0c-8.3-0.2-19.7,0-32.3,0.6c-12.6,0.7-24.1,1.6-32.4,2
					c-2.1,0.1-3.9,0.2-5.7,0.2c-1.7,0-3.2-0.3-4.4-0.7c-1.2-0.4-2-1.1-2.4-1.6c-0.4-0.5-0.5-0.9-0.4-0.9c0.2-0.2,1,0.9,3.2,1.3
					c1.1,0.2,2.4,0.3,4,0.1c1.6-0.1,3.5-0.4,5.5-0.7c8.3-1,19.7-2.3,32.4-3c12.7-0.7,24.3-0.5,32.6,0.3
					C376,824.5,381.1,825.7,381,826.1z"/>
			</g>
		</g>
	</g>
	<g id="XMLID_984_">
		<g>
			<g>
				<path class="st2" d="M381.4,823.4c-0.6,0.6-8.7-6.1-18-15.1c-9.3-9-16.4-16.8-15.8-17.5c0.6-0.6,8.7,6.1,18,15.1
					S382.1,822.8,381.4,823.4z"/>
			</g>
		</g>
	</g>
	<g id="XMLID_992_">
		<g>
			<g>
				<path class="st2" d="M313.7,840.4c-0.8,0.5-3.1-1.8-5.1-5.1c-2.1-3.3-3.1-6.4-2.3-6.8s3.1,1.8,5.1,5.1
					C313.4,836.9,314.4,840,313.7,840.4z"/>
			</g>
		</g>
	</g>
	<g id="XMLID_1000_">
		<g>
			<g>
				<path class="st2" d="M379.1,826.2c0.3,0.8-14.3,6.2-33,10c-18.7,3.9-34.1,4.7-34.2,3.8c-0.1-0.9,15.1-3.2,33.6-7
					C364,829.2,378.8,825.3,379.1,826.2z"/>
			</g>
		</g>
	</g>
	<g id="XMLID_1008_">
		<g>
			<g>
				<path class="st2" d="M325.8,813.5c-0.8,0.3-2.5-2-3.6-5.2s-1.4-6-0.5-6.3c0.8-0.3,2.5,2,3.6,5.2
					C326.4,810.4,326.6,813.2,325.8,813.5z"/>
			</g>
		</g>
	</g>
	<g id="XMLID_1016_">
		<g>
			<g>
				<path class="st2" d="M1083.7,214.7c0.1,0,0.2,0.4,0.4,1.2c0.1,0.4,0.3,0.9,0.4,1.5c0.1,0.6,0.2,1.3,0.3,2.2
					c0.1,0.8,0,1.8,0.1,2.8c0,0.5-0.1,1-0.1,1.6c-0.1,0.6-0.1,1.1-0.2,1.7c-0.4,2.4-1.3,5.1-2.7,7.9c-2.9,5.6-8.1,11.8-16.1,16
					c-4,2.1-8.6,3.5-13.6,4.4c-5,0.9-10.4,1.1-16,0.9c-5.6-0.2-11.4-0.9-17.4-1.7c-6-0.8-12.2-1.8-18.6-2.4
					c-6.4-0.6-13.1-0.8-19.8,0.1c-6.7,0.9-13.6,2.9-19.2,7.1c-2.8,2.1-5.2,4.7-6.8,7.8c-0.7,1.6-1.3,3.2-1.6,4.9
					c-0.3,1.7-0.4,3.5-0.2,5.3c0.2,1.8,0.6,3.5,1.2,5.2c0.6,1.7,1.5,3.3,2.5,4.8c1,1.5,2.3,2.8,3.7,3.9c1.4,1.1,3,2,4.8,2.6
					c3.4,1.3,7.3,1.5,11,0.7c3.7-0.8,7.2-2.5,9.8-5.2l0.5-0.5c0.2-0.2,0.3-0.4,0.4-0.6l0.9-1.1c0.3-0.4,0.5-0.8,0.8-1.2
					c0.2-0.4,0.5-0.8,0.7-1.2c0.8-1.7,1.5-3.5,1.9-5.5c0.4-1.9,0.5-3.9,0.5-5.9c-0.1-1-0.1-2-0.2-3c-0.2-1-0.3-2-0.5-3
					c-0.9-3.9-2.4-7.7-4.4-11.2c-2-3.5-4.6-6.6-7.4-9.5c-5.6-5.7-12.3-10.2-19.3-13.5c-7.1-3.3-14.5-5.6-21.9-7.2
					c-7.4-1.6-14.8-2.5-22.1-2.9c-7.3-0.5-14.4-0.6-21.3-0.4c-6.9,0.2-13.5,0.8-19.8,2.1c-12.6,2.5-23.3,8.6-31.5,15.7
					c-8.2,7.2-14.2,15.3-18.2,23c-4.1,7.7-6.2,15-7.5,21c-1.1,6-1.3,10.8-1.4,14.1c0,0.8,0,1.5,0,2.1c0,0.6,0,1.1,0,1.6
					c0,0.8,0,1.3-0.1,1.3c-0.1,0-0.1-0.4-0.3-1.2c-0.1-0.4-0.1-0.9-0.2-1.6c-0.1-0.6-0.1-1.3-0.2-2.2c-0.2-3.3-0.2-8.1,0.8-14.3
					c1-6.2,3.1-13.6,7.1-21.6c4-8,9.9-16.4,18.3-23.9c4.2-3.7,9-7.2,14.5-10.1c2.7-1.5,5.6-2.7,8.6-3.9c3-1.1,6.2-2,9.4-2.7
					c6.5-1.4,13.3-2.1,20.3-2.3c7-0.2,14.2-0.2,21.5,0.3c7.4,0.4,14.9,1.3,22.5,2.9c7.6,1.6,15.3,3.9,22.6,7.3
					c7.3,3.4,14.4,8.1,20.3,14.2c2.9,3.1,5.7,6.3,7.9,10.1c2.1,3.8,3.8,7.9,4.7,12.2c0.3,1.1,0.4,2.2,0.6,3.3
					c0.1,1.1,0.2,2.2,0.3,3.3c0,2.2-0.1,4.4-0.6,6.6c-0.4,2.2-1.2,4.3-2.2,6.3c-0.2,0.5-0.6,1-0.8,1.4c-0.3,0.5-0.5,1-0.9,1.4
					l-1,1.3c-0.2,0.2-0.3,0.4-0.5,0.6l-0.6,0.6c-3.1,3.2-7.3,5.2-11.5,6.1c-4.3,0.8-8.7,0.6-12.8-0.9c-1-0.3-2-0.8-2.9-1.3
					c-0.9-0.6-1.8-1.1-2.7-1.8c-1.7-1.3-3.2-2.9-4.4-4.6c-1.2-1.7-2.2-3.6-2.9-5.5c-0.7-2-1.1-4-1.3-6c-0.2-2-0.1-4.1,0.3-6.1
					c0.4-2,1-3.9,1.9-5.8c1.8-3.6,4.6-6.5,7.7-8.8c3.1-2.3,6.5-3.9,10-5.1c3.5-1.2,7-1.9,10.6-2.4c7.1-0.9,13.9-0.6,20.5,0.1
					c6.5,0.7,12.8,1.7,18.7,2.6c6,0.9,11.7,1.6,17.2,1.9c5.5,0.3,10.7,0.1,15.5-0.7c4.8-0.8,9.3-2.1,13.2-4
					c7.7-3.9,12.9-9.7,15.8-15c1.4-2.7,2.3-5.2,2.8-7.5c0.1-0.6,0.2-1.1,0.3-1.7c0.1-0.5,0.2-1,0.2-1.5c0-1,0.1-1.9,0.1-2.7
					c-0.1-0.8-0.1-1.5-0.1-2.1c0-0.6-0.2-1.1-0.2-1.5C1083.7,215.1,1083.7,214.7,1083.7,214.7z"/>
			</g>
		</g>
	</g>
	<g id="XMLID_1024_">
		<g>
			<g>
				<path class="st2" d="M1116.9,204.5c-0.2,0.1-1-1.1-2.9-3c-1.9-1.8-5-4.1-9.3-5.9c-2.2-0.9-4.6-1.8-7.3-2.7
					c-1.3-0.4-2.7-0.8-4.2-1.3c-1.4-0.4-2.9-0.8-4.5-1.2c-6.1-1.6-13-3-20.2-4c-7.2-1-14.2-1.4-20.5-1.5c-6.3-0.1-12,0.2-16.8,0.6
					c-9.6,0.8-15.5,1.9-15.6,1.4c-0.1-0.4,5.7-2.3,15.3-3.7c4.8-0.7,10.6-1.2,17.1-1.3c6.5-0.1,13.6,0.3,21,1.3
					c7.4,1,14.4,2.5,20.6,4.3c1.5,0.5,3.1,0.9,4.5,1.4c1.4,0.5,2.8,1,4.2,1.5c2.7,1,5.2,2,7.4,3.1c4.4,2.2,7.6,4.9,9.3,7.2
					C1116.7,202.9,1117.1,204.4,1116.9,204.5z"/>
			</g>
		</g>
	</g>
	<g id="XMLID_1032_">
		<g>
			<g>
				<path class="st2" d="M1055.9,79.9c0-0.1,0.5,0,1.4,0.3c0.9,0.3,2.1,0.9,3.5,1.8c2.9,1.9,6.6,5.6,8.9,11.5c1.2,2.9,2,6.2,2.3,9.9
					c0.3,3.6,0.1,7.6-1.1,11.6c-1.1,4-2.8,8-5.1,11.8c-2.3,3.8-5,7.5-8.1,10.9c-6.2,7-12.9,12.6-18.6,18
					c-5.8,5.4-10.7,10.5-14.1,15.2c-1.7,2.4-3.1,4.6-4.3,6.7c-1.1,2.1-2,3.9-2.6,5.4c-1.3,3.1-1.9,4.8-2.1,4.8c-0.2,0,0-1.9,0.9-5.2
					c0.5-1.6,1.2-3.6,2.2-5.8c1-2.2,2.3-4.6,4-7.2c3.3-5.1,8.2-10.6,13.9-16.1c5.7-5.6,12.3-11.3,18.3-18c3-3.4,5.6-6.8,7.8-10.4
					c2.2-3.6,3.8-7.3,4.9-10.9c1.1-3.6,1.4-7.3,1.3-10.6c-0.2-3.4-0.8-6.5-1.7-9.2c-1.9-5.5-5-9.2-7.5-11.3c-1.3-1-2.3-1.8-3.1-2.2
					C1056.2,80.3,1055.8,80,1055.9,79.9z"/>
			</g>
		</g>
	</g>
	<g id="XMLID_1040_">
		<g>
			<g>
				<path class="st2" d="M1168.5,86.9c-0.1-0.1,0.4-0.4,0.1-0.9c-0.1-0.3-0.3-0.6-0.7-1c-0.2-0.2-0.4-0.3-0.6-0.5
					c-0.1-0.1-0.2-0.1-0.4-0.2c-0.2-0.1-0.3-0.1-0.5-0.2c-2.6-1.2-6.5-2.7-11.5-3.9c-5-1.2-11-2.1-17.8-2.5
					c-6.8-0.4-14.3-0.3-22.3-0.4c-15.9,0-30.3,0-40.7-0.1c-10.4,0-16.9-0.2-16.9-0.7c0-0.4,6.4-1.1,16.8-1.6
					c10.4-0.5,24.8-1,40.7-0.9c7.9,0,15.6,0.1,22.5,0.7c6.9,0.5,13.2,1.7,18.2,3.2c5.1,1.5,9,3.4,11.5,5c0.2,0.1,0.3,0.2,0.5,0.3
					c0.2,0.1,0.3,0.2,0.5,0.3c0.3,0.2,0.5,0.5,0.7,0.8c0.4,0.5,0.6,1,0.6,1.5c0,0.5-0.2,0.9-0.4,1C1168.6,87,1168.5,87,1168.5,86.9z
					"/>
			</g>
		</g>
	</g>
	<g id="XMLID_1048_">
		<g>
			<g>
				<path class="st2" d="M1121.5,203.2c-0.2-0.2,1-1.5,3.2-4c2.2-2.5,5.3-6,8.8-10.7c3.5-4.6,7.5-10.4,11.3-17.1
					c3.8-6.7,7.3-14.4,10.6-22.7c1.6-4.2,3.2-8.3,4.7-12.2c1.5-4,2.8-7.8,4-11.5c2.3-7.4,3.7-14.1,4.2-19.9c0.5-5.8,0-10.5-0.6-13.7
					c-0.2-0.8-0.2-1.5-0.4-2.1c-0.1-0.6-0.3-1.1-0.4-1.6c-0.2-0.9-0.2-1.3-0.1-1.4c0.1,0,0.4,0.4,0.7,1.2c0.2,0.4,0.4,0.9,0.7,1.5
					c0.2,0.6,0.4,1.3,0.7,2.1c1,3.2,1.8,8.1,1.7,14.1c-0.2,6-1.4,13.1-3.6,20.7c-1.1,3.8-2.4,7.7-3.9,11.7c-1.4,4-3,8.1-4.6,12.3
					c-3.3,8.4-7,16.3-11.1,23c-4,6.8-8.3,12.5-12.1,17c-3.8,4.5-7.3,7.9-9.7,10.1C1123.1,202.3,1121.6,203.4,1121.5,203.2z"/>
			</g>
		</g>
	</g>
	<g id="XMLID_1056_">
		<g>
			<g>
				<path class="st2" d="M1140.1,556.7c0.1,0.1-0.7,1.1-2.3,2.8c-1.6,1.8-4,4.4-7.3,7.5c-3.3,3.1-7.6,6.7-13.3,9.9
					c-2.8,1.6-6.1,3-9.7,3.9c-3.6,0.9-7.6,1.3-11.8,0.9c-4.1-0.4-8.4-1.7-12.4-3.7c-4-2-7.9-4.8-11.4-8.2c-3.5-3.4-6.6-7.4-9.2-11.9
					c-2.5-4.5-4.5-9.4-6.1-14.6c-3.1-10.4-4.3-21.7-5.2-33.2c-0.9-11.6-1.5-23.6-2.3-35.8c-0.8-12.2-1.8-24.1-3.4-35.6
					c-0.8-5.7-1.8-11.3-2.9-16.7c-1.1-5.4-2.5-10.7-4-15.7c-1.5-5.1-3.2-9.9-5.1-14.5c-1.9-4.6-3.9-9-6.1-13.2
					c-4.4-8.3-9.4-15.5-14.5-21.5c-5.2-6-10.5-11-15.9-14.1c-2.7-1.5-5.4-2.6-8-3.2c-2.6-0.5-5-0.7-7.2-0.5
					c-4.4,0.4-7.6,1.9-9.5,3.2c-1.9,1.3-2.8,2.2-2.9,2.1c-0.1,0,0.6-1.2,2.5-2.7c1.9-1.5,5.1-3.3,9.7-3.9c2.3-0.3,4.9-0.3,7.7,0.2
					c2.8,0.5,5.7,1.6,8.6,3.1c5.8,3.1,11.4,8.1,16.8,14.1c5.4,6.1,10.6,13.4,15.2,21.8c2.3,4.2,4.4,8.7,6.4,13.4
					c1.9,4.7,3.7,9.6,5.3,14.8c1.6,5.1,3,10.4,4.2,15.9c1.2,5.5,2.2,11.1,3,16.9c1.7,11.5,2.7,23.5,3.5,35.8
					c0.8,12.3,1.4,24.2,2.2,35.8c0.8,11.5,1.9,22.6,4.9,32.6c1.4,5,3.3,9.8,5.7,14.1c2.4,4.3,5.3,8.1,8.5,11.4
					c6.5,6.5,14.5,10.6,22.2,11.5c3.8,0.5,7.6,0.2,11-0.6c3.4-0.8,6.6-2,9.3-3.5c5.6-2.9,9.9-6.3,13.3-9.2c3.4-2.9,5.9-5.3,7.6-7
					C1139,557.5,1140,556.7,1140.1,556.7z"/>
			</g>
		</g>
	</g>
	<g id="XMLID_1064_">
		<g>
			<g>
				<path class="st2" d="M1180.4,547.6c-0.5-0.1,0.3-4.8,0.1-12.3c0-3.8-0.5-8.2-1.4-13.1c-0.9-4.9-2.5-10.1-4.7-15.3
					c-2.2-5.2-5-10-7.8-14c-1.5-2-2.9-3.9-4.3-5.5c-0.7-0.8-1.4-1.7-2.1-2.4c-0.7-0.7-1.4-1.4-2.1-2.1c-0.6-0.7-1.3-1.3-1.9-1.8
					c-0.6-0.6-1.2-1.1-1.8-1.6c-0.3-0.2-0.6-0.5-0.8-0.7c-0.2-0.2-0.5-0.3-0.7-0.5c-0.5-0.3-1-0.5-1.5-0.6c-0.9-0.2-1.6-0.1-1.9,0.2
					c-0.3,0.3-0.4,0.6-0.5,0.6c-0.1,0-0.3-0.4,0-1c0.1-0.3,0.5-0.6,0.9-0.8c0.5-0.2,1-0.3,1.6-0.2c0.6,0,1.3,0.1,1.9,0.4
					c0.3,0.1,0.7,0.3,1.1,0.5c0.4,0.2,0.6,0.4,0.9,0.7c0.6,0.5,1.3,0.9,2,1.5c0.7,0.5,1.4,1.1,2.2,1.7c0.7,0.6,1.5,1.3,2.3,2
					c0.8,0.7,1.5,1.5,2.3,2.4c1.6,1.6,3.1,3.6,4.8,5.6c3.1,4.1,6,9,8.3,14.5c2.3,5.5,3.9,11,4.7,16.1c0.8,5.1,1,9.7,0.7,13.6
					C1182.4,543.1,1180.7,547.7,1180.4,547.6z"/>
			</g>
		</g>
	</g>
	<g id="XMLID_1072_">
		<g>
			<g>
				<path class="st2" d="M1180.6,576.9c-0.3,0.3-2.5-0.9-5.7-3.6c-1.6-1.3-3.4-3-5.2-5.1c-1.8-2-3.7-4.4-5.4-7
					c-1.7-2.6-3.2-5.3-4.3-7.8c-1.1-2.5-2-4.8-2.6-6.8c-1.2-4-1.4-6.5-1-6.6c0.9-0.3,4,9.3,10.7,19.4
					C1173.6,569.7,1181.2,576.2,1180.6,576.9z"/>
			</g>
		</g>
	</g>
	<g id="XMLID_1080_">
		<g>
			<g>
				<path class="st2" d="M1304.5,491.5c0.2,0.1-1.2,2-3.9,5.3c-1.4,1.6-3.2,3.5-5.2,5.7c-1,1.1-2.2,2.2-3.4,3.4
					c-1.2,1.2-2.5,2.5-4,3.7c-5.6,5.1-12.8,10.8-21.3,16.2c-8.5,5.5-18.3,10.7-29.2,15c-10.8,4.3-21.6,7.2-31.5,9
					c-4.9,1-9.7,1.6-14.3,1.8c-4.5,0.2-8.8-0.1-12.6-0.9c-7.7-1.7-13.1-5.1-16.4-7.8c-3.3-2.7-4.7-4.7-4.6-4.8
					c0.2-0.2,1.9,1.5,5.3,3.8c3.4,2.3,8.8,5.3,16.1,6.6c7.3,1.3,16.2,0.5,25.9-1.5c9.7-1.9,20.3-4.9,30.9-9.1
					c10.7-4.2,20.4-9.3,28.8-14.5c8.4-5.2,15.6-10.6,21.4-15.4C1298,498.3,1304,491,1304.5,491.5z"/>
			</g>
		</g>
	</g>
	<g id="XMLID_1088_">
		<g>
			<g>
				<path class="st2" d="M1280.7,429.4c0.2-0.1,2.5,2,6.4,6.1c1.9,2.1,4.3,4.7,6.8,7.9c2.5,3.2,5.2,7.1,7.5,11.7
					c2.3,4.6,4.3,10.1,5.1,16.2c0.8,6.1,0.3,13-2.5,19.5c-2.8,6.5-7.5,12.1-12.5,17.6c-5,5.5-10.3,10.9-16,16.2
					c-5.7,5.3-11.6,10.3-17.3,14.9c-5.8,4.6-11.6,8.7-17.2,12.5c-11.3,7.5-21.9,13.5-31.1,18c-2.3,1.2-4.5,2.2-6.6,3.1
					c-1,0.5-2.1,0.9-3.1,1.4c-1,0.4-2,0.8-2.9,1.2c-1.9,0.8-3.6,1.6-5.3,2.2c-1.7,0.6-3.3,1-4.7,1.2c-2.9,0.4-5.4-0.1-6.7-1
					c-1.3-0.9-1.7-1.7-1.6-1.7c0.1-0.1,0.6,0.5,1.9,1.1c1.3,0.6,3.4,0.9,6.1,0.3c1.3-0.3,2.8-0.8,4.4-1.4c1.5-0.6,3.3-1.5,5.1-2.4
					c0.9-0.4,1.9-0.9,2.8-1.3c1-0.5,2-1,3-1.5c2-1,4.2-2.1,6.4-3.3c9-4.7,19.4-10.8,30.5-18.4c5.5-3.8,11.2-8,16.9-12.5
					c5.7-4.6,11.4-9.5,17.1-14.7c5.6-5.3,11-10.6,15.9-16c4.9-5.3,9.4-10.7,12.1-16.6c2.7-5.9,3.2-12.2,2.6-18
					c-0.6-5.8-2.4-11-4.5-15.5c-2.1-4.5-4.6-8.4-6.9-11.6c-2.3-3.3-4.5-6-6.3-8.2C1282.6,431.9,1280.5,429.5,1280.7,429.4z"/>
			</g>
		</g>
	</g>
	<g id="XMLID_1096_">
		<g>
			<g>
				<path class="st2" d="M1280.7,431c0.2,0,0.2,2.2-0.9,5.9c-1.1,3.7-3.3,9-7.7,14.4c-2.2,2.7-4.8,5.5-8,8c-3.2,2.6-6.8,5-10.8,7.2
					c-4,2.2-8.4,4.1-13.1,5.8c-4.6,1.7-9.5,3.2-14.6,4.5c-20.3,5.2-39.5,5.6-53.1,4.3c-6.8-0.7-12.3-1.7-16-2.5
					c-3.7-0.9-5.7-1.5-5.7-1.7c0.1-0.5,8.4,1.2,21.8,1.9c13.4,0.7,32.2,0,52.1-5.1c5-1.3,9.8-2.7,14.3-4.4c4.5-1.6,8.8-3.5,12.7-5.5
					c7.8-4,14.1-9,18.5-14.1c4.4-5,6.8-9.9,8.2-13.3C1280,433.1,1280.5,431,1280.7,431z"/>
			</g>
		</g>
	</g>
</g>
<g id="background">
	<path id="XMLID_1359_" class="st0" d="M1100.7,848.6c-2.3-1.4-5.9-4-9.1-8.3c-3.3-4.5-4.5-8.6-5.5-12.2c-1.6-5.6-4.9-17.4,0.8-22.5
		c1.2-1.1,2.6-1.7,3.6-2c-0.6-5.6-1.4-14.1-2-24.5c-1.5-26.8-2.5-43.6,1.6-63.2c1.8-8.7,5.4-21.5,13-36.3c3,0.5,6.1,1.1,9.1,1.6
		c2,4.6,4.6,11.2,7.1,19.4c3.9,12.9,5.6,23.2,7.1,34.4c1.9,14.1,4.2,33.1,5.9,56.1c0.6-1.1,2.7-4.6,5.5-4.7
		c3.5-0.1,7.8,5.1,8.3,13.4c1.7-0.3,4.8-0.6,7.1,1.2c2,1.5,2.5,3.8,2.8,5.1c2.4,10.1,4.2,8.3,5.9,17.8c1.3,6.9,1.2,13,0.8,17.8
		C1142,843.8,1121.4,846.2,1100.7,848.6z"/>
	<path id="XMLID_1360_" class="st0" d="M1233.8,881.8c-3-8.6-3.6-15.9-3.6-20.5c0-7.1,0.1-13,4.3-17c2.9-2.7,6.5-3.4,8.7-3.6
		c-0.7-4.2-1-9.6,0.8-15.4c1.1-3.7,2.3-7.5,5.9-9.5c2.5-1.4,5.2-1.4,6.7-1.2c-0.7-6.1-1.1-14.2,0-23.7c0.4-3.7,2.5-18.6,11.5-35.9
		c4.1-8,8.8-14.6,13.4-20.1c1.6-0.3,4.7-0.6,6.7,1.2c2.2,2,2,5.5,2,6.7c-0.4,9.7,2,19.5,1.6,29.2c-0.6,15.7,0.9,12.2,0.4,32.4
		c-0.3,11.2-0.9,20.9-1.6,28.4c1.1-0.3,4-1.1,5.9,0.4c1.6,1.3,1.6,3.5,1.6,6.7c-0.1,3.7-0.3,8.5-0.8,14.2c1.7,0.2,3.9,0.7,5.1,2.4
		c1.8,2.5,0.4,6.1-0.4,8.7c-2.7,8.9,0.2,9.4-2,20.1c-0.9,4.7-2.9,11.7-7.5,19.8c-3.8,2.5-12.1,7.3-22.9,6.7
		C1254.2,910.9,1240,899,1233.8,881.8z"/>
	<path id="XMLID_1367_" class="st0" d="M429.1,979.7c2.6,1.1,5.3,2.1,7.9,3.2c-4.1,3-8.2,6.1-12.2,9.1c5,1.7,10,3.4,15,5.1
		c0.3,0.4,3.9,4.7,2.4,10.3c-1.4,5.3-6.2,7.3-6.7,7.5c-0.9-1.3-1.8-2.6-2.8-4c-1.3,3.6-2.6,7.1-4,10.7c5.6,1.6,13.8,4,23.7,7.1
		c10,3.1,47.1,14.9,97.2,35.9c13.2,5.6,30.5,13.1,50.6,22.5c14.7-12.9,29.4-25.9,44.2-39.1c13.2-11.7,26.2-23.5,39.1-35.2
		c-3.2-1.1-6.3-2.1-9.5-3.2c3.3-3,6.6-6.1,9.9-9.1c-5.7-0.8-11.3-1.6-17-2.4c2.2-4.1,4.5-8.2,6.7-12.2c-4.5-1.7-11.5-4.4-20.1-7.5
		c-35.1-12.6-53.3-16.9-89.3-28.8c-8.8-2.9-21.8-7.3-37.5-13C494.2,951,461.6,965.4,429.1,979.7z"/>
	<g id="XMLID_1104_">
		<g>
			<g>
				<path class="st2" d="M1162.9,840.7c-0.1,0-0.1-1.1-0.2-3.3c-0.1-2.1-0.2-5.3-0.7-9.3c-0.5-4-1.5-8.9-3.5-14.3
					c-0.2-0.7-0.5-1.4-0.8-2.1c-0.3-0.7-0.5-1.4-0.9-2.1c-0.3-0.7-0.6-1.4-1-2.1c-0.3-0.7-0.6-1.4-1.1-2c-0.8-1.3-1.9-2.5-3.3-3.4
					c-0.6-0.4-1.4-0.8-2-0.9c-0.2,0-0.3,0-0.5,0c-0.1,0-0.2,0-0.2,0c-0.1,0-0.3,0-0.5,0.1c-0.4,0.3-0.8,0.6-1.3,1
					c-0.4,0.3-0.9,0.8-1.4,1.2c-0.1-0.3-0.1-0.2-0.2-0.3l-0.2-0.1c0,0,0-0.1,0-0.2l0-0.3l0-0.6c0-0.9,0-1.8,0-2.6l0-0.7l0-0.5
					c0-0.3,0-0.6-0.1-0.8c-0.1-0.6-0.1-1.1-0.2-1.7c-0.4-2.2-1.2-4.4-2.8-5.9c-0.4-0.4-0.8-0.7-1.2-1c-0.4-0.2-0.9-0.4-1.3-0.5
					c-1-0.1-2.1,0.1-3.1,0.5c-1,0.4-1.9,1.2-2.4,2c-0.5,0.9-0.5,1.6,0,2.4l-2.4,0.8c-1.2-15.8-3.2-33.3-6.4-52.1
					c-1.6-9.4-3.4-19-5.6-28.9c-1.1-4.9-2.3-9.9-3.5-15c-0.6-2.5-1.3-5-1.9-7.6c-0.7-2.5-1.4-4.9-2.7-6.8c-0.8-1.2-1.8-2.1-3-2.6
					c-1.2-0.6-2.6-0.7-3.6-0.4c-1.1,0.3-1.9,1.1-2.5,2.3c-0.6,1.2-1.2,2.8-1.7,4.3c-2.2,6-4.1,11.9-5.7,17.9
					c-3.1,11.9-5,23.7-5.8,35c-0.4,5.6-0.5,11.2-0.4,16.5c0.2,5.4,0.5,10.6,0.7,15.7c0.5,10.1,1,19.6,1.5,28.2
					c0,0.6,0.1,1.2,0.1,1.7l0.1,1.2l0,0.6l0,0.2l0,0.1c0,0,0,0-0.1,0l-0.3,0.1l-1.1,0.4c-0.2,0.1-0.4,0.1-0.5,0.2l-0.3,0.1
					c-0.4,0.2-0.7,0.5-1,0.8c-0.6,0.6-1.1,1.3-1.6,2.1c-0.4,0.8-0.7,1.7-0.9,2.6c-0.9,3.6-0.6,7.2-0.3,10.6
					c0.7,6.7,2.6,12.3,4.9,16.4c2.3,4.2,5.1,6.7,7.1,8.1c0.5,0.3,1,0.7,1.4,0.9c0.4,0.2,0.8,0.4,1.1,0.6c0.6,0.3,0.8,0.5,0.8,0.6
					s-0.3,0-1-0.3c-0.3-0.1-0.7-0.3-1.1-0.4c-0.4-0.2-0.9-0.5-1.5-0.8c-2.2-1.3-5.3-3.8-7.9-8c-2.6-4.2-4.7-9.9-5.6-16.9
					c-0.1-0.9-0.2-1.7-0.3-2.6c-0.1-0.9-0.1-1.8-0.2-2.8c-0.1-1.9,0.1-3.9,0.5-5.9c0.2-1,0.6-2,1-3c0.5-1,1.1-2,2-2.8
					c0.4-0.4,0.9-0.8,1.4-1.1l0.6-0.3c0.1,0,0.2-0.1,0.3-0.1c0.2,0,0.1-0.2,0.1-0.3l0-0.4c0-0.5-0.1-1-0.1-1.5
					c-0.6-8.6-1.2-18-1.9-28.2c-0.3-5.1-0.6-10.3-0.8-15.8c-0.1-5.4,0-11.1,0.3-16.8c0.7-11.5,2.5-23.5,5.7-35.6
					c1.6-6.1,3.5-12.1,5.7-18.2c0.6-1.5,1-3,1.9-4.7c0.4-0.8,1-1.7,1.8-2.4c0.8-0.7,1.8-1.3,2.8-1.5c2.1-0.6,4.1-0.2,5.9,0.6
					c0.9,0.4,1.7,0.9,2.5,1.6c0.8,0.7,1.3,1.4,1.9,2.2c1.7,2.5,2.5,5.3,3.1,7.8c0.6,2.6,1.3,5.1,1.9,7.6c1.2,5.1,2.4,10.1,3.5,15.1
					c2.2,9.9,4,19.7,5.5,29.1c3.1,18.9,4.9,36.6,5.9,52.4l0.4,6.5l-2.8-5.7c-0.2-0.4-0.4-0.8-0.6-1.2c-0.1-0.5-0.2-0.9-0.2-1.4
					c0-1,0.3-1.8,0.7-2.6c0.9-1.4,2.2-2.4,3.6-3c1.4-0.6,2.9-0.9,4.5-0.6c0.8,0.1,1.5,0.4,2.2,0.8c0.7,0.4,1.2,0.8,1.7,1.4
					c2,2.1,2.9,4.7,3.3,7.1c0.1,0.6,0.2,1.2,0.2,1.8c0,0.3,0.1,0.6,0.1,0.9l0,0.3l0,0.2c0,0.3,0,0.6,0,0.8l0,0.2l0,0.1
					c0,0,0,0.1,0,0c0.1-0.1,0.2-0.2,0.3-0.3c0.2-0.1,0.4-0.2,0.6-0.2c0.1,0,0.1,0,0.2,0c0.1,0,0.3,0,0.4,0c0.3,0,0.6,0,0.8,0.1
					c1.1,0.2,2,0.7,2.8,1.3c0.8,0.5,1.5,1.2,2.1,1.9c0.6,0.7,1.2,1.4,1.6,2.2c0.5,0.7,0.8,1.6,1.2,2.3c0.3,0.7,0.6,1.5,0.9,2.2
					c0.3,0.7,0.6,1.5,0.8,2.2c0.3,0.7,0.5,1.4,0.7,2.1c1.8,5.6,2.6,10.7,3,14.8c0.4,4.1,0.3,7.3,0.2,9.4
					C1163.3,839.6,1163,840.7,1162.9,840.7z"/>
			</g>
		</g>
	</g>
	<g id="XMLID_1112_">
		<g>
			<g>
				<path class="st2" d="M1120.2,844.5c-0.2,0-0.5-2.3-0.9-6.4c-0.3-4.2-0.8-10.2-1.3-17.6c-1-14.8-2.5-35.3-4.7-57.9
					c-2.2-22.6-4.6-43-6.4-57.7c-0.9-7.4-1.6-13.4-2.1-17.5c-0.5-4.1-0.6-6.4-0.4-6.5c0.2,0,0.8,2.2,1.6,6.3
					c0.9,4.1,1.9,10,3.1,17.4c2.4,14.7,5.2,35.1,7.4,57.8c2.2,22.6,3.3,43.2,3.7,58.1c0.2,7.4,0.3,13.5,0.2,17.6
					C1120.5,842.1,1120.4,844.4,1120.2,844.5z"/>
			</g>
		</g>
	</g>
	<g id="XMLID_1120_">
		<g>
			<g>
				<path class="st2" d="M1244.9,842.8c-0.2,0.2-0.8-0.3-2-0.6c-1.2-0.3-3.1-0.3-4.9,0.7c-0.5,0.3-0.9,0.6-1.3,0.9
					c-0.4,0.4-0.8,0.9-1.2,1.4c-0.7,1-1.4,2.3-1.9,3.7c-1,2.9-1.6,6.4-2,10c-0.7,7.3,0.4,13.9,1.6,18.5c1.2,4.7,2.4,7.5,2,7.7
					c-0.3,0.2-2.3-2.3-4.2-7c-1.8-4.7-3.4-11.7-2.6-19.5c0.4-3.9,1.1-7.5,2.4-10.7c1.3-3.2,3.5-6,6.2-7.1c2.7-1,5.1-0.6,6.4,0.2
					C1244.8,841.8,1245,842.7,1244.9,842.8z"/>
			</g>
		</g>
	</g>
	<g id="XMLID_1128_">
		<g>
			<g>
				<path class="st2" d="M1255.6,815.1c-0.1,0.2-0.7,0.2-1.5,0.3c-0.9,0.1-2,0.5-3.3,1.5c-0.6,0.5-1.2,1.1-1.8,1.9
					c-0.3,0.4-0.6,0.8-0.8,1.2c-0.3,0.4-0.5,0.9-0.7,1.4c-1,2-1.8,4.2-2.2,6.8c-1,5-0.8,9.9-0.8,13.4c0,3.5-0.1,5.8-0.5,5.8
					c-0.4,0.1-1.2-2.1-1.8-5.6c-0.6-3.5-1.2-8.6-0.1-14.2c0.5-2.8,1.5-5.4,2.8-7.6c0.3-0.5,0.6-1,1-1.5c0.4-0.5,0.8-1,1.2-1.4
					c0.8-0.8,1.7-1.5,2.5-2c1.7-1,3.5-1.2,4.6-0.9C1255.3,814.4,1255.7,814.9,1255.6,815.1z"/>
			</g>
		</g>
	</g>
	<g id="XMLID_1136_">
		<g>
			<g>
				<path class="st2" d="M1290.7,837c-0.2,0-0.2-2.8,0-7.7c0.2-4.9,0.4-12.1,0.6-20.9c0.1-8.8,0.1-19.3-0.4-30.9
					c-0.2-5.8-0.6-11.9-1.1-18.2c-0.2-3.2-0.5-6.4-0.8-9.6c-0.1-1.6-0.3-3.3-0.5-4.9c-0.1-0.8-0.2-1.6-0.3-2.5
					c-0.1-0.8-0.2-1.5-0.4-2.3c-0.3-1.5-1-2.7-1.8-3.3c-0.9-0.6-1.9-0.6-3,0c-1.1,0.6-2.2,1.6-3.1,2.8c-0.5,0.6-0.9,1.2-1.4,1.9
					c-0.4,0.7-0.9,1.3-1.3,1.9c-3.5,5.2-6.4,10.5-8.9,15.7c-0.6,1.3-1.2,2.6-1.7,3.9c-0.5,1.3-1.1,2.6-1.6,3.8
					c-0.9,2.6-1.9,5.1-2.6,7.5c-0.8,2.4-1.4,4.9-2,7.2c-0.5,2.3-1.1,4.6-1.4,6.7c-1.6,8.6-2,15.7-2.1,20.6c-0.1,2.5-0.1,4.4-0.1,5.7
					c0,1.3-0.1,2-0.2,2s-0.3-0.7-0.4-2c-0.2-1.3-0.4-3.2-0.5-5.7c-0.3-5-0.2-12.2,1.1-21c0.3-2.2,0.8-4.5,1.2-6.9
					c0.6-2.4,1.1-4.9,1.9-7.4c0.7-2.5,1.6-5.1,2.5-7.8c0.5-1.3,1-2.6,1.5-4c0.5-1.3,1.1-2.7,1.7-4c2.4-5.4,5.4-10.9,9-16.2
					c0.5-0.7,0.9-1.3,1.4-2c0.4-0.7,0.9-1.4,1.5-2c1.1-1.4,2.4-2.7,4.2-3.6c0.9-0.5,2-0.8,3.1-0.8c1.2,0,2.3,0.4,3.2,1
					c1,0.7,1.6,1.6,2.1,2.4c0.5,0.9,0.8,1.8,1,2.7c0.2,0.9,0.4,1.8,0.5,2.7c0.1,0.8,0.2,1.7,0.3,2.5c0.2,1.7,0.3,3.3,0.5,5
					c0.3,3.3,0.5,6.5,0.8,9.7c0.4,6.4,0.7,12.5,0.9,18.4c0.3,11.7,0.1,22.3-0.3,31.1c-0.4,8.8-1,16-1.6,20.9
					C1291.4,834.4,1290.9,837.1,1290.7,837z"/>
			</g>
		</g>
	</g>
	<g id="XMLID_1144_">
		<g>
			<g>
				<path class="st2" d="M1295.6,861.3c-0.9-0.3,1.6-8.1,1.2-17.8c-0.1-2.4-0.2-4.8-0.8-6.5c-0.3-0.9-0.6-1.6-1.1-2.2
					c-0.1-0.1-0.3-0.3-0.4-0.4c-0.1-0.1-0.2-0.2-0.3-0.3c-0.2-0.2-0.5-0.3-0.8-0.4c-1.2-0.3-2.3,0-2.9,0.5c-0.6,0.4-0.8,0.9-1,0.9
					c-0.2,0-0.5-0.6,0-1.7c0.5-1,2.1-2.1,4.2-2c0.5,0,1.1,0.1,1.6,0.4c0.3,0.1,0.6,0.3,0.8,0.4c0.2,0.2,0.5,0.3,0.7,0.6
					c0.9,0.8,1.6,1.9,2.1,3.1c0.5,1.2,0.7,2.4,0.9,3.6c0.2,1.2,0.3,2.5,0.3,3.8c0.2,5.2-0.7,9.9-1.8,13.1
					C1297.2,859.7,1296,861.5,1295.6,861.3z"/>
			</g>
		</g>
	</g>
	<g id="XMLID_1152_">
		<g>
			<g>
				<path class="st2" d="M1293.4,904.7c-0.9-0.4,4.6-11.5,6.6-26.3c0.5-3.7,0.8-7.2,1-10.5c0.2-3.2,0.1-6.1,0.1-8.6
					c0-0.6,0-1.2-0.1-1.7c0-0.3,0-0.6,0-0.9c-0.4-0.3-1-0.4-1.5-0.4c-1.2,0.1-1.9,0.4-2.1,0.2c-0.1-0.1,0.3-1,1.8-1.5
					c0.8-0.3,2.1-0.4,3.3,0.1c0.1,0.3,0.2,0.6,0.3,1c0.1,0.4,0.1,0.8,0.2,1.2c0.1,0.7,0.2,1.2,0.3,1.8c0.3,2.5,0.6,5.5,0.6,8.9
					c0,3.3-0.2,7-0.8,10.9c-1.1,7.7-3.4,14.4-5.5,18.9C1295.6,902.4,1293.8,904.9,1293.4,904.7z"/>
			</g>
		</g>
	</g>
	<g id="XMLID_1160_">
		<g>
			<g>
				<path class="st2" d="M1260.7,906.1c-0.5-0.2,2.4-9.3,6.1-24.2c0.5-1.9,0.9-3.8,1.4-5.9c0.5-2,0.9-4.2,1.4-6.4
					c1-4.4,1.9-9.2,2.9-14.1c1.9-10,3.6-21,5-32.7c1.3-11.7,2.1-22.8,2.6-33c0.2-5.1,0.4-9.9,0.3-14.4c0-2.3,0.1-4.4,0-6.5
					c0-2.1-0.1-4.1-0.1-6c-0.3-15.4-1-24.9-0.4-25c0.2,0,0.6,2.3,1.2,6.6c0.1,1.1,0.3,2.3,0.4,3.6c0.1,1.3,0.2,2.7,0.4,4.3
					c0.2,3.1,0.6,6.6,0.7,10.4c0.1,1.9,0.2,4,0.3,6.1c0.1,2.1,0.1,4.3,0.1,6.6c0.1,4.6,0,9.4,0,14.5c-0.3,10.2-1,21.5-2.3,33.3
					c-1.4,11.8-3.3,22.9-5.3,32.9c-1.1,5-2.1,9.8-3.3,14.2c-0.6,2.2-1.1,4.3-1.6,6.4c-0.6,2-1.1,4-1.7,5.8c-1,3.7-2.1,7.1-3.1,10
					c-0.5,1.5-0.9,2.8-1.3,4.1c-0.5,1.2-0.9,2.4-1.2,3.4C1261.9,904,1261,906.2,1260.7,906.1z"/>
			</g>
		</g>
	</g>
	<g id="XMLID_1168_">
		<g>
			<g>
				<path class="st2" d="M603.6,1063.5c-0.1,0.2-2.6-0.8-7.1-2.9c-4.4-2-10.8-5.1-18.7-8.9c-15.8-7.6-37.5-18-61.6-29.6
					c-24.1-11.5-45.9-21.8-61.7-29.3c-7.9-3.8-14.3-6.8-18.7-9c-4.4-2.2-6.8-3.5-6.7-3.7c0.1-0.2,2.6,0.7,7.2,2.5
					c4.5,1.8,11.1,4.6,19.1,8.1c16,7,38.1,17,62.2,28.5c24.1,11.5,45.7,22.4,61.2,30.5c7.8,4,14,7.4,18.3,9.8
					C601.4,1061.9,603.7,1063.3,603.6,1063.5z"/>
			</g>
		</g>
	</g>
	<g id="XMLID_1176_">
		<g>
			<g>
				<path class="st2" d="M530.5,935.2c0.2,0.4-5.1,3.4-13.8,7.9c-8.7,4.5-20.9,10.3-34.6,16.3c-13.7,6-26.2,11.1-35.4,14.6
					c-9.2,3.5-14.9,5.3-15.1,4.9c-0.2-0.4,5.3-3,14.2-7c8.9-3.9,21.3-9.4,34.9-15.4c13.6-6,26-11.5,34.9-15.4
					C524.7,937,530.3,934.8,530.5,935.2z"/>
			</g>
		</g>
	</g>
	<g id="XMLID_1184_">
		<g>
			<g>
				<path class="st2" d="M671,983.3c-0.1,0.4-8.3-1.6-21.3-5.2c-13-3.7-30.9-9-50.6-15.3c-19.7-6.3-37.4-12.3-50.1-16.8
					c-12.7-4.5-20.5-7.6-20.4-8c0.1-0.4,8.2,1.9,21.1,5.8c12.9,4,30.7,9.6,50.4,15.9c19.6,6.3,37.4,12,50.3,16.2
					C663.2,980.1,671.1,982.8,671,983.3z"/>
			</g>
		</g>
	</g>
	<g id="XMLID_1192_">
		<g>
			<g>
				<path class="st2" d="M670.7,992.2c0.3,0.3-2.9,4.9-8.6,12.1c-5.7,7.2-13.9,16.9-23.3,27.3c-9.4,10.4-18.3,19.5-24.9,25.9
					c-6.6,6.4-10.9,10.1-11.2,9.8c-0.3-0.3,3.4-4.6,9.6-11.4c6.2-6.8,14.7-16.1,24.1-26.4c9.3-10.4,17.8-19.8,23.9-26.6
					C666.5,996,670.4,991.9,670.7,992.2z"/>
			</g>
		</g>
	</g>
	<g id="XMLID_1200_">
		<g>
			<g>
				<path class="st2" d="M423.9,992.4c-0.5-0.8,2-3.3,5.6-5.6c3.6-2.4,6.9-3.7,7.4-2.9s-2,3.3-5.6,5.6
					C427.7,991.9,424.4,993.2,423.9,992.4z"/>
			</g>
		</g>
	</g>
	<g id="XMLID_1208_">
		<g>
			<g>
				<path class="st2" d="M598.1,1073.7c-0.1,0.2-2.6-0.9-6.9-3.1c-4.3-2.2-10.6-5.4-18.4-9.4c-7.8-4-17-8.7-27.3-13.8
					c-10.3-5.1-21.7-10.7-33.8-16.4c-12-5.7-23.6-10.9-34.1-15.7c-10.5-4.7-20-8.9-28.1-12.3c-8-3.5-14.5-6.3-19-8.2
					c-4.5-2-6.9-3.2-6.8-3.4c0.1-0.2,2.7,0.6,7.3,2.2c2.3,0.8,5.1,1.8,8.4,3c3.2,1.2,7,2.6,11,4.2c8.1,3.2,17.8,7.1,28.4,11.7
					c10.6,4.6,22.2,9.8,34.3,15.5c12.1,5.7,23.4,11.4,33.7,16.6c10.3,5.3,19.4,10.2,27.1,14.5c3.8,2.1,7.3,4.1,10.3,5.8
					c3,1.7,5.6,3.3,7.7,4.5C596,1072,598.2,1073.5,598.1,1073.7z"/>
			</g>
		</g>
	</g>
	<g id="XMLID_1216_">
		<g>
			<g>
				<path class="st2" d="M685.1,999c0.3,0.3-4.2,4.7-11.6,11.6c-7.4,6.9-17.8,16.3-29.3,26.6c-11.5,10.3-21.9,19.7-29.5,26.4
					c-7.6,6.7-12.4,10.7-12.7,10.4c-0.3-0.3,4-4.9,11.2-12.1c7.2-7.1,17.4-16.8,28.9-27.1c11.5-10.4,22.1-19.5,29.9-25.9
					C679.7,1002.4,684.8,998.6,685.1,999z"/>
			</g>
		</g>
	</g>
	<g id="XMLID_1224_">
		<g>
			<g>
				<path class="st2" d="M683.3,998.7c-0.1,0.9-3.7,1.3-8.1,1s-7.9-1.4-7.8-2.3c0.1-0.9,3.7-1.3,8.1-1
					C679.9,996.8,683.4,997.8,683.3,998.7z"/>
			</g>
		</g>
	</g>
	<g id="XMLID_1232_">
		<g>
			<g>
				<path class="st2" d="M442.8,1010.2c-0.8,0.3-2.4-2-3.5-5c-1.1-3.1-1.3-5.8-0.4-6.1c0.8-0.3,2.4,2,3.5,5
					C443.5,1007.1,443.7,1009.9,442.8,1010.2z"/>
			</g>
		</g>
	</g>
	<g id="XMLID_1240_">
		<g>
			<g>
				<path class="st2" d="M584.1,1073.5c-0.4,0.8-34.6-12.9-76.5-30.6c-41.9-17.7-75.6-32.8-75.2-33.6c0.4-0.8,34.6,12.9,76.5,30.6
					C550.8,1057.6,584.5,1072.7,584.1,1073.5z"/>
			</g>
		</g>
	</g>
	<g id="XMLID_1248_">
		<g>
			<g>
				<path class="st2" d="M443.6,1009.2c0.2,0.9-2.2,2-5.3,2.6c-3.1,0.5-5.7,0.2-5.9-0.6c-0.2-0.9,2.2-2,5.3-2.6
					C440.8,1008,443.4,1008.3,443.6,1009.2z"/>
			</g>
		</g>
	</g>
	<g id="XMLID_1256_">
		<g>
			<g>
				<path class="st2" d="M599.3,1087.2c-0.1,0.2-2.6-0.7-7.1-2.5c-2.2-0.9-5-2-8.1-3.3c-3.2-1.3-6.8-2.8-10.7-4.4
					c-15.9-6.6-37.9-15.6-62.3-25c-18.2-7-35.3-13.3-49.5-18.5c-14.7-5.3-26.4-9.5-33.5-12c1.2-1.1,2.4-2,3.3-2.8
					c0.4-0.3,0.8-0.6,1.1-0.9c0.3-0.3,0.6-0.5,0.9-0.7c1-0.8,1.6-1.2,1.7-1.1c0.1,0.1-0.4,0.6-1.3,1.6c-0.7,0.8-1.8,1.9-3.2,3.4
					c0.6,0.2,1.3,0.4,2,0.6c0.4,0.1,0.9,0.3,1.3,0.4c0.5,0.2,1.1,0.3,1.7,0.5c2.3,0.7,4.8,1.4,7.6,2.3c5.6,1.7,12,3.8,19.2,6.2
					c14.3,4.8,31.5,10.9,49.7,18c24.5,9.4,46.4,18.8,62.1,25.9c3.9,1.8,7.5,3.4,10.5,4.9c3.1,1.5,5.7,2.7,7.9,3.8
					C597,1085.7,599.4,1087,599.3,1087.2z"/>
			</g>
		</g>
	</g>
	<g id="XMLID_1264_">
		<g>
			<g>
				<path class="st2" d="M683.1,1013c0.3,0.3-3.8,4.8-10.8,11.6c-7,6.9-16.9,16.1-28.1,26c-11.2,9.9-21.6,18.6-29.2,24.7
					c-7.7,6.1-12.6,9.6-12.9,9.3c-0.3-0.4,4.1-4.5,11.4-11.1c7.3-6.5,17.4-15.5,28.6-25.3c11.2-9.9,21.3-18.8,28.7-25.2
					C678.1,1016.5,682.8,1012.6,683.1,1013z"/>
			</g>
		</g>
	</g>
	<g id="XMLID_1272_">
		<g>
			<g>
				<path class="st2" d="M506.5,966.6c0.3,0.9-7.5,4.5-17,9.1c-9.5,4.5-17.3,8.3-17.7,7.5c-0.5-0.8,6.6-5.8,16.3-10.4
					C497.8,968.1,506.2,965.8,506.5,966.6z"/>
			</g>
		</g>
	</g>
	<g id="XMLID_1280_">
		<g>
			<g>
				
					<ellipse transform="matrix(0.8514 -0.5245 0.5245 0.8514 -438.8188 415.1314)" class="st2" cx="513.3" cy="982.1" rx="26.9" ry="1.6"/>
			</g>
		</g>
	</g>
	<g id="XMLID_1288_">
		<g>
			<g>
				<path class="st2" d="M554.1,983.1c0.6,0.7-6.9,7.8-16.7,15.8c-9.8,8-18.2,13.9-18.8,13.2c-0.6-0.7,6.9-7.8,16.7-15.8
					C545.1,988.4,553.5,982.4,554.1,983.1z"/>
			</g>
		</g>
	</g>
	<g id="XMLID_1296_">
		<g>
			<g>
				<path class="st2" d="M577.4,985.8c0.6,0.7-6.8,8.4-16.5,17.3s-18.1,15.6-18.7,14.9c-0.6-0.7,6.8-8.4,16.5-17.3
					S576.8,985.2,577.4,985.8z"/>
			</g>
		</g>
	</g>
</g>
</svg>
