<svg id="Layer_1" data-name="Layer 1" xmlns="http://www.w3.org/2000/svg" viewBox="0 0 529.12 221.26"><defs><style>.cls-1,.cls-2,.cls-3,.cls-4{stroke:#000;}.cls-1{stroke-miterlimit:10;}.cls-2{stroke-miterlimit:10;}.cls-3{stroke-miterlimit:10;}.cls-4{stroke-miterlimit:10;}</style></defs><path class="cls-1" d="M85.32,219.8c-.2.9-7.7,0-16.9-1.9s-16.4-4.2-16.2-5.1,7.7,0,16.9,1.9S85.52,218.9,85.32,219.8Z"/><ellipse class="cls-2" cx="32.36" cy="137.09" rx="1.6" ry="34.5" transform="translate(-106.64 114.31) rotate(-67.41)"/><path class="cls-1" d="M52.12,44.4c.3-.3,4.3,3.4,10.5,9.6s14.7,14.8,24,24.3,17.9,18.1,24,24.3,9.8,10.3,9.4,10.6-4.5-3.1-11-8.9-15.3-14.2-24.7-23.7-17.6-18.4-23.4-25S51.72,44.7,52.12,44.4Z"/><path class="cls-1" d="M528.62,202.1c.1.4-5.6,2.3-14.9,4.8s-22.4,5.5-36.9,8.3c-7.2,1.4-14.2,2.5-20.5,3.5a152.71,152.71,0,0,1-16.9,2,54.42,54.42,0,0,1-11.6-.6c-2.7-.5-4.1-1.1-4.1-1.3.1-.5,6,.7,15.5-.4,4.7-.5,10.4-1.5,16.6-2.6s13.2-2.4,20.4-3.7c14.4-2.7,27.5-5.4,36.9-7.3C522.62,202.7,528.52,201.6,528.62,202.1Z"/><ellipse class="cls-3" cx="447.79" cy="159.36" rx="22.9" ry="1.6" transform="translate(-26.29 193.46) rotate(-23.7)"/><path class="cls-1" d="M510.12,7.2c.1.2-1.5,1.7-4.6,4.4s-7.7,6.4-13.3,11.1c-11.3,9.3-26.8,22.3-43.7,36.9s-31.9,28.2-42.7,38c-5.4,4.9-9.8,8.9-12.9,11.6s-4.9,4.1-5,4,1.3-1.9,4.1-4.9,7-7.2,12.2-12.4c10.5-10.3,25.3-24.1,42.2-38.8s32.7-27.4,44.4-36.3c5.8-4.4,10.6-8,14-10.3S510,7.1,510.12,7.2Z"/><path class="cls-1" d="M381,11c.9.2-3.5,18-9.6,39.6s-11.9,39-12.8,38.7,3.5-18,9.6-39.6S380.22,10.8,381,11Z"/><path class="cls-1" d="M174.32.5c.4-.1,2.6,5.5,5.9,14.7s7.6,22,12.4,36.1,9,26.9,12,36.2,4.6,15.1,4.2,15.3-2.9-5.4-6.4-14.5-8.1-21.8-12.9-35.9-8.8-27-11.5-36.4S173.92.6,174.32.5Z"/><path class="cls-1" d="M93.22,140.1c.6-.7,7,3.9,15.1,9.2s14.7,9.5,14.3,10.4-7.9-2.2-16.1-7.7S92.62,140.8,93.22,140.1Z"/><path class="cls-1" d="M254.92,55c.91-.07,2.19,7.71,4.17,17.19s3.67,17.11,2.75,17.46-4-7.14-5.94-16.83S254,55,254.92,55Z"/><path class="cls-1" d="M297.86,87.09c-.7-.6,3.9-7,9.2-15.1s9.5-14.7,10.4-14.3-2.2,7.9-7.7,16.1S298.56,87.69,297.86,87.09Z"/><ellipse class="cls-4" cx="166.84" cy="96.86" rx="1.6" ry="19.9" transform="translate(-25.4 80.71) rotate(-25.34)"/></svg>