<svg xmlns="http://www.w3.org/2000/svg" viewBox="0 0 556.89 562.2">
  <title>Traveling</title>
  <g id="SIMPLE_BACKGROUND">
    <g id="ground">
      <path d="M255.37,502.21a15,15,0,0,1-2.6.16l-7.45.15-11.79.17c-4.59.08-9.83.13-15.61.28-11.56.22-25.33.61-40.62,1.17s-32.08,1.39-49.7,2.45S93.22,508.93,78,510.2,49,512.79,37.51,514c-5.75.55-10.95,1.14-15.52,1.62l-11.73,1.26-7.41.76a14.09,14.09,0,0,1-2.6.15,16.06,16.06,0,0,1,2.56-.48l7.38-1.06c3.2-.46,7.13-1,11.69-1.54s9.76-1.23,15.51-1.86c11.5-1.34,25.21-2.74,40.45-4.13s32-2.65,49.66-3.74,34.45-1.81,49.75-2.32,29.08-.75,40.66-.82c5.78-.08,11-.05,15.62,0s8.55,0,11.79.1l7.45.16A15.42,15.42,0,0,1,255.37,502.21Z" transform="translate(0)" stroke="#000" stroke-miterlimit="10" stroke-width="0.5"/>
      <path d="M480.62,538.8a16.72,16.72,0,0,1-2.81-.26l-8-1.07-5.76-.81-6.86-.87c-4.93-.62-10.53-1.4-16.74-2l-9.75-1.09c-3.39-.38-6.92-.68-10.58-1-7.3-.77-15.13-1.34-23.37-2-16.47-1.17-34.61-2.13-53.67-2.59s-37.23-.24-53.74.2c-8.26.3-16.11.53-23.44,1-3.67.2-7.21.34-10.62.57l-9.78.66c-6.24.37-11.87.9-16.82,1.3l-6.89.56-5.79.56-8,.71a16.94,16.94,0,0,1-2.81.14,18,18,0,0,1,2.77-.47l8-1,5.78-.7,6.89-.7c4.94-.48,10.57-1.09,16.81-1.54l9.79-.77c3.41-.26,7-.43,10.62-.66,7.35-.5,15.2-.78,23.47-1.12,16.53-.52,34.73-.72,53.82-.33s37.26,1.47,53.76,2.72c8.24.71,16.08,1.34,23.39,2.16,3.65.39,7.19.73,10.58,1.14l9.75,1.2c6.21.72,11.81,1.59,16.72,2.28l6.86,1,5.74,1,7.94,1.38A20.18,20.18,0,0,1,480.62,538.8Z" transform="translate(0)" stroke="#000" stroke-miterlimit="10" stroke-width="0.5"/>
      <path d="M540.7,530a13.2,13.2,0,0,1-2.43-.36c-1.59-.29-3.91-.75-6.91-1.35l-5-1-5.94-1.13c-4.26-.8-9.1-1.79-14.48-2.7l-8.44-1.5c-2.93-.51-6-1-9.17-1.49-6.33-1.07-13.12-2-20.26-3.06-14.3-1.95-30.06-3.83-46.65-5.33s-32.44-2.38-46.86-3c-7.21-.23-14.07-.5-20.49-.57-3.21,0-6.3-.13-9.28-.14l-8.57,0c-5.46-.05-10.4.07-14.74.11l-6,.06-5.08.13c-3.06.06-5.43.1-7,.11a13.29,13.29,0,0,1-2.46-.07,15.37,15.37,0,0,1,2.45-.26c1.6-.11,4-.25,7-.42l5.08-.26,6.05-.2c4.34-.13,9.28-.33,14.75-.35l8.58-.09c3,0,6.09,0,9.3.05,6.43,0,13.3.23,20.52.41,14.45.52,30.33,1.41,46.95,2.86s32.41,3.42,46.72,5.46c7.15,1.09,13.94,2.09,20.27,3.22,3.17.55,6.24,1,9.17,1.59l8.43,1.6c5.38,1,10.21,2.05,14.46,2.93l5.91,1.27,5,1.16c3,.7,5.28,1.25,6.84,1.65A14.19,14.19,0,0,1,540.7,530Z" transform="translate(0)" stroke="#000" stroke-miterlimit="10" stroke-width="0.5"/>
    </g>
    <g id="plants">
      <path d="M463.18,517.44a106.68,106.68,0,0,1-2.63-21.05,109.19,109.19,0,0,1,.9-16.56,57.33,57.33,0,0,1,2-10.51c1.06-3.47,2.06-6.64,4.69-9.82a21.59,21.59,0,0,1,5.93-5,21.84,21.84,0,0,1-.26-7.51,19.25,19.25,0,0,1,2.78-8,18.76,18.76,0,0,1,8.68-7.13,27.86,27.86,0,0,1,10.25-23.32,149.67,149.67,0,0,1,5.91-21.49c1.31-3.65,3.26-8.11,7.17-17,0,0,2.47-5.65,9.77-20.15,2.64-5.24,5.34-10.44,10.64-12.5,2.48-1,3.71-.53,4.25-.27,1.22.6,2.82,2.36,2.85,10.35a56.88,56.88,0,0,1-1.74,14.78c-2.76,9.41-4.12,19.18-6.57,28.68-1.68,6.53-4,16.12-6.52,28.07L526,415.6a93,93,0,0,1-1.28,12,94.5,94.5,0,0,1-4.58,17l3.18,3.27a32.7,32.7,0,0,1,5.19-11.08,32.11,32.11,0,0,1,4.49-5c1.4-5.56,2.71-10.27,3.76-13.9,0,0,1.33-4.59,4.87-13.31,1.33-3.27,2.34-5.51,4.73-7,.57-.35,3.79-2.25,6.4-.88.48.25,1.94,1.14,2.92,4.95,1.07,4.17.43,7.42-.15,11.26-1.08,7.12-.25,5.1-1.37,12.46A178.93,178.93,0,0,1,550,444.78c-1.24,4.6-3,10.23-5.3,16.56l3.49,1.53c-.21,3.4-.58,7-1.15,10.87a128.44,128.44,0,0,1-3.53,16.31l2.59,1a41.11,41.11,0,0,1-2.79,12.87,50.54,50.54,0,0,1-3.84,7.48A81,81,0,0,0,532,529.46Z" transform="translate(0)" fill="#fff"/>
      <path d="M100.41,535.79c-6.19-6.35-11.13-12-14.8-16.42C82.93,516.15,79.29,511,72,500.83a40.36,40.36,0,0,1-5-9.56,18.65,18.65,0,0,1-1.47-7.86,16.43,16.43,0,0,1,1.61-6.1,88,88,0,0,1-4-9.24A106.55,106.55,0,0,1,59,452.35c-3.13-14.61-4-19.17-4-19.17-3-15.2-4.43-22.79-5.46-29C46.44,385.88,48,390.13,46,380c-1.29-6.58-3-13.74-2-23.38.27-2.58,1-9.35,3.4-9.74,1.35-.22,2.76,1.68,4,3.4a28.29,28.29,0,0,1,4.28,9c1.19,3.68.72,1.13,4.92,11.52,5.26,13,12.84,33.86,13.48,35.63.27-1,1.44-5,3.74-5.31,2.8-.42,5.47,4.78,6.7,7.16a27.43,27.43,0,0,1,2.9,10.16c.37-3.11.81-7.84.92-13.68.1-5.12-.15-6.23,0-11.2.11-2.81.55-6.67,1.43-14.27.92-8,1.24-9.82,3-11.25a7.16,7.16,0,0,1,7.3-1.13c2.42,1.2,2.87,4,4.3,8.57,1.35,4.31,3.55,8.33,5.07,12.59.19.53,3.11,7.77,9,22.24,3.27,8.09,8.15,20,15,36,.19-1.56.57-2.42,1.15-2.58q2.5-.72,10,15.79c-1.39-7.55-2.58-13.27-3.73-17.77-.37-1.43-1.11-4.18.36-6a5.28,5.28,0,0,1,3.85-1.62,108.72,108.72,0,0,1-4.23-11.27c-1-3.09-1.1-4-4.08-18.73-1.41-6.94-2.33-11.42-.83-16.83.7-2.52,1.53-3.85,2.67-4.12,2.16-.51,4.69,3,6.07,4.89,2.36,3.27,3.13,5.63,4.92,10,2.43,5.9,2.17,4.31,6.28,13.8.72,1.68,2.41,5.58,4.16,10,2.23,5.59,5.08,13.26,8,22.81a7.28,7.28,0,0,1,5.59-.33c2.14.92,3,3.08,3.89,5,1.83,3.89,4.7,7.2,6.9,10.9,2.61,4.39,5.3,8.74,7.94,13.12,6,9.95,5.86,9.67,6.1,10.11A114.91,114.91,0,0,1,206,501.45a117.29,117.29,0,0,1,3.71,14.25Z" transform="translate(0)" fill="#fff"/>
      <path d="M67.14,477.35s0,.27-.16.71l-.29.81L66.4,480a15.74,15.74,0,0,0-.4,3.11,19.46,19.46,0,0,0,.46,4.14,34.3,34.3,0,0,0,4.25,10c2.12,3.55,4.81,7.34,7.61,11.26,5.65,7.85,11.25,14.58,15.41,19.37s6.83,7.68,6.66,7.85-3.12-2.45-7.52-7.07A187.32,187.32,0,0,1,77,509.49c-2.83-4-5.47-7.75-7.59-11.46a33.22,33.22,0,0,1-4.08-10.57,18.39,18.39,0,0,1-.24-4.4,14.17,14.17,0,0,1,.7-3.25l.45-1.12c.16-.31.32-.57.44-.77C66.93,477.52,67.09,477.32,67.14,477.35Z" transform="translate(0)" stroke="#000" stroke-miterlimit="10" stroke-width="0.5"/>
      <path d="M79.14,421.44a10.87,10.87,0,0,1-.81-2c-.48-1.33-1.18-3.31-2.07-5.85-1.79-5.08-4.4-12.42-7.83-21.42s-7.71-19.63-12.85-31.28l-2-4.41c-.68-1.48-1.31-3-2.07-4.44a10.46,10.46,0,0,0-2.89-3.65,4.76,4.76,0,0,0-.47-.31,2.87,2.87,0,0,0-.39-.2.67.67,0,0,0-.15-.06s-.07.08-.1.11l-.26.35-.31.52a9.17,9.17,0,0,0-.59,1.07c-1.44,2.95-1.74,6.46-1.66,9.95s.58,7.13,1,10.78c1.6,14.6,3.64,28.45,5.84,41,2.42,12.5,4.59,23.76,6.42,33.22A221.68,221.68,0,0,0,63.14,467c.79,2.57,1.49,4.54,2,5.87a12.65,12.65,0,0,1,.69,2.05,9.4,9.4,0,0,1-1-1.93c-.58-1.3-1.38-3.24-2.27-5.79A187.67,187.67,0,0,1,56.81,445c-1.92-9.45-4.22-20.7-6.77-33.19-2.29-12.55-4.38-26.43-6-41.07-.37-3.66-.85-7.26-1-10.92A23,23,0,0,1,45,349.16a10.67,10.67,0,0,1,.65-1.2l.37-.58c.13-.2.24-.33.51-.69l.34-.44L47,346c.05-.07.1-.17.2-.09l1,.38a7.52,7.52,0,0,1,.74.39,6.17,6.17,0,0,1,.6.39,12,12,0,0,1,3.34,4.2c.8,1.53,1.42,3.05,2.09,4.54s1.3,3,1.94,4.44C62,372,66.2,382.7,69.51,391.76s5.74,16.48,7.35,21.62c.8,2.58,1.4,4.59,1.78,5.95A10.39,10.39,0,0,1,79.14,421.44Z" transform="translate(0)" stroke="#000" stroke-miterlimit="10" stroke-width="0.5"/>
      <path d="M87.51,419.05c-.48.08-1.18-6.25-5-12.87a10.42,10.42,0,0,0-3.17-3.86,3.62,3.62,0,0,0-1.84-.58,2.48,2.48,0,0,0-1.48.64,2.65,2.65,0,0,0-1,2.2c.09.59.4.89.31,1s-.54,0-.92-.81a3.17,3.17,0,0,1,.85-3.21,3.55,3.55,0,0,1,2.18-1.15,4.61,4.61,0,0,1,2.7.62A10.77,10.77,0,0,1,84,405.38a30,30,0,0,1,3.42,9.49C87.82,417.43,87.72,419,87.51,419.05Z" transform="translate(0)" stroke="#000" stroke-miterlimit="10" stroke-width="0.5"/>
      <path d="M103.82,473.66c.09.13-.63.6-1.58,1.73A12.3,12.3,0,0,0,99.76,481c-1.1,5.2.43,12.69,3,20.45a151.17,151.17,0,0,0,8.55,19.31c2.47,4.85,4,7.86,3.77,8s-2-2.71-4.78-7.43A111.26,111.26,0,0,1,101.24,502a65,65,0,0,1-2.83-11.48,24.91,24.91,0,0,1,.22-9.75,14.36,14.36,0,0,1,1.39-3.53,10.11,10.11,0,0,1,1.76-2.27A4.5,4.5,0,0,1,103.82,473.66Z" transform="translate(0)" stroke="#000" stroke-miterlimit="10" stroke-width="0.5"/>
      <path d="M134.08,449.24a9.86,9.86,0,0,1-.92-1.87c-.56-1.24-1.36-3.09-2.37-5.47-2-4.77-4.91-11.7-8.44-20.26s-7.68-18.79-12.31-30.13l-7.22-17.82a39.25,39.25,0,0,0-2-4.5,5.3,5.3,0,0,0-3.24-2.85,3.71,3.71,0,0,0-3.75,1.57,12.44,12.44,0,0,0-2.1,4.43,18.83,18.83,0,0,0-.52,2.48l-.36,2.59c-.22,1.73-.44,3.45-.65,5.15-.41,3.41-.76,6.77-1,10.07a82.6,82.6,0,0,0,.65,19A55.43,55.43,0,0,0,92,420.2a49,49,0,0,1,2.3,8.23,56,56,0,0,1,.36,8c0,2.52.09,4.92.3,7.21a81.56,81.56,0,0,0,4.8,21.22c.88,2.42,1.7,4.26,2.22,5.51a9.77,9.77,0,0,1,.78,1.94,10.8,10.8,0,0,1-1.07-1.79c-.63-1.22-1.54-3-2.53-5.43a76.71,76.71,0,0,1-5.34-21.34c-.26-2.32-.39-4.77-.42-7.31a54,54,0,0,0-.44-7.77,48.35,48.35,0,0,0-2.32-8,56.38,56.38,0,0,1-2.21-8.78,83.42,83.42,0,0,1-.77-19.34c.21-3.34.55-6.74,1-10.16l.65-5.17.35-2.61a22.57,22.57,0,0,1,.57-2.69,13.87,13.87,0,0,1,2.41-5A6.05,6.05,0,0,1,94.89,365a5.1,5.1,0,0,1,3-.28,5.31,5.31,0,0,1,2.61,1.42,9.28,9.28,0,0,1,1.69,2.21,39.89,39.89,0,0,1,2.08,4.71L111.43,391c4.51,11.39,8.58,21.64,12,30.26s6.11,15.61,8,20.45c.93,2.42,1.63,4.31,2.09,5.59A9.28,9.28,0,0,1,134.08,449.24Z" transform="translate(0)" stroke="#000" stroke-miterlimit="10" stroke-width="0.5"/>
      <path d="M175.94,514.65a17.19,17.19,0,0,1-1.74-3.19c-1-2.09-2.52-5.11-4.44-8.8s-4.31-8-7.13-12.73c-1.42-2.35-2.93-4.8-4.57-7.3-.8-1.26-1.66-2.52-2.52-3.8l-1.31-1.92-1-1.43-.08-.12s-.08.05-.11.08a.94.94,0,0,0-.14.26,2.56,2.56,0,0,0,.08,1.85l-1.49.63c-4-10.78-8.28-20.08-11.51-26.68-.82-1.65-1.55-3.14-2.2-4.44a7.54,7.54,0,0,0-1.93-2.94,1.75,1.75,0,0,0-2,0c-.39.28-.43.59-.49.57s-.13-.35.29-.81a1.85,1.85,0,0,1,1-.49,2.07,2.07,0,0,1,1.48.23c1.05.57,1.67,1.82,2.39,3s1.54,2.72,2.41,4.35A222,222,0,0,1,153,477.61l-1.49.63a4.13,4.13,0,0,1-.17-3.05,4.21,4.21,0,0,1,1.13-1.74l.36-.33L153,473c.06-.05.13-.15.18-.05l.65.66c1,1.32,1.23,1.74,1.72,2.42l1.32,1.95c.86,1.29,1.71,2.56,2.52,3.83,1.62,2.53,3.12,5,4.51,7.41,2.78,4.78,5.07,9.21,6.87,13s3.14,6.87,4,9.05A14.63,14.63,0,0,1,175.94,514.65Z" transform="translate(0)" stroke="#000" stroke-miterlimit="10" stroke-width="0.5"/>
      <path d="M168.19,444.14a5.6,5.6,0,0,1-.68-1.47l-1.66-4.31c-1.43-3.74-3.5-9.16-6.23-15.79s-6.13-14.44-10.22-23c-1-2.14-2.09-4.32-3.19-6.54-.56-1.1-1.12-2.22-1.69-3.35s-1.13-2.29-1.78-3.3a5.51,5.51,0,0,0-2.46-2.27,2.81,2.81,0,0,0-2.88.34c-.69.61-.78,1.86-.78,3.2s-.06,2.69,0,4.05a109.27,109.27,0,0,0,2.75,23.07c.83,3.59,1.79,7,2.88,10.27.56,1.62,1.11,3.21,1.72,4.74.29.77.58,1.53.9,2.26l.74,1.77.38.89c.09.2,0,.18,0,.24a1.43,1.43,0,0,0,.05.33c-.47-.19-1-.41-1.41-.55l-.32-.11-.24-.05a1,1,0,0,0-.45,0,2.21,2.21,0,0,0-.75.25,2.88,2.88,0,0,0-1.13,1.06,5.8,5.8,0,0,0-.63,3.23,56.66,56.66,0,0,0,.8,6.7,60.48,60.48,0,0,0,2.92,10.59c2.19,5.7,4.08,8.67,3.91,8.76a10.17,10.17,0,0,1-1.42-2.08,50,50,0,0,1-3.21-6.39A57,57,0,0,1,140.85,446a54.1,54.1,0,0,1-1-6.85,7.18,7.18,0,0,1,.75-3.95,4.22,4.22,0,0,1,1.63-1.56,3.4,3.4,0,0,1,1.09-.39.69.69,0,0,1,.35,0,.38.38,0,0,1,.1,0s.09.05.05,0l-.09-.21-.2-.45c-.33-.74-.64-1.51-.94-2.28-.63-1.54-1.21-3.14-1.79-4.78a108.26,108.26,0,0,1-5.87-33.8c0-1.38,0-2.75,0-4.11a11.61,11.61,0,0,1,.17-2.14,4,4,0,0,1,1.12-2.2,3.79,3.79,0,0,1,2.27-1,5,5,0,0,1,2.31.33,7,7,0,0,1,3.22,2.9c.74,1.17,1.27,2.33,1.85,3.46l1.67,3.37c1.1,2.23,2.15,4.43,3.15,6.58,4,8.61,7.33,16.51,9.94,23.2s4.51,12.19,5.76,16c.62,1.91,1.08,3.4,1.37,4.42A6.42,6.42,0,0,1,168.19,444.14Z" transform="translate(0)" stroke="#000" stroke-miterlimit="10" stroke-width="0.5"/>
      <path d="M192.54,478.91c-.47.17-3.66-9.28-9.76-19.84A144.35,144.35,0,0,0,174.26,446a7.68,7.68,0,0,0-1.66-1.9,1.71,1.71,0,0,0-1.59-.28c-1,.32-.94,1.07-1,1.05s-.16-.15-.11-.49a1.64,1.64,0,0,1,.91-1.14,2.24,2.24,0,0,1,1.06-.27,2.71,2.71,0,0,1,1.25.35,7.67,7.67,0,0,1,2.1,2,91.55,91.55,0,0,1,15.67,27.31C192.19,476.4,192.74,478.85,192.54,478.91Z" transform="translate(0)" stroke="#000" stroke-miterlimit="10" stroke-width="0.5"/>
      <path d="M208.81,511.53c-.49.12-2.8-10-8.12-21.59s-11.39-20-11-20.29c.16-.13,1.91,1.82,4.33,5.27a94.35,94.35,0,0,1,13.62,29.87C208.69,508.89,209,511.48,208.81,511.53Z" transform="translate(0)" stroke="#000" stroke-miterlimit="10" stroke-width="0.5"/>
      <path d="M95.55,496a5.59,5.59,0,0,1-.88-1.3c-.54-.89-1.3-2.2-2.26-3.9L90.81,488,89,484.58c-1.29-2.46-2.79-5.24-4.3-8.39l-2.42-4.93c-.83-1.71-1.64-3.53-2.51-5.39-1.75-3.72-3.46-7.76-5.3-12-3.55-8.53-7.21-18-10.63-28.13s-6.21-19.89-8.54-28.84c-1.11-4.49-2.19-8.75-3-12.77-.44-2-.89-3.94-1.27-5.81s-.71-3.67-1.05-5.39c-.7-3.42-1.18-6.55-1.65-9.28l-.62-3.82-.44-3.22c-.26-1.94-.45-3.45-.56-4.47a5.36,5.36,0,0,1-.08-1.57,6.41,6.41,0,0,1,.41,1.52c.21,1,.5,2.5.86,4.41l.58,3.2.75,3.79c.55,2.71,1.11,5.81,1.88,9.21L52.22,378c.41,1.86.89,3.78,1.36,5.78.9,4,2,8.23,3.17,12.69,2.4,8.89,5.26,18.61,8.63,28.7s7,19.54,10.48,28.08c1.79,4.24,3.45,8.29,5.14,12,.84,1.87,1.62,3.69,2.42,5.42s1.58,3.38,2.31,5c1.45,3.17,2.88,6,4.08,8.48l1.69,3.47L93,490.53c.88,1.75,1.55,3.11,2,4A5.76,5.76,0,0,1,95.55,496Z" transform="translate(0)" stroke="#000" stroke-miterlimit="10" stroke-width="0.5"/>
      <path d="M150.48,529.4a6.37,6.37,0,0,1-.92-1.4c-.56-1-1.36-2.36-2.37-4.19s-2.24-4.06-3.59-6.7-2.95-5.62-4.56-9c-.82-1.68-1.67-3.44-2.57-5.27s-1.75-3.77-2.68-5.76c-1.87-4-3.71-8.29-5.69-12.82-3.84-9.1-7.83-19.21-11.63-30s-7-21.14-9.68-30.64c-1.29-4.77-2.55-9.29-3.58-13.56-.52-2.13-1.06-4.18-1.52-6.17l-1.29-5.72c-.85-3.63-1.49-7-2.08-9.86s-1-5.42-1.39-7.48-.61-3.66-.77-4.75a6.17,6.17,0,0,1-.16-1.67,6.92,6.92,0,0,1,.48,1.61c.26,1.07.62,2.65,1.07,4.69s1,4.53,1.66,7.41,1.39,6.18,2.31,9.79c.44,1.81.91,3.71,1.39,5.68s1.06,4,1.61,6.13c1.08,4.25,2.39,8.75,3.72,13.49,2.77,9.45,6,19.78,9.77,30.51s7.72,20.81,11.48,29.92c1.93,4.53,3.72,8.85,5.54,12.84.89,2,1.73,3.94,2.58,5.79l2.47,5.3c1.54,3.39,3,6.41,4.33,9.08s2.41,5,3.34,6.82,1.64,3.33,2.1,4.32A6.8,6.8,0,0,1,150.48,529.4Z" transform="translate(0)" stroke="#000" stroke-miterlimit="10" stroke-width="0.5"/>
      <path d="M134.78,496.22c-.34.29-8.06-8.32-17.24-19.23s-16.33-20-16-20.29,8.07,8.32,17.24,19.24S135.13,495.93,134.78,496.22Z" transform="translate(0)" stroke="#000" stroke-miterlimit="10" stroke-width="0.5"/>
      <path d="M122.07,463.56c-.2.06-1.17-2.8-2.32-7.52a159.45,159.45,0,0,1-4.27-37.69c0-4.86.35-7.86.57-7.85s.34,3,.58,7.83.65,11.49,1.48,18.81S120,451,120.88,455.8,122.3,463.51,122.07,463.56Z" transform="translate(0)" stroke="#000" stroke-miterlimit="10" stroke-width="0.5"/>
      <path d="M185.4,501.27a24.77,24.77,0,0,1-2.68-3.84c-.82-1.26-1.8-2.82-2.89-4.66s-2.37-3.91-3.68-6.26c-2.69-4.67-5.73-10.31-9-16.67s-6.52-13.45-9.77-21-6-14.88-8.44-21.58-4.36-12.81-5.88-18c-.79-2.57-1.41-4.92-2-7s-1-3.84-1.37-5.31a25.28,25.28,0,0,1-.94-4.58,26,26,0,0,1,1.55,4.41c.44,1.44,1,3.2,1.63,5.23s1.35,4.36,2.21,6.9c1.65,5.11,3.75,11.15,6.19,17.81s5.32,13.91,8.53,21.45,6.52,14.59,9.62,21,6,12.05,8.61,16.77c1.24,2.38,2.44,4.49,3.46,6.36s1.91,3.49,2.65,4.8A26.41,26.41,0,0,1,185.4,501.27Z" transform="translate(0)" stroke="#000" stroke-miterlimit="10" stroke-width="0.5"/>
      <path d="M173.56,487.49c-.36.28-6.29-6.82-13.66-15.51s-13.37-15.73-13-16.05,6.89,6.26,14.27,15S173.91,487.22,173.56,487.49Z" transform="translate(0)" stroke="#000" stroke-miterlimit="10" stroke-width="0.5"/>
      <path d="M176.94,464.47c.48,0,1.41,7,3.31,15.43s4,15.22,3.53,15.38-3.23-6.42-5.13-15S176.52,464.5,176.94,464.47Z" transform="translate(0)" stroke="#000" stroke-miterlimit="10" stroke-width="0.5"/>
      <ellipse cx="157.52" cy="434.9" rx="0.82" ry="10.71" transform="translate(-22.47 8.81) rotate(-2.99)" stroke="#000" stroke-miterlimit="10" stroke-width="0.5"/>
      <path d="M71.5,413.91c.46,0,.5,6.53.76,14.54s.63,14.51.17,14.56-1.54-6.42-1.79-14.51S71.06,413.89,71.5,413.91Z" transform="translate(0)" stroke="#000" stroke-miterlimit="10" stroke-width="0.5"/>
      <ellipse cx="69.59" cy="460.29" rx="0.82" ry="23.8" transform="matrix(0.79, -0.61, 0.61, 0.79, -266.48, 138.17)" stroke="#000" stroke-miterlimit="10" stroke-width="0.5"/>
      <path d="M65.38,391.63c.44,0,1.17,7.47,1,16.73S65.27,425.07,64.83,425s-.21-7.51-.07-16.71S64.92,391.65,65.38,391.63Z" transform="translate(0)" stroke="#000" stroke-miterlimit="10" stroke-width="0.5"/>
      <path d="M474.08,454.56c0,.05-.14.21-.48.46a17.39,17.39,0,0,0-1.45,1.08A19.87,19.87,0,0,0,467.8,461a30.54,30.54,0,0,0-2.07,4.05,42.1,42.1,0,0,0-1.66,5A81.26,81.26,0,0,0,462,482a128.86,128.86,0,0,0-.49,22.11c.36,5.66.85,9.16.61,9.2s-1.09-3.4-1.75-9.1a101.86,101.86,0,0,1,0-22.39,72,72,0,0,1,2.22-12.17,40.22,40.22,0,0,1,1.87-5.12,29.22,29.22,0,0,1,2.35-4.15,17.69,17.69,0,0,1,4.94-4.79,8.7,8.7,0,0,1,1.66-.85C473.84,454.57,474.06,454.51,474.08,454.56Z" transform="translate(0)" stroke="#000" stroke-miterlimit="10" stroke-width="0.5"/>
      <path d="M484.61,431.17c.13.23-1.2,1.06-3,2.75a17.73,17.73,0,0,0-1.39,1.45c-.5.52-.94,1.14-1.44,1.78a26.76,26.76,0,0,0-2.6,4.54,26.49,26.49,0,0,0-1.53,5,22.08,22.08,0,0,0-.32,2.27,17.72,17.72,0,0,0-.1,2c0,2.45.28,4,0,4.06s-.89-1.41-1.18-4a14.36,14.36,0,0,1-.1-2.13,19.36,19.36,0,0,1,.18-2.44,22.65,22.65,0,0,1,1.53-5.4,22.33,22.33,0,0,1,2.9-4.8,18.39,18.39,0,0,1,1.66-1.81,14,14,0,0,1,1.61-1.38C483,431.48,484.53,431,484.61,431.17Z" transform="translate(0)" stroke="#000" stroke-miterlimit="10" stroke-width="0.5"/>
      <path d="M495.55,408.59c.16.19-.91,1.22-2.41,3a37.35,37.35,0,0,0-2.42,3.31,36,36,0,0,0-2.36,4.4,35.17,35.17,0,0,0-1.65,4.72,34.21,34.21,0,0,0-.8,4c-.32,2.32-.36,3.8-.61,3.82s-.57-1.46-.54-3.92a23.1,23.1,0,0,1,.49-4.27,25.76,25.76,0,0,1,4.23-9.62,23.43,23.43,0,0,1,2.82-3.25C494.09,409.15,495.43,408.43,495.55,408.59Z" transform="translate(0)" stroke="#000" stroke-miterlimit="10" stroke-width="0.5"/>
      <path d="M521.34,418.93a7.51,7.51,0,0,1,.24-1.75c.21-1.13.54-2.8,1-4.94.89-4.28,2.24-10.46,3.93-18.08l6-26.78a110,110,0,0,0,2.66-15.86,51.61,51.61,0,0,0,0-8.43c-.09-.7-.16-1.44-.26-2.11a9.41,9.41,0,0,0-.54-1.94c-.49-1.24-1.38-2.1-2.49-2s-2.32,1-3.46,1.84a28.62,28.62,0,0,0-3.16,2.86,39.68,39.68,0,0,0-5,6.69c-2.89,4.74-5.09,9.7-7.35,14.35-4.46,9.31-8.28,17.77-11,25.06a150.26,150.26,0,0,0-5.57,17.58c-1,4.23-1.44,6.62-1.59,6.59a7.94,7.94,0,0,1,.14-1.75c.13-1.15.42-2.83.83-5a127.74,127.74,0,0,1,5.11-17.84c2.64-7.38,6.37-15.95,10.77-25.3a160.05,160.05,0,0,1,7.34-14.54,40.81,40.81,0,0,1,5.24-7,28.36,28.36,0,0,1,3.34-3c.62-.44,1.2-.91,1.9-1.32a5.54,5.54,0,0,1,2.44-.85,3.66,3.66,0,0,1,2.64.87,5.47,5.47,0,0,1,1.46,2.12,10.82,10.82,0,0,1,.64,2.3c.12.77.18,1.48.27,2.23a51.59,51.59,0,0,1,0,8.7A108.4,108.4,0,0,1,534,367.71l-6.38,26.71c-1.83,7.59-3.35,13.73-4.43,18-.55,2.11-1,3.76-1.29,4.86A6.88,6.88,0,0,1,521.34,418.93Z" transform="translate(0)" stroke="#000" stroke-miterlimit="10" stroke-width="0.5"/>
      <path d="M520.09,444.56c-.44-.17,1.94-7,3.53-15.75.51-2.69.89-5.25,1.18-7.49.13-1.12.26-2.17.37-3.11l.08-.69.06-.39c0-.29.08-.56.11-.8l-.66.07-.17,0-.23,0-.41.05c-.5.05-.77,0-.79,0s.21-.23.66-.44l.38-.16.22-.09.32-.11,1.67-.56v1.56c0,.51,0,1.06,0,1.63,0,1-.07,2-.15,3.17a71.05,71.05,0,0,1-1,7.65C523.59,438,520.48,444.73,520.09,444.56Z" transform="translate(0)" stroke="#000" stroke-miterlimit="10" stroke-width="0.5"/>
      <path d="M514.94,482.37c-.44-.12,1.52-8.69,4.37-19.15.71-2.62,1.41-5.1,2.07-7.36a32.15,32.15,0,0,0,1.42-5.92,6.84,6.84,0,0,0-.53-3.85c-.42-.83-.84-1.21-.76-1.31s.63.13,1.3,1A6.62,6.62,0,0,1,524,450a26.81,26.81,0,0,1-1.13,6.26c-.57,2.27-1.23,4.77-1.94,7.39C518,474.1,515.37,482.49,514.94,482.37Z" transform="translate(0)" stroke="#000" stroke-miterlimit="10" stroke-width="0.5"/>
      <path d="M510.8,517.45c-.46-.17,2.59-8.29,4.69-18.7,1.06-5.2,1.72-10,2.14-13.43,0-.43.1-.85.15-1.24l.07-.57a3.62,3.62,0,0,0,0-.46,3.66,3.66,0,0,0-.35-1.55c-.39-.8-1-.53-1-.65s.07-.19.38-.26a1.26,1.26,0,0,1,1.18.56,3.85,3.85,0,0,1,.74,1.82,3.91,3.91,0,0,1,0,.61v.57q0,.6,0,1.26a87.44,87.44,0,0,1-1.69,13.67C514.94,509.67,511.17,517.63,510.8,517.45Z" transform="translate(0)" stroke="#000" stroke-miterlimit="10" stroke-width="0.5"/>
      <path d="M544.89,459.9a39.81,39.81,0,0,1,1.54-5.08c1.05-3.24,2.51-7.95,3.94-13.87a165.87,165.87,0,0,0,3.7-21c.44-4,.75-8.2.89-12.57a24.22,24.22,0,0,0-.3-6.45,6.11,6.11,0,0,0-1.31-2.69,3.84,3.84,0,0,0-2.5-1.27,5.48,5.48,0,0,0-2.93.58,7.36,7.36,0,0,0-2.41,1.91,24.83,24.83,0,0,0-3.26,5.57,86.91,86.91,0,0,0-4.43,11.74c-1.18,3.83-2.11,7.54-2.94,11-.22.87-.39,1.72-.65,2.6a6.63,6.63,0,0,1-1.28,2.47,18.76,18.76,0,0,1-1.8,1.78,20.23,20.23,0,0,0-1.57,1.65,26.54,26.54,0,0,0-4.18,6.87,54.22,54.22,0,0,0-2.12,5.8,41.74,41.74,0,0,1-1.63,5.05,4.87,4.87,0,0,1,.17-1.37c.17-.89.43-2.19.85-3.85a48.36,48.36,0,0,1,1.88-6,27,27,0,0,1,4.15-7.27c.48-.61,1-1.19,1.62-1.78a17.45,17.45,0,0,0,1.65-1.69c1-1.13,1.18-2.81,1.59-4.59.78-3.51,1.67-7.26,2.82-11.15a86.28,86.28,0,0,1,4.42-12,26.15,26.15,0,0,1,3.48-6,8,8,0,0,1,6.73-3.05,5.5,5.5,0,0,1,3.55,1.8,7.64,7.64,0,0,1,1.67,3.4,25.29,25.29,0,0,1,.33,6.89c-.17,4.41-.52,8.65-1,12.68a151.91,151.91,0,0,1-4.07,21.14A136.66,136.66,0,0,1,547,455c-.6,1.6-1.13,2.82-1.5,3.64A4.56,4.56,0,0,1,544.89,459.9Z" transform="translate(0)" stroke="#000" stroke-miterlimit="10" stroke-width="0.5"/>
      <path d="M542.92,491.89c-.45-.14,1.42-7.09,2.88-15.82.46-2.75.84-5.33,1.15-7.6.14-1.13.28-2.18.41-3.12.06-.47.12-.92.17-1.34s.08-.46.13-.72l-.68-.15a8.21,8.21,0,0,1-.84-.17c-.46-.1-.7-.2-.69-.28s.25-.15.72-.19c.23,0,.52,0,.86-.05s1,0,1.59,0c0,.5,0,1,0,1.63,0,.42,0,.88,0,1.36q0,1.44-.18,3.18c-.18,2.3-.49,4.93-1,7.71C545.92,485.2,543.32,492,542.92,491.89Z" transform="translate(0)" stroke="#000" stroke-miterlimit="10" stroke-width="0.5"/>
      <path d="M537.55,514c-.39-.29,2.92-4.77,5.23-11.12s2.78-11.87,3.27-11.84c.21,0,.38,1.42.21,3.7a32.84,32.84,0,0,1-2,8.71,33.19,33.19,0,0,1-4.18,7.88C538.77,513.22,537.72,514.17,537.55,514Z" transform="translate(0)" stroke="#000" stroke-miterlimit="10" stroke-width="0.5"/>
      <path d="M523.58,512.31a22.94,22.94,0,0,1,.58-4.39c.48-2.8,1.24-6.85,2.22-11.84,2-10,4.87-23.73,8.33-38.86s6.85-28.77,9.43-38.61c1.28-4.92,2.36-8.9,3.15-11.63a22.71,22.71,0,0,1,1.39-4.2,23,23,0,0,1-.77,4.35c-.6,2.79-1.51,6.8-2.65,11.75-2.3,9.91-5.46,23.59-9,38.7s-6.54,28.83-8.79,38.74c-1.13,5-2.06,9-2.73,11.73A22.82,22.82,0,0,1,523.58,512.31Z" transform="translate(0)" stroke="#000" stroke-miterlimit="10" stroke-width="0.5"/>
      <path d="M483.72,527.79a9,9,0,0,1,.19-1.84c.18-1.2.47-3,.86-5.23.78-4.54,2-11.09,3.58-19.16,3.16-16.15,7.9-38.39,13.82-62.8s11.89-46.35,16.47-62.15c2.29-7.9,4.2-14.28,5.6-18.67.69-2.19,1.24-3.89,1.63-5a8.62,8.62,0,0,1,.67-1.73,7.35,7.35,0,0,1-.36,1.82c-.29,1.18-.74,2.91-1.34,5.13l-5.09,18.8c-4.3,15.87-10.08,37.84-16,62.23s-10.82,46.56-14.27,62.64c-1.73,8-3.12,14.55-4.08,19.05-.49,2.25-.88,4-1.16,5.17A7.77,7.77,0,0,1,483.72,527.79Z" transform="translate(0)" stroke="#000" stroke-miterlimit="10" stroke-width="0.5"/>
      <path d="M496.22,464.38c-.21,0-.77-3.06-1.34-8.07s-1.12-12-1.35-19.68-.08-14.68.2-19.72.65-8.15.86-8.14.27,3.13.29,8.16.05,12,.28,19.65.59,14.61.87,19.63S496.46,464.35,496.22,464.38Z" transform="translate(0)" stroke="#000" stroke-miterlimit="10" stroke-width="0.5"/>
      <path d="M499.2,457.62c.44,0,.75,2.16,0,4.67s-2.26,4.12-2.62,3.87.36-2.08,1.06-4.36S498.74,457.6,499.2,457.62Z" transform="translate(0)" stroke="#000" stroke-miterlimit="10" stroke-width="0.5"/>
      <path d="M520.32,410.84c.2.12-1,2.53-2.84,6.39s-4.49,9.18-7.23,15.13-5.1,11.4-6.8,15.34-2.79,6.38-3,6.3.5-2.65,1.94-6.72,3.63-9.62,6.38-15.6,5.55-11.26,7.71-15S520.13,410.74,520.32,410.84Z" transform="translate(0)" stroke="#000" stroke-miterlimit="10" stroke-width="0.5"/>
      <path d="M485.33,511.41c-.22,0-1.15-3.09-2.49-8.21S479.77,491,478,483.13c-.88-3.93-1.73-7.68-2.5-11.09a85.49,85.49,0,0,1-1.68-9.19,25.08,25.08,0,0,1,0-6.35c.23-1.49.53-2.27.63-2.24.26,0-.41,3.28.48,8.44.4,2.57,1.16,5.6,2,9s1.69,7.14,2.62,11.06c1.82,7.86,3.38,15,4.42,20.18S485.55,511.35,485.33,511.41Z" transform="translate(0)" stroke="#000" stroke-miterlimit="10" stroke-width="0.5"/>
      <path d="M511.06,468.72c.38.32-6.83,8.95-13.89,20.79s-11.35,22.23-11.82,22c-.19-.08.62-2.78,2.36-7A125.77,125.77,0,0,1,506,474.09C508.89,470.57,510.9,468.59,511.06,468.72Z" transform="translate(0)" stroke="#000" stroke-miterlimit="10" stroke-width="0.5"/>
    </g>
  </g>
  <g id="CHARACTER1">
    <g id="leg_right" data-name="leg right">
      <path d="M279,512.84c1.8,3.24,3.61,6.8,5.34,10.67a138.55,138.55,0,0,1,5.75,15.14,33.92,33.92,0,0,1-14.37,5.68A88.42,88.42,0,0,0,265,545.79a30.09,30.09,0,0,0-6.95,2.07,18.94,18.94,0,0,0-8.12,6.32,17.19,17.19,0,0,0-2.88,7.62,60.77,60.77,0,0,0,12.52-1.53c6.75-1.54,8.21-3.1,17.14-6.16a157.47,157.47,0,0,1,18.48-5c5.88-1.31,11-2.18,15.18-2.79l-4.29-12.88q-4.78-14.36-9.51-28.72A33.84,33.84,0,0,1,279,512.84Z" transform="translate(0)"/>
      <path d="M274.17,226.16a468.44,468.44,0,0,0-20.6,42.29c-8.72,20.43-21.34,50.53-27.68,91.61a302.57,302.57,0,0,0-3.43,34.81,255.41,255.41,0,0,0,7.1,70.5c2.39,9.51,4.88,16.74,5.77,19.27A212.11,212.11,0,0,0,248,513.49a30.38,30.38,0,0,0,8.18,3c7.56,1.58,13.44-.27,24.71-4s14.28-6.35,15.75-7.79a27.23,27.23,0,0,0,5.51-7.86,311.72,311.72,0,0,1-11.79-51.82,270.46,270.46,0,0,1-2.51-28.95,263.58,263.58,0,0,1,.9-29.3c1.07-12.36,3.46-38,14.49-67.23,10.1-26.79,16.78-28.41,26.35-56a223.47,223.47,0,0,0,9.9-40.34Z" transform="translate(0)" fill="#fff"/>
      <path d="M247.88,513.36a16.21,16.21,0,0,1-1.39-2.39l-1.59-3-1-1.9-1-2.2q-1.11-2.34-2.44-5.19c-.85-1.92-1.7-4-2.65-6.29s-1.81-4.73-2.79-7.33-1.85-5.41-2.81-8.34c-.23-.73-.47-1.47-.72-2.23l-.65-2.3c-.43-1.55-.88-3.14-1.33-4.76s-.82-3.3-1.25-5-.85-3.43-1.22-5.2c-.68-3.57-1.53-7.23-2.09-11-.3-1.91-.65-3.84-.92-5.81l-.77-6c-.89-8.1-1.6-16.65-1.69-25.53s.16-18.07.93-27.46a316.63,316.63,0,0,1,9.12-52.2c2-7.9,4.31-15.3,6.53-22.19s4.58-13.23,6.82-19c4.47-11.48,8.54-20.58,11.5-26.8,1.44-3.13,2.68-5.5,3.48-7.12a18.85,18.85,0,0,1,1.33-2.43,16.58,16.58,0,0,1-1,2.57c-.71,1.67-1.85,4.08-3.2,7.24-2.79,6.29-6.68,15.45-11,26.95-2.17,5.75-4.37,12.11-6.61,19S235,321.74,233,329.61a325.1,325.1,0,0,0-8.95,52c-.77,9.33-1.06,18.47-1,27.29s.74,17.33,1.58,25.39q.38,3,.73,6c.26,2,.6,3.88.88,5.78.54,3.8,1.35,7.45,2,11,.36,1.77.79,3.49,1.17,5.19s.73,3.37,1.2,5,.86,3.2,1.27,4.75c.21.78.42,1.54.63,2.3l.68,2.22c.92,2.93,1.72,5.74,2.69,8.33s1.72,5.09,2.66,7.34,1.71,4.39,2.51,6.32l2.3,5.23,1,2.23.93,1.92,1.44,3A17.87,17.87,0,0,1,247.88,513.36Z" transform="translate(0)" stroke="#000" stroke-miterlimit="10" stroke-width="0.5"/>
      <path d="M301.66,495a10.11,10.11,0,0,1-.77-1.9c-.45-1.27-1.09-3.14-1.9-5.56l-1.34-4c-.44-1.49-.86-3.12-1.35-4.87-.93-3.5-2.13-7.46-3-11.94-.49-2.23-1-4.56-1.52-7s-.86-5-1.33-7.65-1-5.38-1.24-8.23-.67-5.77-1-8.76a264.52,264.52,0,0,1,4-78.21c.65-2.95,1.29-5.83,1.91-8.62s1.4-5.46,2.07-8.06,1.34-5.1,2.1-7.48,1.52-4.64,2.22-6.81c1.34-4.36,2.94-8.18,4.22-11.57.66-1.69,1.25-3.27,1.84-4.7l1.74-3.87c1.05-2.33,1.88-4.13,2.46-5.34a10.37,10.37,0,0,1,.95-1.81,8.93,8.93,0,0,1-.65,1.95c-.48,1.25-1.22,3.09-2.17,5.44-.49,1.18-1,2.49-1.61,3.92s-1.09,3-1.71,4.74c-1.2,3.4-2.71,7.23-4,11.6q-1,3.25-2.12,6.81c-.71,2.37-1.3,4.89-2,7.47s-1.46,5.24-2,8-1.2,5.65-1.83,8.59a274.21,274.21,0,0,0-4,77.78c.32,3,.64,5.89.94,8.72s.78,5.55,1.16,8.2.75,5.19,1.23,7.63l1.41,7c.8,4.48,1.92,8.44,2.76,11.95.44,1.75.82,3.39,1.22,4.88l1.2,4.06c.71,2.45,1.25,4.35,1.6,5.64A10.4,10.4,0,0,1,301.66,495Z" transform="translate(0)" stroke="#000" stroke-miterlimit="10" stroke-width="0.5"/>
      <path d="M302.09,496.9a5.31,5.31,0,0,1-.67,2.35,18,18,0,0,1-3.91,5.41,33,33,0,0,1-8.09,5.65,63.81,63.81,0,0,1-23,6.66,60.26,60.26,0,0,1-9.81.1,12.35,12.35,0,0,1-6.45-1.77c-1.34-1-1.6-1.92-1.53-1.94s.57.69,1.87,1.4a13,13,0,0,0,6.16,1.16,74.88,74.88,0,0,0,9.6-.45,70.32,70.32,0,0,0,11.52-2.31c8-2.35,14.93-5.72,19-9.34a21.06,21.06,0,0,0,4.13-4.86C301.63,497.65,302,496.85,302.09,496.9Z" transform="translate(0)" stroke="#000" stroke-miterlimit="10" stroke-width="0.5"/>
      <path d="M290.07,538.64c-.46.12-2.41-5.85-5.47-12.93s-6-12.61-5.61-12.86,4,5,7.11,12.22S290.48,538.54,290.07,538.64Z" transform="translate(0)" stroke="#000" stroke-miterlimit="10" stroke-width="0.5"/>
      <path d="M247.19,558.45c-.09,0,.08-.71.65-1.83a19.35,19.35,0,0,1,3-4.34,22.52,22.52,0,0,1,6.28-4.82,29.22,29.22,0,0,1,9.27-2.73c3.36-.49,6.54-.72,9.37-1.19a36.15,36.15,0,0,0,7.32-1.93c4.06-1.55,6.55-2.71,6.66-2.48s-2.19,1.68-6.23,3.55a32.15,32.15,0,0,1-7.49,2.34c-2.9.56-6.11.84-9.39,1.32a30,30,0,0,0-8.84,2.47,23.78,23.78,0,0,0-6.12,4.27C248.61,556.08,247.44,558.6,247.19,558.45Z" transform="translate(0)" stroke="#000" stroke-miterlimit="10" stroke-width="0.5"/>
      <path d="M311,546.11a6.35,6.35,0,0,1-2.36,1.15,37.28,37.28,0,0,1-7,1.58,84.74,84.74,0,0,0-10.23,1.85,111.18,111.18,0,0,0-12,4.37,98.53,98.53,0,0,1-12.24,4.21,82.62,82.62,0,0,1-10.37,2.07,66.47,66.47,0,0,1-7.09.6,7.7,7.7,0,0,1-2.61-.14c0-.26,3.67-.53,9.52-1.6a102.75,102.75,0,0,0,10.15-2.38,114.33,114.33,0,0,0,12-4.27A95,95,0,0,1,291,549.24a69.75,69.75,0,0,1,10.47-1.54,55.16,55.16,0,0,0,6.93-1.05A12.12,12.12,0,0,1,311,546.11Z" transform="translate(0)" stroke="#000" stroke-miterlimit="10" stroke-width="0.5"/>
      <path d="M310.69,547.22c-.43.14-3.79-8.8-7.51-20s-6.4-20.33-6-20.47,3.79,8.79,7.51,19.95S311.12,547.07,310.69,547.22Z" transform="translate(0)" stroke="#000" stroke-miterlimit="10" stroke-width="0.5"/>
    </g>
    <g id="leg_left" data-name="leg left">
      <path d="M366,497.77l12.89,34.56a48.62,48.62,0,0,1-12.77,4.34c-4.26.8-8.07.88-14.66,2.72-3.57,1-4.82,1.63-5.88,2.37a16.34,16.34,0,0,0-6.12,9.23,96.56,96.56,0,0,0,36.66-6.09,98.67,98.67,0,0,0,24.66-13.5q-4.26-8.24-8.46-17.18c-3.93-8.4-7.47-16.58-10.65-24.48Z" transform="translate(0)"/>
      <path d="M343.43,239.38c1.08,4.9,2.54,11.9,4,20.37,2.68,15.54,3.89,27.53,4.71,36.1,3.82,40.11,3.06,47.45,6,72.23.85,7.16,2.71,21.58,5.86,38.13a507.71,507.71,0,0,0,22.22,80.09,44.28,44.28,0,0,1-11.83,14.56c-10.25,8.16-21.3,9.29-26.82,9.79a57.83,57.83,0,0,1-20.36-1.86,410,410,0,0,1-15.69-52.73A430.59,430.59,0,0,1,304,411.11c-5.38-44-7.47-87.66-8.34-118l-16.71-7.7q10.47-36.57,20.93-73.14Z" transform="translate(0)" fill="#fff"/>
      <path d="M384.78,484.22a13.84,13.84,0,0,1-.94-2.28c-.56-1.51-1.4-3.74-2.39-6.64-2-5.79-4.73-14.23-7.72-24.78a534.53,534.53,0,0,1-16.57-84c-1.91-16.64-2.89-32.54-3.9-47s-2-27.43-3.23-38.3-2.6-19.62-3.72-25.64c-.5-3-1-5.33-1.3-6.92a15.57,15.57,0,0,1-.37-2.44,13.43,13.43,0,0,1,.69,2.37c.38,1.56,1,3.86,1.6,6.87,1.32,6,2.86,14.74,4.25,25.62s2.52,23.89,3.58,38.33,2.12,30.32,4,46.9a578.48,578.48,0,0,0,16.06,83.86c2.84,10.57,5.4,19.05,7.22,24.89.9,2.93,1.61,5.2,2.09,6.74A14.84,14.84,0,0,1,384.78,484.22Z" transform="translate(0)" stroke="#000" stroke-miterlimit="10" stroke-width="0.5"/>
      <path d="M296.94,294.51c-.28.38-3.45-1.63-7.63-3.45s-7.79-2.84-7.7-3.3,4-.14,8.36,1.81S297.22,294.18,296.94,294.51Z" transform="translate(0)" stroke="#000" stroke-miterlimit="10" stroke-width="0.5"/>
      <path d="M326.44,509.23a10.52,10.52,0,0,1-.87-2.05c-.52-1.37-1.25-3.39-2.18-6-.47-1.31-1-2.77-1.55-4.36s-1-3.36-1.64-5.24c-1.15-3.77-2.56-8-3.79-12.85-.64-2.39-1.32-4.9-2-7.52s-1.29-5.37-2-8.21c-1.41-5.67-2.58-11.79-3.9-18.22-2.42-12.9-4.65-27.17-6.42-42.2-3.46-30.1-4.82-57.49-5.64-77.3-.41-9.9-.66-17.92-.79-23.47-.07-2.77-.1-4.92-.11-6.38a10.93,10.93,0,0,1,.07-2.23,11.53,11.53,0,0,1,.26,2.22c.11,1.45.25,3.6.41,6.37.31,5.53.76,13.54,1.31,23.44,1.11,19.78,2.66,47.13,6.11,77.16,1.77,15,3.94,29.23,6.28,42.11,1.27,6.42,2.39,12.54,3.74,18.2.65,2.83,1.22,5.59,1.87,8.21l1.92,7.53c1.15,4.81,2.48,9.09,3.54,12.88.54,1.89,1.05,3.65,1.51,5.27s1,3.07,1.41,4.39c.84,2.64,1.47,4.69,1.89,6.09A11.89,11.89,0,0,1,326.44,509.23Z" transform="translate(0)" stroke="#000" stroke-miterlimit="10" stroke-width="0.5"/>
      <path d="M384.69,488.65a7.79,7.79,0,0,1-1.28,2.27,69.3,69.3,0,0,1-4.21,5.72,48.32,48.32,0,0,1-7.48,7.49A30.65,30.65,0,0,1,360.05,510a56.25,56.25,0,0,1-12.89,1.46c-4,0-7.5.09-10.52-.14a27.18,27.18,0,0,1-7-1.32,6.06,6.06,0,0,1-2.36-1.15c.09-.24,3.52,1.24,9.44,1.32,2.94.08,6.49-.08,10.42-.21a60.1,60.1,0,0,0,12.52-1.54,30.57,30.57,0,0,0,11.17-5.43,54.36,54.36,0,0,0,7.52-7.05c2-2.2,3.5-4.07,4.57-5.35S384.59,488.58,384.69,488.65Z" transform="translate(0)" stroke="#000" stroke-miterlimit="10" stroke-width="0.5"/>
      <path d="M378.65,531.5c-.44.14-2.68-5.73-5.64-12.87s-5.48-12.89-5.07-13.1,3.61,5.26,6.58,12.48S379.07,531.37,378.65,531.5Z" transform="translate(0)" stroke="#000" stroke-miterlimit="10" stroke-width="0.5"/>
      <path d="M338.08,549.19c-.09-.05.05-.69.62-1.73a14.67,14.67,0,0,1,3.15-3.88,22.27,22.27,0,0,1,6.33-3.86,42.62,42.62,0,0,1,8.68-2.38c3.12-.55,6.09-.92,8.76-1.35a63.44,63.44,0,0,0,7-1.46c3.91-1.11,6.1-2.43,6.24-2.19s-1.92,1.85-5.88,3.29a48.88,48.88,0,0,1-7.09,1.84c-2.69.51-5.66.93-8.73,1.48a46.33,46.33,0,0,0-8.42,2.17,24,24,0,0,0-6.15,3.34C339.41,546.93,338.31,549.32,338.08,549.19Z" transform="translate(0)" stroke="#000" stroke-miterlimit="10" stroke-width="0.5"/>
      <path d="M399,532.67c.06.09-.6.68-1.87,1.68-.62.51-1.41,1.1-2.36,1.74s-2,1.4-3.25,2.13-2.58,1.58-4.09,2.37-3.11,1.62-4.83,2.45a89.88,89.88,0,0,1-23.69,7.3c-1.89.27-3.68.56-5.37.69s-3.27.28-4.71.34-2.75.06-3.89.06-2.13,0-2.93-.1a7.47,7.47,0,0,1-2.49-.34c0-.27,3.55-.25,9.23-.77,1.42-.13,3-.28,4.63-.53s3.42-.52,5.27-.83A117.33,117.33,0,0,0,370.49,546a113.58,113.58,0,0,0,11.45-4.28c1.71-.78,3.35-1.5,4.83-2.28s2.87-1.47,4.12-2.16C395.88,534.46,398.8,532.45,399,532.67Z" transform="translate(0)" stroke="#000" stroke-miterlimit="10" stroke-width="0.5"/>
      <path d="M398.15,532.46c-.13,0-.09-.62-.26-1.67a17.38,17.38,0,0,0-1.3-4.28c-1.55-3.55-3.67-8.52-5.87-14-4.42-11-7.67-20.13-7.25-20.29s4.34,8.64,8.77,19.68c2.2,5.53,4.13,10.54,5.43,14.25a14,14,0,0,1,.86,4.64C398.5,531.89,398.24,532.48,398.15,532.46Z" transform="translate(0)" stroke="#000" stroke-miterlimit="10" stroke-width="0.5"/>
    </g>
    <g id="arm_right" data-name="arm right">
      <path d="M244.73,112.62a58.88,58.88,0,0,0-17.38,20l2.19-19.34-5-1.4c.22-1.11.43-2.22.64-3.32l-7.57-2.2a2.44,2.44,0,0,1-.63,1.62c-1.86,1.89-7.11-1.09-15.05-3.88a101.29,101.29,0,0,0-10.5-3.06,92.09,92.09,0,0,0-3.28-9.22c-1.77-4.25-2.66-5.48-4-5.8-2-.48-3.91,1.29-4.24,1.6-3,2.77-2.07,7.37-2,7.77a28.53,28.53,0,0,0-9.08,11.74c-.56,1.51-1.11,3.11-1.63,4.8-.72,2.32-1.29,4.55-1.76,6.64a18.67,18.67,0,0,0,6,12A176.78,176.78,0,0,0,181,175.8a129,129,0,0,0,5.93,14.69,109,109,0,0,0,15.68,23.38c4,4.59,7.44,7.76,12.43,9.5a17.07,17.07,0,0,0,7.2,1.11c1.64-.12,5.87-.72,11.49-5.74,4.51-4,7.32-8.59,11.71-18.26,4.56-10.06,7.34-18,7.76-19.18,6.93-19.84,10.39-29.76,10.42-33.42C263.63,142.51,262.42,128.84,244.73,112.62Zm-34.69,54,7.17-15.73-15.45-5Z" transform="translate(0)" fill="#fff"/>
      <path d="M257,167.13a7,7,0,0,1-.21,1.68c-.19,1.1-.53,2.7-1,4.76a134.12,134.12,0,0,1-5.37,17.07c-1.37,3.52-3,7.33-5,11.32-1,2-2.05,4-3.19,6.12a71.93,71.93,0,0,1-3.84,6.27,32.63,32.63,0,0,1-5.16,5.87,21.73,21.73,0,0,1-7.08,4.2,15.79,15.79,0,0,1-8.58.6,21.91,21.91,0,0,1-7.94-3.75c-9.36-7.12-15.9-16.32-20.68-25.11a133.16,133.16,0,0,1-10-24.62c-2.18-7.23-3.58-13.18-4.52-17.29-.46-2.06-.8-3.66-1-4.75a7,7,0,0,1-.24-1.68,6.08,6.08,0,0,1,.56,1.6c.3,1.07.74,2.65,1.31,4.67,1.13,4.06,2.69,10,5,17.11a139.69,139.69,0,0,0,10.21,24.24,91.68,91.68,0,0,0,8.55,12.9,77.51,77.51,0,0,0,5.45,6.1,52.48,52.48,0,0,0,6.3,5.5,20.39,20.39,0,0,0,7.34,3.49,14.16,14.16,0,0,0,7.72-.52,20.32,20.32,0,0,0,6.58-3.86,31.37,31.37,0,0,0,4.95-5.57,70,70,0,0,0,3.82-6.1c1.15-2,2.24-4,3.23-6,2-3.93,3.7-7.68,5.13-11.15a164.22,164.22,0,0,0,5.83-16.8c.58-2,1-3.6,1.31-4.67A6,6,0,0,1,257,167.13Z" transform="translate(0)" stroke="#000" stroke-miterlimit="10" stroke-width="0.5"/>
      <path d="M199.81,143.48" transform="translate(0)" fill="none" stroke="#000" stroke-miterlimit="10" stroke-width="0.5"/>
      <path d="M218.06,182.79c-.35.24-4.45-5.33-8.22-13s-5.73-14.25-5.33-14.38,3.06,6.15,6.79,13.66S218.46,182.54,218.06,182.79Z" transform="translate(0)" stroke="#000" stroke-miterlimit="10" stroke-width="0.5"/>
      <path d="M183.38,95.17c.2,0,.7,2,.64,5.29a29.32,29.32,0,0,1-.72,5.77,4.74,4.74,0,0,1-.77,1.79,2.25,2.25,0,0,1-2.3.89,3,3,0,0,1-1.81-1.52,6.5,6.5,0,0,1-.72-1.93,27.07,27.07,0,0,1,.05-12.87c.84-3.22,1.93-5,2.1-4.9s-.45,2-1,5.13a31.21,31.21,0,0,0,.41,12.26,5.09,5.09,0,0,0,.53,1.5,1.54,1.54,0,0,0,.78.78.66.66,0,0,0,.7-.3,3.42,3.42,0,0,0,.55-1.2,38.91,38.91,0,0,0,1-5.48C183.22,97.21,183.14,95.2,183.38,95.17Z" transform="translate(0)" stroke="#000" stroke-miterlimit="10" stroke-width="0.5"/>
      <path d="M218.7,152a9.84,9.84,0,0,1-2.92-.57c-1.85-.47-4.5-1.23-7.75-2.25s-7.09-2.33-11.32-3.9c-2.11-.78-4.32-1.63-6.6-2.54s-4.64-1.86-7-3a39.2,39.2,0,0,1-3.43-1.91c-.55-.35-1.08-.71-1.6-1.09a7.19,7.19,0,0,1-1.51-1.42,4.28,4.28,0,0,1-.86-2,9.83,9.83,0,0,1-.07-1.93l.14-3.45c.18-4.5.37-8.54.55-11.94.37-6.79.71-11,.93-11s.3,4.22.23,11c0,3.4-.11,7.45-.21,12q0,1.68-.09,3.45a4.27,4.27,0,0,0,.64,2.92,11.62,11.62,0,0,0,2.71,2.1c1.05.66,2.15,1.26,3.29,1.83,2.29,1.13,4.62,2.08,6.88,3s4.45,1.8,6.54,2.62c4.17,1.63,8,3,11.15,4.2C214.79,150.36,218.76,151.73,218.7,152Z" transform="translate(0)" stroke="#000" stroke-miterlimit="10" stroke-width="0.5"/>
      <path d="M225.63,115.72c-.12.43-9.61-2-21.2-5.34-2.89-.86-5.65-1.63-8.14-2.49a60.34,60.34,0,0,1-6.58-2.39c-3.71-1.68-5.4-3.7-5.23-3.83s2,1.43,5.67,2.77c1.8.71,4.1,1.27,6.58,2s5.27,1.5,8.16,2.36C216.47,112.2,225.76,115.29,225.63,115.72Z" transform="translate(0)" stroke="#000" stroke-miterlimit="10" stroke-width="0.5"/>
      <path d="M222.46,148.47c-.45-.05.08-7.49.87-16.63s1.56-16.55,2-16.53.41,7.5-.39,16.67S222.9,148.53,222.46,148.47Z" transform="translate(0)" stroke="#000" stroke-miterlimit="10" stroke-width="0.5"/>
      <path d="M185.57,128.89c.14,0,.08.62.64,1.4a3.17,3.17,0,0,0,3.4,1.23,4.38,4.38,0,0,0,2.17-1.48A6.13,6.13,0,0,0,193,127.2a11,11,0,0,0-.93-7.23,3.49,3.49,0,0,0-2.71-1.79,4.18,4.18,0,0,0-3,1.15,5.94,5.94,0,0,0-1.7,2.58,8.61,8.61,0,0,0-.35,2.8,23.07,23.07,0,0,0,.65,4.26c.22,1,.32,1.6.21,1.64s-.4-.47-.81-1.45a15.89,15.89,0,0,1-1.2-4.37,9.48,9.48,0,0,1,.2-3.26,7.25,7.25,0,0,1,2-3.3,5.61,5.61,0,0,1,4.06-1.64,5,5,0,0,1,4,2.53,9.92,9.92,0,0,1,1.29,4.31,14.44,14.44,0,0,1-.28,4.08,7.42,7.42,0,0,1-1.71,3.43,5.5,5.5,0,0,1-2.94,1.7,3.88,3.88,0,0,1-2.79-.49,3.67,3.67,0,0,1-1.41-1.54,2.45,2.45,0,0,1-.25-1.28C185.44,129,185.52,128.89,185.57,128.89Z" transform="translate(0)" stroke="#000" stroke-miterlimit="10" stroke-width="0.5"/>
      <path d="M195.16,116c.05.45-1.72,1-3.95,1.27s-4.09.11-4.14-.34,1.72-1,4-1.28S195.1,115.52,195.16,116Z" transform="translate(0)" stroke="#000" stroke-miterlimit="10" stroke-width="0.5"/>
      <path d="M198.74,130.8c-.19-.15.26-1,.67-2.43a11,11,0,0,0-2.32-10.61c-1-1.13-1.73-1.72-1.61-1.93s1.11.06,2.41,1.1a9.81,9.81,0,0,1,2.59,11.86C199.73,130.28,198.9,130.92,198.74,130.8Z" transform="translate(0)" stroke="#000" stroke-miterlimit="10" stroke-width="0.5"/>
      <path d="M199.32,129.8c.24.37-1.62,1.89-4.43,2.58s-5.16.22-5.12-.21,2.18-.73,4.73-1.37S199.09,129.4,199.32,129.8Z" transform="translate(0)" stroke="#000" stroke-miterlimit="10" stroke-width="0.5"/>
      <path d="M191,131.13c-.06.19-1.09.05-2.28-1a7.47,7.47,0,0,1-2.31-5.58,9.06,9.06,0,0,1,2.13-5.6c1-1.17,1.84-1.62,2-1.47s-.37.91-1,2.12a10.9,10.9,0,0,0-1.45,5,8.05,8.05,0,0,0,1.53,4.79C190.31,130.42,191.06,130.91,191,131.13Z" transform="translate(0)" stroke="#000" stroke-miterlimit="10" stroke-width="0.5"/>
      <path d="M217.55,108.06c0,.2-2,.42-5.27-.1a71.85,71.85,0,0,1-12.11-3.55c-2.3-.81-4.49-1.53-6.51-2.07a43,43,0,0,0-5.42-1.06,9.19,9.19,0,0,1-3.81-1c-.84-.53-1.05-1.07-1-1.12s.45.27,1.24.55a12.15,12.15,0,0,0,3.62.39,31.84,31.84,0,0,1,5.7.75,63.31,63.31,0,0,1,6.69,2c4.63,1.65,8.73,3.21,11.81,4S217.56,107.81,217.55,108.06Z" transform="translate(0)" stroke="#000" stroke-miterlimit="10" stroke-width="0.5"/>
      <path d="M217.57,110.27c-.45,0-.81-.87-.81-1.93s.36-1.93.81-1.93.82.86.82,1.93S218,110.27,217.57,110.27Z" transform="translate(0)" stroke="#000" stroke-miterlimit="10" stroke-width="0.5"/>
      <path d="M225.65,108.79c-.16.42-1.91.13-4-.39s-3.76-1.08-3.71-1.53,1.91-.6,4.1-.05S225.82,108.38,225.65,108.79Z" transform="translate(0)" stroke="#000" stroke-miterlimit="10" stroke-width="0.5"/>
      <path d="M224.5,111.93c.06.44-1.24.95-2.87.71s-2.73-1.1-2.55-1.5,1.39-.31,2.79-.11S224.45,111.48,224.5,111.93Z" transform="translate(0)" stroke="#000" stroke-miterlimit="10" stroke-width="0.5"/>
      <ellipse cx="225.13" cy="111.24" rx="1.75" ry="0.82" transform="translate(84.18 319.07) rotate(-82.15)" stroke="#000" stroke-miterlimit="10" stroke-width="0.5"/>
      <path d="M229.54,113.33c0,.46-1,.81-2.18,1.12s-2.21.47-2.44.08.62-1.3,2-1.66S229.56,112.89,229.54,113.33Z" transform="translate(0)" stroke="#000" stroke-miterlimit="10" stroke-width="0.5"/>
      <path d="M226.22,145.41c-.44,0-.3-7.26.67-16.12s2.38-16,2.82-15.89-.25,7.24-1.2,16.06S226.68,145.44,226.22,145.41Z" transform="translate(0)" stroke="#000" stroke-miterlimit="10" stroke-width="0.5"/>
      <path d="M226.5,146.6c.19.1.23.49,0,1a4.16,4.16,0,0,1-1.33,1.75,4.24,4.24,0,0,1-2,.91c-.57.07-.94,0-1-.26-.1-.45.93-1.06,2-1.92S226.08,146.4,226.5,146.6Z" transform="translate(0)" stroke="#000" stroke-miterlimit="10" stroke-width="0.5"/>
      <path d="M176.69,112.55c-.19.11-.79-.46-1.44-1.61a13.78,13.78,0,0,1-1.2-10c.35-1.27.8-2,1-1.9.46.13-.19,3.15.28,6.8S177.09,112.31,176.69,112.55Z" transform="translate(0)" stroke="#000" stroke-miterlimit="10" stroke-width="0.5"/>
      <path d="M174.49,119.71c-.13.13-1.23-.64-2.42-2.44a14.57,14.57,0,0,1-1.62-3.4,16.56,16.56,0,0,1-.27-9.15,14.3,14.3,0,0,1,1.41-3.49c1.08-1.87,2.13-2.71,2.27-2.58s-.49,1.23-1.23,3.08a18.61,18.61,0,0,0-1,3.32,20.1,20.1,0,0,0-.35,4.21,20.52,20.52,0,0,0,.6,4.19,18.46,18.46,0,0,0,1.18,3.26C173.92,118.51,174.68,119.54,174.49,119.71Z" transform="translate(0)" stroke="#000" stroke-miterlimit="10" stroke-width="0.5"/>
      <path d="M173.09,125c-.12.15-1.22-.45-2.53-2a14.11,14.11,0,0,1-1.92-2.94A16.56,16.56,0,0,1,167.3,116a17.19,17.19,0,0,1-.21-4.3,14.36,14.36,0,0,1,.74-3.43c.69-1.88,1.5-2.83,1.67-2.74s-.2,1.23-.55,3a20,20,0,0,0-.36,3.21,21.7,21.7,0,0,0,.31,3.91,20.61,20.61,0,0,0,1.11,3.77,19.8,19.8,0,0,0,1.48,2.86C172.47,123.92,173.26,124.81,173.09,125Z" transform="translate(0)" stroke="#000" stroke-miterlimit="10" stroke-width="0.5"/>
      <path d="M171.44,130.58c-.15.15-1.15-.5-2.47-1.9a16.74,16.74,0,0,1-3.8-6.51,12.08,12.08,0,0,1,.16-7.61c.72-1.86,1.68-2.69,1.83-2.57s-.35,1.16-.72,2.9a14,14,0,0,0,.29,6.81,23.18,23.18,0,0,0,3.14,6.26C170.9,129.48,171.61,130.41,171.44,130.58Z" transform="translate(0)" stroke="#000" stroke-miterlimit="10" stroke-width="0.5"/>
      <path d="M177,133c.08.21-1,.84-2.68,1.7l-1.43.68-.39.19-.18.08-.06,0a.25.25,0,0,0-.11.25l.18,1.85c.08.68.17,1.39.25,2.11.72,5.76,2,10.36,1.5,10.5s-2.37-4.34-3.12-10.29c-.09-.74-.16-1.47-.22-2.17l-.06-1,0-.5c0-.17,0-.29,0-.61a1.48,1.48,0,0,1,.75-1.27,2.6,2.6,0,0,1,.34-.16l.24-.09.41-.14,1.5-.5C175.69,133,176.88,132.77,177,133Z" transform="translate(0)" stroke="#000" stroke-miterlimit="10" stroke-width="0.5"/>
      <path d="M208.17,160.93c-.36.25-2.87-2.87-5.16-7.22s-3.48-8.18-3.07-8.34,2.25,3.31,4.51,7.58S208.56,160.68,208.17,160.93Z" transform="translate(0)" stroke="#000" stroke-miterlimit="10" stroke-width="0.5"/>
      <path d="M191.93,102.61c-.43.15-2.16-3.64-3.87-8.46-.44-1.2-.8-2.4-1.17-3.36a4.88,4.88,0,0,0-1.38-2.12c-1.15-.93-2.19-.6-2.27-.81s.14-.35.67-.5a3,3,0,0,1,2.22.34,5.3,5.3,0,0,1,2.14,2.49c.5,1.08.88,2.2,1.32,3.41C191.31,98.42,192.35,102.45,191.93,102.61Z" transform="translate(0)" stroke="#000" stroke-miterlimit="10" stroke-width="0.5"/>
      <path d="M216.68,151.92c.42.11-.24,4-2.2,8.5s-4.34,7.65-4.71,7.41,1.34-3.7,3.22-8.06S216.23,151.8,216.68,151.92Z" transform="translate(0)" stroke="#000" stroke-miterlimit="10" stroke-width="0.5"/>
      <path d="M241.79,115.18c.29.38-3.33,3.38-7,7.79s-6,8.48-6.42,8.27,1.33-4.74,5.17-9.31S241.57,114.83,241.79,115.18Z" transform="translate(0)" stroke="#000" stroke-miterlimit="10" stroke-width="0.5"/>
    </g>
    <g id="torso">
      <path d="M247.48,110.31a89.29,89.29,0,0,0-6.34,41.09q1.73,7.69,3.71,15.57c4.37,17.33,9.29,33.7,14.54,49.08a97,97,0,0,1-1.16,11.82c-1.1,6.82-2.49,10.73-2.54,17.58a53.57,53.57,0,0,0,.26,5.68,46.89,46.89,0,0,1,7.83,1.7,60.09,60.09,0,0,1,11.25,5c5.68,2.83,10.65,3.12,18.36,3.58,11.31.67,19.68-1.62,28.37-4,7.25-2,14.08-3.9,22-8.83a66.07,66.07,0,0,0,11.31-8.9l-2.11-5.35a24.3,24.3,0,0,0,6.54,1.85C372.39,238,387.38,229,392,215.79a28.09,28.09,0,0,0,1.4-12,17.69,17.69,0,0,0,2.22-5.67c.35-1.78.75-5.25-1.7-12.69a69.57,69.57,0,0,0-4.06-9.62c-6.76-13.79-7.82-13.87-9.78-19.51A65,65,0,0,1,377,141.7c-.62-5.53-.22-7.47-1.15-16.37a61.34,61.34,0,0,0-1.56-9.82,37.42,37.42,0,0,0-3.87-10.1,30.3,30.3,0,0,0-11.19-10.83,9.7,9.7,0,0,0-2-4.77,10.76,10.76,0,0,0-5.91-3.54,53.11,53.11,0,0,0-16.54-1.58c-11.24,1-8.14-1-23.86-.34a155.94,155.94,0,0,0-29.05,4.44A23.43,23.43,0,0,0,274.33,92,25.11,25.11,0,0,0,265,104.2Z" transform="translate(0)" fill="#fff"/>
      <path d="M332.82,106.71c-.13.28-5.05-2.33-13.67-4.42a85.4,85.4,0,0,0-15.36-2.15,100.71,100.71,0,0,0-19,.94A162.89,162.89,0,0,0,251.38,110a39.82,39.82,0,0,0-9.24,4.8c-2,1.43-2.94,2.47-3,2.37a9.92,9.92,0,0,1,2.65-2.87,35.57,35.57,0,0,1,9.19-5.37c4.15-1.73,9.15-3.54,14.83-5.26a128.33,128.33,0,0,1,18.82-4.19,95.45,95.45,0,0,1,19.28-.83,79,79,0,0,1,15.57,2.54,62.44,62.44,0,0,1,10,3.63A14.41,14.41,0,0,1,332.82,106.71Z" transform="translate(0)" stroke="#000" stroke-miterlimit="10" stroke-width="0.5"/>
      <path d="M265.4,234.57a15,15,0,0,1-1.42-3.3c-.82-2.16-1.94-5.3-3.27-9.21-2.67-7.8-6.16-18.64-9.73-30.71s-6.54-23.07-8.55-31.06c-1-4-1.78-7.25-2.27-9.5a15.25,15.25,0,0,1-.6-3.54,14.83,14.83,0,0,1,1.22,3.38c.67,2.2,1.62,5.4,2.76,9.36,2.31,7.91,5.49,18.83,9,30.9s6.89,22.93,9.27,30.82c1.19,3.95,2.14,7.14,2.77,9.36A15,15,0,0,1,265.4,234.57Z" transform="translate(0)" stroke="#000" stroke-miterlimit="10" stroke-width="0.5"/>
      <path d="M256,251.11c-.19.06-1-2-.85-5.55s1.09-8.14,1.78-13.27a88.52,88.52,0,0,0,1-13.17c0-3.38-.28-5.47,0-5.52s.87,2,1.17,5.47a58,58,0,0,1-.57,13.45c-.7,5.2-1.86,9.8-2.24,13.12S256.19,251.06,256,251.11Z" transform="translate(0)" stroke="#000" stroke-miterlimit="10" stroke-width="0.5"/>
      <path d="M355,239.77s-.18.34-.63.88a30.86,30.86,0,0,1-2.13,2.24,49.14,49.14,0,0,1-9.14,6.77,80.85,80.85,0,0,1-15.43,6.8,122.44,122.44,0,0,1-20,4.91,72.73,72.73,0,0,1-20.67.3,51.24,51.24,0,0,1-16.14-5c-2.15-1.05-4.05-2.05-5.77-2.82a38.32,38.32,0,0,0-4.47-1.75c-2.52-.79-4-.87-4-1s.38-.08,1.09-.06a16.72,16.72,0,0,1,3.07.46,30.74,30.74,0,0,1,4.67,1.52c1.78.71,3.74,1.64,5.9,2.62a53.2,53.2,0,0,0,15.85,4.55,74.06,74.06,0,0,0,20.23-.43A130.88,130.88,0,0,0,327.21,255a88.51,88.51,0,0,0,15.33-6.38,57.16,57.16,0,0,0,9.29-6.25c1-.85,1.8-1.52,2.31-2S355,239.73,355,239.77Z" transform="translate(0)" stroke="#000" stroke-miterlimit="10" stroke-width="0.5"/>
      <path d="M354.2,239.28c-.13,0-.51-1.7-1.65-4.66-.57-1.48-1.34-3.27-2.31-5.3s-2.13-4.36-3.38-6.92c-.61-1.29-1.28-2.65-1.83-4.12s-1.14-3-1.74-4.57a24.31,24.31,0,0,1-.78-2.46c-.24-.84-.48-1.7-.73-2.56a54.84,54.84,0,0,1-1.28-5.41,134.17,134.17,0,0,1-2.41-24.52c-.17-8.74.12-17,.25-24.57s.07-14.31-.19-20c-.21-2.84-.29-5.41-.59-7.65s-.38-4.19-.68-5.76a29,29,0,0,1-.6-4.92,28.42,28.42,0,0,1,1.22,4.82c.4,1.55.61,3.5,1,5.75s.55,4.83.83,7.68c.41,5.71.62,12.53.54,20.08s-.28,15.85-.13,24.52A141.75,141.75,0,0,0,342,203c.37,1.83.68,3.64,1.2,5.33.23.86.45,1.7.68,2.53a22.85,22.85,0,0,0,.72,2.43l1.62,4.53c.52,1.46,1.14,2.81,1.72,4.11,1.16,2.59,2.27,4.93,3.16,7s1.59,3.93,2.08,5.47a30.61,30.61,0,0,1,.92,3.58A3.71,3.71,0,0,1,354.2,239.28Z" transform="translate(0)" stroke="#000" stroke-miterlimit="10" stroke-width="0.5"/>
      <path d="M242.06,155c-.08.06-.61-.42-1-1.59a28,28,0,0,1-.72-4.91,77.4,77.4,0,0,1,4.26-32c1.44-3.91,2.66-6.18,2.85-6.1.47.17-3.45,9.68-5,22.1a108.51,108.51,0,0,0-.91,16c.06,2.05,0,3.74.19,4.83S242.16,154.9,242.06,155Z" transform="translate(0)" stroke="#000" stroke-miterlimit="10" stroke-width="0.5"/>
      <path d="M253,190.9a12.76,12.76,0,0,1-.49-3.36c-.22-2.17-.44-5.32-.61-9.21a208,208,0,0,1,.77-30.48,158.81,158.81,0,0,1,2.69-16.6c.62-2.51,1.16-4.91,1.85-7.11.33-1.1.62-2.17.95-3.18l1-2.91c.61-1.85,1.32-3.48,1.9-4.92.3-.71.57-1.38.83-2l.8-1.64a13.55,13.55,0,0,1,1.64-3c.27.12-1.74,4.5-4.08,11.89-.28.93-.58,1.89-.89,2.9s-.56,2.09-.86,3.19c-.62,2.18-1.11,4.57-1.68,7.06-1,5-1.91,10.58-2.54,16.45a274.41,274.41,0,0,0-1.24,30.28c0,3.88.07,7,.09,9.21A14.26,14.26,0,0,1,253,190.9Z" transform="translate(0)" stroke="#000" stroke-miterlimit="10" stroke-width="0.5"/>
      <path d="M254.76,125.11c-.31.35-1.86-.58-3.94-1s-3.87-.19-4-.63c-.07-.2.33-.56,1.12-.83a6.45,6.45,0,0,1,3.22-.14,6.33,6.33,0,0,1,2.9,1.37C254.67,124.46,254.9,125,254.76,125.11Z" transform="translate(0)" stroke="#000" stroke-miterlimit="10" stroke-width="0.5"/>
      <path d="M251.77,135.84c.08.18-1,.86-2.9.76a6.76,6.76,0,0,1-3.19-1,4.61,4.61,0,0,1-1.57-1.5,3.89,3.89,0,0,1-.36-2.38,15.3,15.3,0,0,1,2.31-6.71c1-1.53,1.89-2.24,2.05-2.1s-.36,1.09-1,2.65a21.55,21.55,0,0,0-1.7,6.32,2.6,2.6,0,0,0,.14,1.44,3.39,3.39,0,0,0,1,1,6.88,6.88,0,0,0,2.51,1.14C250.62,135.83,251.7,135.6,251.77,135.84Z" transform="translate(0)" stroke="#000" stroke-miterlimit="10" stroke-width="0.5"/>
      <path d="M252.35,137c-.44-.1-.28-2.42.17-5.21s1-5.05,1.48-5,.59,2.41.12,5.26S252.79,137.15,252.35,137Z" transform="translate(0)" stroke="#000" stroke-miterlimit="10" stroke-width="0.5"/>
      <path d="M252.71,125.79c.12.17-.08.59-.66,1a4.77,4.77,0,0,1-5.23,0c-.57-.42-.78-.84-.66-1,.28-.37,1.61.19,3.28.16S252.43,125.42,252.71,125.79Z" transform="translate(0)" stroke="#000" stroke-miterlimit="10" stroke-width="0.5"/>
      <path d="M339.53,199.64a23.36,23.36,0,0,1-3.9-2.4c-2.44-1.65-6-4.06-10.13-7.3a98,98,0,0,1-13.64-12.62,57.56,57.56,0,0,1-11.59-19.62c-2.55-7.81-2.75-15.7-2.43-22.66s1.11-13.21,1.8-18.44,1.43-9.43,2-12.32a22.18,22.18,0,0,1,1.07-4.45,26.47,26.47,0,0,1-.45,4.55c-.37,2.92-.92,7.14-1.48,12.36s-1.16,11.46-1.44,18.36,0,14.57,2.47,22.09A58,58,0,0,0,313,176.34,105.56,105.56,0,0,0,326.22,189c4,3.33,7.45,5.88,9.78,7.68A26.23,26.23,0,0,1,339.53,199.64Z" transform="translate(0)" stroke="#000" stroke-miterlimit="10" stroke-width="0.5"/>
      <path d="M339.14,180.13a12.57,12.57,0,0,1-2.94-1.74,76.07,76.07,0,0,1-7.35-5.73,54.18,54.18,0,0,1-9.17-10.42,40.72,40.72,0,0,1-3.85-7.31,44,44,0,0,1-2.4-8.53,86.49,86.49,0,0,1-1-16.93c0-2.59.21-5,.33-7.35s.27-4.45.38-6.4c.25-3.91.48-7.08.67-9.26a14,14,0,0,1,.47-3.37,14.14,14.14,0,0,1,.16,3.41c0,2.19-.05,5.36-.15,9.27-.05,2-.11,4.09-.18,6.39s-.19,4.75-.17,7.33A92.22,92.22,0,0,0,315,146.11a44.57,44.57,0,0,0,2.29,8.24,40.47,40.47,0,0,0,3.62,7.07,57.06,57.06,0,0,0,8.7,10.39c2.81,2.68,5.25,4.68,6.94,6.07A15.53,15.53,0,0,1,339.14,180.13Z" transform="translate(0)" stroke="#000" stroke-miterlimit="10" stroke-width="0.5"/>
      <path d="M312.52,143.7c.13.17-.26.74-1.1,1.41a11.16,11.16,0,0,1-3.76,1.83,10.94,10.94,0,0,1-4.17.35c-1.07-.14-1.69-.43-1.67-.64.06-.47,2.54-.47,5.4-1.28S312.23,143.33,312.52,143.7Z" transform="translate(0)" stroke="#000" stroke-miterlimit="10" stroke-width="0.5"/>
      <path d="M307.68,127.61c-.43,0-1.18-3.49-.86-7.91s1.56-7.83,2-7.72-.06,3.57-.35,7.83S308.15,127.56,307.68,127.61Z" transform="translate(0)" stroke="#000" stroke-miterlimit="10" stroke-width="0.5"/>
      <path d="M308.66,129.65c.18-.06.59.47.76,1.55a2.55,2.55,0,0,1,.05.43c0,.21,0,.43,0,.67a7.48,7.48,0,0,1-.27,1.43,12.21,12.21,0,0,1-1.36,2.7c-.25-.42-.49-.82-.72-1.22a8.94,8.94,0,0,1-.77-1.71,8.52,8.52,0,0,1-.23-1L306,132c0-.18,0-.35,0-.43a6.67,6.67,0,0,1,.31-2.23c.41-1.23,1-1.79,1.19-1.69s0,.82-.06,1.92a10.22,10.22,0,0,0,.06,1.88c0,.2,0,.16.05.24l.05.14.11.28.11.23a1.06,1.06,0,0,0,.29-.33c.05-.08.09-.17.14-.27s0-.11.05-.17a3.43,3.43,0,0,0,.06-.34C308.48,130.31,308.45,129.7,308.66,129.65Z" transform="translate(0)" stroke="#000" stroke-miterlimit="10" stroke-width="0.5"/>
      <path d="M360.05,96.13a6.73,6.73,0,0,1-.26-1.18,9.14,9.14,0,0,0-1.31-3.06,11.66,11.66,0,0,0-3.78-3.61,17.79,17.79,0,0,0-6.63-2.19,78.85,78.85,0,0,0-8.65-.6c-3.13-.08-6.49-.12-10-.08-7.06.11-14.81.51-22.93,1.22-4.06.36-8,.75-11.84,1.17s-7.54.76-11,1.38a21.63,21.63,0,0,0-15.07,9.39,42.12,42.12,0,0,0-3.59,6.15c-.93,1.89-1.63,3.58-2.21,5a29.92,29.92,0,0,1-1.86,4.26,22.13,22.13,0,0,1,1.27-4.49c.48-1.42,1.11-3.15,2-5.11a40.54,40.54,0,0,1,3.47-6.43A22.6,22.6,0,0,1,283.4,87.7c3.54-.68,7.23-1,11.06-1.49s7.8-.85,11.88-1.2c16.32-1.4,31.18-1.52,41.92-.06a18.14,18.14,0,0,1,6.92,2.56,12.1,12.1,0,0,1,3.85,4,8.41,8.41,0,0,1,1.09,3.34A2.52,2.52,0,0,1,360.05,96.13Z" transform="translate(0)" stroke="#000" stroke-miterlimit="10" stroke-width="0.5"/>
      <path d="M393.91,205.3c-.14-.05.57-1.61,1.07-4.58a27.14,27.14,0,0,0,.29-5.45,35.08,35.08,0,0,0-1.15-7.15,50.23,50.23,0,0,0-3-8.27c-1.32-2.88-3-5.87-4.71-9s-3.62-6.47-5.28-10.07a49.52,49.52,0,0,1-3.86-11.69c-1.61-8.31-1.48-16.31-2.11-23.44a65.65,65.65,0,0,0-1.51-10,42.9,42.9,0,0,0-2.86-8.3,27.54,27.54,0,0,0-7.6-10c-2.36-1.87-3.94-2.53-3.87-2.68a3.64,3.64,0,0,1,1.17.41,8.31,8.31,0,0,1,1.34.67,13.38,13.38,0,0,1,1.74,1.09,26.51,26.51,0,0,1,8.26,10,42,42,0,0,1,3.13,8.47,63.66,63.66,0,0,1,1.69,10.2c.72,7.21.64,15.19,2.22,23.26s5.45,15,8.86,21.34c1.72,3.18,3.33,6.23,4.63,9.2a48.62,48.62,0,0,1,2.89,8.54,33.57,33.57,0,0,1,.95,7.4,25.09,25.09,0,0,1-.58,5.6,18.13,18.13,0,0,1-1.09,3.38C394.17,205,394,205.33,393.91,205.3Z" transform="translate(0)" stroke="#000" stroke-miterlimit="10" stroke-width="0.5"/>
      <path d="M351.55,233.81a12.31,12.31,0,0,1,2.3.82,19.16,19.16,0,0,0,6.4,1.06,24,24,0,0,0,9.36-1.95,44.72,44.72,0,0,0,10.14-6.19,64.25,64.25,0,0,0,8.84-8,20.39,20.39,0,0,0,4.55-8.34,14.92,14.92,0,0,0,.26-6.41,16.45,16.45,0,0,1-.53-2.38,5,5,0,0,1,1.15,2.22,13.82,13.82,0,0,1,.25,6.82,20.43,20.43,0,0,1-4.53,9,58.07,58.07,0,0,1-9,8.35,42.47,42.47,0,0,1-10.57,6.3,23.79,23.79,0,0,1-10,1.71,16.72,16.72,0,0,1-6.61-1.63C352.17,234.49,351.5,233.89,351.55,233.81Z" transform="translate(0)" stroke="#000" stroke-miterlimit="10" stroke-width="0.5"/>
      <path d="M352.56,201" transform="translate(0)" fill="none" stroke="#000" stroke-miterlimit="10" stroke-width="0.5"/>
      <path d="M363.49,222.26c0,.09-.48,0-1.2-.29a9,9,0,0,1-2.66-2,23.06,23.06,0,0,1-2.88-3.91c-.94-1.53-1.94-3.23-2.94-5.06a46.71,46.71,0,0,1-4.15-9.83c-.74-2.65-.81-4.36-.61-4.4s.7,1.56,1.7,4a83.11,83.11,0,0,0,4.5,9.42l2.8,5.07a30.37,30.37,0,0,0,2.46,3.92C362.07,221.31,363.6,222,363.49,222.26Z" transform="translate(0)" stroke="#000" stroke-miterlimit="10" stroke-width="0.5"/>
      <path d="M376,185.47c.13.15-.93,1.39-3,3a35.15,35.15,0,0,1-19.1,6.92c-2.63.1-4.25-.17-4.24-.37,0-.5,6.44-.51,13.75-3.21S375.67,185.07,376,185.47Z" transform="translate(0)" stroke="#000" stroke-miterlimit="10" stroke-width="0.5"/>
      <path d="M386,204.75c-.33.27-3.62-3.38-6.36-8.73s-3.8-10.14-3.39-10.26,2.16,4.32,4.85,9.51S386.33,204.46,386,204.75Z" transform="translate(0)" stroke="#000" stroke-miterlimit="10" stroke-width="0.5"/>
      <path d="M384.71,207.28c.18.09-.33,1.57-1.68,3.7a26.37,26.37,0,0,1-6.8,7.08,24.41,24.41,0,0,1-4.8,2.6,19.39,19.39,0,0,1-4.32,1.13c-2.53.32-4.09,0-4.08-.2s1.53-.34,3.86-.93a26.16,26.16,0,0,0,3.95-1.38,30.65,30.65,0,0,0,4.45-2.55,36.05,36.05,0,0,0,6.81-6.43C383.63,208.42,384.49,207.16,384.71,207.28Z" transform="translate(0)" stroke="#000" stroke-miterlimit="10" stroke-width="0.5"/>
      <path d="M374.18,193c.15.14-.59,1.2-2.15,2.55a22.48,22.48,0,0,1-7,4,22.77,22.77,0,0,1-7.93,1.36c-2.07,0-3.31-.39-3.29-.6,0-.49,5-.22,10.67-2.29S373.85,192.64,374.18,193Z" transform="translate(0)" stroke="#000" stroke-miterlimit="10" stroke-width="0.5"/>
      <path d="M339,111.21c0-.24,1.36-.61,3.4-1.66a85.52,85.52,0,0,0,7.7-4.8,28.83,28.83,0,0,0,3.88-3,13.93,13.93,0,0,0,2.45-3c1.13-1.94,1.25-3.41,1.51-3.39s.5,1.58-.48,3.91a12.67,12.67,0,0,1-2.42,3.59,23.9,23.9,0,0,1-4,3.29,41.45,41.45,0,0,1-8.15,4.51C340.59,111.44,339,111.41,339,111.21Z" transform="translate(0)" stroke="#000" stroke-miterlimit="10" stroke-width="0.5"/>
      <path d="M349.17,123.61c.12.18-.1.58-.68,1a4.37,4.37,0,0,1-2.59.58,4.32,4.32,0,0,1-2.47-1c-.52-.46-.67-.89-.53-1.05.32-.33,1.54.31,3.12.4S348.91,123.23,349.17,123.61Z" transform="translate(0)" stroke="#000" stroke-miterlimit="10" stroke-width="0.5"/>
      <path d="M357.59,120.17c.26.35-.69,1.47-2.35,2s-3.08.24-3.09-.2,1.18-.87,2.57-1.35S357.32,119.79,357.59,120.17Z" transform="translate(0)" stroke="#000" stroke-miterlimit="10" stroke-width="0.5"/>
      <path d="M364.92,116.09c.37.24-.32,1.85-2.05,3s-3.47,1.14-3.55.71,1.22-1.11,2.66-2.07S364.55,115.82,364.92,116.09Z" transform="translate(0)" stroke="#000" stroke-miterlimit="10" stroke-width="0.5"/>
      <path d="M369.93,110.54c.39.23.22,1.25-.39,2.29s-1.4,1.69-1.79,1.47-.22-1.26.39-2.29S369.55,110.31,369.93,110.54Z" transform="translate(0)" stroke="#000" stroke-miterlimit="10" stroke-width="0.5"/>
    </g>
    <g id="arm_left" data-name="arm left">
      <path d="M461.89,306.53q-9.57-2.34-18.51-4.89l-36,18.16c-1.76-8.81-3-15.52-3.75-20.11-.71-4.14-1.32-7.95-4.28-9.58-2.39-1.31-5.23-.63-7,0a44.28,44.28,0,0,1-2.13-20.83l3.09-2.34a168.94,168.94,0,0,0,.86-18.39,173.19,173.19,0,0,0-4.36-36.84c-3.52-15.42-8.07-25.67-16.3-44.21a255.44,255.44,0,0,0-14.71-28.62,161.86,161.86,0,0,0-9.76-14.68A135.09,135.09,0,0,0,332.36,106a45.23,45.23,0,0,0-11.23,13c-8.9,15.55-5.5,31.63-4.37,36.15l11.72,2.9q4.26,7,8.48,14.32,12,20.8,22.13,40.86c.48,3,1.09,7.22,1.57,12.34.32,3.43.7,8.49.87,21.64.07,5.54.11,12.67,0,21a5.87,5.87,0,0,1,1.78,2.56c.65,2-.06,4-3,9.27-3,5.45-3.65,5.81-4.59,8.16a22.59,22.59,0,0,0-1.53,8.67,23.68,23.68,0,0,0-5.81,6.72c-3.32,5.79-3.14,11.48-2.88,17.26.5,11.2,1.12,20.61,1.71,28.2l-39.62,26.17q4.59,53.9,9.17,107.79l30.62,11.49,13.43-8.95c29.27-19.48,34.82-23.05,47.66-31.73,15.78-10.68,23.67-16,31.17-21.59,13.9-10.34,24.83-19.55,32.16-26q.26-48.64.52-97.29Q467.2,307.81,461.89,306.53Zm-64.3,18.06-39.68,20.28-1.74-22.68c.13-9.45,1.65-11.83,3.05-12.2,1.09-.29,1.88.72,3.72,1,3.19.55,6.21-1.56,8.27-3.44a6.07,6.07,0,0,0,3.92,1.31,6.26,6.26,0,0,0,5.24-3.71,7.61,7.61,0,0,0,7-1.31l5.67-1.31Q395.31,313.58,397.59,324.59Z" transform="translate(0)" fill="#fff"/>
      <path d="M375.27,331" transform="translate(0)" fill="#fff"/>
      <path d="M393.13,268.92a7.33,7.33,0,0,1,0-1.83c.06-1.2.21-2.95.3-5.22a181.43,181.43,0,0,0,0-19.16,171.44,171.44,0,0,0-3.76-28.11c-1.14-5.21-2.57-10.64-4.37-16.17s-3.95-11.14-6.38-16.82c-4.91-11.34-9.86-22.06-14.78-31.56a210.83,210.83,0,0,0-14.58-24.36,121.12,121.12,0,0,0-12-14.89c-3.17-3.21-5.23-4.66-5.15-4.78a6.79,6.79,0,0,1,1.56,1,42.23,42.23,0,0,1,4,3.36A106,106,0,0,1,350.53,125a196.05,196.05,0,0,1,15,24.34c5,9.52,10,20.22,14.95,31.61,2.44,5.71,4.61,11.38,6.4,17a166.48,166.48,0,0,1,7.76,44.73,150,150,0,0,1-.53,19.25c-.19,2.27-.44,4-.61,5.2A8.5,8.5,0,0,1,393.13,268.92Z" transform="translate(0)" stroke="#000" stroke-miterlimit="10" stroke-width="0.5"/>
      <path d="M329.25,159.32c-.25.41-3-.93-6.67-1.57s-6.71-.42-6.79-.88c0-.22.71-.57,2-.8a15.07,15.07,0,0,1,5.08.08,14.85,14.85,0,0,1,4.79,1.73C328.78,158.54,329.35,159.14,329.25,159.32Z" transform="translate(0)" stroke="#000" stroke-miterlimit="10" stroke-width="0.5"/>
      <path d="M359.08,213.16c-.21.11-2-3-4.73-7.95L343.6,185.7c-4.24-7.59-8.07-14.46-10.86-19.44s-4.44-8.1-4.24-8.22,2.2,2.79,5.24,7.63,7.06,11.62,11.29,19.24,7.84,14.64,10.34,19.77S359.27,213.06,359.08,213.16Z" transform="translate(0)" stroke="#000" stroke-miterlimit="10" stroke-width="0.5"/>
      <path d="M361.54,268.16c-.23,0-.35-3.42-.48-9s-.3-13.15-.62-21.57-.5-16.06-1.56-21.41-2.74-8.38-2.48-8.5c.08,0,.63.63,1.35,2A28.25,28.25,0,0,1,360,216c1.38,5.48,1.69,13.18,2.06,21.6s.31,16.1.14,21.64S361.76,268.17,361.54,268.16Z" transform="translate(0)" stroke="#000" stroke-miterlimit="10" stroke-width="0.5"/>
      <path d="M392.2,267.82c.13.16-1.15,1.49-3.74,3A26.89,26.89,0,0,1,377.37,274,22.6,22.6,0,0,1,366,271.91c-2.7-1.33-3.94-2.76-3.81-2.9s1.62.86,4.26,1.85a26.22,26.22,0,0,0,10.81,1.48A33,33,0,0,0,388,269.75C390.55,268.61,392.06,267.62,392.2,267.82Z" transform="translate(0)" stroke="#000" stroke-miterlimit="10" stroke-width="0.5"/>
      <path d="M354.21,296.84c-.17.06-.83-1.53-.51-4.2a17.39,17.39,0,0,1,1.22-4.45,37.17,37.17,0,0,1,2.57-4.94,50.71,50.71,0,0,0,4.62-8.59c.87-2.31.95-3.89,1.21-3.88s.53,1.63-.1,4.21-2.3,5.82-4.34,9.1a32.06,32.06,0,0,0-4.05,8.75C354.26,295.23,354.47,296.8,354.21,296.84Z" transform="translate(0)" stroke="#000" stroke-miterlimit="10" stroke-width="0.5"/>
      <path d="M360.67,308.1c-.12-.24,1.33-1,3-2.77a15.23,15.23,0,0,0,3.8-8.59,21.09,21.09,0,0,0-.08-5.29,11.4,11.4,0,0,0-1.24-4,5.53,5.53,0,0,0-1.85-2.06c-.57-.35-1-.47-.94-.6s.45-.19,1.2,0a5.1,5.1,0,0,1,2.56,2,10.9,10.9,0,0,1,1.75,4.42,18.85,18.85,0,0,1,.22,5.72,15.6,15.6,0,0,1-1.7,5.52,13.08,13.08,0,0,1-2.91,3.7C362.42,307.93,360.72,308.28,360.67,308.1Z" transform="translate(0)" stroke="#000" stroke-miterlimit="10" stroke-width="0.5"/>
      <path d="M376.74,297.55c.2,0,.3,1.35-.29,3.41a15.85,15.85,0,0,1-8.26,9.55,15.28,15.28,0,0,1-1.87.73,7.3,7.3,0,0,1-1.77.38A3.54,3.54,0,0,1,362,311c-.51-.46-.52-.87-.44-.9s.32.19.78.36a3.57,3.57,0,0,0,2.1.05,16.8,16.8,0,0,0,6.52-3.75,19.42,19.42,0,0,0,4.47-6.17C376.19,298.75,376.5,297.52,376.74,297.55Z" transform="translate(0)" stroke="#000" stroke-miterlimit="10" stroke-width="0.5"/>
      <path d="M382.24,297.18c.19,0,.64.93.59,2.63a9.33,9.33,0,0,1-8.44,8.88c-1.69.14-2.69-.26-2.65-.46s1-.27,2.45-.67a10.16,10.16,0,0,0,7.5-7.89C382,298.2,382,297.21,382.24,297.18Z" transform="translate(0)" stroke="#000" stroke-miterlimit="10" stroke-width="0.5"/>
      <path d="M387.51,298.26c.22,0,.33.75.25,1.91a8.2,8.2,0,0,1-1.6,4.4,5,5,0,0,1-4.51,1.88,2.61,2.61,0,0,1-1.38-.65c-.26-.25-.33-.45-.27-.53s.77.12,1.72,0a4.84,4.84,0,0,0,3.16-1.74,12.36,12.36,0,0,0,1.75-3.63C387,298.89,387.29,298.22,387.51,298.26Z" transform="translate(0)" stroke="#000" stroke-miterlimit="10" stroke-width="0.5"/>
      <path d="M390.24,269.3c.25.09-.68,2.1-.3,5.48a26.58,26.58,0,0,0,1.38,5.79,56.65,56.65,0,0,1,2.14,7.27,23.65,23.65,0,0,1,.15,7.71,21.69,21.69,0,0,1-1.77,6,5.1,5.1,0,0,1-1.62,2,3,3,0,0,1-1.92.54,2,2,0,0,1-1.16-.42c-.22-.19-.27-.34-.24-.38s.52.28,1.39.17a2.61,2.61,0,0,0,1.37-.63,4.61,4.61,0,0,0,1.13-1.75,25.18,25.18,0,0,0,1.07-13c-.47-2.52-1.34-4.89-2-7.13a23.5,23.5,0,0,1-1.09-6.16,11.12,11.12,0,0,1,.64-4.21C389.8,269.69,390.15,269.25,390.24,269.3Z" transform="translate(0)" stroke="#000" stroke-miterlimit="10" stroke-width="0.5"/>
      <path d="M348.72,357.25a10.83,10.83,0,0,1-.89-2.88c-.46-1.88-1-4.61-1.57-8a138.73,138.73,0,0,1-1.51-26.95c.22-5.25.62-10.42,2.41-14.81a20.8,20.8,0,0,1,7.78-9.53,20.23,20.23,0,0,1,7.67-3.13,7.47,7.47,0,0,1,3-.13,18.42,18.42,0,0,1-2.88.75A22.28,22.28,0,0,0,355.6,296a20.39,20.39,0,0,0-7.05,9.14c-1.59,4.12-2,9.1-2.17,14.32a174.32,174.32,0,0,0,1,26.74C348.19,353,349,357.19,348.72,357.25Z" transform="translate(0)" stroke="#000" stroke-miterlimit="10" stroke-width="0.5"/>
      <path d="M360.06,355.05c-.22,0-.89-3-1.8-8-.46-2.48-1-5.42-1.51-8.71s-1.06-6.93-1.32-10.8c-.54-7.74.48-14.92,2.82-19.6a11.15,11.15,0,0,1,4-4.61c1.29-.72,2.12-.78,2.13-.69s-.7.39-1.77,1.22a11.79,11.79,0,0,0-3.35,4.58,30.47,30.47,0,0,0-2,8.35,57.26,57.26,0,0,0-.19,10.64c.25,3.79.73,7.4,1.17,10.69s.86,6.26,1.17,8.75C360,351.91,360.29,355,360.06,355.05Z" transform="translate(0)" stroke="#000" stroke-miterlimit="10" stroke-width="0.5"/>
      <path d="M408.62,337.12c-.24,0-.49-3-1-7.9s-1.31-11.6-2.61-19c-.66-3.67-1.36-7.17-2.07-10.31a17.89,17.89,0,0,0-3.26-7.57,9.16,9.16,0,0,0-4.54-3c-1.28-.33-2.05-.24-2.07-.37s.75-.41,2.19-.25a9,9,0,0,1,5.28,2.86,17.91,17.91,0,0,1,3.86,8c.8,3.18,1.55,6.68,2.21,10.39a150.88,150.88,0,0,1,2.16,19.15C409,334.06,408.83,337.11,408.62,337.12Z" transform="translate(0)" stroke="#000" stroke-miterlimit="10" stroke-width="0.5"/>
      <path d="M399.38,340.55c-.49,0-.81-8.69-2.73-19.19s-4.61-18.77-4.15-18.93,3.85,8,5.75,18.64S399.79,340.57,399.38,340.55Z" transform="translate(0)" stroke="#000" stroke-miterlimit="10" stroke-width="0.5"/>
      <path d="M345.79,350.83c.23.38-8.08,5.76-18.56,12s-19.15,11-19.38,10.62,8.07-5.77,18.55-12S345.56,350.44,345.79,350.83Z" transform="translate(0)" stroke="#000" stroke-miterlimit="10" stroke-width="0.5"/>
      <path d="M394.66,326.29c.22.39-7.72,4.94-17.73,10.16s-18.29,9.12-18.49,8.72,7.74-5,17.73-10.16S394.45,325.89,394.66,326.29Z" transform="translate(0)" stroke="#000" stroke-miterlimit="10" stroke-width="0.5"/>
      <path d="M442.7,301.93c.13.18-1.55,1.58-4.56,3.35s-7.32,3.91-12.07,6.24c-9.51,4.65-17.39,8.08-17.58,7.68s7.35-4.5,16.87-9.14c4.75-2.34,9.13-4.3,12.23-5.79S442.57,301.74,442.7,301.93Z" transform="translate(0)" stroke="#000" stroke-miterlimit="10" stroke-width="0.5"/>
      <path d="M338.19,383.62c-.09.43-6.93-.74-15.17-3s-14.7-4.76-14.57-5.18,6.81,1.36,15,3.61S338.29,383.17,338.19,383.62Z" transform="translate(0)" stroke="#000" stroke-miterlimit="10" stroke-width="0.5"/>
      <path d="M461.74,318.46c.21.4-26.78,15.23-60.28,33.12s-60.83,32.08-61,31.68,26.77-15.23,60.27-33.12S461.52,318.07,461.74,318.46Z" transform="translate(0)" stroke="#000" stroke-miterlimit="10" stroke-width="0.5"/>
      <path d="M473.4,308.69c0,.43-6.93,0-15.2-1.93s-14.66-4.5-14.51-4.9,6.7,1.44,14.88,3.31S473.45,308.23,473.4,308.69Z" transform="translate(0)" stroke="#000" stroke-miterlimit="10" stroke-width="0.5"/>
      <path d="M316.78,482.94c-.45,0-2.87-24-5.4-53.77s-4.22-53.87-3.77-53.9,2.87,24,5.4,53.76S317.23,482.9,316.78,482.94Z" transform="translate(0)" stroke="#000" stroke-miterlimit="10" stroke-width="0.5"/>
      <path d="M347.39,494.43a22.28,22.28,0,0,1-.78-4.23c-.41-2.73-.92-6.7-1.48-11.61-1.13-9.81-2.43-23.41-3.43-38.46s-1.5-28.69-1.68-38.57c-.09-4.94-.11-8.94-.07-11.7a21.51,21.51,0,0,1,.22-4.3,22.43,22.43,0,0,1,.41,4.28c.14,2.76.34,6.75.59,11.68.47,9.86,1.16,23.48,2.15,38.51s2.12,28.61,3,38.45c.4,4.92.73,8.9,1,11.65A22.24,22.24,0,0,1,347.39,494.43Z" transform="translate(0)" stroke="#000" stroke-miterlimit="10" stroke-width="0.5"/>
      <path d="M474.16,404.1s-.33.44-1.06,1.17-1.81,1.77-3.23,3.1l-2.37,2.22-2.89,2.55c-2.09,1.81-4.44,3.92-7.15,6.1l-4.23,3.47c-1.48,1.19-3.05,2.39-4.66,3.66-3.21,2.54-6.74,5.13-10.43,7.88-7.44,5.43-15.74,11.23-24.57,17.14-17.67,11.79-33.86,22.13-45.43,29.85l-7.8,5.21c-2.3,1.53-4.27,2.86-5.88,4s-2.87,1.92-3.74,2.47a5.51,5.51,0,0,1-1.36.77s.37-.4,1.17-1,2-1.55,3.56-2.72,3.47-2.59,5.73-4.19,4.81-3.45,7.67-5.41c11.42-8,27.53-18.48,45.18-30.25,8.81-5.91,17.12-11.65,24.58-17,3.71-2.71,7.26-5.26,10.49-7.75,1.63-1.24,3.22-2.4,4.71-3.57l4.28-3.38c2.76-2.12,5.15-4.15,7.29-5.89l3-2.44,2.46-2.11c1.48-1.26,2.64-2.23,3.43-2.87A5.77,5.77,0,0,1,474.16,404.1Z" transform="translate(0)" stroke="#000" stroke-miterlimit="10" stroke-width="0.5"/>
      <path d="M472.46,404.51a16.17,16.17,0,0,1-.32-3.75c-.11-2.42-.2-5.91-.28-10.23-.15-8.64-.26-20.58-.27-33.77s.06-25.13.19-33.77c.07-4.32.16-7.82.25-10.23a17.56,17.56,0,0,1,.31-3.76,16,16,0,0,1,.33,3.76c.1,2.42.19,5.91.27,10.23.16,8.64.26,20.58.28,33.77s-.07,25.12-.2,33.76c-.07,4.32-.16,7.82-.25,10.23A17.56,17.56,0,0,1,472.46,404.51Z" transform="translate(0)" stroke="#000" stroke-miterlimit="10" stroke-width="0.5"/>
      <path d="M361.54,355.43c.18.1,0,1.06-.86,2.41a9.36,9.36,0,0,1-4.86,3.93,7,7,0,0,1-6.26-1c-1.34-1.06-1.54-2.16-1.37-2.23s.77.65,2,1.27a7,7,0,0,0,5.12.39,11,11,0,0,0,4.45-3.08C360.76,356.08,361.33,355.32,361.54,355.43Z" transform="translate(0)" stroke="#000" stroke-miterlimit="10" stroke-width="0.5"/>
      <path d="M342.72,366.39c.24.38-3.37,3-8.07,5.94s-8.68,4.93-8.92,4.55,3.38-3,8.07-5.94S342.48,366,342.72,366.39Z" transform="translate(0)" stroke="#000" stroke-miterlimit="10" stroke-width="0.5"/>
      <path d="M375.91,354.66c-.09.43-2.08.37-4.29-.6s-3.63-2.36-3.38-2.72,2,.34,4,1.23S376,354.22,375.91,354.66Z" transform="translate(0)" stroke="#000" stroke-miterlimit="10" stroke-width="0.5"/>
      <path d="M392.26,343.65c-.06.13-.73,0-1.83-.44a15.06,15.06,0,0,1-1.92-1c-.35-.22-.72-.46-1.1-.73l-.52-.37-.2-.14-.2.19-.25.21-.32.26-1.36,1.07c-.95.71-2,1.43-3.07,2.13-6.44,4.14-12.5,5.74-12.61,5.32s5.49-2.67,11.73-6.7c1.06-.67,2.08-1.35,3-2l1.37-1,.71-.52,1-.78.9.82.57.5c.33.29.65.55,1,.79.62.49,1.18.88,1.65,1.2C391.76,343.14,392.32,343.5,392.26,343.65Z" transform="translate(0)" stroke="#000" stroke-miterlimit="10" stroke-width="0.5"/>
      <path d="M390.14,345.33c.27.35-2.63,3-6.74,5.55s-7.77,4-8,3.56,3.08-2.45,7.1-4.95S389.87,345,390.14,345.33Z" transform="translate(0)" stroke="#000" stroke-miterlimit="10" stroke-width="0.5"/>
      <path d="M457.36,305.84c.22.39-9.26,6.23-21.18,13.05s-21.77,12-22,11.64,9.26-6.23,21.19-13S457.14,305.44,457.36,305.84Z" transform="translate(0)" stroke="#000" stroke-miterlimit="10" stroke-width="0.5"/>
      <path d="M346.26,494.19c-.09.42-7-.77-14.94-3.94s-13.82-7-13.6-7.34,6.34,2.74,14.2,5.83S346.37,493.73,346.26,494.19Z" transform="translate(0)" stroke="#000" stroke-miterlimit="10" stroke-width="0.5"/>
      <path d="M440.52,411.9c-.34.28-2.67-2.07-4.46-5.69s-2.28-6.88-1.86-7,1.59,2.82,3.32,6.26S440.88,411.62,440.52,411.9Z" transform="translate(0)" stroke="#000" stroke-miterlimit="10" stroke-width="0.5"/>
      <path d="M446.73,392c.23.38-2.23,2.23-5.49,4.12s-6.08,3.11-6.3,2.72,2.23-2.23,5.49-4.12S446.51,391.56,446.73,392Z" transform="translate(0)" stroke="#000" stroke-miterlimit="10" stroke-width="0.5"/>
      <path d="M455.14,403.79c-.27.33-3.14-1.88-5.12-5.79s-2.1-7.51-1.68-7.54,1.27,3.2,3.13,6.8S455.48,403.45,455.14,403.79Z" transform="translate(0)" stroke="#000" stroke-miterlimit="10" stroke-width="0.5"/>
      <path d="M453.06,402.49c.32.3-1.91,3.14-5.4,5.85s-6.78,4.19-7,3.81,2.62-2.46,6-5.1S452.73,402.17,453.06,402.49Z" transform="translate(0)" stroke="#000" stroke-miterlimit="10" stroke-width="0.5"/>
      <path d="M436.88,381.73c.13-.05.29.44.95.87a4.07,4.07,0,0,0,3.19.34,6.18,6.18,0,0,0,3.67-3.12,5,5,0,0,0,.52-2.71,4.36,4.36,0,0,0-1.3-2.57,4.67,4.67,0,0,0-2.59-1.33,3.73,3.73,0,0,0-2.57.62,7.47,7.47,0,0,0-3,3.88,4.06,4.06,0,0,0,.39,3.2c.41.7.84,1,.77,1.08s-.6,0-1.27-.69a4.39,4.39,0,0,1-1-3.85,6.83,6.83,0,0,1,1.09-2.57,8.56,8.56,0,0,1,2.21-2.3,5.17,5.17,0,0,1,3.6-.95,6,6,0,0,1,3.54,1.76A5.8,5.8,0,0,1,446.8,377a6.41,6.41,0,0,1-.78,3.57,7.1,7.1,0,0,1-4.73,3.54,4.41,4.41,0,0,1-3.87-1C436.72,382.35,436.8,381.73,436.88,381.73Z" transform="translate(0)" stroke="#000" stroke-miterlimit="10" stroke-width="0.5"/>
      <path d="M429.9,427c.1.08-.16.43-.06,1a2.46,2.46,0,0,0,1.64,1.79,1.92,1.92,0,0,0,.76.07,2.88,2.88,0,0,0,.87-.23,5.41,5.41,0,0,0,1.72-1.26c1-1.14,2.37-2.71,2.43-4.22a2,2,0,0,0-.77-1.79,2.12,2.12,0,0,0-1.9-.09,9.57,9.57,0,0,0-3.38,2.46c-1.74,1.82-2.52,3.24-2.74,3.12s.23-1.72,1.87-3.87a14.41,14.41,0,0,1,1.48-1.64,7.15,7.15,0,0,1,2.24-1.47,4.41,4.41,0,0,1,1.55-.33,3.08,3.08,0,0,1,1.73.47,3.54,3.54,0,0,1,1.55,3.2,5.85,5.85,0,0,1-1.16,3.08,13.52,13.52,0,0,1-1.86,2.16c-1.31,1.26-3.21,2.12-4.81,1.41A3,3,0,0,1,429.2,428C429.33,427.12,429.86,426.91,429.9,427Z" transform="translate(0)" stroke="#000" stroke-miterlimit="10" stroke-width="0.5"/>
      <path d="M449.19,403.88c-.16.43-3-.35-6.46,0a9.91,9.91,0,0,0-2.32.39,5.48,5.48,0,0,0-1.61.81c-.78.61-.82,1.35-1.06,1.38s-.26-.16-.3-.56a2.38,2.38,0,0,1,.51-1.6,5,5,0,0,1,1.92-1.43,6.79,6.79,0,0,1,1.32-.42,12.93,12.93,0,0,1,1.41-.2,12,12,0,0,1,4.85.57C448.63,403.2,449.27,403.67,449.19,403.88Z" transform="translate(0)" stroke="#000" stroke-miterlimit="10" stroke-width="0.5"/>
      <path d="M450.44,398.15c.15.43-1.1,1.25-2.53,2.3s-2.59,2-3,1.7.35-1.82,2-3S450.31,397.73,450.44,398.15Z" transform="translate(0)" stroke="#000" stroke-miterlimit="10" stroke-width="0.5"/>
      <path d="M442,399.15" transform="translate(0)" fill="none" stroke="#000" stroke-miterlimit="10" stroke-width="0.5"/>
      <path d="M442.69,398.7c.22.4.23.81,0,.92s-.55-.1-.78-.49-.24-.8,0-.92S442.46,398.31,442.69,398.7Z" transform="translate(0)" stroke="#000" stroke-miterlimit="10" stroke-width="0.5"/>
      <path d="M441.57,378.82c-.2.11-.54-.13-.88-.48-.13,0-.19-.16-.3-.11l-.15.08-.08,0-.22.09a2,2,0,0,0-.56.34,1.28,1.28,0,0,0-.3.43c-.15.27-.06.6-.19.76a.34.34,0,0,1-.42,0,1.06,1.06,0,0,1-.54-.73,1.87,1.87,0,0,1,.18-1.32,2.39,2.39,0,0,1,1.19-1l.35-.13.46-.11c.32-.07.62-.11.9-.15l.21,0a.84.84,0,0,1,.09.19l.15.38a6.72,6.72,0,0,1,.23.67C441.82,378.37,441.76,378.7,441.57,378.82Z" transform="translate(0)" stroke="#000" stroke-miterlimit="10" stroke-width="0.5"/>
      <path d="M433.12,426.37c.38.24.18,1.2-.71,1.84s-1.85.52-2,.09.39-1,1-1.42S432.74,426.12,433.12,426.37Z" transform="translate(0)" stroke="#000" stroke-miterlimit="10" stroke-width="0.5"/>
      <path d="M410.81,402.26a11.56,11.56,0,0,1,.6,2.72,27.92,27.92,0,0,0,.73,3.12,13,13,0,0,0,1.75,3.72,7.31,7.31,0,0,0,3.81,2.79,8.5,8.5,0,0,0,5.43-.26,10.15,10.15,0,0,0,4.7-3.82,14.9,14.9,0,0,0,2.37-6.24,11.86,11.86,0,0,0-.79-6.52,8.09,8.09,0,0,0-4.24-4.13,9.88,9.88,0,0,0-5.46-.7,9.24,9.24,0,0,0-4.39,2,11.9,11.9,0,0,0-3.81,6.06c-.45,1.69-.41,2.69-.55,2.69a5.11,5.11,0,0,1-.07-2.82,11.71,11.71,0,0,1,3.68-6.8,10.1,10.1,0,0,1,4.9-2.48,11.14,11.14,0,0,1,6.29.64,9.58,9.58,0,0,1,5.1,4.84,13.3,13.3,0,0,1,1,7.42,16.27,16.27,0,0,1-2.68,6.93,11.45,11.45,0,0,1-5.5,4.32,9.76,9.76,0,0,1-6.35.14,8.41,8.41,0,0,1-4.35-3.43,13.07,13.07,0,0,1-1.68-4.14,22.06,22.06,0,0,1-.48-3.27A7.85,7.85,0,0,1,410.81,402.26Z" transform="translate(0)" stroke="#000" stroke-miterlimit="10" stroke-width="0.5"/>
      <path d="M419.05,405.61c.1-.05.28.11.58.29a2,2,0,0,0,1.29.3.94.94,0,0,0,.61-.34,1.83,1.83,0,0,0,.35-.86,2.27,2.27,0,0,0-.74-2,1.76,1.76,0,0,0-2-.16,1.41,1.41,0,0,0-.78,1.42,2.13,2.13,0,0,0,.51,1.25c.22.27.42.4.39.52s-.29.19-.74,0a2.34,2.34,0,0,1-1.29-1.55,2.55,2.55,0,0,1,0-1.52,2.74,2.74,0,0,1,1.09-1.41,3.31,3.31,0,0,1,1.84-.54,3,3,0,0,1,2,.73,3.62,3.62,0,0,1,1.15,3.59,2.87,2.87,0,0,1-.88,1.51,2.1,2.1,0,0,1-1.52.53,2.29,2.29,0,0,1-1.77-1C418.92,405.93,419,405.65,419.05,405.61Z" transform="translate(0)" stroke="#000" stroke-miterlimit="10" stroke-width="0.5"/>
      <path d="M423,400.54c-.21-.14.32-1,.57-2.23a2.16,2.16,0,0,0-.38-1.84,1.65,1.65,0,0,0-.83-.56.94.94,0,0,0-.41,0,1.05,1.05,0,0,0-.42.22,5.9,5.9,0,0,1-.74.49,2.37,2.37,0,0,1-1.08.26h-.7a.35.35,0,0,0-.22,0,.19.19,0,0,0-.11.12s0,.09-.05.23a3.11,3.11,0,0,0,.08.82c.1.58.22,1.09.33,1.52.21.86.35,1.39.19,1.48s-.57-.3-1-1.12a9.65,9.65,0,0,1-.71-1.56,4.21,4.21,0,0,1-.26-1.12,2.24,2.24,0,0,1,.1-.81,1.63,1.63,0,0,1,.51-.76,2,2,0,0,1,1.09-.41c.31,0,.56,0,.75,0a.8.8,0,0,0,.37-.09c.13-.07.3-.21.54-.38a2.7,2.7,0,0,1,1.05-.49,2.33,2.33,0,0,1,1.18.06,3.09,3.09,0,0,1,1.6,1.19,3,3,0,0,1,.54,1.67,3.63,3.63,0,0,1-.26,1.39,4.4,4.4,0,0,1-1,1.57C423.35,400.5,423.12,400.61,423,400.54Z" transform="translate(0)" stroke="#000" stroke-miterlimit="10" stroke-width="0.5"/>
      <path d="M418.55,405.29c.15.11-.06.94-1.21,1.77a3.13,3.13,0,0,1-2.55.45,2.74,2.74,0,0,1-1.44-.93,2.8,2.8,0,0,1-.57-1.75,5.63,5.63,0,0,1,1-2.83,3,3,0,0,1,2.13-1.5,1.79,1.79,0,0,1,1.65.71c.24.39.14.66.05.67s-.25-.12-.49-.22a1.43,1.43,0,0,0-1,0,2.11,2.11,0,0,0-1,1.12,5.38,5.38,0,0,0-.63,2.08c-.09,1.27,1.48,1.6,2.39,1.2S418.37,405.12,418.55,405.29Z" transform="translate(0)" stroke="#000" stroke-miterlimit="10" stroke-width="0.5"/>
      <path d="M422.27,406.37c.18-.07.79.72.88,2.3a4.66,4.66,0,0,1-.71,2.74,3.71,3.71,0,0,1-1.32,1.25,4,4,0,0,1-1.89.48,3.62,3.62,0,0,1-1.92-.52,2.91,2.91,0,0,1-1.22-1.52,3.56,3.56,0,0,1,.39-2.92c.8-1.33,1.58-1.82,1.74-1.71s-.27.95-.69,2.18a2.71,2.71,0,0,0,0,1.92,1.53,1.53,0,0,0,.63.68,2.29,2.29,0,0,0,1.1.26,2.56,2.56,0,0,0,1.15-.27,2.33,2.33,0,0,0,.84-.69,4.3,4.3,0,0,0,.79-1.94C422.2,407.33,422,406.44,422.27,406.37Z" transform="translate(0)" stroke="#000" stroke-miterlimit="10" stroke-width="0.5"/>
      <path d="M423.12,407.79c0-.25.74-.45,1.65-1.1a3.11,3.11,0,0,0,1.47-3.32,2,2,0,0,0-1.12-1.41,2,2,0,0,0-1.54.14c-.91.44-1,1.22-1.24,1.23s-.26-.19-.25-.62a2.22,2.22,0,0,1,.83-1.55,3,3,0,0,1,2.63-.64,3.31,3.31,0,0,1,2.27,2.44,3.86,3.86,0,0,1-.54,3.18,4.38,4.38,0,0,1-2,1.57C424,408.22,423.13,408,423.12,407.79Z" transform="translate(0)" stroke="#000" stroke-miterlimit="10" stroke-width="0.5"/>
      <path d="M408.62,338.75c.19.05.25.74-.29,1.68a4.61,4.61,0,0,1-1.26,1.39,6.08,6.08,0,0,1-2.09.95,6.17,6.17,0,0,1-2.29.09,4.51,4.51,0,0,1-1.75-.67c-.91-.6-1.17-1.25-1-1.38s.69.12,1.5.34a6.53,6.53,0,0,0,6-1.43C408.05,339.16,408.39,338.67,408.62,338.75Z" transform="translate(0)" stroke="#000" stroke-miterlimit="10" stroke-width="0.5"/>
    </g>
    <g id="head">
      <path d="M237.17,71.51a24.93,24.93,0,0,1-8-2.28c-1.94-.93-9.25-4.44-11.28-11.54-1.34-4.69.25-8.77,1.85-12.73a45.18,45.18,0,0,1,14.67-18.79c11.64-8.67,32.86-15.64,52.5-5.78,17.53,8.8,23.43,25.81,24.63,29.57a85.48,85.48,0,0,1,6,9.1c3,5.3,4.82,8.42,5.53,13a22.94,22.94,0,0,1-.82,11.31c-.76,2.17-3.47,8.81-9.72,11.64-4.87,2.21-10.28,1.39-16.35-.94C270.8,84.31,264.36,59.68,251,60.67,247.52,60.92,242.65,62.93,237.17,71.51Z" transform="translate(0)"/>
      <path d="M313.8,47.49c-.56-2.9-1.5-5.12-5.86-12.86-5.08-9-5.88-9.71-6.16-12.47a24.88,24.88,0,0,0-.93-6.24,18.81,18.81,0,0,0-3-5.87c-1.76-2.21-4.18-3.74-10-5.55A77.12,77.12,0,0,0,269.2,1.1c-7.05-.39-11.29-.57-16,1.77a24.09,24.09,0,0,0-5.52,3.86,25.67,25.67,0,0,0-6.39,9,24.74,24.74,0,0,0-1.38,4.47,39.13,39.13,0,0,0-12,5.94,30.74,30.74,0,0,0-8.24,8.32,23.19,23.19,0,0,0-4.07,10,22.21,22.21,0,0,0,2,12.32A22.7,22.7,0,0,1,219.78,45c1.1-2.22,3-6.12,7.32-8.24,4-2,7.8-1.27,13.27-.23,4,.76,10.19,2.53,10.07,4.12-.08,1.16-3.38,1-7.2,3.5A17.83,17.83,0,0,0,237.72,50q-.27,10.74-.55,21.48a3,3,0,0,0-1.5.66c-2.26,2-.22,7.17,1.32,14.26,1.1,5,.3,3.45,1.77,11.71a237.58,237.58,0,0,0,6.55,27.17l3.72-2.14L243.12,99c6.69,9,11.59,9.38,13.5,9.23a33.66,33.66,0,0,0,7.12-1.72c3.82-1.35,5.13-2.55,7-2,1.06.31,2,1.08,3.93,4.42a50.64,50.64,0,0,1,4.35,10l4-4.26a56.22,56.22,0,0,1-2.21,7.36A55.34,55.34,0,0,1,277,130.2l6.08-2.71A60.5,60.5,0,0,1,286.65,117c.86-1.9,1.77-3.64,2.68-5.22l9.23-8.47a18.5,18.5,0,0,1-5.51-11.25,17.85,17.85,0,0,1,1.33-8.67,7.19,7.19,0,0,0,3.58.53c3.6-.42,5.57-3.71,6.11-4.6a13,13,0,0,0,1.59-6.49c.14-2.39.31-5.5-1.5-8.63-.73-1.25-2.6-4.49-6.14-4.95a7.59,7.59,0,0,0-5,1.26c.23,3.21.45,6.41.68,9.61l-4.34,3q-1.83-16.44-3.67-32.88A32.61,32.61,0,0,1,298.89,42a33.43,33.43,0,0,1,15.39,11.25A27,27,0,0,0,313.8,47.49ZM284.29,61.07a25.21,25.21,0,0,1-12.18-20.33l9.94-.19Q283.16,50.81,284.29,61.07Z" transform="translate(0)" fill="#fff"/>
      <path d="M278.14,117.49c-.13,0-.43-1.33-1.36-3.62a28.22,28.22,0,0,0-2-4,24.16,24.16,0,0,0-1.57-2.3,12.64,12.64,0,0,0-2-2.22,2.86,2.86,0,0,0-2.79-.27,34.89,34.89,0,0,0-3.37,1.57,21.93,21.93,0,0,1-8.29,2.28,13.2,13.2,0,0,1-4.73-.68,14.47,14.47,0,0,1-4.33-2.42,20.5,20.5,0,0,1-6-8.29,51.2,51.2,0,0,1-2.72-9.7c-.64-3.16-1.12-6.24-1.49-9.18A119.34,119.34,0,0,1,236.57,63a102.44,102.44,0,0,1,.63-10.57,16,16,0,0,1,.67-3.83,20.31,20.31,0,0,1,0,3.88c-.1,2.48-.22,6.08-.12,10.52A139,139,0,0,0,239,78.49c.4,2.9.91,5.93,1.57,9.05a50.34,50.34,0,0,0,2.66,9.39,19.15,19.15,0,0,0,5.47,7.67,11.9,11.9,0,0,0,8,2.84,20.92,20.92,0,0,0,7.77-2A35.68,35.68,0,0,1,268,103.9a5,5,0,0,1,2-.22,3.65,3.65,0,0,1,1.86.77A13.26,13.26,0,0,1,274,107a25.51,25.51,0,0,1,3.35,6.68A10.7,10.7,0,0,1,278.14,117.49Z" transform="translate(0)" stroke="#000" stroke-miterlimit="10" stroke-width="0.5"/>
      <path d="M249.25,79c-.2.09-1.17-1.57-2.57-4.33-.34-.69-.72-1.46-1.13-2.27a7.3,7.3,0,0,1-.82-3.08,11.51,11.51,0,0,1,.8-3.34l1.15-3.25c3.24-8.89,6.66-15.76,7.06-15.58s-2.31,7.31-5.53,16.14L247,66.55a10.51,10.51,0,0,0-.8,2.85,6.07,6.07,0,0,0,.55,2.5l.94,2.34C248.86,77.12,249.46,79,249.25,79Z" transform="translate(0)" stroke="#000" stroke-miterlimit="10" stroke-width="0.5"/>
      <path d="M250.4,49.18c-.19.15-.75-.32-1.68-.85a6.79,6.79,0,0,0-3.79-1,5,5,0,0,0-3.3,1.74c-.65.78-.82,1.48-1.07,1.46s-.47-.83.09-2.06a5.1,5.1,0,0,1,4.17-2.77,6.11,6.11,0,0,1,4.6,1.74C250.32,48.3,250.57,49.06,250.4,49.18Z" transform="translate(0)" stroke="#000" stroke-miterlimit="10" stroke-width="0.5"/>
      <path d="M270.06,50.31c-.22.09-.71-.73-1.55-1.93a9.7,9.7,0,0,0-4-3.56,6,6,0,0,0-2.78-.48,4.73,4.73,0,0,0-2.18.71c-1.15.75-1.8,1.51-2,1.35s.1-1.07,1.3-2.26a5,5,0,0,1,2.69-1.29,6.61,6.61,0,0,1,3.6.46,8.67,8.67,0,0,1,4.38,4.5C270.16,49.26,270.26,50.24,270.06,50.31Z" transform="translate(0)" stroke="#000" stroke-miterlimit="10" stroke-width="0.5"/>
      <path d="M245.11,60.34c-.43.12-1.27-1.65-1.17-4s1.08-4,1.49-3.88.22,1.87.14,4S245.55,60.23,245.11,60.34Z" transform="translate(0)" stroke="#000" stroke-miterlimit="10" stroke-width="0.5"/>
      <path d="M259.22,59.23c-.18.12-.74-.34-1-1.39a10.8,10.8,0,0,1,.13-3.76c.44-2.79,1.15-5,1.6-4.93s.45,2.39,0,5.18c-.22,1.42-.54,2.61-.6,3.42S259.42,59.12,259.22,59.23Z" transform="translate(0)" stroke="#000" stroke-miterlimit="10" stroke-width="0.5"/>
      <path d="M267.35,78.37c.17.12-.36,1.34-1.79,2.92a16.83,16.83,0,0,1-15.21,5.1c-2.09-.4-3.25-1.06-3.18-1.25s1.32,0,3.32.1a20.28,20.28,0,0,0,14.27-4.79C266.3,79.18,267.15,78.23,267.35,78.37Z" transform="translate(0)" stroke="#000" stroke-miterlimit="10" stroke-width="0.5"/>
      <path d="M314,55.32a14.3,14.3,0,0,0-1.83-4,22.77,22.77,0,0,0-9.37-7.27,34.37,34.37,0,0,0-7.95-2.37,53.39,53.39,0,0,0-9.54-.71c-6.78,0-14.25,1.12-22.24,1.1a49.2,49.2,0,0,1-11.61-1.33c-3.69-1-7-2.34-10.26-3.22a23.52,23.52,0,0,0-9.35-.86,37.68,37.68,0,0,0-8.12,1.67A14,14,0,0,0,218,41.8a10.08,10.08,0,0,0-2.43,4.39,8,8,0,0,0-.18,3.2c.11.74.26,1.12.19,1.14a2.27,2.27,0,0,1-.51-1.07,7.44,7.44,0,0,1-.12-3.41,10.35,10.35,0,0,1,2.37-4.86,14.68,14.68,0,0,1,6-3.94,37.2,37.2,0,0,1,8.38-1.93,24.14,24.14,0,0,1,4.84-.15,28,28,0,0,1,5,.9c3.37.88,6.72,2.23,10.25,3.12a48.89,48.89,0,0,0,11.24,1.25c7.82,0,15.31-1,22.23-1a52.5,52.5,0,0,1,9.79.88A34.45,34.45,0,0,1,303.28,43a22.14,22.14,0,0,1,9.43,8A9.74,9.74,0,0,1,314,54.14C314.09,54.91,314.05,55.32,314,55.32Z" transform="translate(0)" stroke="#000" stroke-miterlimit="10" stroke-width="0.5"/>
      <path d="M239.89,20.26c.1.21-1.87,1.21-5,2.8s-7.5,3.84-11.22,7.55-5.45,8.33-6.7,11.58-1.75,5.42-2,5.37-.07-2.26.88-5.72A37.3,37.3,0,0,1,218,35.9a22.14,22.14,0,0,1,4.48-6.44,29.42,29.42,0,0,1,6.22-4.7A47.84,47.84,0,0,1,234.39,22C237.7,20.67,239.81,20.06,239.89,20.26Z" transform="translate(0)" stroke="#000" stroke-miterlimit="10" stroke-width="0.5"/>
      <path d="M300.58,19.7a25.94,25.94,0,0,0,0-3.07,11.18,11.18,0,0,0-4-7C294,7.38,290,5.83,285.49,4.52A67.59,67.59,0,0,0,270.41,2a65.18,65.18,0,0,0-7.92.05,42.59,42.59,0,0,0-7.26,1,13.92,13.92,0,0,0-5.69,2.91,26.73,26.73,0,0,0-3.92,4.2,38.23,38.23,0,0,0-4.59,7c-.79,1.81-.86,2.94-1,2.92s-.25-1.17.39-3.15a32.07,32.07,0,0,1,4.26-7.51,26.11,26.11,0,0,1,4-4.54,15.18,15.18,0,0,1,6.18-3.33A42.4,42.4,0,0,1,262.38.42a64.15,64.15,0,0,1,23.54,2.66c4.57,1.41,8.74,3.13,11.5,5.73a11.3,11.3,0,0,1,3.83,7.77C301.29,18.7,300.63,19.74,300.58,19.7Z" transform="translate(0)" stroke="#000" stroke-miterlimit="10" stroke-width="0.5"/>
      <path d="M314,55.17c-.28-.05.19-2.25-.43-5.69a28.24,28.24,0,0,0-1.78-5.84,57.72,57.72,0,0,0-3.46-6.74c-1.37-2.34-2.73-4.57-3.85-6.68a37.64,37.64,0,0,1-2.57-5.84c-1.16-3.48-1.07-5.8-.89-5.8s.58,2.16,2,5.4a50.75,50.75,0,0,0,2.81,5.51c1.16,2,2.55,4.22,3.94,6.59a46.53,46.53,0,0,1,3.44,7,23.89,23.89,0,0,1,1.53,6.25C315.07,53,314.17,55.23,314,55.17Z" transform="translate(0)" stroke="#000" stroke-miterlimit="10" stroke-width="0.5"/>
      <path d="M288.76,21.8c0,.22-2.57.6-6.78.94s-10,.63-16.48.68S253.23,23.28,249,23a18.87,18.87,0,0,1-5-.93c-1.14-.42-1.68-.83-1.64-.92s.67.09,1.81.31a26.47,26.47,0,0,0,4.87.39l16.44-.05,16.44-.2C286.14,21.54,288.75,21.58,288.76,21.8Z" transform="translate(0)" stroke="#000" stroke-miterlimit="10" stroke-width="0.5"/>
      <path d="M238,71.32c0,.18-2.44.63-6.23-.45a21.1,21.1,0,0,1-6.19-3A25,25,0,0,1,219.58,62c-3.47-4.86-5.12-10.25-5-14.23a11.5,11.5,0,0,1,1-4.53c.48-1,.91-1.44,1-1.39.26.11-1,2.21-.84,5.92s1.86,8.67,5.15,13.28a25.82,25.82,0,0,0,5.5,5.66,23.28,23.28,0,0,0,5.67,3.09C235.57,71.07,238,71.05,238,71.32Z" transform="translate(0)" stroke="#000" stroke-miterlimit="10" stroke-width="0.5"/>
      <path d="M276,131.71c-.29-.16,2.76-4.51,5.16-12.55A77.43,77.43,0,0,0,284,104.74a158.44,158.44,0,0,0,.72-18c-.1-12.86-.73-24.5-1.3-32.91-.3-4.21-.54-7.61-.71-10a15.69,15.69,0,0,1-.09-3.68,16.28,16.28,0,0,1,.72,3.61c.36,2.34.79,5.73,1.22,9.94.87,8.41,1.69,20.08,1.79,33a142.2,142.2,0,0,1-.86,18.23,71.25,71.25,0,0,1-3.17,14.6,47.63,47.63,0,0,1-4.13,9.18A13.29,13.29,0,0,1,276,131.71Z" transform="translate(0)" stroke="#000" stroke-miterlimit="10" stroke-width="0.5"/>
      <path d="M281.63,129.6c-.11-.09.64-1.09,1.59-3.11a36.81,36.81,0,0,0,2.75-9,162.73,162.73,0,0,0,2.41-31.29c-.15-12.29-1.23-23.4-2-31.44-.38-4-.68-7.28-.85-9.54a15.23,15.23,0,0,1-.11-3.52,14,14,0,0,1,.74,3.44c.37,2.24.84,5.48,1.37,9.49A274.51,274.51,0,0,1,290,86.16a139.46,139.46,0,0,1-2.91,31.54,32.15,32.15,0,0,1-3.31,9.08A8.89,8.89,0,0,1,281.63,129.6Z" transform="translate(0)" stroke="#000" stroke-miterlimit="10" stroke-width="0.5"/>
      <path d="M293.74,83c.07-.11.58.2,1.54.42a6.74,6.74,0,0,0,4.05-.44,7.21,7.21,0,0,0,2.33-1.54,9.23,9.23,0,0,0,1.84-2.67,17.85,17.85,0,0,0,1.39-7.49A14.58,14.58,0,0,0,303.15,64,9.17,9.17,0,0,0,298.63,60a6,6,0,0,0-4-.23c-.9.33-1.09.93-1.21.88s-.07-.18,0-.47a2.18,2.18,0,0,1,.89-1,6.1,6.1,0,0,1,4.66-.29,10,10,0,0,1,5.44,4.24,15.36,15.36,0,0,1,2.08,8.11,18.29,18.29,0,0,1-1.67,8.16,10.15,10.15,0,0,1-2.27,3,8.12,8.12,0,0,1-2.85,1.63,6.62,6.62,0,0,1-4.64,0C294.07,83.58,293.68,83.08,293.74,83Z" transform="translate(0)" stroke="#000" stroke-miterlimit="10" stroke-width="0.5"/>
      <path d="M283.69,60.86c-.09.18-1.39-.16-3.21-1.33a17.87,17.87,0,0,1-5.71-6.12,23.31,23.31,0,0,1-2.62-7.91c-.31-2.09-.31-3.4-.1-3.44s.63,1.2,1.22,3.18a36.18,36.18,0,0,0,2.91,7.36,23.1,23.1,0,0,0,5,6C282.71,59.94,283.8,60.64,283.69,60.86Z" transform="translate(0)" stroke="#000" stroke-miterlimit="10" stroke-width="0.5"/>
      <path d="M292.66,90.63c.12-.09.74.75,2.14,1.91a15.66,15.66,0,0,0,6.86,3.21,16.24,16.24,0,0,0,10.88-1.54,19.7,19.7,0,0,0,8.71-10.28A23.44,23.44,0,0,0,322,70.31a32.27,32.27,0,0,0-4.55-10.44c-1.82-2.72-3.6-4.77-4.68-6.29a8.46,8.46,0,0,1-1.53-2.48c.09-.07.77.7,2,2.08a73.13,73.13,0,0,1,5.14,6A31.29,31.29,0,0,1,323.47,70a24.2,24.2,0,0,1-.7,14.55,20.72,20.72,0,0,1-9.53,11,16.93,16.93,0,0,1-11.83,1.34,14.93,14.93,0,0,1-7-3.86A6.41,6.41,0,0,1,292.66,90.63Z" transform="translate(0)" stroke="#000" stroke-miterlimit="10" stroke-width="0.5"/>
      <path d="M297.67,102.16c-.17.13-1-.57-2.09-1.92a14.82,14.82,0,0,1-3-6.2,20.64,20.64,0,0,1-.19-6.84c.22-1.71.52-2.75.74-2.73s.34,1.09.41,2.78a38,38,0,0,0,.63,6.45,21.36,21.36,0,0,0,2.39,5.9C297.35,101.07,297.86,102,297.67,102.16Z" transform="translate(0)" stroke="#000" stroke-miterlimit="10" stroke-width="0.5"/>
      <path d="M289,72.81c0-.23.82-.51,2.05-1.14a6.6,6.6,0,0,0,1.82-1.22,1.22,1.22,0,0,0,.23-.88c0-.43-.08-1-.12-1.55-.33-4.35-.62-7.9-.17-8s1.46,3.41,1.8,7.86c0,.57.08,1,.08,1.66a3,3,0,0,1-.15,1,2.49,2.49,0,0,1-.55.89,4,4,0,0,1-1.35.88,8.44,8.44,0,0,1-1.18.42C290,73.15,289,73,289,72.81Z" transform="translate(0)" stroke="#000" stroke-miterlimit="10" stroke-width="0.5"/>
      <path d="M296.73,73.23c-.21.06-.58-.52-.83-1.58a9.74,9.74,0,0,1,1.94-8c.7-.83,1.29-1.17,1.45-1,.36.31-1.05,2.34-1.71,5.19S297.18,73.12,296.73,73.23Z" transform="translate(0)" stroke="#000" stroke-miterlimit="10" stroke-width="0.5"/>
      <path d="M297.27,80.89c-.19-.14.08-.81.56-1.8a11.67,11.67,0,0,0,1.29-3.77,4.15,4.15,0,0,0-.26-1.92,1.56,1.56,0,0,0-.89-.93,1.32,1.32,0,0,0-.92.07c-.23.09-.36.23-.48.2s-.19-.27,0-.64a1.72,1.72,0,0,1,1.5-.78,2.54,2.54,0,0,1,2.1,1.38,4.69,4.69,0,0,1,.56,2.76,7.85,7.85,0,0,1-1.95,4.26C298,80.61,297.44,81,297.27,80.89Z" transform="translate(0)" stroke="#000" stroke-miterlimit="10" stroke-width="0.5"/>
      <path d="M218.67,60.4c-.18.08-1-1.35-1.52-3.94a19.4,19.4,0,0,1,6.79-18.54c2.06-1.65,3.62-2.2,3.71-2s-1.19,1.11-2.94,2.88a21.93,21.93,0,0,0-6.42,17.54C218.48,58.79,218.91,60.32,218.67,60.4Z" transform="translate(0)" stroke="#000" stroke-miterlimit="10" stroke-width="0.5"/>
      <path d="M248.61,41.81c0,.24-.65.55-1.69,1.08a29.51,29.51,0,0,0-3.9,2.36c-1.46,1-2.76,2.07-3.75,2.77s-1.68,1.08-1.83.91.25-.83,1.05-1.76a21,21,0,0,1,3.59-3.25,13,13,0,0,1,4.45-2.12C247.77,41.51,248.58,41.6,248.61,41.81Z" transform="translate(0)" stroke="#000" stroke-miterlimit="10" stroke-width="0.5"/>
      <path d="M245.31,125.28c-.21.06-1.35-2.85-2.81-7.68a178.82,178.82,0,0,1-6.9-38.76c-.3-5-.22-8.16,0-8.17s.57,3.08,1.16,8.07,1.5,11.85,2.83,19.39,2.87,14.29,4,19.17S245.53,125.21,245.31,125.28Z" transform="translate(0)" stroke="#000" stroke-miterlimit="10" stroke-width="0.5"/>
      <path d="M249.92,125.46c-.39.17-2.95-4.86-4.6-11.58s-1.76-12.37-1.33-12.39,1.27,5.42,2.91,12S250.35,125.28,249.92,125.46Z" transform="translate(0)" stroke="#000" stroke-miterlimit="10" stroke-width="0.5"/>
    </g>
  </g>
</svg>
