<?xml version="1.0" encoding="utf-8"?>
<!-- Generator: Adobe Illustrator 23.0.3, SVG Export Plug-In . SVG Version: 6.00 Build 0)  -->
<svg version="1.1" xmlns="http://www.w3.org/2000/svg" xmlns:xlink="http://www.w3.org/1999/xlink" x="0px" y="0px"
	 viewBox="0 0 1600 1200" style="enable-background:new 0 0 1600 1200;" xml:space="preserve">
<style type="text/css">
	.st0{fill:#FFFFFF;}
	.st1{stroke:#000000;stroke-miterlimit:10;}
	.st2{fill:none;stroke:#000000;stroke-miterlimit:10;}
</style>
<g id="tab">
	<path id="XMLID_15_" class="st0" d="M255.2,322.3c-2.4,5.2-1.7,9.7-0.8,23c0.9,12.9,0.5,25.9,1.6,38.8c2.4,27.9,1.2,66.6,0.8,149
		c-0.3,59.6,0.3,46.9,0,99.1c-0.3,68.8-1.2,87.4-1.6,151.4c-0.2,25.4-0.3,63.4,0,110.2c0.2,2.9,1.4,13.7,10.3,22.2
		c5.3,5,11.1,7.1,14.3,7.9c38.3,0,96.4-0.1,167.2,0c204.8,0.2,192.7,1.1,295.6,0.8c113.2-0.3,160.1-1.5,322.6-1.6
		c23.3,0,42.6,0,55.5,0c3.8-0.4,13.1-2.1,21.4-9.5c13.4-12,12.8-29.2,12.7-31.7c-0.3-42-0.6-84-0.8-126
		c-0.7-137.6-0.7-275.3,0-412.9c2.7-10.3-0.3-21.3-7.9-28.5c-10.8-10.2-25-7.4-26.2-7.1c-11.1-0.3-22.2-0.5-33.3-0.8
		c-264.4-0.5-528.9-1.1-793.3-1.6C280.9,305.8,261.4,309.2,255.2,322.3z"/>
	<path id="XMLID_10_" d="M958.7,856.9H768.4c-2.5,0-4.5-2-4.5-4.5l0,0c0-2.5,2-4.5,4.5-4.5h190.3c2.5,0,4.5,2,4.5,4.5l0,0
		C963.1,854.9,961.1,856.9,958.7,856.9z"/>
	<path id="XMLID_11_" d="M909.6,872.6H768.4c-2.5,0-4.5-2-4.5-4.5l0,0c0-2.5,2-4.5,4.5-4.5h141.2c2.5,0,4.5,2,4.5,4.5l0,0
		C914.1,870.6,912.1,872.6,909.6,872.6z"/>
	<g id="XMLID_334_">
		<g id="XMLID_407_">
			<g id="XMLID_411_">
				<ellipse id="XMLID_412_" class="st1" cx="255.7" cy="610.6" rx="1.6" ry="286.5"/>
			</g>
		</g>
	</g>
	<g id="XMLID_342_">
		<g id="XMLID_415_">
			<g id="XMLID_419_">
				<path id="XMLID_420_" class="st1" d="M282.5,924.4c0,0.2-0.7,0.3-2,0.2c-0.3,0-0.7,0-1-0.1c-0.4-0.1-0.8-0.2-1.2-0.2
					c-0.9-0.2-1.9-0.4-2.9-0.8c-0.5-0.2-1.1-0.4-1.6-0.6c-0.6-0.2-1.1-0.6-1.7-0.9c-1.2-0.6-2.3-1.4-3.6-2.2
					c-2.4-1.8-4.7-4.1-6.7-6.9c-2-2.8-3.4-5.8-4.3-8.6c-0.4-1.4-0.8-2.8-1-4.1c-0.1-0.7-0.2-1.3-0.3-1.9c0-0.6,0-1.2-0.1-1.8
					c-0.1-1.1,0.1-2.1,0.2-3c0.1-0.4,0.1-0.8,0.2-1.2c0.1-0.4,0.2-0.7,0.3-1c0.3-1.2,0.6-1.8,0.9-1.8c0.5,0.1,0.3,2.7,0.9,6.8
					c0.1,0.5,0.2,1,0.3,1.6c0.1,0.6,0.3,1.1,0.4,1.7c0.2,1.2,0.7,2.4,1.1,3.7c1,2.5,2.3,5.2,4.1,7.7c1.8,2.5,3.9,4.7,5.9,6.4
					c1.1,0.8,2.1,1.7,3.1,2.3c0.5,0.3,1,0.7,1.5,0.9c0.5,0.3,1,0.5,1.4,0.8C280,923.3,282.6,923.9,282.5,924.4z"/>
			</g>
		</g>
	</g>
	<g id="XMLID_350_">
		<g id="XMLID_423_">
			<g id="XMLID_427_">
				<path id="XMLID_428_" class="st1" d="M1111.6,924.1c0,0.9-185.8,1.6-415,1.6s-415-0.7-415-1.6s185.8-1.6,415-1.6
					S1111.6,923.2,1111.6,924.1z"/>
			</g>
		</g>
	</g>
	<g id="XMLID_358_">
		<g id="XMLID_431_">
			<g id="XMLID_435_">
				<path id="XMLID_436_" class="st1" d="M1154.8,882.6c0.2,0,0.5,0.9,0.6,2.7c0.2,1.7,0.1,4.3-0.5,7.4c-0.5,3.1-1.7,6.7-3.6,10.4
					c-1.9,3.7-4.7,7.5-8.3,10.7c-3.7,3.2-7.7,5.5-11.6,7c-3.9,1.5-7.7,2.2-10.8,2.3c-3.1,0.2-5.7-0.1-7.4-0.4
					c-1.7-0.3-2.6-0.7-2.6-0.9c0.1-0.5,3.8,0,9.7-0.9c2.9-0.4,6.3-1.3,9.9-2.8c3.6-1.5,7.3-3.7,10.6-6.6c3.3-3,5.9-6.4,7.8-9.7
					c1.9-3.4,3.2-6.7,4-9.5C1154.3,886.4,1154.3,882.6,1154.8,882.6z"/>
			</g>
		</g>
	</g>
	<g id="XMLID_366_">
		<g id="XMLID_439_">
			<g id="XMLID_443_">
				<ellipse id="XMLID_444_" class="st1" cx="1153.6" cy="609.9" rx="1.6" ry="273.8"/>
			</g>
		</g>
	</g>
	<g id="XMLID_374_">
		<g id="XMLID_447_">
			<g id="XMLID_451_">
				<path id="XMLID_452_" class="st1" d="M1151.3,338.6c-0.5-0.1,0-3.2-0.8-8.1c-0.4-2.4-1.2-5.2-2.6-8.1c-1.4-2.9-3.5-5.8-6.2-8.2
					c-2.7-2.4-5.8-4.2-8.8-5.2c-3-1.1-5.9-1.6-8.3-1.7c-4.9-0.3-8,0.5-8.1,0c-0.1-0.2,0.6-0.7,2-1.2c1.4-0.5,3.5-1,6.2-1.2
					c2.7-0.1,5.9,0.2,9.3,1.2c3.4,1,7,2.9,10.1,5.7c3.1,2.8,5.3,6.1,6.7,9.4c1.4,3.3,2.1,6.4,2.2,9.1c0.1,2.7-0.1,4.8-0.5,6.2
					C1151.9,337.9,1151.6,338.6,1151.3,338.6z"/>
			</g>
		</g>
	</g>
	<g id="XMLID_382_">
		<g id="XMLID_455_">
			<g id="XMLID_459_">
				<path id="XMLID_460_" class="st1" d="M1113,306.3c0,0.9-185.8,1.6-415,1.6s-415-0.7-415-1.6s185.8-1.6,415-1.6
					S1113,305.4,1113,306.3z"/>
			</g>
		</g>
	</g>
	<g id="XMLID_390_">
		<g id="XMLID_463_">
			<g id="XMLID_467_">
				<path id="XMLID_468_" class="st1" d="M285.3,307.7c0,0.5-2.1,1-5.3,2.1c-0.8,0.3-1.7,0.6-2.6,0.9c-0.9,0.3-1.9,0.8-2.9,1.2
					c-2,0.9-4.2,2-6.4,3.4c-2.2,1.4-4.1,2.8-5.8,4.2c-0.8,0.7-1.7,1.4-2.4,2.1c-0.7,0.7-1.4,1.3-2,1.9c-2.4,2.4-3.8,4.1-4.2,3.8
					c-0.4-0.2,0.4-2.3,2.4-5.3c0.5-0.7,1.1-1.5,1.8-2.3c0.7-0.8,1.5-1.6,2.3-2.5c1.7-1.6,3.8-3.3,6.1-4.8c2.3-1.5,4.7-2.6,7-3.4
					c1.1-0.4,2.2-0.8,3.2-1c1-0.3,2-0.5,2.9-0.6C283.1,307,285.3,307.3,285.3,307.7z"/>
			</g>
		</g>
	</g>
	<g id="XMLID_398_">
		<g id="XMLID_471_">
			<g id="XMLID_475_">
				<path id="XMLID_476_" class="st1" d="M333.6,798.3c0.1,0.1-0.6,0.4-1.2,1.5c-0.3,0.5-0.6,1.3-0.6,2.2c0,0.9,0.1,2,0.6,3
					c0.5,1,1.4,1.9,2.7,2.4c1.3,0.5,2.9,0.6,4.5,0.1c1.6-0.4,3.1-1.3,4.4-2.7c1.3-1.4,2.3-3.2,3.1-5.2c0.8-2,1.4-4.3,1.6-6.6
					c0.2-2.4,0.2-4.9-0.4-7.3c-0.5-2.4-1.5-4.9-3.2-6.9c-0.4-0.5-0.8-1-1.4-1.3c-0.5-0.4-1-0.8-1.6-1.1c-1.1-0.6-2.4-1.1-3.7-1.3
					c-2.6-0.4-5.5,0.2-8.1,1.4c-2.6,1.3-5.1,3.1-7.4,5.3c-1.1,1.1-2.2,2.3-3.2,3.6c-0.5,0.6-1,1.3-1.5,1.9c-0.5,0.7-1,1.3-1.4,2
					c-1.9,2.7-3.5,5.7-5,8.7c-2.9,6.1-4.8,12.6-5.6,18.9c-0.5,3.2-0.6,6.3-0.7,9.5c-0.1,3.2-0.4,6.5-1.6,9.6
					c-1.2,3.1-3.4,5.8-6.3,7.3c-1.4,0.8-3.1,1.2-4.7,1.2c-1.6,0-3.3-0.6-4.6-1.4c-1.3-0.8-2.3-1.7-3.2-2.3c-1-0.6-2-1-3.1-1.3
					c-1.1-0.3-2.2-0.4-3.3-0.4c-1.1,0.1-2.2,0.2-3.2,0.4c-2.1,0.5-4,1.4-5.6,2.4c-1.7,1-3,2.3-4.2,3.6c-2.4,2.6-4,5.2-5.3,7.4
					c-2.5,4.4-3.7,7-3.9,6.9c-0.2-0.1,0.6-2.8,2.8-7.5c1.1-2.3,2.6-5.2,5-8c2.4-2.9,6-5.7,10.7-7c1.2-0.3,2.4-0.5,3.7-0.6
					c1.3,0,2.6,0,4,0.3c1.3,0.3,2.7,0.8,3.9,1.5c1.2,0.7,2.3,1.6,3.3,2.2c1,0.6,2,0.9,3.2,0.9c1.1,0,2.3-0.4,3.4-1
					c2.2-1.2,4-3.3,4.9-5.8c1.9-5.2,0.9-11.7,1.9-18.5c0.9-6.7,2.8-13.5,5.9-19.9c1.5-3.2,3.3-6.3,5.2-9.2c0.5-0.7,1-1.4,1.5-2.1
					c0.5-0.7,1-1.4,1.6-2c1-1.3,2.2-2.6,3.4-3.8c2.5-2.4,5.2-4.4,8.3-5.9c3-1.4,6.5-2.2,9.9-1.6c1.7,0.2,3.2,0.9,4.7,1.7
					c0.7,0.5,1.4,0.9,2,1.4c0.6,0.5,1.2,1.1,1.7,1.7c2,2.5,3.1,5.4,3.6,8.1c1.1,5.6,0.1,11-1.7,15.4c-0.9,2.2-2.2,4.2-3.7,5.8
					c-1.6,1.6-3.5,2.7-5.5,3.1c-1.9,0.4-3.9,0.2-5.5-0.5c-1.6-0.7-2.8-2-3.3-3.3c-1-2.7-0.3-5,0.6-6.1
					C332.8,798.3,333.6,798.2,333.6,798.3z"/>
			</g>
		</g>
	</g>
	<g id="XMLID_406_">
		<g id="XMLID_479_">
			<g id="XMLID_483_">
				<path id="XMLID_484_" class="st1" d="M421.2,673.6c0-0.1,0.6-0.3,1.8-0.8c1.1-0.5,2.9-1.2,4.7-2.5c0.9-0.7,1.9-1.5,2.7-2.6
					c0.8-1.1,1.5-2.4,1.8-3.9c0.3-1.5,0.2-3.2-0.4-4.8c-0.6-1.6-1.7-3.1-3.3-3.8c-1.6-0.7-3.7-0.6-5.7,0c-2,0.7-4.1,1.9-6.1,3.2
					c-4,2.7-7.8,6.4-11.3,10.7c-3.4,4.4-6.6,9.3-9.4,14.6c-2.8,5.4-4.9,11.2-5.6,17.5c-0.4,3.2-0.5,6.4-0.7,9.6
					c-0.2,3.2-0.7,6.4-1.4,9.5c-0.7,3.1-1.6,6-2.7,8.9c-1.2,2.8-2.4,5.5-3.9,8c-2.9,5-6.4,9.4-10,13c-3.7,3.6-7.7,6.3-11.4,8.5
					c-3.7,2.2-7,4.2-9.6,6.2c-2.7,2-4.7,4-6,5.9c-1.4,1.9-1.9,3.6-2.3,4.8c-0.3,1.2-0.5,1.8-0.6,1.8c-0.1,0-0.1-0.7-0.1-2
					c0.2-1.3,0.6-3.2,1.9-5.3c1.2-2.2,3.3-4.4,6-6.6c2.7-2.2,6-4.4,9.5-6.7c3.6-2.3,7.3-5,10.7-8.5c3.4-3.5,6.7-7.7,9.3-12.5
					c1.4-2.4,2.5-5,3.6-7.7c1-2.7,1.9-5.5,2.5-8.5c0.6-2.9,1.1-5.9,1.3-9.1c0.2-3.1,0.3-6.4,0.7-9.7c0.7-6.7,3.1-13,6-18.6
					c2.9-5.6,6.3-10.6,9.9-15.1c3.6-4.5,7.7-8.3,12.1-11.1c2.2-1.4,4.4-2.6,6.9-3.3c2.4-0.7,5.1-0.9,7.4,0.3
					c2.3,1.1,3.7,3.2,4.3,5.2c0.6,2,0.6,4.1,0.2,5.9c-0.5,1.8-1.4,3.3-2.4,4.5c-1,1.2-2.1,2-3.2,2.7c-2.1,1.3-4,1.8-5.2,2.1
					C421.9,673.7,421.2,673.7,421.2,673.6z"/>
			</g>
		</g>
	</g>
	<g id="XMLID_414_">
		<g id="XMLID_487_">
			<g id="XMLID_491_">
				<path id="XMLID_492_" class="st1" d="M414.3,839.8c0,0.1-0.8,0.5-2.5,0.9c-1.7,0.4-4.4,0.6-7.7-0.4c-3.3-0.9-7-3-10.3-6.6
					c-3.2-3.5-6.2-8.4-7-14.6c-0.8-6.1,0.5-12.8,3.4-19.3c2.9-6.5,7.3-12.6,12.4-18.5c5.1-5.9,10.8-11.7,15.9-18.2
					c2.5-3.3,4.9-6.7,6.8-10.5c1.9-3.8,3.3-7.8,4.2-12c1.8-8.5,1.9-17.2,2.5-25.7c0.3-4.2,0.8-8.4,1.6-12.5
					c0.8-4.1,1.9-7.9,3.3-11.6c2.7-7.4,6.5-14,10.6-19.6c2.1-2.8,4.3-5.4,6.6-7.7c0.6-0.6,1.1-1.1,1.7-1.7c0.6-0.5,1.2-1.1,1.7-1.6
					c1.1-1.1,2.4-2,3.7-2.9c2.5-1.7,5.3-2.9,8.2-3.2c2.9-0.2,5.8,1,7.4,3.1c1.6,2.1,2,4.6,1.8,6.7c-0.2,2.1-1,4-2.1,5.4
					c-2.1,2.8-4.6,3.9-6.2,4.6c-1.6,0.6-2.6,0.7-2.6,0.6c0-0.1,0.8-0.4,2.3-1.2c1.5-0.8,3.7-2.1,5.4-4.7c0.9-1.3,1.5-2.9,1.6-4.7
					c0.1-1.8-0.4-3.9-1.7-5.5c-1.3-1.6-3.5-2.5-5.8-2.2c-2.4,0.2-4.8,1.4-7.1,3c-1.1,0.8-2.2,1.7-3.3,2.8c-0.5,0.5-1.1,1.1-1.6,1.6
					c-0.5,0.6-1.1,1.1-1.6,1.7c-2.1,2.3-4.3,4.8-6.2,7.5c-3.9,5.5-7.4,11.9-10,19c-1.3,3.6-2.3,7.3-3,11.2
					c-0.7,3.9-1.2,7.9-1.5,12.1c-0.6,8.3-0.7,17.1-2.5,26.1c-0.9,4.5-2.4,8.8-4.5,12.8c-2,4-4.5,7.6-7.1,11
					c-5.3,6.7-11.1,12.5-16.1,18.2c-5,5.7-9.3,11.6-12.2,17.7c-2.8,6-4.1,12.3-3.6,17.9c0.6,5.5,3.2,10.2,6.1,13.6
					c2.9,3.4,6.3,5.5,9.3,6.6c3,1.1,5.5,1.1,7.2,0.9C413.4,839.9,414.3,839.7,414.3,839.8z"/>
			</g>
		</g>
	</g>
	<g id="XMLID_422_">
		<g id="XMLID_495_">
			<g id="XMLID_499_">
				<path id="XMLID_500_" class="st1" d="M541.7,900.6c0.1,0.2-2.5,1.3-7.3,2.9c-2.4,0.7-5.4,1.6-9,2.2c-3.6,0.6-7.8,1.1-12.4,0.5
					c-0.6,0-1.2-0.1-1.8-0.3c-0.6-0.1-1.2-0.2-1.8-0.4c-1.2-0.4-2.4-0.7-3.6-1.2c-1.2-0.5-2.4-1.1-3.5-1.8c-0.6-0.4-1.1-0.8-1.7-1.2
					c-0.3-0.2-0.6-0.4-0.8-0.6l-0.8-0.7c-4.2-3.8-7-9-10.3-13.8c-1.7-2.4-3.5-4.7-5.7-6.5c-2.2-1.8-4.9-2.9-7.8-2.9
					c-2.9-0.1-6,0.8-9.2,1.8c-3.2,0.9-6.6,2-10.5,2c-1.9,0-3.8-0.4-5.6-1.1c-1.8-0.7-3.4-1.8-4.7-3.1c-2.7-2.5-4.5-5.6-5.7-8.8
					c-1.2-3.2-1.8-6.5-2.2-9.7c-0.4-3.2-0.6-6.2-0.9-9.1c-0.3-2.9-0.8-5.7-1.6-8.3c-0.8-2.5-2-4.9-3.5-6.9c-0.8-1-1.6-1.9-2.5-2.6
					c-0.9-0.8-1.9-1.4-2.9-1.9c-2-1-4.2-1.2-6.3-1c-2.1,0.2-4.1,0.8-6.1,1.4c-1.9,0.6-3.8,1.1-5.7,1.4c-0.9,0.1-1.9,0.3-2.8,0.2
					c-0.5,0-0.9,0-1.3-0.1c-0.4,0-0.8-0.1-1.2-0.2c-1.6-0.4-2.9-1-4-1.8c-1.1-0.8-1.9-1.7-2.5-2.5c-0.5-0.9-0.8-1.8-0.8-2.5
					c0-1.4,0.4-2.1,0.5-2c0.2,0-0.1,0.7,0.2,2c0.1,0.6,0.4,1.3,0.9,2c0.6,0.7,1.3,1.4,2.4,2c2,1.2,5,2,8.3,1.2
					c1.7-0.4,3.5-1,5.4-1.6c1.9-0.6,4-1.4,6.4-1.7c2.4-0.3,5.1-0.1,7.6,1c1.2,0.6,2.4,1.3,3.5,2.2c1.1,0.9,2.1,1.9,2.9,3
					c1.8,2.2,3.1,4.8,4.1,7.6c1,2.8,1.5,5.8,1.8,8.8c0.4,3,0.6,6.1,1,9.1c0.4,3,0.9,6.1,2.1,8.9c1.1,2.8,2.8,5.6,5,7.6
					c2.2,2.1,5.1,3.3,8.1,3.3c6.3,0.1,12.5-3.8,19.7-3.7c3.6,0,7.1,1.5,9.7,3.7c2.6,2.1,4.6,4.7,6.3,7.3c3.4,5,6,10,9.7,13.5
					l0.7,0.6c0.2,0.2,0.5,0.4,0.7,0.6c0.5,0.4,1,0.8,1.5,1.1c1,0.6,2,1.3,3.1,1.7c1,0.5,2.2,0.8,3.2,1.2c0.5,0.1,1.1,0.3,1.6,0.4
					c0.5,0.1,1.1,0.2,1.6,0.3c4.3,0.6,8.3,0.4,11.8,0c3.5-0.5,6.5-1.1,9-1.7C538.9,901.2,541.6,900.4,541.7,900.6z"/>
			</g>
		</g>
	</g>
	<g id="XMLID_430_">
		<g id="XMLID_503_">
			<g id="XMLID_507_">
				<path id="XMLID_508_" class="st1" d="M998.9,303.5c0,0-0.3,0.7-0.9,1.9c-0.7,1.2-1.7,3-3,5.4c-2.7,4.7-6.7,11.6-11.9,20.5
					c-10.4,17.7-25.5,43.4-44.2,75c-9.4,15.8-19.7,33.1-32.5,50.7c-6.4,8.8-13.5,17.5-21.5,25.9c-1,1-2,2.1-3,3.2
					c-1,1-2.1,2-3.1,3.1c-2.1,2.1-4.3,4-6.5,6c-4.4,4-9.3,7.8-14.5,11c-2.6,1.6-5.4,3.1-8.3,4.4c-2.9,1.3-5.9,2.3-9.1,3
					c-6.3,1.5-13.1,1.2-19.4-0.6c-6.4-1.8-12.2-5-17.7-8.6c-5.5-3.6-10.7-7.6-16.1-11.3c-5.4-3.7-11-7.2-17-9.7
					c-6-2.4-12.6-3.6-19.2-3.7c-6.6,0-13.3,1.2-19.8,3.3c-6.4,2.1-12.7,5.1-18.5,8.7c-5.8,3.6-11.2,7.9-16.1,12.7
					c-2.4,2.4-4.7,4.9-6.9,7.5c-1.1,1.3-2.2,2.6-3.2,3.9l-1.6,2l-1.5,2c-8,10.9-14.5,22.7-20.6,34.4c-6.1,11.7-11.9,23.3-18.4,34.4
					c-6.5,11-13.9,21.4-23.5,29.4c-4.8,4-10,7.3-15.6,9.6c-2.8,1.2-5.7,2.1-8.6,2.8c-2.9,0.7-5.9,1.1-8.9,1.2
					c-5.9,0.3-11.9-0.8-17.2-2.9c-5.4-2.1-10.2-4.9-14.8-7.8c-4.6-2.9-9-5.8-13.5-8.3c-4.5-2.5-9.1-4.7-13.7-6.4
					c-4.6-1.7-9.3-3-14-3.6c-4.7-0.6-9.3-0.6-13.7,0.2c-4.4,0.8-8.5,2.4-12.2,4.5c-3.7,2.1-7,4.8-9.9,7.6
					c-5.9,5.7-10.5,11.9-14.9,17.8c-8.7,11.7-15.8,22.1-21.5,30.6c-5.7,8.6-9.9,15.3-12.8,19.9c-1.4,2.3-2.5,4-3.3,5.2
					c-0.7,1.2-1.2,1.8-1.2,1.7s0.3-0.7,0.9-1.9c0.6-1.2,1.7-3,3-5.4c2.7-4.7,6.8-11.6,12.3-20.3c5.5-8.7,12.5-19.2,21.1-31
					c4.3-5.9,8.9-12.3,14.9-18.2c3-2.9,6.4-5.7,10.3-8c3.9-2.3,8.2-4,12.9-4.9c4.6-0.9,9.5-1,14.4-0.3c4.9,0.6,9.8,1.9,14.5,3.6
					c4.8,1.7,9.5,4,14.1,6.5c4.6,2.5,9.1,5.5,13.6,8.3c4.6,2.8,9.3,5.6,14.3,7.5c5.1,2,10.5,3,16.1,2.7c2.8-0.1,5.6-0.5,8.3-1.2
					c2.8-0.7,5.5-1.6,8.1-2.7c5.3-2.3,10.3-5.4,14.8-9.2c9.1-7.7,16.4-17.8,22.7-28.7c6.4-10.9,12.1-22.5,18.3-34.3
					c6.1-11.7,12.7-23.6,20.8-34.8l1.5-2.1l1.6-2c1.1-1.4,2.1-2.7,3.3-4c2.2-2.7,4.6-5.3,7.1-7.7c5-4.9,10.6-9.3,16.7-13.1
					c6-3.8,12.5-6.9,19.2-9.1c6.7-2.2,13.7-3.4,20.8-3.4c7,0,14,1.3,20.4,3.9c6.4,2.6,12.2,6.3,17.7,10.1c5.5,3.8,10.6,7.8,16,11.3
					c5.4,3.5,10.9,6.5,16.8,8.2c5.9,1.7,12.1,1.9,17.9,0.6c2.9-0.6,5.8-1.6,8.5-2.8c2.7-1.2,5.4-2.6,7.9-4.2
					c5.1-3.1,9.8-6.8,14.1-10.7c2.2-2,4.4-3.9,6.4-5.9c1-1,2.1-2,3.1-3c1-1,2-2.1,3-3.1c7.9-8.2,15-16.9,21.4-25.5
					c12.8-17.3,23.2-34.5,32.7-50.2c19-31.5,34.4-56.9,45.1-74.4c5.4-8.8,9.5-15.6,12.4-20.2c1.4-2.3,2.5-4,3.3-5.2
					C998.5,304.1,998.9,303.5,998.9,303.5z"/>
			</g>
		</g>
	</g>
	<g id="XMLID_438_">
		<g id="XMLID_511_">
			<g id="XMLID_515_">
				<ellipse id="XMLID_516_" class="st1" cx="477.7" cy="940.9" rx="154.7" ry="1.6"/>
			</g>
		</g>
	</g>
	<g id="XMLID_446_">
		<g id="XMLID_519_">
			<g id="XMLID_523_">
				<ellipse id="XMLID_524_" class="st1" cx="243.4" cy="626" rx="1.6" ry="78.8"/>
			</g>
		</g>
	</g>
	<g id="XMLID_454_">
		<g id="XMLID_527_">
			<g id="XMLID_531_">
				<path id="XMLID_532_" class="st1" d="M698.3,295.3c0,0.9-40.8,1.6-91.2,1.6c-50.4,0-91.2-0.7-91.2-1.6s40.8-1.6,91.2-1.6
					C657.5,293.7,698.3,294.4,698.3,295.3z"/>
			</g>
		</g>
	</g>
	<g id="XMLID_462_">
		<g id="XMLID_535_">
			<g id="XMLID_539_">
				<path id="XMLID_540_" class="st1" d="M513.9,529.2c0,0.9-42.9,1.6-95.9,1.6s-95.9-0.7-95.9-1.6s42.9-1.6,95.9-1.6
					S513.9,528.3,513.9,529.2z"/>
			</g>
		</g>
	</g>
	<g id="XMLID_470_">
		<g id="XMLID_543_">
			<g id="XMLID_547_">
				<path id="XMLID_548_" class="st1" d="M426.5,528.5c-0.5-0.1-0.1-2.1-1.1-4.7c-0.5-1.3-1.3-2.8-2.6-3.9c-1.3-1.2-3.1-1.9-5.1-2
					c-2-0.1-4,0.5-5.4,1.4c-0.4,0.2-0.7,0.5-1,0.8c-0.3,0.3-0.6,0.5-0.8,0.9c-0.5,0.6-0.8,1.3-1,1.9c-0.5,1.2-0.4,2.3-0.3,3.1
					c0.2,0.8,0.4,1.2,0.2,1.4c-0.1,0.1-0.7,0-1.3-0.8c-0.6-0.8-1.1-2.4-0.8-4.2c0.1-0.9,0.5-1.9,1-2.8c0.3-0.5,0.6-0.9,1-1.4
					c0.4-0.4,0.8-0.8,1.3-1.2c1.9-1.5,4.5-2.4,7.3-2.2c2.8,0.1,5.4,1.4,7,3.1c1.7,1.8,2.5,3.8,2.8,5.5c0.3,1.7,0.1,3.2-0.2,4.1
					C427.1,528.1,426.7,528.5,426.5,528.5z"/>
			</g>
		</g>
	</g>
	<g id="XMLID_478_">
		<g id="XMLID_551_">
			<g id="XMLID_555_">
				<path id="XMLID_556_" class="st1" d="M527.8,456.8c0.2,0.4-5.6,4.2-15.1,10.1c-9.5,5.9-22.8,13.9-37.5,22.7
					c-14.7,8.8-28,16.7-37.7,22.3c-9.7,5.6-15.8,9-16.1,8.6c-0.2-0.4,5.4-4.4,14.8-10.5c9.4-6.1,22.6-14.4,37.3-23.2
					c14.7-8.8,28.2-16.5,38-21.9C521.4,459.5,527.6,456.4,527.8,456.8z"/>
			</g>
		</g>
	</g>
	<g id="XMLID_486_">
		<g id="XMLID_559_">
			<g id="XMLID_563_">
				<path id="XMLID_564_" class="st1" d="M548.6,460c0.2,0.1-0.1,0.8-1,1.7c-0.9,0.9-2.5,1.9-4.8,2.3c-2.2,0.4-5.3,0.1-7.9-2
					c-2.6-2-4-5.4-4.3-8.9c-0.3-3.5,0.5-6.7,1.3-9.3c0.8-2.7,1.6-5,2.3-7c1.4-3.9,2.4-6.3,2.9-6.2s0.2,2.7-0.7,6.8
					c-0.4,2-1,4.5-1.6,7.1c-0.6,2.6-1.2,5.5-0.9,8.3c0.2,2.8,1.3,5.4,3,6.9c1.7,1.5,3.9,2,5.7,2c1.9,0,3.3-0.6,4.3-1
					C547.9,460.2,548.4,459.8,548.6,460z"/>
			</g>
		</g>
	</g>
	<g id="XMLID_494_">
		<g id="XMLID_567_">
			<g id="XMLID_571_">
				<path id="XMLID_572_" class="st1" d="M543.5,416.8c0.2,0.1,0,0.7,0.1,1.7c0,1,0.4,2.3,1.4,4c0.4,0.8,1,1.7,1.6,2.8
					c0.6,1,1.2,2.3,1.7,3.6c0.5,1.3,0.8,2.8,1,4.3c0.2,1.5,0.2,3.1-0.1,4.9c-0.3,1.7-1.1,3.5-2.6,4.8c-1.4,1.2-3.3,1.9-5.2,1.4
					c-0.9-0.2-1.7-0.7-2.3-1.3c-0.6-0.6-1-1.2-1.3-1.9c-0.6-1.3-0.8-2.5-0.9-3.6c-0.1-2.1,0.2-3.7,0.2-4.7c0-1.1,0-1.7,0.2-1.8
					c0.2-0.1,0.7,0.4,1,1.6c0.4,1.1,0.6,2.8,0.9,4.7c0.2,0.9,0.5,1.8,1,2.6c0.5,0.8,1.2,1.3,1.9,1.5c0.7,0.1,1.7-0.2,2.5-0.9
					c0.7-0.6,1.2-1.7,1.5-3c0.2-1.2,0.2-2.6,0.1-4c-0.1-1.3-0.3-2.6-0.7-3.7c-0.3-1.2-0.7-2.2-1.2-3.3c-0.5-1.1-0.9-2.1-1.3-3.1
					c-0.4-1-0.6-1.9-0.7-2.8c-0.1-0.9,0-1.7,0.2-2.3C542.7,417.1,543.4,416.7,543.5,416.8z"/>
			</g>
		</g>
	</g>
	<g id="XMLID_502_">
		<g id="XMLID_575_">
			<g id="XMLID_579_">
				<path id="XMLID_580_" class="st1" d="M546.6,462.4c-0.2-0.5,2.5-1.7,5.1-5.2c1.3-1.8,2.4-4.1,2.9-6.9c0.5-2.8,0.3-6-0.6-9.1
					c-1-3.1-2.6-6-4.1-8.7c-1.5-2.7-2.9-5.2-3.8-7.4c-0.9-2.3-1.3-4.2-1.3-5.6c-0.1-1.4,0.1-2.1,0.3-2.1c0.5,0,0.9,2.8,3.1,6.7
					c1.1,2,2.6,4.2,4.3,6.8c1.7,2.6,3.5,5.6,4.7,9.3c1.1,3.7,1.2,7.4,0.5,10.7c-0.7,3.3-2.3,6-4,7.8c-1.7,1.8-3.5,2.9-4.7,3.4
					C547.4,462.6,546.7,462.6,546.6,462.4z"/>
			</g>
		</g>
	</g>
	<g id="XMLID_510_">
		<g id="XMLID_583_">
			<g id="XMLID_587_">
				<path id="XMLID_588_" class="st1" d="M526.6,397.7c0.8-0.4,2.5,1.7,3.7,4.7c1.2,2.9,1.6,5.6,0.7,5.9c-0.8,0.4-2.5-1.7-3.7-4.7
					S525.8,398,526.6,397.7z"/>
			</g>
		</g>
	</g>
	<g id="XMLID_518_">
		<g id="XMLID_591_">
			<g id="XMLID_595_">
				<path id="XMLID_596_" class="st1" d="M548.8,386.1c0.8,0.4-0.6,5-2.8,10.3c-2.2,5.4-4.5,9.6-5.3,9.3c-0.8-0.3,0.1-5.1,2.3-10.5
					C545.3,389.8,548,385.8,548.8,386.1z"/>
			</g>
		</g>
	</g>
	<g id="XMLID_526_">
		<g id="XMLID_599_">
			<g id="XMLID_603_">
				<path id="XMLID_604_" class="st1" d="M567,409.8c0.3,0.4-0.3,1.2-1.4,2.3c-1.2,1.1-3,2.2-5.2,3.1c-2.2,0.9-4.4,1.3-5.9,1.3
					c-1.6,0-2.5-0.3-2.6-0.7c-0.1-0.9,3.3-2,7.3-3.6C563.2,410.7,566.4,409.1,567,409.8z"/>
			</g>
		</g>
	</g>
	<g id="XMLID_534_">
		<g id="XMLID_607_">
			<g id="XMLID_611_">
				<path id="XMLID_612_" class="st1" d="M503.9,484.1c-0.2,0.1-1.6-3.1-4.4-8.6c-2.9-5.5-7.4-13.4-14.6-21.8
					c-3.6-4.2-7.9-8.4-13-12.5c-5.1-4-11-7.8-17.6-10.8c-6.6-3.1-13.9-5.4-21.7-6.7c-7.8-1.2-16-1.3-24.3,0.1
					c-16.6,2.9-31.7,9.3-43.9,17.3c-12.2,8-21.5,17.6-27.9,26.7c-6.5,9-10.1,17.3-12.3,23.1c-2.2,5.8-3,9.2-3.2,9.1
					c-0.1,0,0-0.9,0.3-2.5c0.3-1.6,0.9-4,1.8-7c1.9-6,5.3-14.6,11.6-24c6.3-9.4,15.6-19.5,28.1-27.9c12.4-8.4,27.9-15,45-18
					c8.6-1.5,17.2-1.3,25.3,0c8.1,1.4,15.7,3.8,22.5,7.1c6.8,3.2,12.8,7.2,18,11.4c5.1,4.3,9.5,8.7,13.1,13.1
					c7.2,8.8,11.5,17,14,22.7c0.6,1.4,1.2,2.7,1.6,3.9c0.4,1.1,0.8,2.1,1,2.9C503.8,483.2,504,484.1,503.9,484.1z"/>
			</g>
		</g>
	</g>
	<g id="XMLID_542_">
		<g id="XMLID_615_">
			<g id="XMLID_619_">
				<path id="XMLID_620_" class="st1" d="M306.9,495.1c0.3-0.8,3.6-0.5,7.3,1.1c3.7,1.6,6.2,3.8,5.7,4.6c-0.4,0.8-3.5-0.1-7-1.6
					C309.4,497.7,306.7,496,306.9,495.1z"/>
			</g>
		</g>
	</g>
	<g id="XMLID_550_">
		<g id="XMLID_625_">
			<g id="XMLID_629_">
				<path id="XMLID_630_" class="st1" d="M515.4,483.8c-0.2,0.1-1.3-4-4-11c-1.4-3.5-3-7.7-5.4-12.5c-2.4-4.7-5.2-10.1-9-15.5
					c-0.5-0.7-0.9-1.4-1.4-2.1c-0.5-0.7-1-1.4-1.5-2.1c-1.1-1.4-2.1-2.8-3.3-4.2c-1.2-1.4-2.4-2.8-3.6-4.2c-1.3-1.3-2.6-2.7-4-4.1
					c-0.7-0.7-1.4-1.3-2.1-2c-0.7-0.7-1.5-1.3-2.2-2c-0.8-0.6-1.5-1.4-2.3-2c-0.8-0.6-1.6-1.2-2.5-1.9c-0.8-0.6-1.7-1.3-2.5-1.9
					c-0.8-0.6-1.8-1.2-2.6-1.8c-0.9-0.6-1.8-1.2-2.7-1.7c-0.9-0.6-1.8-1.2-2.8-1.7c-7.6-4.4-16-8.2-25.2-10.5
					c-9.2-2.3-19.1-3.2-29.1-2.1c-5,0.6-9.8,1.7-14.6,3c-4.8,1.3-9.4,2.7-13.9,4.4c-8.9,3.3-17.2,7.5-24.5,12.3
					c-3.6,2.4-7.1,5-10.2,7.7c-1.6,1.3-3,2.8-4.5,4.1l-1.1,1l-1,1.1c-0.7,0.7-1.4,1.4-2,2.1c-5.3,5.7-9.6,11.6-13.1,17.2
					c-7,11.3-10.6,21.6-12.9,28.7c-2.2,7.2-3,11.2-3.2,11.2c-0.1,0,0-1.1,0.3-3c0.3-2,0.8-4.8,1.8-8.5c1.9-7.3,5.2-17.8,12.1-29.6
					c3.4-5.8,7.7-12,13.1-17.9c0.7-0.7,1.4-1.5,2.1-2.2l1-1.1l1.1-1.1c1.5-1.4,3-2.9,4.6-4.3c3.2-2.8,6.7-5.4,10.4-8
					c7.5-5,15.9-9.4,25.1-12.8c4.6-1.7,9.3-3.2,14.2-4.5c4.8-1.4,9.9-2.5,15.1-3.1c10.4-1.2,20.7-0.3,30.2,2.2
					c9.5,2.5,18.2,6.4,25.9,11c1.9,1.1,3.8,2.4,5.6,3.6c0.9,0.6,1.9,1.2,2.7,1.8c0.9,0.7,1.7,1.3,2.5,2c0.8,0.7,1.7,1.3,2.5,2
					c0.9,0.6,1.6,1.4,2.3,2.1c0.8,0.7,1.5,1.4,2.3,2.1c0.7,0.7,1.5,1.3,2.2,2.1c1.4,1.5,2.7,2.9,4,4.3c1.3,1.5,2.4,2.9,3.6,4.4
					c1.2,1.4,2.2,2.9,3.3,4.4c0.5,0.7,1,1.4,1.5,2.1c0.5,0.7,0.9,1.4,1.4,2.2c3.7,5.7,6.5,11.2,8.7,16c2.3,4.9,3.8,9.3,5,12.8
					c1.1,3.6,1.9,6.4,2.3,8.4C515.4,482.7,515.5,483.8,515.4,483.8z"/>
			</g>
		</g>
	</g>
	<g id="XMLID_558_">
		<g id="XMLID_631_">
			<g id="XMLID_635_">
				<path id="XMLID_636_" class="st1" d="M515.2,484.7c0.2,0.9-2.3,2.1-5.5,2.1c-3.3,0-5.7-1.2-5.5-2.1c0.2-0.9,2.6-1.1,5.5-1.1
					C512.5,483.6,515,483.8,515.2,484.7z"/>
			</g>
		</g>
	</g>
	<g id="XMLID_566_">
		<g id="XMLID_639_">
			<g id="XMLID_643_">
				<path id="XMLID_644_" class="st1" d="M362.3,550.3c-0.9,0-1.5-3.3-1.3-7.2c0.2-3.9,1.1-7.1,2-7s1.5,3.3,1.3,7.2
					C364,547.2,363.2,550.4,362.3,550.3z"/>
			</g>
		</g>
	</g>
	<g id="XMLID_574_">
		<g id="XMLID_647_">
			<g id="XMLID_651_">
				<path id="XMLID_652_" class="st1" d="M383.8,547.7c-0.9,0-1.6-2.2-1.6-5c0-2.8,0.7-5,1.6-5s1.6,2.2,1.6,5
					C385.4,545.5,384.7,547.7,383.8,547.7z"/>
			</g>
		</g>
	</g>
	<g id="XMLID_582_">
		<g id="XMLID_655_">
			<g id="XMLID_659_">
				<path id="XMLID_660_" class="st1" d="M409.6,544.5c-0.9,0-1.6-1.9-1.6-4.2c0-2.3,0.7-4.2,1.6-4.2s1.6,1.9,1.6,4.2
					C411.3,542.7,410.5,544.5,409.6,544.5z"/>
			</g>
		</g>
	</g>
	<g id="XMLID_590_">
		<g id="XMLID_663_">
			<g id="XMLID_667_">
				<path id="XMLID_668_" class="st1" d="M439.7,549.8c-0.9,0.1-2.1-2.7-2.6-6.3c-0.6-3.6-0.3-6.7,0.6-6.8c0.9-0.1,2.1,2.7,2.6,6.3
					C440.9,546.6,440.6,549.7,439.7,549.8z"/>
			</g>
		</g>
	</g>
	<g id="XMLID_598_">
		<g id="XMLID_671_">
			<g id="XMLID_675_">
				<path id="XMLID_676_" class="st1" d="M462.5,543.5c-0.9,0.2-1.8-1-2.2-2.6c-0.3-1.6,0.2-3,1.1-3.2c0.9-0.2,1.8,1,2.2,2.6
					C463.8,541.9,463.3,543.3,462.5,543.5z"/>
			</g>
		</g>
	</g>
	<g id="XMLID_605_">
		<g id="XMLID_679_">
			<g id="XMLID_683_">
				<path id="XMLID_684_" class="st1" d="M427,525.5c-0.5,0-0.9-1.4-2.7-2.7c-0.9-0.7-2.1-1.5-3.4-2.2c-1.3-0.7-2.8-1.4-4.3-1.4
					c-1.4,0-2.8,0.6-4,1.4c-1.2,0.8-2.1,1.9-2.8,2.8c-1.5,1.9-2.5,3.2-2.9,2.9c-0.4-0.2-0.1-1.8,1-4.2c0.6-1.2,1.5-2.6,2.9-3.9
					c1.4-1.2,3.5-2.4,5.9-2.3c2.4,0.1,4.3,1.1,5.8,2.1c1.5,1,2.6,2.1,3.5,3.2c0.9,1.1,1.3,2.3,1.4,3.1
					C427.4,525,427.2,525.4,427,525.5z"/>
			</g>
		</g>
	</g>
	<g id="XMLID_614_">
		<g id="XMLID_687_">
			<g id="XMLID_691_">
				
					<ellipse id="XMLID_692_" transform="matrix(0.9997 -2.439994e-02 2.439994e-02 0.9997 -12.7232 10.3368)" class="st1" cx="417.2" cy="526.5" rx="9.9" ry="1.6"/>
			</g>
		</g>
	</g>
	<g id="XMLID_622_">
		<g id="XMLID_695_">
			<g id="XMLID_699_">
				<path id="XMLID_700_" class="st1" d="M424.1,524.3c-0.3,0.8-4.2,0-8.8-0.7c-1.2-0.2-2.2-0.4-3-0.4c-0.8,0-1.4,0.1-2,0.4
					c-1.1,0.5-1.4,1.3-1.8,1.4c-0.2,0-0.5-0.2-0.5-0.8c-0.1-0.6,0.2-1.5,0.9-2.3c0.3-0.4,0.8-0.8,1.4-1.1c0.6-0.3,1.2-0.5,1.8-0.6
					c1.3-0.2,2.6,0,3.8,0.2C420.9,521.2,424.5,523.5,424.1,524.3z"/>
			</g>
		</g>
	</g>
	<g id="XMLID_624_">
		<g id="XMLID_703_">
			<g id="XMLID_707_">
				<path id="XMLID_708_" class="st1" d="M420.4,523.2c0.1,0.9-2.3,1.9-5.3,2.3c-3,0.4-5.6-0.1-5.7-1c-0.1-0.9,2.3-1.9,5.3-2.3
					S420.3,522.3,420.4,523.2z"/>
			</g>
		</g>
	</g>
	<g id="XMLID_638_">
		<g id="XMLID_711_">
			<g id="XMLID_715_">
				<path id="XMLID_716_" class="st1" d="M426.5,526.4c-0.4,0.2-1.2-0.5-2.3-1.5c-0.6-0.5-1.2-1-2-1.6c-0.8-0.5-1.7-1.1-2.7-1.6
					c-1-0.5-2-0.8-2.9-1.1c-0.9-0.3-1.8-0.5-2.5-0.6c-1.5-0.3-2.5-0.4-2.6-0.8c-0.1-0.4,0.8-1.1,2.6-1.5c0.9-0.2,2-0.2,3.1-0.1
					c1.2,0.2,2.5,0.5,3.7,1.1c1.2,0.6,2.3,1.4,3.2,2.2c0.8,0.8,1.5,1.7,1.9,2.5C426.9,525.1,426.9,526.2,426.5,526.4z"/>
			</g>
		</g>
	</g>
	<g id="XMLID_646_">
		<g id="XMLID_719_">
			<g id="XMLID_723_">
				<path id="XMLID_724_" class="st1" d="M288.9,305.2c0,0.2-1.2,0.5-3.3,0.9c-2.1,0.4-5.2,0.8-8.8,1.7c-3.6,0.9-7.9,2.4-11.5,5.4
					c-3.7,3-6.4,7.8-7.8,13.2c-1.5,5.4-1.6,11-1.8,16c-0.1,5.1-0.2,9.7-0.3,13.5c-0.3,7.7-0.7,12.4-1.1,12.4s-0.9-4.8-1.2-12.4
					c-0.2-3.8-0.3-8.4-0.4-13.5c0-5.1,0-10.9,1.6-16.8c1.6-5.9,4.7-11.3,9.1-14.6c2.1-1.7,4.5-2.9,6.7-3.7c2.2-0.8,4.3-1.3,6.3-1.6
					c3.9-0.6,7-0.7,9.2-0.7C287.6,304.9,288.8,305,288.9,305.2z"/>
			</g>
		</g>
	</g>
	<g id="XMLID_654_">
		<g id="XMLID_727_">
			<g id="XMLID_731_">
				<path id="XMLID_732_" class="st1" d="M255.4,390.5c-0.9,0.1-2.3-10-3.1-22.5c-0.4-6.2-0.6-12-0.1-16.1c0.5-4.2,1.4-6.6,1.9-6.5
					c0.5,0.1,0.3,2.6,0.4,6.6c0.1,4,0.6,9.6,1,15.8C256.4,380.3,256.3,390.5,255.4,390.5z"/>
			</g>
		</g>
	</g>
	<g id="XMLID_662_">
		<g id="XMLID_735_">
			<g id="XMLID_739_">
				<path id="XMLID_740_" class="st1" d="M319.4,307c0,0.5-2.3,0.7-5.8,0.9c-3.6,0.2-8.4,0.5-13.8,0.8c-5.4,0.3-10.3,0.6-13.9,0.7
					c-3.6,0.1-5.8-0.1-5.9-0.6c0-0.4,2.1-1.1,5.6-1.7c3.5-0.6,8.5-1.3,13.9-1.6c5.5-0.3,10.5-0.2,14.1,0.2
					C317.2,306,319.4,306.6,319.4,307z"/>
			</g>
		</g>
	</g>
	<g id="XMLID_670_">
		<g id="XMLID_743_">
			<g id="XMLID_747_">
				<path id="XMLID_748_" class="st1" d="M336.2,307.5c-0.1,0.9-12.1,0.8-26.9,0.1c-14.8-0.7-26.8-1.7-26.7-2.6
					c0-0.9,12.1-1.4,26.9-0.7C324.3,305.1,336.2,306.7,336.2,307.5z"/>
			</g>
		</g>
	</g>
	<g id="XMLID_678_">
		<g id="XMLID_751_">
			<g id="XMLID_755_">
				<path id="XMLID_756_" class="st1" d="M1153.3,362.6c-0.2,0-0.6-1.3-0.9-3.7c-0.3-2.4-0.4-5.9-0.4-10.2c0-4.3,0.1-9.4-0.4-14.9
					c-0.6-5.4-2-11.4-5.4-16.6c-1.7-2.6-3.8-4.7-6.2-6.2c-2.4-1.5-5.1-2.4-7.7-3c-5.3-1.1-10.4-1.1-14.7-1.3
					c-8.5-0.3-13.7,0.6-13.8,0.2c0-0.2,1.2-0.8,3.6-1.3c2.4-0.6,5.9-1,10.2-1.2c2.2-0.1,4.5-0.1,7.1-0.1c2.6,0.1,5.3,0.2,8.2,0.8
					c2.9,0.6,6,1.5,8.8,3.3c2.8,1.8,5.3,4.2,7.2,7.1c1.9,2.9,3.2,6,4.1,9.1c0.9,3.1,1.4,6.1,1.6,9c0.4,5.8,0,10.9-0.3,15.2
					c-0.3,4.3-0.5,7.7-0.6,10.1C1153.6,361.3,1153.5,362.6,1153.3,362.6z"/>
			</g>
		</g>
	</g>
	<g id="XMLID_686_">
		<g id="XMLID_759_">
			<g id="XMLID_763_">
				<path id="XMLID_764_" class="st1" d="M1127.2,339.8c0,0.9-184.6,1.6-412.2,1.6s-412.2-0.7-412.2-1.6s184.6-1.6,412.2-1.6
					S1127.2,338.9,1127.2,339.8z"/>
			</g>
		</g>
	</g>
	<g id="XMLID_694_">
		<g id="XMLID_767_">
			<g id="XMLID_771_">
				<path id="XMLID_772_" class="st1" d="M654.7,410.1c-0.9,0-1.6-10.4-1.6-23.2c0-12.8,0.7-23.2,1.6-23.2s1.6,10.4,1.6,23.2
					C656.3,399.7,655.6,410.1,654.7,410.1z"/>
			</g>
		</g>
	</g>
	<g id="XMLID_702_">
		<g id="XMLID_775_">
			<g id="XMLID_779_">
				<path id="XMLID_780_" class="st1" d="M813.6,411.4c0,0.9-35.3,1.6-78.8,1.6s-78.8-0.7-78.8-1.6s35.3-1.6,78.8-1.6
					S813.6,410.5,813.6,411.4z"/>
			</g>
		</g>
	</g>
	<g id="XMLID_710_">
		<g id="XMLID_783_">
			<g id="XMLID_787_">
				<path id="XMLID_788_" class="st1" d="M809.2,363.7c0,0.9-33.9,1.6-75.7,1.6c-41.8,0-75.7-0.7-75.7-1.6s33.9-1.6,75.7-1.6
					C775.3,362.1,809.2,362.8,809.2,363.7z"/>
			</g>
		</g>
	</g>
	<g id="XMLID_718_">
		<g id="XMLID_791_">
			<g id="XMLID_795_">
				<path id="XMLID_796_" class="st1" d="M808.7,403.9c-0.9,0-1.6-8.2-1.6-18.2s0.7-18.2,1.6-18.2s1.6,8.2,1.6,18.2
					S809.6,403.9,808.7,403.9z"/>
			</g>
		</g>
	</g>
	<g id="XMLID_726_">
		<g id="XMLID_799_">
			<g id="XMLID_803_">
				<path id="XMLID_804_" class="st1" d="M715.3,377.7c-0.1,0.9-9.2,1.1-20.4,0.9c-11.2-0.2-20.3-0.6-20.4-1.5
					c0-0.9,9.1-1.9,20.4-1.7C706.2,375.5,715.3,376.8,715.3,377.7z"/>
			</g>
		</g>
	</g>
	<g id="XMLID_734_">
		<g id="XMLID_807_">
			<g id="XMLID_811_">
				<path id="XMLID_812_" class="st1" d="M709.7,394.6c0,0.9-7.2,1.6-16.1,1.6c-8.9,0-16.1-0.7-16.1-1.6s7.2-1.6,16.1-1.6
					C702.5,393,709.7,393.7,709.7,394.6z"/>
			</g>
		</g>
	</g>
	<g id="XMLID_742_">
		<g id="XMLID_815_">
			<g id="XMLID_819_">
				<path id="XMLID_820_" class="st1" d="M767.2,389.1c0,0.9-14.5,1.6-32.4,1.6s-32.4-0.7-32.4-1.6s14.5-1.6,32.4-1.6
					S767.2,388.2,767.2,389.1z"/>
			</g>
		</g>
	</g>
	<g id="XMLID_750_">
		<g id="XMLID_823_">
			<g id="XMLID_827_">
				<path id="XMLID_828_" class="st1" d="M771.6,404.5c0,0.9-10.2,1.6-22.9,1.6c-12.6,0-22.9-0.7-22.9-1.6s10.2-1.6,22.9-1.6
					C761.3,402.9,771.6,403.6,771.6,404.5z"/>
			</g>
		</g>
	</g>
	<g id="XMLID_758_">
		<g id="XMLID_831_">
			<g id="XMLID_835_">
				<path id="XMLID_836_" class="st1" d="M784.6,379.8c0,0.9-9.3,1.6-20.7,1.6s-20.7-0.7-20.7-1.6s9.3-1.6,20.7-1.6
					S784.6,378.9,784.6,379.8z"/>
			</g>
		</g>
	</g>
	<g id="XMLID_766_">
		<g id="XMLID_839_">
			<g id="XMLID_843_">
				<path id="XMLID_844_" class="st1" d="M1007.5,391c0.2,0,0.4,0.5,0.9,0.9c0.5,0.4,1.4,0.8,2.5,0.7c0.5-0.1,1.1-0.3,1.5-0.6
					c0.2-0.1,0.4-0.4,0.6-0.7c0.2-0.3,0.3-0.6,0.4-0.9c0.5-1.4,0.4-3.4,0-5.2c-0.2-0.9-0.6-1.4-0.9-1.6c-0.4-0.3-1.1-0.3-1.7-0.1
					c-0.7,0.2-1.3,0.5-1.7,0.9c-0.5,0.4-0.8,1-1.1,1.6c-0.6,1.2-0.9,2.3-1.2,3.1c-0.3,0.8-0.5,1.2-0.7,1.2c-0.2,0-0.4-0.5-0.5-1.3
					c-0.1-0.8-0.2-2.1,0.2-3.7c0.2-0.8,0.6-1.7,1.2-2.6c0.7-0.9,1.6-1.6,2.8-2.1c1.2-0.4,2.7-0.6,4.2,0.2c0.7,0.4,1.4,1,1.8,1.6
					c0.4,0.7,0.7,1.3,0.8,2c0.3,1.3,0.4,2.4,0.4,3.7c0,1.2-0.3,2.4-0.8,3.5c-0.5,1.1-1.2,2-2.3,2.7c-1.1,0.6-2.1,0.8-3.1,0.7
					c-1.8-0.2-3.1-1.3-3.5-2.3C1006.9,391.5,1007.3,391,1007.5,391z"/>
			</g>
		</g>
	</g>
	<g id="XMLID_774_">
		<g id="XMLID_847_">
			<g id="XMLID_853_">
				<path id="XMLID_854_" class="st1" d="M1009.8,418.5c0.2-0.2,0.6,0,1.2,0.2c0.6,0.1,1.4,0.1,2.3-0.4c0.9-0.4,1.8-1.4,2-2.4
					c0.2-1.2-0.1-2.6-1.1-4c-0.2-0.3-0.5-0.7-0.8-1c-0.1-0.2-0.3-0.3-0.4-0.4l-0.2-0.2l-0.1-0.1l-0.2,0c-0.1,0-0.2,0-0.5,0.2
					c-1.1,0.6-1.9,1.7-2.3,2.7c-0.8,2-0.2,3.5-0.7,3.8c-0.1,0.1-0.2,0-0.4-0.1c-0.2-0.1-0.4-0.4-0.6-0.7c-0.4-0.7-0.8-2-0.5-3.5
					c0.2-1.5,1.1-3.3,2.8-4.6c0.2-0.1,0.5-0.3,0.8-0.5c0.3-0.1,0.7-0.3,1.1-0.4c0.4-0.1,0.7-0.2,1.1-0.3c0.3,0.2,0.6,0.4,1,0.7
					c0.3,0.2,0.7,0.5,0.9,0.8c0.2,0.2,0.4,0.4,0.6,0.6c0.4,0.4,0.7,0.8,1.1,1.3c0.6,1,1.2,2,1.4,3.2c0.2,1.1,0.2,2.3-0.1,3.4
					c-0.3,1.2-1.1,2.1-1.8,2.7c-0.8,0.6-1.6,1-2.4,1.2c-1.6,0.4-3-0.1-3.7-0.7C1009.7,419.1,1009.7,418.6,1009.8,418.5z"/>
			</g>
		</g>
	</g>
	<g id="XMLID_782_">
		<g id="XMLID_857_">
			<g id="XMLID_861_">
				<path id="XMLID_862_" class="st1" d="M1009.8,445.8c0.2-0.1,0.5,0.2,1,0.5c0.5,0.3,1.2,0.5,2.1,0.5c0.9-0.1,1.7-0.5,2.2-1.5
					c0.5-0.9,0.6-2.4,0.2-3.6c-0.5-1.3-1.2-1.7-2.2-1.6c-1,0.1-1.6,0.7-1.8,1.4c-0.2,0.8-0.1,1.6,0.1,2.1c0.2,0.5,0.4,0.9,0.3,1.1
					c-0.1,0.2-0.6,0.2-1.3-0.3c-0.6-0.5-1.4-1.6-1.4-3.2c0-0.8,0.3-1.7,0.9-2.5c0.6-0.8,1.6-1.4,2.7-1.6c1.1-0.2,2.3-0.1,3.5,0.6
					c1.1,0.7,1.8,1.8,2.3,2.8c0.8,2.2,0.5,4.6-0.7,6.3c-0.6,0.9-1.4,1.5-2.3,1.9c-0.9,0.4-1.8,0.4-2.6,0.3c-1.5-0.3-2.5-1.2-2.9-1.9
					C1009.5,446.4,1009.6,445.9,1009.8,445.8z"/>
			</g>
		</g>
	</g>
	<g id="XMLID_790_">
		<g id="XMLID_865_">
			<g id="XMLID_869_">
				<path id="XMLID_870_" class="st1" d="M1096,384.7c0,0.9-16.1,1.6-36,1.6c-19.9,0-36-0.7-36-1.6s16.1-1.6,36-1.6
					C1079.9,383.1,1096,383.8,1096,384.7z"/>
			</g>
		</g>
	</g>
	<g id="XMLID_798_">
		<g id="XMLID_873_">
			<g id="XMLID_877_">
				<path id="XMLID_878_" class="st1" d="M1081.2,394.1c0,0.9-11.2,1.6-25,1.6s-25-0.7-25-1.6s11.2-1.6,25-1.6
					S1081.2,393.2,1081.2,394.1z"/>
			</g>
		</g>
	</g>
	<g id="XMLID_806_">
		<g id="XMLID_881_">
			<g id="XMLID_885_">
				<path id="XMLID_886_" class="st1" d="M1110.9,416.8c0,0.9-19.3,1.6-43,1.6s-43-0.7-43-1.6s19.3-1.6,43-1.6
					S1110.9,415.9,1110.9,416.8z"/>
			</g>
		</g>
	</g>
	<g id="XMLID_814_">
		<g id="XMLID_889_">
			<g id="XMLID_893_">
				<ellipse id="XMLID_894_" class="st1" cx="1094.9" cy="409" rx="22.3" ry="1.6"/>
			</g>
		</g>
	</g>
	<g id="XMLID_822_">
		<g id="XMLID_897_">
			<g id="XMLID_901_">
				<path id="XMLID_902_" class="st1" d="M1071.8,444.2c0,0.9-9.6,1.6-21.5,1.6c-11.9,0-21.5-0.7-21.5-1.6s9.6-1.6,21.5-1.6
					C1062.1,442.6,1071.8,443.3,1071.8,444.2z"/>
			</g>
		</g>
	</g>
	<g id="XMLID_830_">
		<g id="XMLID_905_">
			<g id="XMLID_909_">
				<path id="XMLID_910_" class="st1" d="M1111.7,453.6c0,0.9-16.6,1.6-37.2,1.6c-20.5,0-37.2-0.7-37.2-1.6s16.6-1.6,37.2-1.6
					C1095.1,452,1111.7,452.7,1111.7,453.6z"/>
			</g>
		</g>
	</g>
	<g id="XMLID_838_">
		<g id="XMLID_913_">
			<g id="XMLID_917_">
				<path id="XMLID_918_" class="st1" d="M826.1,426.9c0,0.9-22.9,1.6-51.1,1.6c-28.2,0-51.1-0.7-51.1-1.6s22.9-1.6,51.1-1.6
					C803.2,425.3,826.1,426,826.1,426.9z"/>
			</g>
		</g>
	</g>
	<g id="XMLID_846_">
		<g id="XMLID_921_">
			<g id="XMLID_925_">
				<path id="XMLID_926_" class="st1" d="M691.6,551.1c0.1,0.2-1.2,1.4-3.7,3.5c-2.5,2.1-6.1,5-10.4,8.8c-4.2,3.8-9.1,8.6-13.1,14.9
					c-2,3.1-3.7,6.6-5.2,10.4c-1.6,3.8-3,7.8-4.7,12c-3.4,8.3-8,15.7-13,21.6c-2.5,3-5.1,5.6-7.6,7.9c-2.5,2.3-5.1,4.3-7.5,6
					c-4.8,3.4-9,5.6-12,6.8c-1.5,0.7-2.7,1.1-3.5,1.3c-0.8,0.3-1.3,0.3-1.3,0.2c0-0.1,0.3-0.4,1-0.8c0.7-0.5,1.8-1,3.2-1.9
					c2.8-1.6,6.7-4.1,11.2-7.5c2.2-1.8,4.6-3.8,7-6.1c2.4-2.3,4.8-4.9,7.2-7.9c4.7-5.8,9-12.9,12.3-20.9c1.7-4,3.1-8.1,4.7-11.9
					c1.6-3.9,3.5-7.6,5.7-10.8c4.4-6.5,9.6-11.3,14.1-15c4.5-3.7,8.4-6.3,11.1-8.1C689.9,551.8,691.5,550.9,691.6,551.1z"/>
			</g>
		</g>
	</g>
	<g id="XMLID_856_">
		<g id="XMLID_929_">
			<g id="XMLID_933_">
				<path id="XMLID_934_" class="st1" d="M922.6,396.6c0.4,0.1-1.3,5.8-5.1,14.6c-0.5,1.1-1,2.2-1.6,3.4c-0.5,1.2-1.2,2.4-1.8,3.6
					c-1.2,2.5-2.7,5.1-4.2,7.9c-3.2,5.5-6.9,11.3-11.2,17.2c-4.3,5.9-8.8,11.2-13.1,15.9c-2.2,2.3-4.2,4.5-6.3,6.4
					c-1,1-2,1.9-2.9,2.8c-1,0.9-1.9,1.7-2.8,2.5c-7.2,6.3-12.1,9.6-12.4,9.2c-0.3-0.4,4.1-4.3,10.8-10.9c0.8-0.8,1.7-1.7,2.6-2.6
					c0.9-0.9,1.8-1.9,2.8-2.9c1.9-2,3.9-4.2,6-6.5c4.1-4.7,8.4-10,12.7-15.8c4.2-5.8,8-11.5,11.3-16.8c1.6-2.7,3.1-5.2,4.4-7.7
					c0.7-1.2,1.3-2.4,1.9-3.5c0.6-1.1,1.2-2.2,1.7-3.3C919.7,401.8,922.1,396.4,922.6,396.6z"/>
			</g>
		</g>
	</g>
	<g id="XMLID_952_">
		<g id="XMLID_1025_">
			<g id="XMLID_1029_">
				<ellipse id="XMLID_1030_" class="st1" cx="751.5" cy="758.2" rx="1.6" ry="62"/>
			</g>
		</g>
	</g>
	<g id="XMLID_960_">
		<g id="XMLID_1033_">
			<g id="XMLID_1037_">
				<path id="XMLID_1038_" class="st1" d="M764.8,838.6c0,0.4-1.6,1-4.2,0.5c-2.6-0.4-6.2-2.2-8.6-5.7c-2.4-3.5-2.6-7.5-2-10.1
					c0.6-2.6,1.7-3.9,2.1-3.7c0.4,0.2,0.1,1.7,0.2,3.9c0.1,2.2,0.6,5.3,2.5,8c1.8,2.7,4.5,4.4,6.5,5.3
					C763.3,837.8,764.8,838.1,764.8,838.6z"/>
			</g>
		</g>
	</g>
	<g id="XMLID_968_">
		<g id="XMLID_1041_">
			<g id="XMLID_1045_">
				<ellipse id="XMLID_1046_" class="st1" cx="880.1" cy="838.9" rx="116.1" ry="1.6"/>
			</g>
		</g>
	</g>
	<g id="XMLID_976_">
		<g id="XMLID_1049_">
			<g id="XMLID_1053_">
				<path id="XMLID_1054_" class="st1" d="M1015.7,815c0.4-0.1,1.4,1.8,1.5,5.3c0,1.7-0.2,3.8-0.9,6c-0.7,2.2-1.9,4.5-3.7,6.6
					c-1.8,2.1-3.9,3.6-5.9,4.7c-2.1,1.1-4.1,1.6-5.8,1.9c-3.5,0.5-5.5-0.2-5.5-0.6c0-0.5,2-0.6,5-1.6c2.9-0.9,6.8-2.9,9.7-6.4
					c3-3.5,4.3-7.6,4.7-10.6C1015.4,817.1,1015.2,815.1,1015.7,815z"/>
			</g>
		</g>
	</g>
	<g id="XMLID_984_">
		<g id="XMLID_1057_">
			<g id="XMLID_1061_">
				<ellipse id="XMLID_1062_" class="st1" cx="1014.9" cy="752.8" rx="1.6" ry="64.7"/>
			</g>
		</g>
	</g>
	<g id="XMLID_992_">
		<g id="XMLID_1065_">
			<g id="XMLID_1069_">
				<path id="XMLID_1070_" class="st1" d="M778.1,680.9c-0.2,0.5-2.3-0.1-5.7,0c-3.3,0-8,1-12.1,3.9c-4,2.9-6.3,7.1-7.4,10.3
					c-1.1,3.2-1.2,5.4-1.7,5.4c-0.4,0-1.1-2.2-0.5-6c0.3-1.9,1-4,2.3-6.2c1.2-2.2,3.1-4.4,5.5-6.1c2.4-1.7,5-2.8,7.5-3.3
					c2.5-0.5,4.8-0.5,6.6-0.2C776.3,679.1,778.2,680.6,778.1,680.9z"/>
			</g>
		</g>
	</g>
	<g id="XMLID_1000_">
		<g id="XMLID_1073_">
			<g id="XMLID_1077_">
				<ellipse id="XMLID_1078_" class="st1" cx="886.3" cy="681.9" rx="109" ry="1.6"/>
			</g>
		</g>
	</g>
	<g id="XMLID_1008_">
		<g id="XMLID_1081_">
			<g id="XMLID_1085_">
				<path id="XMLID_1086_" class="st1" d="M1016.7,692.5c-0.5,0.1-1-1.5-2.4-3.5c-1.3-2.1-3.7-4.6-7-6.1c-3.3-1.5-6.8-1.5-9.2-1.1
					c-2.5,0.4-4,1-4.2,0.6c-0.2-0.3,0.9-1.8,3.6-2.8c1.3-0.5,3-0.9,5-0.9c1.9,0,4.1,0.4,6.2,1.3c2.1,0.9,3.8,2.3,5.1,3.7
					c1.3,1.5,2.1,3,2.6,4.3C1017.4,690.6,1017.1,692.4,1016.7,692.5z"/>
			</g>
		</g>
	</g>
	<g id="XMLID_1016_">
		<g id="XMLID_1089_">
			<g id="XMLID_1093_">
				<path id="XMLID_1094_" class="st1" d="M528.6,871.8c-0.1,0-0.3-0.3-0.4-0.9c-0.1-0.6-0.1-1.6,0.4-2.8c0.5-1.2,1.4-2.5,2.8-3.5
					c0.7-0.5,1.6-1,2.5-1.3c1-0.3,2.1-0.5,3.2-0.5c0.6,0,1.2,0.1,1.8,0.2c0.6,0.2,1.2,0.4,1.8,0.7c1.1,0.6,2.2,1.4,3.1,2.4
					c1.8,2,3,4.8,3.4,7.7c0.4,2.9-0.1,6.2-1.5,9.1c-1.4,2.9-3.5,5.5-6.3,7.5c-2.7,2-5.8,3.3-8.9,3.9c-3.1,0.6-6.3,0.5-9.1-0.3
					c-2.8-0.7-5.3-2-7.3-3.5c-2.1-1.5-3.7-3.2-5-4.9c-2.6-3.4-3.8-6.7-4.3-9c-0.2-1.2-0.4-2.1-0.4-2.7c0-0.6,0-0.9,0.1-1
					c0.3,0,0.6,1.2,1.4,3.3c0.8,2.1,2.3,5,4.9,7.9c2.6,2.9,6.4,5.8,11.3,7c2.4,0.6,5.1,0.6,7.7,0c2.7-0.5,5.3-1.7,7.6-3.4
					c2.3-1.7,4.1-3.9,5.3-6.3c1.2-2.4,1.6-5,1.4-7.4c-0.2-2.4-1.1-4.6-2.4-6.3c-0.7-0.8-1.4-1.4-2.3-1.9c-0.4-0.3-0.8-0.4-1.2-0.6
					c-0.4-0.1-0.8-0.2-1.3-0.2c-1.7-0.2-3.4,0.4-4.7,1c-1.3,0.7-2.2,1.7-2.7,2.5C528.6,870.4,528.8,871.8,528.6,871.8z"/>
			</g>
		</g>
	</g>
	<g id="XMLID_1024_">
		<g id="XMLID_1097_">
			<g id="XMLID_1101_">
				<path id="XMLID_1102_" class="st1" d="M625.6,881.9c-0.1-0.1,1.7-1,5-0.4c1.6,0.3,3.5,1,5.5,2.4c1.9,1.4,3.8,3.5,4.8,6.5
					c1,2.9,0.8,6.5-0.5,9.8c-1.3,3.3-3.7,6.4-7.1,8.6c-3.3,2.2-7.3,3.6-11.4,4.2c-2.1,0.3-4.2,0.5-6.3,0.5c-2.1,0-4.3-0.1-6.5-0.4
					c-2.2-0.3-4.4-0.8-6.4-1.6c-2.1-0.8-4-1.9-5.7-3.1c-3.4-2.5-6.1-5.3-8.9-7.4c-5.6-4.3-11.9-6.4-17.2-6.4c-2.6,0-5,0.5-7,1.2
					c-2,0.7-3.6,1.6-4.8,2.5c-2.5,1.7-3.5,3.2-3.7,3c-0.2-0.1,0.5-1.8,2.9-4c2.4-2.1,6.7-4.6,12.6-5c2.9-0.2,6.2,0.3,9.4,1.3
					c3.3,1.1,6.5,2.7,9.6,5c3.1,2.2,5.9,5,9,7.2c1.6,1.1,3.2,2,5,2.7c1.8,0.7,3.7,1.1,5.8,1.4c8.1,0.9,16.3,0.2,22.1-3.5
					c2.9-1.8,5-4.4,6.2-7.2c1.2-2.7,1.5-5.6,0.8-8c-0.7-2.4-2.1-4.4-3.7-5.7c-1.6-1.3-3.2-2.2-4.6-2.6
					C627.3,881.8,625.6,882.1,625.6,881.9z"/>
			</g>
		</g>
	</g>
	<g id="XMLID_1032_">
		<g id="XMLID_1105_">
			<g id="XMLID_1109_">
				<path id="XMLID_1110_" class="st1" d="M785.3,738.7c0.1-0.2,0.8,0,2,0c1.2,0,2.9-0.3,4.4-1.6c1.5-1.2,2.5-3.6,2.3-6.2
					c-0.2-2.5-1.8-5.4-4.4-6.4c-1.3-0.5-2.7-0.6-4-0.2c-1.3,0.4-2.3,1.1-2.9,2.1c-0.6,1-0.9,2.2-1,3.4c0,1.1,0.3,2.2,0.7,3.1
					c0.9,1.8,2.2,3,3.2,3.8c1,0.8,1.6,1.1,1.5,1.4c-0.1,0.2-0.8,0.2-2.2-0.2c-1.3-0.5-3.2-1.5-4.6-3.7c-1.5-2.2-2.1-5.8-0.3-9.1
					c0.9-1.7,2.6-3,4.5-3.6c1.9-0.6,4.1-0.6,6.1,0.2c2,0.8,3.6,2.3,4.6,4c1,1.7,1.5,3.5,1.6,5.3c0.1,3.6-1.6,6.7-3.9,8.2
					c-2.3,1.5-4.6,1.4-6,1C785.7,739.5,785.2,738.8,785.3,738.7z"/>
			</g>
		</g>
	</g>
	<g id="XMLID_1040_">
		<g id="XMLID_1113_">
			<g id="XMLID_1117_">
				<path id="XMLID_1118_" class="st1" d="M972.6,728.7c0,0.9-37.3,1.6-83.4,1.6s-83.4-0.7-83.4-1.6s37.3-1.6,83.4-1.6
					S972.6,727.8,972.6,728.7z"/>
			</g>
		</g>
	</g>
	<g id="XMLID_1048_">
		<g id="XMLID_1121_">
			<g id="XMLID_1125_">
				<path id="XMLID_1126_" class="st1" d="M928.7,742.1c-0.9,0-1.6-6.7-1.6-15c0-8.3,0.7-15,1.6-15s1.6,6.7,1.6,15
					C930.4,735.4,929.6,742.1,928.7,742.1z"/>
			</g>
		</g>
	</g>
	<g id="XMLID_1056_">
		<g id="XMLID_1129_">
			<g id="XMLID_1133_">
				<path id="XMLID_1134_" class="st1" d="M787.3,769c0.1-0.2,0.8,0.1,2,0.5c1.2,0.4,2.9,0.9,4.9,0.7c1-0.1,2-0.5,2.9-1.2
					c0.9-0.7,1.6-1.6,1.9-2.7c0.3-1.1,0.1-2.4-0.5-3.7c-0.6-1.3-1.5-2.7-2.5-3.8c-1-1.1-2.1-1.8-3.2-1.7c-1.1,0-2.4,0.7-3.5,1.6
					c-2.3,1.7-3.8,3.7-4.1,5.6c-0.2,0.9,0,1.8,0.2,2.5c0.3,0.7,0.6,1.3,1,1.7c0.8,0.8,1.5,1,1.4,1.3c0,0.2-0.9,0.5-2.2-0.3
					c-1.3-0.7-2.8-2.6-2.8-5.5c0-1.4,0.5-2.8,1.3-4.2c0.8-1.3,1.9-2.5,3.2-3.6c0.6-0.5,1.4-1.1,2.2-1.5c0.8-0.4,1.8-0.8,2.9-0.9
					c1.1-0.1,2.3,0.2,3.3,0.7c1,0.5,1.8,1.2,2.5,2c0.7,0.8,1.2,1.5,1.7,2.3c0.5,0.8,0.9,1.6,1.3,2.5c0.7,1.7,1,3.8,0.4,5.7
					c-0.6,1.9-1.9,3.3-3.3,4.1c-1.4,0.8-2.9,1.2-4.2,1.2c-2.7,0-4.6-1-5.7-1.8C787.6,769.8,787.1,769.1,787.3,769z"/>
			</g>
		</g>
	</g>
	<g id="XMLID_1064_">
		<g id="XMLID_1137_">
			<g id="XMLID_1141_">
				<ellipse id="XMLID_1142_" class="st1" cx="884.5" cy="761.2" rx="73.5" ry="1.6"/>
			</g>
		</g>
	</g>
	<g id="XMLID_1072_">
		<g id="XMLID_1145_">
			<g id="XMLID_1149_">
				<ellipse id="XMLID_1150_" class="st1" cx="894.3" cy="758.4" rx="1.6" ry="6"/>
			</g>
		</g>
	</g>
	<g id="XMLID_1080_">
		<g id="XMLID_1153_">
			<g id="XMLID_1157_">
				<path id="XMLID_1158_" class="st1" d="M786.7,800.1c0.1-0.2,0.8-0.1,1.9-0.2c1.1,0,2.7-0.2,4.4-1c1.6-0.8,3.3-2.4,3.6-4.5
					c0.2-1.1,0.1-2.3-0.4-3.4c-0.4-1.1-1.2-2.1-2.2-2.6c-2-1.1-4.8-0.3-6.4,1.3c-1.7,1.5-2.1,3.8-2,5.6c0.1,1.9,0.7,3.4,1.1,4.4
					c0.5,1,0.8,1.6,0.6,1.8c-0.1,0.1-0.8-0.2-1.7-1.1c-0.9-0.9-1.9-2.5-2.4-4.8c-0.2-1.2-0.3-2.5,0-3.9c0.3-1.4,1-2.9,2.1-4.1
					c1.1-1.2,2.6-2.2,4.4-2.7c1.8-0.5,3.9-0.4,5.7,0.6c1.8,1,3.1,2.7,3.7,4.4c0.6,1.7,0.7,3.5,0.4,5.2c-0.4,1.7-1.3,3.1-2.3,4.1
					c-1.1,1-2.3,1.6-3.4,2c-2.3,0.7-4.2,0.5-5.4,0.1C787.1,800.8,786.6,800.3,786.7,800.1z"/>
			</g>
		</g>
	</g>
	<g id="XMLID_1088_">
		<g id="XMLID_1161_">
			<g id="XMLID_1165_">
				<ellipse id="XMLID_1166_" class="st1" cx="889.2" cy="791.8" rx="73.8" ry="1.6"/>
			</g>
		</g>
	</g>
	<g id="XMLID_1096_">
		<g id="XMLID_1169_">
			<g id="XMLID_1173_">
				<path id="XMLID_1174_" class="st1" d="M894.2,773.3c-0.9,0.1-2.3-5.3-2.2-12.1c0.1-6.8,1.6-12.2,2.5-12.1
					c0.9,0.1,0.8,5.5,0.8,12.1C895.2,767.8,895.1,773.2,894.2,773.3z"/>
			</g>
		</g>
	</g>
	<g id="XMLID_1104_">
		<g id="XMLID_1177_">
			<g id="XMLID_1181_">
				<path id="XMLID_1182_" class="st1" d="M836.6,810.9c-0.9,0-1.9-7.2-2-16.2c-0.1-9,0.9-16.3,1.8-16.3c0.9,0,1.4,7.3,1.5,16.2
					C837.9,803.6,837.5,810.9,836.6,810.9z"/>
			</g>
		</g>
	</g>
	<g id="XMLID_1112_">
		<g id="XMLID_1185_">
			<g id="XMLID_1189_">
				<path id="XMLID_1190_" class="st1" d="M983.3,628.8c0,0.5-5.1,0.8-13.2,1.8c-1,0.1-2.1,0.3-3.2,0.4c-1.1,0.1-2.2,0.3-3.4,0.4
					c-0.2,0-0.4,0.1-0.5,0.4c0,0.1,0,0.2-0.1,0.4c0,0.3-0.1,0.6-0.1,0.9c-0.2,1.3-0.3,2.6-0.5,3.9c-0.7,5.4-1.4,11.3-2.1,17.5
					c-1.4,12.4-2.2,23.7-2.4,31.8c-0.2,8.2,0,13.2-0.5,13.3c-0.4,0-1.4-5-1.8-13.3c-0.4-8.3,0-19.7,1.4-32.2
					c0.7-6.3,1.5-12.2,2.4-17.6c0.2-1.3,0.4-2.7,0.6-3.9c0.1-0.3,0.1-0.6,0.2-1c0.1-0.4,0.2-1,0.5-1.4c0.5-0.9,1.4-1.4,2.4-1.5
					c0.3,0,0.4,0,0.5-0.1l0.4,0c0.3,0,0.6,0,0.9-0.1c0.6,0,1.2-0.1,1.7-0.1c1.1-0.1,2.2-0.1,3.2-0.2
					C978.2,627.9,983.3,628.3,983.3,628.8z"/>
			</g>
		</g>
	</g>
	<g id="XMLID_1120_">
		<g id="XMLID_1193_">
			<g id="XMLID_1197_">
				<path id="XMLID_1198_" class="st1" d="M989,649.2c-0.9,0-1.6-12.1-1.6-26.9c0-14.9,0.7-26.9,1.6-26.9s1.6,12.1,1.6,26.9
					C990.7,637.2,989.9,649.2,989,649.2z"/>
			</g>
		</g>
	</g>
	<g id="XMLID_1128_">
		<g id="XMLID_1201_">
			<g id="XMLID_1205_">
				<path id="XMLID_1206_" class="st1" d="M1131.6,593.2c0,0.9-31.6,1.6-70.5,1.6c-39,0-70.5-0.7-70.5-1.6s31.6-1.6,70.5-1.6
					C1100,591.6,1131.6,592.3,1131.6,593.2z"/>
			</g>
		</g>
	</g>
	<g id="XMLID_1136_">
		<g id="XMLID_1209_">
			<g id="XMLID_1213_">
				<ellipse id="XMLID_1214_" class="st1" cx="1058.6" cy="651.4" rx="67.3" ry="1.6"/>
			</g>
		</g>
	</g>
	<g id="XMLID_1144_">
		<g id="XMLID_1217_">
			<g id="XMLID_1221_">
				<path id="XMLID_1222_" class="st1" d="M1128.8,631.5c-0.9,0-1.6-7.3-1.6-16.3s0.7-16.3,1.6-16.3s1.6,7.3,1.6,16.3
					S1129.7,631.5,1128.8,631.5z"/>
			</g>
		</g>
	</g>
	<g id="XMLID_1152_">
		<g id="XMLID_1225_">
			<g id="XMLID_1229_">
				<ellipse id="XMLID_1230_" class="st1" cx="1048.7" cy="607.4" rx="41.8" ry="1.6"/>
			</g>
		</g>
	</g>
	<g id="XMLID_1160_">
		<g id="XMLID_1233_">
			<g id="XMLID_1237_">
				<ellipse id="XMLID_1238_" class="st1" cx="1033" cy="618.7" rx="17.7" ry="1.6"/>
			</g>
		</g>
	</g>
	<g id="XMLID_1168_">
		<g id="XMLID_1241_">
			<g id="XMLID_1245_">
				<path id="XMLID_1246_" class="st1" d="M1094,633.7c0,0.9-19,1.6-42.5,1.6c-23.5,0-42.5-0.7-42.5-1.6s19-1.6,42.5-1.6
					C1075,632,1094,632.8,1094,633.7z"/>
			</g>
		</g>
	</g>
	<g id="XMLID_1176_">
		<g id="XMLID_1249_">
			<g id="XMLID_1253_">
				<path id="XMLID_1254_" class="st1" d="M566.6,750.6c0.2-0.2,0.9,0.6,2.3,1.5c1.4,0.9,3.6,2.1,6.5,2.3c1.4,0.1,3-0.2,4.5-0.8
					c1.5-0.7,2.9-1.8,4-3.3c1.1-1.5,1.7-3.3,1.6-5.2c-0.1-1.9-0.9-3.9-2.2-5.5c-1.3-1.6-3.1-2.7-5-3.2c-1.9-0.5-3.9-0.2-5.6,0.4
					c-3.5,1.2-6.1,4.1-6.9,6.7c-0.4,1.4-0.5,2.7-0.4,3.8c0.1,1.1,0.5,2.1,0.8,2.8c0.8,1.4,1.7,1.9,1.6,2.2c0,0.2-1.2,0.1-2.6-1.4
					c-1.3-1.5-2.4-4.4-1.6-7.9c0.8-3.5,3.6-7.2,8-9c2.2-0.8,4.8-1.3,7.4-0.7c2.6,0.6,5.1,2.1,6.8,4.2c1.8,2.1,2.8,4.8,2.9,7.5
					c0.1,2.7-0.9,5.3-2.4,7.1c-1.5,1.9-3.4,3.2-5.4,4c-2,0.7-4,0.9-5.7,0.6c-3.5-0.5-5.9-2.3-7.1-3.6
					C566.7,751.7,566.4,750.7,566.6,750.6z"/>
			</g>
		</g>
	</g>
	<g id="XMLID_1184_">
		<g id="XMLID_1257_">
			<g id="XMLID_1261_">
				<path id="XMLID_1262_" class="st1" d="M607.4,751c0.1-0.2,1,0.2,2.7,0.7c1.6,0.4,4.2,0.8,7,0c1.4-0.4,2.9-1.1,4.1-2.1
					c1.3-1.1,2.3-2.6,3-4.3c0.7-1.7,0.9-3.7,0.5-5.6c-0.4-1.9-1.6-3.7-3.2-4.9c-1.6-1.3-3.7-2-5.5-1.9c-1.9,0.1-3.8,0.9-5.4,1.9
					c-3.2,2.1-5.1,5.4-5.3,8.2c-0.1,1.4,0.1,2.7,0.5,3.8c0.4,1.1,0.9,2,1.4,2.6c1,1.3,1.9,1.8,1.8,2.1c-0.1,0.2-1.2,0.1-2.7-1.2
					c-1.5-1.2-3.2-3.8-3.3-7.4c0-3.6,2.1-7.8,5.9-10.5c1.9-1.4,4.2-2.5,6.9-2.7c2.7-0.2,5.5,0.8,7.7,2.5c2.2,1.7,3.8,4.2,4.3,6.8
					c0.6,2.6,0.1,5.3-0.8,7.4c-1,2.2-2.4,4-4.1,5.3c-1.7,1.3-3.6,2-5.3,2.3c-3.5,0.6-6.3-0.3-7.9-1.1C608,752,607.3,751.2,607.4,751
					z"/>
			</g>
		</g>
	</g>
	<g id="XMLID_1192_">
		<g id="XMLID_1265_">
			<g id="XMLID_1269_">
				<path id="XMLID_1270_" class="st1" d="M647.8,748.8c0.1-0.2,1.1,0,2.8,0.2c1.7,0.2,4.3,0.4,7.2-0.4c0.7-0.2,1.4-0.4,2.2-0.8
					c0.7-0.3,1.4-0.7,2.1-1.3c1.3-1,2.5-2.4,3.3-4.1c0.8-1.7,1.1-3.6,0.6-5.5c-0.4-1.8-1.7-3.5-3.4-4.8c-1.7-1.2-3.8-1.9-5.8-2
					c-2-0.1-4,0.4-5.7,1.3c-1.7,0.9-3.1,2.1-4,3.4c-1,1.4-1.5,2.8-1.6,4.3c-0.3,2.9,0.6,5.3,1.5,6.7c0.9,1.5,1.7,2.1,1.5,2.3
					c-0.1,0.2-1.2-0.1-2.5-1.5c-1.3-1.4-2.8-4-2.8-7.6c0-1.8,0.6-3.8,1.7-5.6c1.1-1.8,2.8-3.4,4.9-4.6c2.1-1.2,4.5-1.9,7.2-1.8
					c2.6,0.1,5.3,0.9,7.6,2.5c2.3,1.6,4.1,4,4.6,6.7c0.6,2.7,0.1,5.4-1,7.5c-1.1,2.1-2.6,3.9-4.4,5c-0.9,0.6-1.8,1.1-2.7,1.4
					c-0.9,0.3-1.8,0.6-2.6,0.7c-3.4,0.6-6.2,0-7.9-0.6C648.5,749.6,647.7,749,647.8,748.8z"/>
			</g>
		</g>
	</g>
	<g id="XMLID_1200_">
		<g id="XMLID_1273_">
			<g id="XMLID_1277_">
				<ellipse id="XMLID_1278_" class="st1" cx="552.7" cy="793.5" rx="1.6" ry="22.1"/>
			</g>
		</g>
	</g>
	<g id="XMLID_1208_">
		<g id="XMLID_1281_">
			<g id="XMLID_1285_">
				<ellipse id="XMLID_1286_" class="st1" cx="618.4" cy="771.4" rx="64.4" ry="1.6"/>
			</g>
		</g>
	</g>
	<g id="XMLID_1216_">
		<g id="XMLID_1289_">
			<g id="XMLID_1293_">
				<path id="XMLID_1294_" class="st1" d="M681.5,818.6c0,0.9-28.5,1.6-63.8,1.6s-63.8-0.7-63.8-1.6s28.5-1.6,63.8-1.6
					S681.5,817.7,681.5,818.6z"/>
			</g>
		</g>
	</g>
	<g id="XMLID_1224_">
		<g id="XMLID_1297_">
			<g id="XMLID_1301_">
				<path id="XMLID_1302_" class="st1" d="M682.8,810.1c-0.9,0-1.6-8.3-1.6-18.4s0.7-18.4,1.6-18.4s1.6,8.3,1.6,18.4
					S683.7,810.1,682.8,810.1z"/>
			</g>
		</g>
	</g>
	<g id="XMLID_1232_">
		<g id="XMLID_1305_">
			<g id="XMLID_1309_">
				<ellipse id="XMLID_1310_" class="st1" cx="591.5" cy="785.9" rx="29" ry="1.6"/>
			</g>
		</g>
	</g>
	<g id="XMLID_1240_">
		<g id="XMLID_1313_">
			<g id="XMLID_1317_">
				<path id="XMLID_1318_" class="st1" d="M638,796.2c0,0.9-15.2,1.6-33.8,1.6c-18.7,0-33.8-0.7-33.8-1.6s15.2-1.6,33.8-1.6
					C622.9,794.5,638,795.3,638,796.2z"/>
			</g>
		</g>
	</g>
	<g id="XMLID_1248_">
		<g id="XMLID_1321_">
			<g id="XMLID_1325_">
				<path id="XMLID_1326_" class="st1" d="M635,809.5c0,0.9-12,1.6-26.9,1.6c-14.9,0-26.9-0.7-26.9-1.6s12-1.6,26.9-1.6
					C622.9,807.9,635,808.6,635,809.5z"/>
			</g>
		</g>
	</g>
	<g id="XMLID_1256_">
		<g id="XMLID_1329_">
			<g id="XMLID_1333_">
				<ellipse id="XMLID_1334_" class="st1" cx="645.9" cy="785.9" rx="13.9" ry="1.6"/>
			</g>
		</g>
	</g>
	<g id="XMLID_1264_">
		<g id="XMLID_1337_">
			<g id="XMLID_1341_">
				<path id="XMLID_1342_" class="st1" d="M978.8,586.2c0.9,0,1.6,6.2,1.6,13.9c0,7.7-0.7,13.9-1.6,13.9s-1.6-6.2-1.6-13.9
					C977.2,592.4,977.9,586.2,978.8,586.2z"/>
			</g>
		</g>
	</g>
	<g id="XMLID_1272_">
		<g id="XMLID_1345_">
			<g id="XMLID_1349_">
				<path id="XMLID_1350_" class="st1" d="M1021.7,584.7c0,0.9-7.2,1.6-16.2,1.6c-8.9,0-16.2-0.7-16.2-1.6s7.2-1.6,16.2-1.6
					C1014.5,583,1021.7,583.8,1021.7,584.7z"/>
			</g>
		</g>
	</g>
	<g id="XMLID_1280_">
		<g id="XMLID_1353_">
			<g id="XMLID_1357_">
				<path id="XMLID_1358_" class="st1" d="M868.2,662.9c0,0.9-19.7,1.6-44,1.6s-44-0.7-44-1.6s19.7-1.6,44-1.6
					S868.2,662,868.2,662.9z"/>
			</g>
		</g>
	</g>
	<g id="XMLID_1288_">
		<g id="XMLID_1361_">
			<g id="XMLID_1365_">
				<path id="XMLID_1366_" class="st1" d="M922.7,673.1c0,0.9-19.3,1.6-43,1.6s-43-0.7-43-1.6s19.3-1.6,43-1.6
					S922.7,672.2,922.7,673.1z"/>
			</g>
		</g>
	</g>
</g>
<g id="rocket">
	<path id="XMLID_16_" class="st0" d="M1006,222.1c0-3.3,0.4-8.1,1.6-13.7c2.4-11.1,7.3-20.7,20.7-36.9c8.4-10.1,23.8-27.6,47.3-46
		c6.7-5.2,14.9-11.2,26.6-13c4.8-0.7,13.8-2.1,20.7,3.2c5.7,4.3,7.1,10.9,8.4,17.5c1.4,6.9,2.9,20-2.6,36.9
		c-2.5,7.2-6.3,17.3-11.7,29.2c-4.6,9.9-8,17.4-13.6,25.9c-4.9,7.4-13,17.9-25.9,28.5c-1.4-2.7-2.8-5.4-4.3-8.1
		c-4.2,5.1-8.4,10.2-12.7,15.3c-3.1-4.3-11.6-14.9-24.7-20.3c-5.6-2.3-10.9-3.2-11.7-3.3c-6.3-1-11.6-0.8-15.3-0.3
		c0.7-5.3,1.3-10.7,2-16C1009.4,221.5,1007.7,221.8,1006,222.1z"/>
	<path id="XMLID_17_" class="st0" d="M993,281.4c-0.6-1.8,4.1-3.1,8.3-8.7c3.4-4.5,2.2-6,7-14.3c2.8-5,4.5-6.7,5.7-7.7
		c1.5-1.3,6.3-5.5,10-4c2.1,0.8,2.9,3,3.7,5c1.9,4.8,1,9.3,0,14.3c-1,4.9-2.4,8.2-3.3,10.3c-2.3,5.3-4.3,9.8-7.3,10
		c-1.4,0.1-3-0.7-3.7-2c-1.8-3.3,3.7-8.3,2.3-10c-0.9-1.1-4-0.1-5.7,0.7c-4.7,2.2-4.7,5.7-8.7,7.3C998,283.9,993.6,283,993,281.4z"
		/>
	<path id="XMLID_12_" d="M1005.1,160.9c2.6-1.1,10-3.8,18.9-1.5c5.4,1.4,9.2,4.1,11.3,5.9c11.7-11.1,23.4-22.3,35.1-33.4
		c-3.2-1-7.9-2.2-13.8-2.2c-13.7-0.1-23.6,5.9-29.2,9.3C1015.9,146,1008.9,155,1005.1,160.9z"/>
	<path id="XMLID_14_" d="M1113.9,210c2.2,0.6,4.6,1.5,7.1,2.7c8.6,4.1,14.2,10,17.4,14.2c0.8-2.4,1.7-6.1,2.2-10.6
		c0.6-6.1-0.2-11.3-2-21.6c-2.3-13.7-4.3-18.2-6.4-21.9c-1.1-1.9-2.2-3.4-2.9-4.4C1124.2,182.4,1119,196.2,1113.9,210z"/>
	<g id="XMLID_864_">
		<g>
			<g>
				<path class="st1" d="M1077.2,254.7c-0.1-0.1,0.7-0.9,2.2-2.5c0.8-0.8,1.7-1.7,2.9-2.9c1.1-1.2,2.3-2.5,3.8-4
					c5.6-6.1,13.4-15.3,21-28c3.8-6.3,7.5-13.5,11-21.5c0.8-2,1.7-4,2.5-6.1c0.8-2.1,1.5-4.3,2.3-6.4c0.7-2.2,1.4-4.5,2.1-6.7
					c0.7-2.3,1.2-4.6,1.8-7c1.1-4.7,2.1-9.6,2.8-14.7l0.3-1.9l0.2-1.9c0.1-1.3,0.3-2.6,0.4-3.9c0.3-2.6,0.4-5.2,0.4-7.8
					c-0.1-5.2-0.7-10.5-2.9-15.2c-2.2-4.7-6.3-8.3-11.5-9.1c-2.6-0.5-5.3-0.4-7.9-0.1c-2.7,0.3-5.3,0.9-7.9,1.6
					c-5.2,1.5-10,3.7-14.6,6.3c-4.6,2.6-8.9,5.6-13,8.6c-4.1,3.1-8,6.2-11.7,9.4c-14.9,12.7-26.7,25.9-35.7,37.7
					c-4.5,5.9-8.2,11.5-10.9,16.6c-2.8,5.2-4.7,9.9-5.9,13.8c-2.4,7.9-2.3,12.6-2.6,12.6c-0.1,0-0.2-1.2-0.1-3.4
					c0.1-2.2,0.5-5.5,1.5-9.5c1-4.1,2.8-9,5.5-14.3c2.7-5.3,6.3-11.1,10.7-17.2c8.8-12.1,20.6-25.6,35.6-38.6
					c3.7-3.2,7.7-6.4,11.8-9.6c4.1-3.1,8.5-6.2,13.2-8.9c4.7-2.7,9.8-5.1,15.3-6.7c2.7-0.8,5.5-1.4,8.4-1.8c2.9-0.3,5.9-0.4,8.9,0.2
					c1.5,0.3,3,0.7,4.4,1.3c0.3,0.2,0.7,0.3,1,0.5l1,0.6c0.3,0.2,0.7,0.4,1,0.6l0.9,0.7c2.4,1.9,4.2,4.5,5.5,7.1
					c2.5,5.4,3.2,11.1,3.2,16.6c0,2.7-0.1,5.5-0.5,8.1c-0.1,1.3-0.3,2.6-0.4,3.9l-0.2,2c-0.1,0.6-0.2,1.3-0.3,1.9
					c-0.8,5.1-1.8,10.1-3,15c-0.7,2.4-1.2,4.8-1.9,7.1c-0.7,2.3-1.5,4.6-2.2,6.8c-0.8,2.2-1.6,4.4-2.4,6.5c-0.8,2.1-1.8,4.2-2.6,6.2
					c-3.6,8.1-7.5,15.3-11.5,21.7c-8,12.7-16.2,21.8-22.1,27.7c-1.5,1.5-2.8,2.8-4,3.9c-1.2,1-2.3,1.9-3.1,2.7
					C1078.2,254.1,1077.3,254.8,1077.2,254.7z"/>
			</g>
		</g>
	</g>
	<g id="XMLID_872_">
		<g>
			<g>
				<path class="st1" d="M1078.1,254.1c-0.2,0.1-0.7-1-1.8-2.8c-1.1-1.8-2.9-4.2-5.6-6.9c-1.3-1.4-2.8-2.8-4.4-4.4
					c-1.6-1.6-3.3-3.3-5.2-4.9c-3.7-3.3-8-6.7-13.2-8.7c-2.6-1-5.3-1.6-8-2.2c-2.7-0.6-5.3-1.2-7.8-1.6c-2.5-0.5-4.8-0.9-7-1.1
					c-2.2-0.3-4.3-0.4-6.1-0.4c-7.5-0.1-12,1.9-12.2,1.3c0-0.1,0.2-0.3,0.7-0.6c0.5-0.3,1.3-0.7,2.3-1.1c2-0.8,5.2-1.6,9.1-1.9
					c2-0.1,4.1-0.1,6.4,0c2.3,0.2,4.8,0.4,7.3,0.8c2.5,0.4,5.2,0.9,7.9,1.5c2.7,0.6,5.6,1.2,8.5,2.3c5.8,2.2,10.4,6,14.1,9.6
					c1.9,1.8,3.5,3.6,5.1,5.3c1.5,1.7,2.9,3.3,4.2,4.8c2.5,3,4.2,5.8,5,7.9C1078.2,252.8,1078.3,254,1078.1,254.1z"/>
			</g>
		</g>
	</g>
	<g id="XMLID_880_">
		<g>
			<g>
				<path class="st1" d="M1060.1,263.8c-0.2,0.1-0.9-0.7-2.1-2.2c-1.2-1.5-2.8-3.6-5.1-6.1c-2.3-2.4-5.2-5.2-8.7-7.8
					c-3.5-2.6-7.7-5.1-12.3-7.1c-4.1-1.7-8.1-2.6-12-2.4c-1.9,0.1-3.9,0.3-5.7,0.4c-0.9,0.1-1.9,0.1-2.8,0.1c-1.3,0-2.7-0.1-3.9-0.3
					c0.1-0.8,0.2-1.6,0.2-2.4c0-0.4,0.1-0.8,0.1-1.1c0-0.2,0.1-0.5,0.1-0.7c0.1-0.9,0.3-1.8,0.4-2.7c0.3-1.7,0.6-3.1,1-4.2
					c0.6-2.3,1.2-3.5,1.4-3.5c0.3,0.1,0.2,1.4,0,3.7c-0.1,1.2-0.2,2.6-0.3,4.2c-0.1,0.8-0.1,1.7-0.2,2.6c0,0.2,0,0.5,0,0.7l0,0.3
					c0,0.2,0,0.4,0,0.6c0.4,0,0.6,0,1.1,0c0.8,0,1.7-0.1,2.6-0.2c1.8-0.2,3.7-0.5,5.8-0.6c2.1-0.1,4.4,0,6.7,0.4
					c2.3,0.4,4.5,1.1,6.7,2c9.9,4.2,17.2,10.9,21.5,16.4c2.2,2.7,3.6,5.2,4.4,6.9C1059.9,262.6,1060.3,263.7,1060.1,263.8z"/>
			</g>
		</g>
	</g>
	<g id="XMLID_888_">
		<g>
			<g>
				<path class="st1" d="M1073.2,246.1c0.8,0.4-1,5.1-5,9.6c-4,4.6-8.3,7-8.9,6.3c-0.6-0.7,2.7-4.1,6.4-8.4
					C1069.4,249.3,1072.4,245.7,1073.2,246.1z"/>
			</g>
		</g>
	</g>
	<g id="XMLID_896_">
		<g>
			<g>
				<path class="st1" d="M992.2,281.6c-0.3-0.4,2.2-2.1,5.3-5.5c3.2-3.3,6.9-8.6,8.9-15.2c0.5-1.6,0.9-3.4,1.6-5.2
					c0.6-1.7,1.7-3.5,3-4.7c1.3-1.2,2.7-2,3.9-2.7c1.3-0.7,2.4-1.3,3.6-1.8c1.2-0.5,2.4-0.8,3.4-0.8c1.1,0,2,0.2,2.7,0.5
					c1.4,0.7,1.7,1.5,1.6,1.6c-0.2,0.2-0.8-0.3-1.9-0.4c-0.6-0.1-1.3-0.1-2.1,0.1c-0.8,0.2-1.7,0.5-2.6,1.1c-0.9,0.5-2,1.3-3.2,2
					c-1.1,0.8-2.3,1.6-3.2,2.6c-1,1-1.6,2.1-2.1,3.6c-0.5,1.5-0.9,3.2-1.4,5c-2.2,7.3-6.7,12.9-10.5,15.9
					C995.3,280.9,992.4,281.9,992.2,281.6z"/>
			</g>
		</g>
	</g>
	<g id="XMLID_904_">
		<g>
			<g>
				<path class="st1" d="M1026.2,247.7c0.1,0,0.3,0.2,0.6,0.7c0.3,0.5,0.8,1.2,1.1,2.3c0.9,2,1.7,5.2,1.8,9.2
					c0.2,4-0.5,8.8-2.5,13.8c-1,2.5-2.4,4.9-4.1,7.3c-0.5,0.6-0.9,1.2-1.4,1.7c-0.5,0.5-1,1.1-1.5,1.7c-0.5,0.5-1.1,1-1.7,1.6
					l-0.4,0.4c-0.1,0.1-0.4,0.3-0.6,0.4c-0.2,0.1-0.5,0.3-0.8,0.5c-0.3,0.1-0.6,0.3-0.9,0.4c-0.9,0.3-1.9,0.4-2.7,0.1
					c-0.4-0.1-0.8-0.4-1.1-0.7c-0.3-0.3-0.5-0.7-0.7-1.1c-0.4-1-0.2-2.1,0.3-3.2c0.1-0.3,0.2-0.6,0.3-0.8c0.1-0.2,0.2-0.3,0.3-0.5
					c0.2-0.3,0.4-0.6,0.6-0.9c0.4-0.6,0.7-1.1,1-1.6c0.3-0.5,0.6-1,0.7-1.4c0.3-0.8,0.2-1.9-0.2-2.4c-0.2-0.3-0.3-0.4-0.5-0.4
					c-0.2-0.1-0.5-0.1-0.8,0.1c-0.7,0.3-1.5,1-2.4,1.7c-0.8,0.7-1.6,1.5-2.4,2.2c-1.6,1.4-3.1,2.7-4.7,3.7c-3.2,2-6.5,2.4-8.5,1.9
					c-2.1-0.4-3-1.3-2.9-1.4c0.1-0.2,1.1,0.2,3,0.2c1.8,0,4.5-0.6,7.2-2.6c1.4-1,2.7-2.2,4.2-3.7c0.7-0.7,1.5-1.5,2.3-2.3
					c0.8-0.7,1.6-1.7,3.1-2.4c0.7-0.3,1.7-0.5,2.7-0.3c1,0.2,1.9,0.9,2.3,1.7c1,1.6,1,3.3,0.6,4.9c-0.3,0.9-0.6,1.5-1,2.1
					c-0.4,0.6-0.7,1.2-1.1,1.7c-0.2,0.3-0.3,0.5-0.5,0.8c-0.1,0.1-0.1,0.3-0.2,0.4c-0.1,0.1-0.1,0.1-0.1,0.2
					c-0.1,0.1-0.1,0.3-0.1,0.5c0.1,0.3,0.4,0.3,0.7,0.2c0,0,0.1,0,0.1-0.1c0.1,0,0,0,0.2-0.1c0.1-0.1,0.2-0.1,0.3-0.2l0.4-0.3
					c0.5-0.5,1-0.9,1.5-1.4c0.5-0.5,0.9-1,1.4-1.5c0.4-0.5,0.8-1,1.3-1.6c1.6-2.1,2.9-4.3,3.9-6.6c1.9-4.5,2.8-8.9,2.9-12.6
					c0.1-3.7-0.3-6.8-0.7-8.8c-0.2-1.1-0.4-1.8-0.5-2.4C1026.1,248.1,1026.1,247.8,1026.2,247.7z"/>
			</g>
		</g>
	</g>
	<g id="XMLID_912_">
		<g>
			<g>
				<path class="st1" d="M1077.7,182.5c0.1-0.3,1.6,0.2,4.5,0.4c2.8,0.1,7-0.3,11.3-2.7c2.1-1.2,4.3-2.9,6-5.2
					c1.7-2.3,3-5.1,3.5-8.3c0.5-3.1,0.3-6.6-0.8-9.8c-1.1-3.2-3.3-6.4-6.2-8.1c-2.9-1.8-6.6-1.6-9.8-0.4c-3.2,1.2-6,3.4-8.6,5.5
					c-2.6,2.1-4.9,4.2-5.7,6.8c-0.9,2.5-0.5,5.3-0.1,7.7c0.5,2.5,1,4.8,1.7,6.6c0.7,1.9,1.5,3.4,2.3,4.5c0.8,1.1,1.7,1.8,2.3,2.2
					c0.6,0.4,1,0.7,0.9,0.8c0,0.1-0.5,0.1-1.2-0.2c-0.8-0.3-1.8-0.9-2.9-2c-1.1-1.1-2.1-2.7-3-4.6c-0.9-2-1.6-4.3-2.3-6.8
					c-0.3-1.3-0.6-2.7-0.7-4.2c-0.1-1.5,0-3.2,0.5-4.8c0.5-1.7,1.5-3.2,2.6-4.6c1.1-1.4,2.5-2.5,3.8-3.7c2.6-2.2,5.6-4.7,9.4-6.2
					c1.9-0.7,4-1.2,6.2-1.2c2.2,0,4.5,0.6,6.4,1.7c3.9,2.3,6.3,6.1,7.6,9.9c1.3,3.8,1.5,7.8,0.8,11.4c-0.7,3.6-2.2,6.9-4.3,9.4
					c-2.1,2.6-4.6,4.4-7.1,5.5c-5,2.4-9.6,2.4-12.5,1.9C1079.1,183.6,1077.7,182.7,1077.7,182.5z"/>
			</g>
		</g>
	</g>
	<g id="XMLID_920_">
		<g>
			<g>
				<path class="st1" d="M1037,165.6c-0.3,0.4-1.9-0.4-4.6-1.4c-2.7-1-6.4-2.2-10.6-2.7c-4.2-0.5-8.2-0.4-11.1-0.4
					c-2.9,0-4.8-0.2-4.8-0.7c0-0.4,1.7-1.1,4.6-1.6c2.9-0.5,7.1-1.1,11.7-0.5c4.7,0.5,8.7,2.2,11.2,3.8
					C1036,163.8,1037.3,165.3,1037,165.6z"/>
			</g>
		</g>
	</g>
	<g id="XMLID_928_">
		<g>
			<g>
				<path class="st1" d="M1069.8,130.4c-0.1,0.5-4.3-0.1-11.1,0.4c-3.4,0.3-7.4,0.8-11.7,2c-4.3,1.2-8.9,2.9-13.5,5.2
					c-4.6,2.3-8.8,4.9-12.5,7.5c-3.6,2.6-6.7,5.3-9.3,7.5c-2.5,2.2-4.2,4.3-5,6c-0.8,1.6-0.9,2.7-1.1,2.7c-0.2,0-0.6-1.1-0.1-3.2
					c0.5-2,2.1-4.6,4.5-7.2c2.4-2.5,5.4-5.4,9.1-8.3c3.7-2.8,8-5.6,12.8-8c4.8-2.4,9.7-4.1,14.2-5.2c4.5-1.1,8.8-1.4,12.3-1.4
					C1065.8,128.5,1069.9,130,1069.8,130.4z"/>
			</g>
		</g>
	</g>
	<g id="XMLID_936_">
		<g>
			<g>
				<path class="st1" d="M1138.8,224.5c-0.5-0.1,0-3.5,0.2-8.9c0-0.7,0.1-1.4,0.1-2.1c0-0.7,0-1.5,0-2.3c0-1.6,0-3.3-0.1-5
					c-0.2-3.5-0.5-7.4-1.2-11.5c-0.7-4-1.6-7.8-2.6-11.2c-0.5-1.7-1-3.3-1.6-4.8c-0.3-0.7-0.5-1.5-0.8-2.2c-0.3-0.7-0.5-1.3-0.8-2
					c-2-5-3.5-8-3.1-8.3c0.3-0.2,2.6,2.4,5.2,7.3c0.3,0.6,0.6,1.3,1,1.9c0.3,0.7,0.6,1.4,1,2.2c0.7,1.5,1.3,3.1,1.9,4.9
					c1.2,3.5,2.2,7.4,2.9,11.6c0.7,4.2,1,8.3,1,11.9c0,1.8-0.1,3.6-0.2,5.2c-0.1,0.8-0.1,1.6-0.2,2.4c-0.1,0.8-0.2,1.5-0.3,2.2
					C1140.4,221.4,1139.2,224.6,1138.8,224.5z"/>
			</g>
		</g>
	</g>
	<g id="XMLID_944_">
		<g>
			<g>
				<path class="st1" d="M1137.9,227.2c-0.5,0.1-1.3-1.4-3.4-3.1c-1-0.9-2.4-1.8-4-2.8c-1.6-1-3.3-2.2-5.2-3.4
					c-7.3-4.8-13.6-8.2-13.2-9.1c0.3-0.8,7.4,1.4,15,6.3c1.9,1.2,3.6,2.5,5.2,3.7c1.5,1.2,2.9,2.4,3.9,3.7c1,1.2,1.6,2.4,1.8,3.3
					C1138.1,226.6,1138.1,227.2,1137.9,227.2z"/>
			</g>
		</g>
	</g>
</g>
<g id="character">
	<path id="XMLID_8_" d="M1295.4,1101.6c0.1,6.9,0.2,13.9,0.3,20.8c-10.6,4.4-19.4,6.8-25.8,8.2c-8.3,1.8-15.6,2.6-19.6,8.5
		c-1.9,2.7-2.4,5.6-2.6,7.6c13.5,0.8,29.4,0.6,47.2-2.1c8.3-1.2,16.1-2.9,23.2-4.7c0.9-26.4-0.4-39.9-3.8-40.5
		c-0.9-0.2-2,0.6-3.2,2.3C1305.8,1101.8,1300.6,1101.7,1295.4,1101.6z"/>
	<path id="XMLID_9_" d="M1328,1124.4c0.1-2,2.3-3.6,7.3-5.9c7-3.2,13-4.9,17.6-6.2c5.3-1.5,9.4-2.6,11.7-3.2
		c0.2-4.7,0.4-9.4,0.6-14.1c3.7,0,9.2-0.4,15.2-2.6c3-1.1,5.6-2.5,7.6-3.8c0.6,11.8,1.2,23.7,1.8,35.5c-13.8,1.1-24.9,2.9-32.5,4.4
		c-9.4,1.8-21.8,4.7-27.3-0.3C1329.5,1127.8,1327.8,1126.3,1328,1124.4z"/>
	<path id="XMLID_4_" class="st0" d="M1265.1,505.1c-3.4,1.6-5.9,4.4-10.8,10c-7.4,8.3-12,16.4-14.7,22.1c1.9,1.5,4.5,4.1,6.1,7.8
		c2.1,5.1,0.5,7.9,1.3,14.7c0.5,4.5,1.3,11.6,6.1,16.5c4.7,4.8,9.1,3,14.7,8.2c3.5,3.2,5.2,7,6.1,9.5c-3.1,1.5-7.8,4.1-12.6,8.2
		c-5.4,4.6-8.5,8.9-10.8,12.1c-13.5,18.8-20.2,28.1-23,33c-6.9,11.9-12.1,23.3-16.1,33.8c-0.1,3.8,0.1,9.7,2.2,16.5
		c1.4,4.6,6,17.1,18.7,26c7.5,5.3,15,7.4,20,8.2c-1.5,1.8-3.8,5-4.8,9.5c-2.2,10.1,3.7,18.2,4.8,19.5c-1.2,11.1-2.3,22.3-3.5,33.4
		c2.5,1.4,4.9,2.9,7.4,4.3c0.1,8.5,0.4,20.6,0.9,35.1c0.3,8.8,1.4,39.4,5.2,90.2c2.4,31.5,4.1,55.4,7.8,88.1
		c3.9,34.5,8.1,63.7,11.7,85.9c2.7,2,9.6,6.3,19.1,6.5c15.2,0.3,24.9-10,26.5-11.7c1.2-2.6,2.3-5.2,3.5-7.8
		c-1-9.5-1.9-19.2-2.6-29.1c-2.6-33.6-3.4-65.8-3-96.3c1.4,6.6,3.6,16.7,6.1,29.1c3.7,18.1,5.9,29.7,8.2,42.1
		c2.5,13.2,6.3,32.2,11.3,56c2.5,2,7.5,5.5,14.7,6.5c9.9,1.3,17.5-3,20.4-4.8c5.9-3.6,9.5-8.1,11.3-10.8c-1.4-8.1-3.4-20.1-5.6-34.7
		c-5-32.9-6.6-51.5-10.8-88.5c-4.2-37.1-3.9-30.4-10.8-89.4c-3.8-32.4-6.8-58.6-8.7-75.5c2.3-2.9,4.6-5.8,6.9-8.7
		c1.3-11.7,1.9-26,0.4-42.1c-1.1-11.9-3-22.5-5.2-31.7c2.6-2.3,6.4-6.1,9.5-11.7c6.7-12.1,5.7-23.8,5.2-28.6
		c-1.1-11.3-5.6-19.2-7.8-23c-3.5-6-4.8-6-13.9-17.4c-10.3-12.9-10.2-14.9-16-21.3c-4.4-4.7-11.5-11.1-22.6-16.9
		c1.5-3.4,13.4-31.7-1.7-56.8C1304.4,512.6,1279.3,498.4,1265.1,505.1z"/>
	<path id="XMLID_2_" d="M1258.6,511.2c-2.2-2-7.9-7.8-9.1-16.9c-0.4-3.1-1.3-10,3-15.2c5.2-6.3,14.4-5.8,16.9-5.6
		c14.9,0.9,23.6,15,24.7,16.9c0.4-3.5,0.9-6.9,1.3-10.4c1.9,2.2,5.3,5.6,10,9.1c11.9,8.7,18.6,7.2,29.1,15.6
		c4.5,3.6,9.8,7.8,12.1,15.2c3.2,9.8-0.6,19.6-2.2,23.9c-1.7,4.4-3.7,7.8-5.2,10c-0.1,3.5-0.6,8.5-2.2,14.3
		c-2.4,8.4-5.8,20.7-16.9,26.5c-6.8,3.5-16.1,4.4-24.3,0.4c-14.1-6.8-15.5-23.4-15.6-25.2c-0.5-7,1.6-12.6,3-15.6
		c0.9-0.4,7.7-3.9,9.1-11.3c0.2-1.3,1.6-8.6-3.5-12.1c-3.5-2.4-8.6-2.1-12.6,0.9c-4.2-8.1-8.4-16.2-12.6-24.3
		C1262.1,508.6,1260.4,509.9,1258.6,511.2z"/>
	<g id="XMLID_5_">
		<g id="XMLID_62_">
			<g id="XMLID_67_">
				<path id="XMLID_68_" class="st1" d="M1275.4,596.9c-0.2,0.1-0.7-0.7-1.4-2.1c-0.8-1.4-2-3.3-3.9-5.3c-1.9-2-4.4-4.1-7.7-5.6
					c-1.7-0.8-3.6-1.5-5.5-2.7c-1.9-1.2-3.7-2.8-5.1-4.7c-2.9-3.8-4.5-8.1-5.2-12c-0.7-3.9-0.7-7.5-0.5-10.4
					c0.2-2.9,0.5-5.3,0.9-6.9c0.3-1.6,0.6-2.5,0.8-2.5c0.5,0,0.5,3.7,0.6,9.4c0.1,2.8,0.3,6.2,1.1,9.8c0.8,3.5,2.3,7.3,4.8,10.6
					c1.2,1.6,2.7,2.9,4.3,4c1.6,1,3.4,1.8,5.1,2.7c3.6,1.8,6.4,4.4,8.2,6.8c1.8,2.4,2.8,4.7,3.2,6.3
					C1275.6,595.9,1275.6,596.8,1275.4,596.9z"/>
			</g>
		</g>
	</g>
	<g id="XMLID_6_">
		<g id="XMLID_72_">
			<g id="XMLID_76_">
				<path id="XMLID_77_" class="st1" d="M1279.5,552.4c0.1-0.2,0.8-0.1,1.9-0.1c1.1-0.1,2.6-0.4,4.2-1.5c1.6-1.1,3.2-2.7,4.3-5.1
					c1.1-2.3,1.8-5.1,1.2-7.9c-0.5-2.7-2.4-5-4.4-6.1c-2.1-1.2-4.3-1.1-6.1-0.4c-1.7,0.7-2.9,1.8-3.5,2.7c-0.6,0.9-0.9,1.5-1.2,1.5
					c-0.2,0-0.4-0.8,0-2c0.4-1.3,1.5-3,3.6-4.2c1.1-0.6,2.4-1.1,3.8-1.2c1.5-0.1,3.1,0.2,4.6,0.9c3,1.4,5.5,4.4,6.3,8.2
					c0.8,3.7-0.2,7.3-1.7,10c-0.7,1.3-1.7,2.6-2.7,3.5c-1,1-2.1,1.7-3.2,2.2c-2.2,1-4.2,1.1-5.5,0.7
					C1279.9,553.1,1279.4,552.5,1279.5,552.4z"/>
			</g>
		</g>
	</g>
	<g id="XMLID_7_">
		<g id="XMLID_81_">
			<g id="XMLID_85_">
				<path id="XMLID_86_" class="st1" d="M1297.7,492.6c-0.1,0.2-1.3-0.4-3.1-1.7c-1.8-1.3-4.3-3.6-7.2-6.3c-2.9-2.7-6.4-6-10.8-8.3
					c-2.2-1.1-4.7-2-7.3-2.2c-2.6-0.2-5.3,0.4-7.9,1.4c-2.6,1.2-4.8,2.8-6.6,4.8c-1.8,2-3.1,4.2-3.8,6.6c-1.5,4.7-1,9.4,0.2,13
					c0.6,1.8,1.3,3.4,2.1,4.7c0.7,1.4,1.5,2.4,2.2,3.3c1.3,1.7,2.2,2.6,2.1,2.8c-0.1,0.2-1.3-0.4-3-2c-0.8-0.8-1.8-1.8-2.8-3.2
					c-1-1.3-1.9-3-2.7-4.9c-1.6-3.9-2.5-9.1-0.9-14.7c1.6-5.5,6-10.8,12-13.5c3-1.3,6.3-2,9.5-1.6c3.2,0.2,6,1.3,8.5,2.7
					c4.9,2.7,8.3,6.4,11.1,9.3c2.7,3,4.8,5.4,6.4,7C1297,491.6,1297.9,492.4,1297.7,492.6z"/>
			</g>
		</g>
	</g>
	<g id="XMLID_13_">
		<g id="XMLID_89_">
			<g id="XMLID_93_">
				<path id="XMLID_94_" class="st1" d="M1339.3,554.2c-0.2-0.1,0.4-1.6,1.5-4.2c1.1-2.6,2.7-6.3,4-11.1c0.6-2.4,1.2-5,1.3-7.9
					c0.2-2.8,0-5.9-0.9-8.9c-0.4-1.5-1-3-1.8-4.4c-0.8-1.4-1.7-2.8-2.8-4.1c-1.1-1.3-2.3-2.6-3.7-3.7c-1.4-1.2-2.9-2.2-4.4-3.3
					c-7.5-4.9-15.8-7.7-22.6-11.4c-3.4-1.8-6.5-3.8-9.1-6c-0.6-0.6-1.3-1.1-1.8-1.6c-0.3-0.3-0.6-0.6-0.8-0.8l-0.2-0.2l-0.1-0.1
					l-0.2-0.2c-0.2-0.3-0.5-0.6-0.7-0.9c-0.2-0.3-0.5-0.6-0.7-1l-0.2-0.4l-0.1-0.2l0,0l0,0l0,0.1c0,0.2-0.1,0.4-0.1,0.6
					c-0.1,0.4-0.1,0.8-0.1,1.2c0,0.4,0,0.8,0,1.2c0,0.4,0,0.7,0.1,1.2c0.2,1.8,0.4,2.9,0.2,2.9c-0.2,0.1-0.7-0.9-1.2-2.7
					c-0.1-0.4-0.3-1.1-0.4-1.9c-0.1-0.8-0.2-1.6-0.2-2.5c0-0.9,0-1.8,0-2.8c0-0.5,0.1-1.1,0.1-1.6l0-0.2l0-0.1l0,0l0.1-0.1
					c0.1,0,0.1-0.1,0.2-0.2c0.3,0.4,0.6,0.8,0.9,1.2c0.3,0.4,0.7,0.9,1,1.3c0.4,0.5,0.7,0.9,1.1,1.4c0.4,0.4,0.7,0.8,1.1,1.2
					l0.6,0.6l0.3,0.3c0.1,0.1,0.1,0.1,0.2,0.2c0.3,0.2,0.6,0.5,0.8,0.7c0.6,0.5,1.2,1,1.8,1.5c2.5,1.9,5.5,3.7,8.9,5.4
					c3.4,1.7,7.1,3.3,11,5c3.9,1.8,8.1,3.7,12,6.3c1.7,1.1,3.3,2.2,4.7,3.5c1.5,1.3,2.9,2.7,4.1,4.1c1.2,1.5,2.2,3.1,3.1,4.7
					c0.8,1.7,1.5,3.4,1.9,5.1c0.9,3.4,1,6.8,0.7,9.9c-0.3,3.1-1,5.9-1.8,8.3c-1.7,4.9-3.6,8.6-5.1,11
					C1340.5,553,1339.5,554.3,1339.3,554.2z"/>
			</g>
		</g>
	</g>
	<g id="XMLID_20_">
		<g id="XMLID_97_">
			<g id="XMLID_101_">
				<path id="XMLID_102_" class="st1" d="M1338.6,553.3c0.2,0,0.6,1.6,0.5,4.5c0,2.9-0.7,7.2-2.5,12.1c-1.8,4.9-4.6,10.4-8.3,16.3
					c-1,1.5-2.1,2.9-3.4,4.3c-1.3,1.4-2.8,2.6-4.5,3.6c-3.3,2.1-7.2,3.5-11.4,3.9c-4.2,0.4-8.3-0.4-11.9-1.9
					c-3.6-1.6-6.7-3.9-9.1-6.6c-2.4-2.7-4-5.8-5-8.7c-1.1-2.9-1.7-5.7-2.3-8.2c-1.1-5.1-1.1-9.5-0.4-12.4c0.6-2.9,1.6-4.3,1.8-4.2
					c0.2,0.1-0.3,1.6-0.5,4.4c-0.2,2.8,0.1,6.8,1.4,11.7c0.7,2.4,1.5,5.1,2.6,7.8c1.1,2.7,2.6,5.4,4.7,7.7c2.2,2.3,4.9,4.3,8.1,5.6
					c3.2,1.3,6.8,2,10.4,1.6c3.6-0.3,7.1-1.5,10-3.3c1.5-0.9,2.8-2,4-3.1c1.2-1.2,2.2-2.5,3.1-3.8c3.7-5.5,6.6-10.8,8.6-15.4
					c2-4.6,2.9-8.6,3.3-11.4C1338.3,554.9,1338.4,553.4,1338.6,553.3z"/>
			</g>
		</g>
	</g>
	<g id="XMLID_27_">
		<g id="XMLID_105_">
			<g id="XMLID_109_">
				<path id="XMLID_110_" class="st1" d="M1282.4,526c0,0.2-0.4,0.5-1.3,0.7c-0.9,0.2-2.3,0.2-3.9-0.4c-1.6-0.5-3.3-1.6-4.9-3.1
					c-1.5-1.5-2.8-3.5-4-5.5c-2.3-4-3.9-8-4.7-10.9c-0.9-2.9-1-4.8-0.6-5c0.9-0.3,3.7,6.5,8.2,14.2c1.1,1.9,2.2,3.7,3.3,5.1
					c1.2,1.4,2.4,2.4,3.6,3C1280.5,525.6,1282.4,525.6,1282.4,526z"/>
			</g>
		</g>
	</g>
	<g id="XMLID_48_">
		<g id="XMLID_113_">
			<g id="XMLID_117_">
				<path id="XMLID_118_" class="st1" d="M1258.6,531.5c-0.9-0.2-0.7-3.6,1.1-7.2c1.7-3.6,4.2-5.9,5-5.4c0.7,0.5-0.4,3.4-2,6.8
					C1261,529,1259.4,531.8,1258.6,531.5z"/>
			</g>
		</g>
	</g>
	<g id="XMLID_50_">
		<g id="XMLID_121_">
			<g id="XMLID_125_">
				<path id="XMLID_126_" class="st1" d="M1259.8,546.8c0.4,0.1,0.7,1.1,0.3,2.6c-0.4,1.5-1.9,3.5-4.2,4.5c-2.4,1-4.8,0.5-6.2-0.2
					c-1.4-0.8-1.9-1.7-1.6-2c0.3-0.4,1.1-0.2,2.3-0.2c1.2,0.1,2.8,0,4.3-0.6c1.5-0.6,2.7-1.7,3.5-2.6
					C1258.9,547.4,1259.4,546.7,1259.8,546.8z"/>
			</g>
		</g>
	</g>
	<g id="XMLID_52_">
		<g id="XMLID_129_">
			<g id="XMLID_133_">
				<path id="XMLID_134_" class="st1" d="M1260.5,550.2c-0.5,0-0.9-0.4-1.2-0.9c-0.4-0.5-0.7-1.1-1-1.9c-0.3-0.7-0.6-1.4-0.7-2
					c-0.1-0.6-0.1-1.1,0.2-1.5c0.3-0.3,0.9-0.4,1.6,0c0.7,0.4,1.5,1.1,1.9,2.2c0.5,1,0.5,2.1,0.3,2.9
					C1261.4,549.8,1261,550.2,1260.5,550.2z"/>
			</g>
		</g>
	</g>
	<g id="XMLID_3_">
		<g id="XMLID_104_">
			<g id="XMLID_127_">
				<path id="XMLID_128_" class="st1" d="M1248,547.2c-0.2,0.1-0.6-0.2-1.3-0.6c-0.7-0.5-1.6-1.1-2.9-1.9c-0.6-0.4-1.3-0.9-2.1-1.6
					c-0.7-0.6-1.5-1.5-2.1-2.6c-0.5-1.1-0.8-2.5-0.7-3.9c0.1-1.3,0.6-2.6,1.1-3.7c0.6-1.1,1.2-2.1,1.9-3.1c0.7-0.9,1.3-1.7,2-2.5
					c1.3-1.6,2.6-2.9,3.7-3.9c2.3-2.1,3.9-3.1,4.2-2.8c0.3,0.3-0.7,1.9-2.5,4.3c-0.9,1.2-1.9,2.6-3,4.2c-0.6,0.8-1.1,1.6-1.7,2.5
					c-0.6,0.9-1.1,1.7-1.6,2.7c-0.9,1.8-1.2,3.5-0.7,4.9c0.5,1.4,1.8,2.6,2.9,3.6c1.1,1.1,2,2.1,2.4,2.9
					C1248.1,546.5,1248.2,547.1,1248,547.2z"/>
			</g>
		</g>
	</g>
	<g id="XMLID_34_">
		<g id="XMLID_136_">
			<path id="XMLID_140_" class="st2" d="M1254.6,536.7"/>
		</g>
	</g>
	<g id="XMLID_53_">
		<g id="XMLID_143_">
			<path id="XMLID_147_" class="st2" d="M1255.9,536.3"/>
		</g>
	</g>
	<g id="XMLID_54_">
		<g id="XMLID_151_">
			<g id="XMLID_155_">
				<path id="XMLID_156_" class="st1" d="M1265.9,532.4c0.2,0.4,0.3,0.8,0.1,1.2c-0.2,0.4-0.6,0.7-1.1,0.8c-0.5,0.1-1-0.1-1.3-0.4
					c-0.3-0.3-0.4-0.8-0.3-1.2c0.1-0.4,0.3-0.8,0.5-1.1c0.2-0.3,0.4-0.5,0.6-0.5c0.2,0,0.5,0.1,0.7,0.3
					C1265.4,531.7,1265.7,532,1265.9,532.4z"/>
			</g>
		</g>
	</g>
	<g id="XMLID_56_">
		<g id="XMLID_159_">
			<g id="XMLID_163_">
				<path id="XMLID_164_" class="st1" d="M1256.3,537.1c-0.4,0.8-1.3,1.2-2.2,0.8c-0.8-0.4-1.2-1.3-0.9-2.2c0.4-0.8,1.3-1.2,2.2-0.8
					C1256.3,535.4,1256.7,536.3,1256.3,537.1z"/>
			</g>
		</g>
	</g>
	<g id="XMLID_57_">
		<g id="XMLID_167_">
			<g id="XMLID_171_">
				<path id="XMLID_172_" class="st1" d="M1264.6,539.9c-0.2,0.9-0.8,1.5-1.4,1.4c-0.6-0.1-0.9-0.9-0.8-1.8s0.8-1.5,1.4-1.4
					C1264.5,538.2,1264.8,539,1264.6,539.9z"/>
			</g>
		</g>
	</g>
	<g id="XMLID_58_">
		<g id="XMLID_175_">
			<g id="XMLID_179_">
				<path id="XMLID_180_" class="st1" d="M1283.3,597.1c-0.2,0.5-1.8,0.2-4.3,0.2c-0.6,0-1.3,0-2,0c-0.7,0-1.5,0.1-2.3,0.2
					c-1.6,0.3-3.3,0.6-5.1,1.3c-1.8,0.6-3.3,1.4-4.7,2.3c-0.7,0.4-1.3,0.8-1.9,1.3c-0.6,0.4-1.1,0.8-1.6,1.2c-1.9,1.6-3,2.8-3.4,2.6
					c-0.4-0.2,0.1-1.9,1.7-4.2c0.4-0.6,0.9-1.1,1.5-1.7c0.6-0.6,1.3-1.1,2-1.7c1.5-1.1,3.3-2.1,5.3-2.8c2-0.7,4.1-1.1,5.9-1.2
					c0.9,0,1.8,0,2.6,0.1c0.8,0.1,1.6,0.2,2.3,0.4C1282,595.7,1283.4,596.7,1283.3,597.1z"/>
			</g>
		</g>
	</g>
	<g id="XMLID_61_">
		<g id="XMLID_183_">
			<g id="XMLID_187_">
				<path id="XMLID_188_" class="st1" d="M1212.9,678.3c-0.4-0.1,0.4-5,3.2-12.6c0.4-0.9,0.7-1.9,1.1-2.9c0.4-1,0.9-2,1.4-3.1
					c0.9-2.2,2.1-4.4,3.3-6.8c2.5-4.7,5.5-9.7,8.9-14.8c6.9-10.1,14-18.6,19.3-24.5c5.3-5.9,8.8-9.4,9.2-9.1
					c0.4,0.3-2.5,4.3-7.4,10.6c-4.8,6.3-11.6,14.9-18.4,24.9c-3.4,5-6.4,9.9-9,14.4c-1.2,2.3-2.5,4.4-3.5,6.5c-0.5,1-1,2-1.5,3
					c-0.5,1-0.9,1.9-1.3,2.8C1215,673.8,1213.4,678.5,1212.9,678.3z"/>
			</g>
		</g>
	</g>
	<g id="XMLID_80_">
		<g id="XMLID_191_">
			<g id="XMLID_195_">
				<path id="XMLID_196_" class="st1" d="M1256.8,732.3c0,0.2-1.2,0.3-3.3,0.1c-2.1-0.2-5.1-0.7-8.7-1.9c-3.6-1.2-7.7-3.1-11.9-5.9
					c-4.2-2.8-8.3-6.6-11.8-11.3c-3.5-4.7-5.9-9.7-7.4-14.5c-1.5-4.8-2.2-9.3-2.3-13.1c-0.1-3.8,0.2-6.8,0.6-8.9
					c0.4-2.1,0.8-3.1,1.1-3.1c0.5,0.1-0.2,4.6,0.6,11.8c0.4,3.6,1.2,7.8,2.8,12.3c1.6,4.5,3.9,9.2,7.2,13.5c3.3,4.4,7.1,8,10.9,10.8
					c3.8,2.8,7.6,4.8,11,6.2C1252.3,731.1,1256.8,731.7,1256.8,732.3z"/>
			</g>
		</g>
	</g>
	<g id="XMLID_96_">
		<g id="XMLID_199_">
			<g id="XMLID_203_">
				<path id="XMLID_204_" class="st1" d="M1261.2,699.7c0,0.2-1,0.3-2.5-0.3c-0.8-0.3-1.6-0.8-2.6-1.5c-0.9-0.7-1.8-1.7-2.7-2.9
					c-1.7-2.4-2.9-5.9-2.8-9.8c0.1-3.9,1.4-8,3.2-11.8c3.7-7.6,8.3-13.8,12.4-17.6c4.1-3.8,7.3-5.2,7.5-4.9c0.3,0.4-2.4,2.4-5.9,6.5
					c-3.5,4-7.6,10.2-11.1,17.4c-1.7,3.6-2.9,7.2-3.1,10.5c-0.3,3.3,0.6,6.2,1.8,8.4c0.6,1.1,1.3,2,1.9,2.7c0.7,0.7,1.4,1.3,1.9,1.7
					C1260.5,699.1,1261.3,699.5,1261.2,699.7z"/>
			</g>
		</g>
	</g>
	<g id="XMLID_141_">
		<g id="XMLID_207_">
			<g id="XMLID_211_">
				<path id="XMLID_212_" class="st1" d="M1256.5,733c-0.4-0.3,0.4-2.1,1.4-5.1c1-3,2.2-7.2,2.7-11.9c0.3-2.4,0.4-4.7,0.4-6.7
					c0-2.1-0.1-3.9-0.3-5.4c-0.5-3-1.6-4.6-1.2-5c0.2-0.1,0.7,0.1,1.4,0.8c0.7,0.7,1.5,1.9,2.1,3.6c0.6,1.6,1,3.7,1.1,5.9
					c0.2,2.2,0.2,4.7-0.1,7.2c-0.6,5.1-2.2,9.6-3.8,12.5C1258.4,731.8,1256.9,733.2,1256.5,733z"/>
			</g>
		</g>
	</g>
	<g id="XMLID_148_">
		<g id="XMLID_215_">
			<g id="XMLID_219_">
				<path id="XMLID_220_" class="st1" d="M1272.5,714.5c-0.2,0.4-0.9,0.6-2.1,0.4c-1.1-0.2-2.6-0.7-4.1-1.7
					c-1.4-0.9-2.5-2.1-3.1-3.1c-0.6-1-0.8-1.7-0.4-2c0.7-0.6,2.9,0.7,5.4,2.4C1270.7,712.2,1272.8,713.6,1272.5,714.5z"/>
			</g>
		</g>
	</g>
	<g id="XMLID_150_">
		<g id="XMLID_223_">
			<g id="XMLID_227_">
				<path id="XMLID_228_" class="st1" d="M1269.4,728.9c-0.2,0.9-2.7,0.9-5.4-0.5c-2.6-1.4-4-3.5-3.4-4.1c0.6-0.7,2.7,0.1,4.9,1.3
					C1267.9,726.7,1269.7,728,1269.4,728.9z"/>
			</g>
		</g>
	</g>
	<g id="XMLID_158_">
		<g id="XMLID_231_">
			<g id="XMLID_235_">
				<path id="XMLID_236_" class="st1" d="M1256.2,754.7c-0.2,0-0.5-0.5-0.6-1.7c-0.1-1.1,0.1-2.8,0.8-4.6c0.7-1.9,2-3.9,3.8-5.8
					c1.8-1.9,3.9-3.6,6.1-5.4c2.2-1.8,4.1-3.5,5.5-5.2c1.4-1.8,2.3-3.6,2.8-5.2c1-3.2,0.2-5.5,0.7-5.6c0.2-0.1,0.7,0.4,1.1,1.4
					c0.4,1,0.7,2.7,0.4,4.7c-0.3,2-1.2,4.3-2.7,6.5c-1.5,2.2-3.6,4.1-5.9,5.9c-2.2,1.8-4.3,3.4-6,5c-1.7,1.6-3,3.2-3.8,4.7
					C1256.7,752.4,1256.7,754.7,1256.2,754.7z"/>
			</g>
		</g>
	</g>
	<g id="XMLID_166_">
		<g id="XMLID_239_">
			<g id="XMLID_243_">
				<path id="XMLID_244_" class="st1" d="M1251.9,753.4c-0.1,0.1-0.5,0.1-1-0.2c-0.4-0.3-1-0.9-1.3-1.8c-0.3-0.9-0.4-2-0.4-3.2
					c0.1-1.2,0.4-2.4,0.8-3.6c0.8-2.4,2.2-4.4,3.3-5.6c1.2-1.2,2.1-1.7,2.5-1.4c0.7,0.6-1.3,3.8-2.7,8c-0.8,2.1-1.2,4-1.3,5.2
					C1251.9,752.2,1252.2,753.1,1251.9,753.4z"/>
			</g>
		</g>
	</g>
	<g id="XMLID_174_">
		<g id="XMLID_247_">
			<g id="XMLID_251_">
				<path id="XMLID_252_" class="st1" d="M1246.8,743.4c-0.4,0-0.8-0.8-0.8-2c0-1.2,0.5-2.8,1.5-4.4c1-1.5,2.4-2.5,3.5-3
					c1.1-0.5,1.9-0.4,2.1,0c0.2,0.4-0.2,1-0.8,1.8c-0.6,0.8-1.4,1.8-2.2,3c-0.8,1.2-1.4,2.3-2,3.1
					C1247.8,742.8,1247.3,743.4,1246.8,743.4z"/>
			</g>
		</g>
	</g>
	<g id="XMLID_182_">
		<g id="XMLID_255_">
			<g id="XMLID_259_">
				<path id="XMLID_260_" class="st1" d="M1368.3,702.5c-0.1-0.1,0.1-0.5,0.4-1.3c0.4-0.8,1-1.9,1.6-3.5c1.4-3,3.1-7.5,4.3-13.2
					c1.2-5.7,1.7-12.8,0.5-20.4c-0.6-3.8-1.6-7.7-3.1-11.6c-1.5-3.9-3.6-7.7-6-11.5c-4.9-7.5-10.6-14.1-15.5-20.2
					c-5-6.1-9.6-11.5-13.7-15.7c-8.2-8.6-14.4-12.7-14.1-13.1c0.1-0.2,1.8,0.6,4.6,2.5c2.8,1.9,6.7,4.8,11.1,9
					c4.4,4.1,9.2,9.4,14.4,15.5c2.6,3,5.2,6.2,8,9.5c2.7,3.4,5.5,6.9,8,10.8c2.5,3.9,4.7,7.9,6.2,12.1c1.6,4.1,2.6,8.3,3.1,12.3
					c1,8.1,0.3,15.4-1.3,21.3c-1.5,5.9-3.7,10.4-5.4,13.3c-0.8,1.5-1.6,2.5-2.2,3.2C1368.7,702.2,1368.4,702.6,1368.3,702.5z"/>
			</g>
		</g>
	</g>
	<g id="XMLID_190_">
		<g id="XMLID_263_">
			<g id="XMLID_267_">
				<path id="XMLID_268_" class="st1" d="M1367.5,783c-0.2,0-0.3-2.3-0.2-6.3c0-1,0.1-2.1,0.1-3.3c0-1.2,0-2.6,0-4
					c0-2.9,0.1-6.1,0-9.7c0-1.8-0.1-3.7-0.1-5.6c0-2-0.2-4-0.3-6.1c-0.1-4.2-0.5-8.7-0.9-13.4c-0.9-9.4-2.2-19.8-4.1-30.6
					c-2-10.8-4.5-20.9-7-30c-1.4-4.5-2.6-8.9-4-12.9c-0.7-2-1.3-3.9-1.9-5.8c-0.7-1.8-1.3-3.6-1.9-5.3c-1.2-3.4-2.4-6.4-3.4-9.1
					c-0.5-1.3-1-2.6-1.4-3.7c-0.5-1.1-0.9-2.2-1.3-3.1c-1.5-3.7-2.3-5.8-2.1-5.9c0.2-0.1,1.3,1.8,3.2,5.4c0.5,0.9,1,1.9,1.5,3
					c0.5,1.1,1.1,2.3,1.7,3.6c1.2,2.6,2.6,5.6,3.9,8.9c0.7,1.7,1.4,3.4,2.1,5.3c0.7,1.8,1.4,3.8,2.1,5.8c1.5,4,2.8,8.3,4.3,12.9
					c2.7,9.2,5.3,19.4,7.4,30.3c2,10.9,3.2,21.4,3.9,30.9c0.3,4.8,0.6,9.3,0.6,13.6c0,2.1,0.1,4.2,0.1,6.2c0,2-0.1,3.9-0.1,5.7
					c0,3.6-0.3,6.9-0.5,9.7c-0.1,1.4-0.2,2.8-0.3,4c-0.1,1.2-0.3,2.3-0.4,3.3C1368.1,780.8,1367.7,783,1367.5,783z"/>
			</g>
		</g>
	</g>
	<g id="XMLID_198_">
		<g id="XMLID_271_">
			<g id="XMLID_275_">
				<path id="XMLID_276_" class="st1" d="M1258.6,701.6c-0.9,0-1.5-6.3-2-13.9c-0.5-7.7-0.8-13.9,0.1-14.1c0.9-0.2,2.6,6,3.2,13.8
					C1260.4,695.3,1259.5,701.7,1258.6,701.6z"/>
			</g>
		</g>
	</g>
	<g id="XMLID_206_">
		<g id="XMLID_279_">
			<g id="XMLID_283_">
				<path id="XMLID_284_" class="st1" d="M1287.6,596.7c-0.4,0.3-1.2-0.3-2.4-1c-0.6-0.4-1.3-0.7-2.1-1.1c-0.8-0.3-1.7-0.6-2.7-0.8
					c-1-0.2-1.9-0.3-2.8-0.3c-0.9,0-1.7,0-2.4,0.1c-1.4,0.2-2.3,0.4-2.6,0c-0.2-0.3,0.3-1.3,1.8-2.2c0.8-0.4,1.7-0.8,2.9-1
					c1.1-0.2,2.4-0.2,3.7,0.1c1.3,0.3,2.5,0.8,3.5,1.4c1,0.6,1.7,1.3,2.3,2C1287.8,595.3,1287.9,596.4,1287.6,596.7z"/>
			</g>
		</g>
	</g>
	<g id="XMLID_214_">
		<g id="XMLID_287_">
			<g id="XMLID_291_">
				<path id="XMLID_292_" class="st1" d="M1249.5,794.6c-0.4,0-1-2.4-1.2-6.2c-0.2-3.9-0.1-9.3,0.8-15.2c0.9-5.9,2.4-11.1,3.7-14.7
					c1.4-3.6,2.6-5.7,3-5.6c0.9,0.3-1.8,9.4-3.5,20.8C1250.6,785.1,1250.4,794.5,1249.5,794.6z"/>
			</g>
		</g>
	</g>
	<g id="XMLID_222_">
		<g id="XMLID_295_">
			<g id="XMLID_299_">
				<path id="XMLID_300_" class="st1" d="M1365.5,783.3c0.2,0.1-0.6,1.8-2.5,4.4c-2,2.6-5.2,6.1-10,9.5c-4.8,3.4-11.1,6.7-18.5,8.9
					c-7.4,2.3-15.9,3.5-24.7,4c-4.4,0.3-8.7,0.3-12.9,0.3c-4.2,0-8.2-0.1-12.1-0.5c-7.8-0.8-14.5-3.3-19.7-6
					c-5.2-2.7-9.1-5.4-11.7-7.3c-2.6-2-3.9-3.2-3.7-3.4c0.1-0.2,1.7,0.7,4.5,2.3c2.8,1.6,6.8,4,11.9,6.3c5.2,2.3,11.6,4.5,19,5.1
					c3.7,0.3,7.7,0.4,11.8,0.3c4.1,0,8.4-0.1,12.7-0.4c8.7-0.5,16.9-1.6,24.1-3.7c7.2-2,13.3-4.9,18.1-7.9c4.8-3,8.1-6.2,10.4-8.5
					C1364.2,784.6,1365.3,783.2,1365.5,783.3z"/>
			</g>
		</g>
	</g>
	<g id="XMLID_230_">
		<g id="XMLID_303_">
			<g id="XMLID_307_">
				<path id="XMLID_308_" class="st1" d="M1281.5,1096.8c-0.1,0-0.4-1-0.8-3c-0.4-2-0.9-4.9-1.6-8.6c-0.7-3.7-1.4-8.3-2.3-13.7
					c-0.8-5.3-1.8-11.4-2.7-18.1c-1-6.7-2-14.1-3-22c-1.1-7.9-2.1-16.4-3.2-25.3c-2.1-17.8-4.1-37.5-6-58.1
					c-1.8-20.7-3.2-40.4-4.3-58.3c-0.5-9-1-17.5-1.3-25.5c-0.4-8-0.6-15.4-0.9-22.2c-0.2-6.8-0.4-12.9-0.5-18.3
					c-0.1-5.4-0.2-10-0.2-13.8c0-3.8,0-6.7,0.1-8.7c0.1-2,0.1-3.1,0.2-3.1c0.1,0,0.3,1,0.4,3c0.2,2,0.3,4.9,0.5,8.7
					c0.4,7.6,1,18.6,1.7,32.1c0.4,6.8,0.8,14.2,1.2,22.2c0.4,8,1,16.5,1.6,25.4c1.2,17.9,2.7,37.6,4.5,58.2
					c1.8,20.6,3.8,40.2,5.7,58.1c1,8.9,1.9,17.4,2.9,25.3c0.9,7.9,1.8,15.3,2.6,22c1.7,13.5,3,24.4,4,31.9c0.5,3.8,0.8,6.7,1,8.7
					C1281.6,1095.7,1281.7,1096.7,1281.5,1096.8z"/>
			</g>
		</g>
	</g>
	<g id="XMLID_238_">
		<g id="XMLID_311_">
			<g id="XMLID_315_">
				<path id="XMLID_316_" class="st1" d="M1325.9,852.4c-0.9-0.2,0.4-8.1,4-17.2c3.6-9.1,8.1-15.7,8.9-15.3
					c0.8,0.4-2.3,7.6-5.8,16.5C1329.4,845.2,1326.8,852.6,1325.9,852.4z"/>
			</g>
		</g>
	</g>
	<g id="XMLID_246_">
		<g id="XMLID_319_">
			<g id="XMLID_323_">
				<path id="XMLID_324_" class="st1" d="M1330.1,1085.4c-0.2,0-0.6-3.4-1.2-9.5c-0.5-6.1-1.2-15-1.9-25.9
					c-1.5-21.9-3.2-52.2-4-85.7c-0.4-16.8-0.5-32.7-0.3-47.3c0.1-7.3,0.2-14.2,0.5-20.6c0.1-3.2,0.2-6.3,0.3-9.3
					c0.1-3,0.3-5.9,0.4-8.6c0.2-5.5,0.6-10.4,0.9-14.8c0.2-2.2,0.3-4.2,0.4-6.1c0.2-1.9,0.3-3.6,0.5-5.1c0.6-6.1,1-9.5,1.3-9.5
					c0.2,0,0.2,3.4,0,9.6c-0.1,1.5-0.1,3.2-0.2,5.1c-0.1,1.9-0.1,3.9-0.2,6.1c-0.1,4.4-0.3,9.3-0.4,14.8c-0.1,2.7-0.1,5.6-0.2,8.6
					c0,3-0.1,6.1-0.1,9.3c-0.1,6.4-0.1,13.3-0.2,20.6c0,14.5,0.2,30.4,0.6,47.2c0.8,33.5,2.2,63.8,3.1,85.7c0.4,11,0.8,19.8,0.9,26
					C1330.4,1082,1330.3,1085.4,1330.1,1085.4z"/>
			</g>
		</g>
	</g>
	<g id="XMLID_254_">
		<g id="XMLID_327_">
			<g id="XMLID_331_">
				<path id="XMLID_332_" class="st1" d="M1331,1084.4c0.2,0,0.3,0.9,0,2.6c-0.3,1.6-1,3.9-2.6,6.4c-1.5,2.5-3.9,5.2-7.1,7.5
					c-3.2,2.3-7.3,4-11.7,4.8c-8.8,1.6-17.1-0.1-22.3-2.9c-2.6-1.4-4.4-2.9-5.5-4.1c-1.1-1.2-1.5-2-1.3-2.2c0.4-0.4,2.8,2.2,7.8,4.2
					c2.5,1,5.6,1.8,9.2,2.2c3.5,0.4,7.5,0.3,11.5-0.4c4-0.7,7.7-2.2,10.6-4.1c3-1.9,5.2-4.2,6.9-6.3
					C1329.8,1087.7,1330.5,1084.2,1331,1084.4z"/>
			</g>
		</g>
	</g>
	<g id="XMLID_262_">
		<g id="XMLID_335_">
			<g id="XMLID_339_">
				<path id="XMLID_340_" class="st1" d="M1396.6,1078.1c-0.1,0-0.4-1-0.7-2.9c-0.4-1.9-0.9-4.7-1.5-8.3c-1.2-7.2-2.8-17.8-4.7-30.8
					c-3.8-26-8.7-62-13.4-101.8c-4.8-39.8-8.5-75.9-10.9-102.1c-1.2-13.1-2.1-23.7-2.6-31c-0.3-3.7-0.4-6.5-0.5-8.4
					c-0.1-1.9-0.1-3,0-3c0.1,0,0.3,1,0.6,2.9c0.3,1.9,0.7,4.7,1.1,8.4c0.9,7.3,2.2,17.8,3.7,30.9c3,26.1,7.1,62.1,11.9,101.9
					c4.8,39.8,9.3,75.8,12.5,101.9c1.6,13,2.9,23.6,3.7,30.9c0.4,3.7,0.7,6.5,0.9,8.4C1396.7,1077,1396.7,1078.1,1396.6,1078.1z"/>
			</g>
		</g>
	</g>
	<g id="XMLID_270_">
		<g id="XMLID_343_">
			<g id="XMLID_347_">
				<path id="XMLID_348_" class="st1" d="M1350.2,1085.9c-0.9,0.2-7.4-28.9-14.5-65c-7.1-36-12.2-65.4-11.3-65.6
					c0.9-0.2,7.4,28.9,14.5,65C1346,1056.3,1351,1085.7,1350.2,1085.9z"/>
			</g>
		</g>
	</g>
	<g id="XMLID_278_">
		<g id="XMLID_351_">
			<g id="XMLID_355_">
				<path id="XMLID_356_" class="st1" d="M1396.5,1076.1c0.2,0,0.3,0.9,0,2.4c-0.3,1.5-1.1,3.6-2.6,5.8c-1.5,2.2-3.8,4.6-6.8,6.6
					c-3,2-6.7,3.6-10.7,4.4c-4.1,0.8-8.1,0.8-11.6,0.2c-1.8-0.3-3.4-0.7-4.9-1.3c-1.5-0.5-2.9-1.2-4-1.9c-2.4-1.4-3.9-3.2-4.6-4.5
					c-0.7-1.4-0.8-2.3-0.6-2.3c0.2-0.1,0.7,0.6,1.6,1.6c0.9,1,2.5,2.2,4.7,3.2c4.4,2,11.4,3.4,18.8,1.8c3.7-0.7,7-2.1,9.8-3.7
					c2.8-1.6,5-3.6,6.6-5.4C1395.3,1079.2,1396,1076,1396.5,1076.1z"/>
			</g>
		</g>
	</g>
	<g id="XMLID_286_">
		<g id="XMLID_359_">
			<g id="XMLID_363_">
				<path id="XMLID_364_" class="st1" d="M1295.9,1125.6c-0.9,0-1.4-4.9-1.7-10.9c-0.3-6-0.3-10.9,0.6-11c0.9-0.1,2.3,4.7,2.6,10.9
					C1297.7,1120.7,1296.8,1125.6,1295.9,1125.6z"/>
			</g>
		</g>
	</g>
	<g id="XMLID_294_">
		<g id="XMLID_367_">
			<g id="XMLID_371_">
				<path id="XMLID_372_" class="st1" d="M1317.8,1140.3c0.1,0.4-6.6,2.1-17.7,4c-5.5,0.9-12.1,1.8-19.5,2.6
					c-3.7,0.4-7.6,0.7-11.6,1c-4,0.3-8.2,0.5-12.6,0.3c-1.6-0.1-3.1-0.2-4.6-0.3l-1.1-0.1c-0.4,0-0.9-0.1-1.3-0.3
					c-1.3-0.3-2.4-1.2-2.7-2.4c-0.2-0.8-0.1-1.6,0.2-2.3c0.2-0.4,0.3-0.6,0.4-0.9c0.1-0.2,0.2-0.4,0.3-0.7c0.5-0.9,1-1.7,1.6-2.5
					c1.2-1.6,2.5-2.9,4-4.1c1.5-1.2,3.1-2.1,4.8-2.8c1.6-0.7,3.3-1.2,4.9-1.6c6.3-1.4,11.8-2.6,16.4-3.5c9.3-1.9,14.9-2.9,15-2.5
					s-5.4,2.1-14.6,4.5c-4.6,1.2-10.1,2.6-16.2,4.2c-3,0.8-5.9,1.9-8.4,4c-1.3,1-2.4,2.2-3.4,3.5c-0.5,0.7-0.9,1.4-1.3,2.1
					c-0.1,0.2-0.2,0.4-0.3,0.6c-0.1,0.2-0.2,0.4-0.2,0.4c0,0.1-0.1,0.2,0,0.3c0,0.2,0.2,0.3,0.4,0.3c0.2,0.1,0.5,0.1,0.8,0.1
					l1.1,0.1c1.4,0.1,2.9,0.2,4.4,0.3c4.2,0.1,8.3,0,12.3-0.3c4-0.2,7.9-0.5,11.5-0.8c7.3-0.6,13.9-1.3,19.5-1.9
					C1310.9,1140.8,1317.7,1139.9,1317.8,1140.3z"/>
			</g>
		</g>
	</g>
	<g id="XMLID_302_">
		<g id="XMLID_375_">
			<g id="XMLID_379_">
				<path id="XMLID_380_" class="st1" d="M1317.1,1141.5c-0.9,0.1-2.6-9.1-3.3-20.5c-0.7-11.4-0.3-20.7,0.6-20.7
					c0.9,0,1.9,9.2,2.6,20.5C1317.8,1132.2,1318,1141.4,1317.1,1141.5z"/>
			</g>
		</g>
	</g>
	<g id="XMLID_310_">
		<g id="XMLID_383_">
			<g id="XMLID_387_">
				<path id="XMLID_388_" class="st1" d="M1365.3,1111.3c-0.9,0.2-2.3-3.7-2.4-8.8c-0.1-5,1.2-9,2.1-8.8c0.9,0.1,1.1,4,1.2,8.8
					C1366.3,1107.2,1366.2,1111.1,1365.3,1111.3z"/>
			</g>
		</g>
	</g>
	<g id="XMLID_318_">
		<g id="XMLID_391_">
			<g id="XMLID_395_">
				<path id="XMLID_396_" class="st1" d="M1389.4,1122.8c0,0,0.2,0,0.2,0.3c0.1,0.2-0.1,0.6-0.4,0.9c-0.3,0.3-0.7,0.5-1.3,0.7
					c-0.5,0.1-1.1,0.2-1.7,0.3c-2.6,0.5-6.4,1-11,1.7c-9.3,1.3-22.2,2.8-36.5,4.3c-1.8,0.2-3.7,0.3-5.7,0c-1-0.1-2-0.4-2.9-0.8
					c-0.5-0.2-1-0.5-1.4-0.8c-0.2-0.2-0.4-0.3-0.6-0.5c-0.3-0.3-0.6-0.5-0.8-0.8c-0.2-0.3-0.4-0.6-0.6-0.9l-0.3-0.5l-0.1-0.2
					c-0.1-0.1-0.1-0.2,0-0.2c0.3-0.6,0.6-1.3,1-1.8l0.3-0.4l0.1-0.2l0.1-0.1l0.4-0.5c0.3-0.3,0.6-0.7,0.9-1c1.3-1.3,2.7-2.2,4.1-3.1
					c2.9-1.6,5.7-2.7,8.3-3.6c2.6-1,5.1-1.8,7.4-2.4c9.1-2.6,15-3.2,15.1-2.8c0.1,0.5-5.6,1.8-14.3,5c-2.2,0.8-4.6,1.7-7.1,2.8
					c-2.5,1.1-5.2,2.2-7.7,3.7c-1.3,0.8-2.4,1.6-3.5,2.7c-0.3,0.3-0.5,0.5-0.7,0.8l-0.3,0.4l-0.1,0.1l0,0.1l-0.1,0.1
					c-0.1,0.1-0.1,0.2-0.2,0.3c0,0.1,0.1,0.2,0.2,0.3c0,0,0.1,0.1,0.1,0.1c0.1,0.1,0.2,0.2,0.4,0.3c0.2,0.2,0.5,0.3,0.8,0.5
					c0.6,0.3,1.3,0.4,2.1,0.5c1.5,0.2,3.2,0.1,4.9-0.1c14.3-1.5,27.2-2.6,36.6-3.3c4.7-0.3,8.5-0.6,11.1-0.6c0.7,0,1.2,0,1.7,0
					c0.4,0,0.8-0.1,1.1-0.2C1389.4,1123.2,1389.3,1122.8,1389.4,1122.8z"/>
			</g>
		</g>
	</g>
	<g id="XMLID_326_">
		<g id="XMLID_399_">
			<g id="XMLID_403_">
				<path id="XMLID_404_" class="st1" d="M1389.1,1120c-0.9,0.2-2.9-6.6-3-15.3c-0.1-8.7,1.8-15.6,2.7-15.4c0.9,0.2,0.5,7,0.6,15.4
					C1389.4,1113,1390,1119.9,1389.1,1120z"/>
			</g>
		</g>
	</g>
</g>
</svg>
